<svg id="expanded" xmlns="http://www.w3.org/2000/svg" viewBox="0 0 32 32"><defs><style>.cls-1{fill:#4d4c4c;}.cls-2{fill:#54a4da;}</style></defs><title>bike</title><path class="cls-1" d="M6,25.69a5.89,5.89,0,1,1,5.89-5.89A5.89,5.89,0,0,1,6,25.69ZM6,15.16a4.64,4.64,0,1,0,4.64,4.64A4.64,4.64,0,0,0,6,15.16Z"/><path class="cls-1" d="M26,25.69a5.89,5.89,0,1,1,5.89-5.89A5.89,5.89,0,0,1,26,25.69Zm0-10.53a4.64,4.64,0,1,0,4.64,4.64A4.64,4.64,0,0,0,26,15.16Z"/><path class="cls-1" d="M26,20.3A.5.5,0,0,1,25.5,20l-4-8.26a.5.5,0,1,1,.9-.43l4,8.26a.5.5,0,0,1-.23.67A.49.49,0,0,1,26,20.3Z"/><path class="cls-1" d="M6,20.3a.5.5,0,0,1-.42-.76l5.13-8.26a.5.5,0,0,1,.85.53L6.47,20.06A.5.5,0,0,1,6,20.3Z"/><path class="cls-1" d="M26,20.3A.5.5,0,0,1,25.5,20l-3.85-8H11.45l-5,8a.5.5,0,1,1-.85-.53l5.13-8.26a.5.5,0,0,1,.42-.24H22a.5.5,0,0,1,.45.28l4,8.26a.5.5,0,0,1-.23.67A.49.49,0,0,1,26,20.3Z"/><path class="cls-1" d="M13.08,20.3H11.31a.5.5,0,1,1,0-1h1.77a.5.5,0,1,1,0,1Z"/><path class="cls-1" d="M14,18.94a.5.5,0,0,1-.46-.3L9.72,9.56a.5.5,0,0,1,.92-.39l3.85,9.07a.5.5,0,0,1-.27.66A.49.49,0,0,1,14,18.94Z"/><path class="cls-1" d="M15.86,19.18a.5.5,0,0,1-.38-.83l5.94-6.93a16.17,16.17,0,0,0-1.56-4H16.54a.5.5,0,0,1,0-1h3.4c.29-.05,1.06-.17,2.51,4.94l.07.26L16.24,19A.5.5,0,0,1,15.86,19.18ZM19.92,7.46h0Z"/><path class="cls-2" d="M14.76,22.15A2.19,2.19,0,1,1,17,20,2.19,2.19,0,0,1,14.76,22.15Zm0-3.38A1.19,1.19,0,1,0,16,20,1.19,1.19,0,0,0,14.76,18.77Z"/><path class="cls-2" d="M14.74,9.86H6.62l0-.54c0-.33.2-2,.93-2.61a1,1,0,0,1,.77-.24s4.66.71,5.22,1.37a8.12,8.12,0,0,1,.8,1.3Zm-7-1h5.35a3.18,3.18,0,0,0-.26-.37,27.35,27.35,0,0,0-4.57-1A2.57,2.57,0,0,0,7.73,8.86Z"/><path class="cls-1" d="M6,25.69a5.89,5.89,0,1,1,5.89-5.89A5.89,5.89,0,0,1,6,25.69ZM6,15.16a4.64,4.64,0,1,0,4.64,4.64A4.64,4.64,0,0,0,6,15.16Z"/><path class="cls-1" d="M26,25.69a5.89,5.89,0,1,1,5.89-5.89A5.89,5.89,0,0,1,26,25.69Zm0-10.53a4.64,4.64,0,1,0,4.64,4.64A4.64,4.64,0,0,0,26,15.16Z"/><path class="cls-1" d="M26,20.3A.5.5,0,0,1,25.5,20l-4-8.26a.5.5,0,1,1,.9-.43l4,8.26a.5.5,0,0,1-.23.67A.49.49,0,0,1,26,20.3Z"/><path class="cls-1" d="M6,20.3a.5.5,0,0,1-.42-.76l5.13-8.26a.5.5,0,0,1,.85.53L6.47,20.06A.5.5,0,0,1,6,20.3Z"/><path class="cls-1" d="M26,20.3A.5.5,0,0,1,25.5,20l-3.85-8H11.45l-5,8a.5.5,0,1,1-.85-.53l5.13-8.26a.5.5,0,0,1,.42-.24H22a.5.5,0,0,1,.45.28l4,8.26a.5.5,0,0,1-.23.67A.49.49,0,0,1,26,20.3Z"/><path class="cls-1" d="M13.08,20.3H11.31a.5.5,0,1,1,0-1h1.77a.5.5,0,1,1,0,1Z"/><path class="cls-1" d="M14,18.94a.5.5,0,0,1-.46-.3L9.72,9.56a.5.5,0,0,1,.92-.39l3.85,9.07a.5.5,0,0,1-.27.66A.49.49,0,0,1,14,18.94Z"/><path class="cls-1" d="M15.86,19.18a.5.5,0,0,1-.38-.83l5.94-6.93a16.17,16.17,0,0,0-1.56-4H16.54a.5.5,0,0,1,0-1h3.4c.29-.05,1.06-.17,2.51,4.94l.07.26L16.24,19A.5.5,0,0,1,15.86,19.18ZM19.92,7.46h0Z"/><path class="cls-2" d="M14.76,22.15A2.19,2.19,0,1,1,17,20,2.19,2.19,0,0,1,14.76,22.15Zm0-3.38A1.19,1.19,0,1,0,16,20,1.19,1.19,0,0,0,14.76,18.77Z"/><path class="cls-2" d="M14.74,9.86H6.62l0-.54c0-.33.2-2,.93-2.61a1,1,0,0,1,.77-.24s4.66.71,5.22,1.37a8.12,8.12,0,0,1,.8,1.3Zm-7-1h5.35a3.18,3.18,0,0,0-.26-.37,27.35,27.35,0,0,0-4.57-1A2.57,2.57,0,0,0,7.73,8.86Z"/></svg>