<?xml version="1.0" encoding="utf-8"?>
<!-- Generator: Adobe Illustrator 19.2.1, SVG Export Plug-In . SVG Version: 6.00 Build 0)  -->
<svg version="1.1" id="Layer_1" xmlns="http://www.w3.org/2000/svg" xmlns:xlink="http://www.w3.org/1999/xlink" x="0px" y="0px"
	 viewBox="0 0 30.9 33.2" style="enable-background:new 0 0 30.9 33.2;" xml:space="preserve">
<style type="text/css">
	.st0{fill:#56A4D9;}
	.st1{fill:#4C4C4C;}
</style>
<g>
	<g>
		<path class="st0" d="M19.9,25.3c-0.2,0-0.3-0.1-0.4-0.2l-3.7-5.7c-0.2-0.2-0.1-0.5,0.1-0.7c0.2-0.2,0.5-0.1,0.7,0.1l3.7,5.7
			c0.2,0.2,0.1,0.5-0.1,0.7C20.1,25.3,20,25.3,19.9,25.3z M15.5,17c-0.3,0-0.5-0.2-0.5-0.5V6.9c0-0.3,0.2-0.5,0.5-0.5S16,6.7,16,6.9
			v9.6C16,16.8,15.8,17,15.5,17z"/>
	</g>
	<g>
		<path class="st0" d="M15.5,19.5c-1,0-1.8-0.8-1.8-1.8s0.8-1.8,1.8-1.8s1.8,0.8,1.8,1.8S16.4,19.5,15.5,19.5z M15.5,17
			c-0.4,0-0.8,0.3-0.8,0.8s0.3,0.8,0.8,0.8s0.8-0.3,0.8-0.8S15.9,17,15.5,17z M17.4,3.6h-3.9c-0.2,0-0.4-0.2-0.5-0.4l-0.6-2.6
			c0-0.1,0-0.3,0.1-0.4C12.6,0.1,12.8,0,12.9,0h5c0.2,0,0.3,0.1,0.4,0.2c0.1,0.1,0.1,0.3,0.1,0.4l-0.6,2.6
			C17.8,3.4,17.6,3.6,17.4,3.6z M13.9,2.6H17L17.3,1h-3.8L13.9,2.6z"/>
	</g>
	<g>
		<path class="st1" d="M15.5,33.2C6.9,33.2,0,26.3,0,17.8C0,9.3,6.9,2.3,15.5,2.3s15.5,6.9,15.5,15.4C30.9,26.3,24,33.2,15.5,33.2z
			 M15.5,3.8c-7.7,0-14,6.3-14,13.9c0,7.7,6.3,14,14,14s14-6.3,14-14C29.4,10.1,23.1,3.8,15.5,3.8z"/>
	</g>
</g>
</svg>
