<svg id="expanded" xmlns="http://www.w3.org/2000/svg" viewBox="0 0 32 32"><defs><style>.cls-1{fill:#4d4c4c;}</style></defs><title>bolt</title><path class="cls-1" d="M9.12,31.88a.75.75,0,0,1-.68-1.06l6.08-13.4H5.63A.75.75,0,0,1,5,16.33L12.7.55a.75.75,0,0,1,.68-.42h9.35a.75.75,0,0,1,.64,1.15l-6,9.45h9A.75.75,0,0,1,27,12L9.69,31.62A.75.75,0,0,1,9.12,31.88Zm-2.28-16h8.84A.75.75,0,0,1,16.36,17l-4.48,9.88L24.76,12.23H16a.75.75,0,0,1-.64-1.15l6-9.45H13.84Z"/><path class="cls-1" d="M9.12,31.88a.75.75,0,0,1-.68-1.06l6.08-13.4H5.63A.75.75,0,0,1,5,16.33L12.7.55a.75.75,0,0,1,.68-.42h9.35a.75.75,0,0,1,.64,1.15l-6,9.45h9A.75.75,0,0,1,27,12L9.69,31.62A.75.75,0,0,1,9.12,31.88Zm-2.28-16h8.84A.75.75,0,0,1,16.36,17l-4.48,9.88L24.76,12.23H16a.75.75,0,0,1-.64-1.15l6-9.45H13.84Z"/></svg>