<svg id="expanded" xmlns="http://www.w3.org/2000/svg" viewBox="0 0 32 32"><defs><style>.cls-1{fill:#4d4c4c;}</style></defs><title>bolt3</title><path class="cls-1" d="M12.06,31.88a.75.75,0,0,1-.73-.91L14,18.88H6.8a.75.75,0,0,1-.61-1.18L18.42.44A.75.75,0,0,1,19.76,1L16.91,13.12h8.3a.75.75,0,0,1,.6,1.21L12.65,31.58A.75.75,0,0,1,12.06,31.88ZM8.25,17.38H15a.75.75,0,0,1,.73.91l-2.16,9.66L23.7,14.62H16a.75.75,0,0,1-.73-.92l2.18-9.25Z"/><path class="cls-1" d="M12.06,31.88a.75.75,0,0,1-.73-.91L14,18.88H6.8a.75.75,0,0,1-.61-1.18L18.42.44A.75.75,0,0,1,19.76,1L16.91,13.12h8.3a.75.75,0,0,1,.6,1.21L12.65,31.58A.75.75,0,0,1,12.06,31.88ZM8.25,17.38H15a.75.75,0,0,1,.73.91l-2.16,9.66L23.7,14.62H16a.75.75,0,0,1-.73-.92l2.18-9.25Z"/></svg>