<svg id="expanded" xmlns="http://www.w3.org/2000/svg" viewBox="0 0 32 32"><defs><style>.cls-1{fill:#54a4da;}.cls-2{fill:#4d4c4c;}</style></defs><title>box</title><path class="cls-1" d="M13,23.77h-.07L8.2,23.1a.5.5,0,1,1,.14-1l4.73.66a.5.5,0,0,1-.07,1Z"/><path class="cls-1" d="M19.69,22.19A.75.75,0,0,1,19.11,21l3-3.6a.75.75,0,0,1,.56-.27.79.79,0,0,1,.57.25l2.88,3.18a.75.75,0,0,1-1.11,1L22.68,19l-2.41,2.93A.75.75,0,0,1,19.69,22.19Z"/><path class="cls-2" d="M15.39,28h-.13L3.9,26a.75.75,0,0,1-.62-.74V13.65h1.5V24.59l9.85,1.77V4.75h1.5v22.5a.75.75,0,0,1-.75.75Z"/><path class="cls-2" d="M15.39,28a.75.75,0,0,1-.75-.75V4.75h1.5V26.37l11.53-1.8V13.43h1.5V25.21a.75.75,0,0,1-.63.74l-13,2Z"/><path class="cls-2" d="M1,14.4a.75.75,0,0,1-.69-1.05l3-6.87A.75.75,0,0,1,3.9,6L15.25,4h.26l13,2a.75.75,0,0,1,.58.47l2.59,6.74a.75.75,0,0,1-.09.71.72.72,0,0,1-.64.31l-11.62-.43a.75.75,0,0,1-.65-.43l-3.3-6.9-3.21,7a.75.75,0,0,1-.65.44L1,14.4Zm3.56-7-2.39,5.4L11,12.5l3.09-6.76Zm15.3,4.92,10,.37-2-5.28L16.68,5.71Z"/><path class="cls-1" d="M13,23.77h-.07L8.2,23.1a.5.5,0,1,1,.14-1l4.73.66a.5.5,0,0,1-.07,1Z"/><path class="cls-1" d="M19.69,22.19A.75.75,0,0,1,19.11,21l3-3.6a.75.75,0,0,1,.56-.27.79.79,0,0,1,.57.25l2.88,3.18a.75.75,0,0,1-1.11,1L22.68,19l-2.41,2.93A.75.75,0,0,1,19.69,22.19Z"/><path class="cls-2" d="M15.39,28h-.13L3.9,26a.75.75,0,0,1-.62-.74V13.65h1.5V24.59l9.85,1.77V4.75h1.5v22.5a.75.75,0,0,1-.75.75Z"/><path class="cls-2" d="M15.39,28a.75.75,0,0,1-.75-.75V4.75h1.5V26.37l11.53-1.8V13.43h1.5V25.21a.75.75,0,0,1-.63.74l-13,2Z"/><path class="cls-2" d="M1,14.4a.75.75,0,0,1-.69-1.05l3-6.87A.75.75,0,0,1,3.9,6L15.25,4h.26l13,2a.75.75,0,0,1,.58.47l2.59,6.74a.75.75,0,0,1-.09.71.72.72,0,0,1-.64.31l-11.62-.43a.75.75,0,0,1-.65-.43l-3.3-6.9-3.21,7a.75.75,0,0,1-.65.44L1,14.4Zm3.56-7-2.39,5.4L11,12.5l3.09-6.76Zm15.3,4.92,10,.37-2-5.28L16.68,5.71Z"/></svg>