<svg id="expanded_thinner" data-name="expanded thinner" xmlns="http://www.w3.org/2000/svg" viewBox="0 0 32 32"><defs><style>.cls-1{fill:#54a4da;}.cls-2{fill:#4c4c4c;}</style></defs><title>box_closed</title><rect class="cls-1" x="8.29" y="7.53" width="15.19" height="1" transform="translate(-1.89 8.9) rotate(-29.62)"/><polygon class="cls-2" points="16.91 31 15.4 31 15.4 15.94 2.05 8.73 2.76 7.41 16.91 15.05 16.91 31"/><path class="cls-2" d="M16.22,31.83l-.34-.13c-.07,0-.26-.1-13.85-8l-.37-.22V8.59a1.61,1.61,0,0,1,.89-1.44l13.83-7,13.12,7a1.61,1.61,0,0,1,.86,1.42v14.9ZM3.16,22.63c4.74,2.75,11.39,6.6,13,7.51l12.7-7.51v-14a.11.11,0,0,0-.06-.1L16.35,1.85,3.22,8.5a.11.11,0,0,0-.07.1Z"/><polygon class="cls-2" points="16.91 31 15.4 31 15.4 15.05 29.23 7.41 29.96 8.72 16.91 15.94 16.91 31"/><rect class="cls-1" x="8.29" y="7.53" width="15.19" height="1" transform="translate(-1.89 8.9) rotate(-29.62)"/><polygon class="cls-2" points="16.91 31 15.4 31 15.4 15.94 2.05 8.73 2.76 7.41 16.91 15.05 16.91 31"/><path class="cls-2" d="M16.22,31.83l-.34-.13c-.07,0-.26-.1-13.85-8l-.37-.22V8.59a1.61,1.61,0,0,1,.89-1.44l13.83-7,13.12,7a1.61,1.61,0,0,1,.86,1.42v14.9ZM3.16,22.63c4.74,2.75,11.39,6.6,13,7.51l12.7-7.51v-14a.11.11,0,0,0-.06-.1L16.35,1.85,3.22,8.5a.11.11,0,0,0-.07.1Z"/><polygon class="cls-2" points="16.91 31 15.4 31 15.4 15.05 29.23 7.41 29.96 8.72 16.91 15.94 16.91 31"/></svg>