<svg id="expanded" xmlns="http://www.w3.org/2000/svg" viewBox="0 0 32 32"><defs><style>.cls-1{fill:#4d4c4c;}.cls-2{fill:#54a4da;}</style></defs><title>cabinet</title><path class="cls-1" d="M24.46,1.83V30.17H7.54V1.83H24.46m.7-1.58H6.84A.89.89,0,0,0,6,1.14V30.86a.89.89,0,0,0,.89.89H25.16a.89.89,0,0,0,.89-.89V1.14a.89.89,0,0,0-.89-.89Z"/><path class="cls-2" d="M10.28,11.76a1.13,1.13,0,0,1-.8-.32,1.15,1.15,0,0,1-.33-.8,1.67,1.67,0,0,1,0-.22,1.61,1.61,0,0,1,.07-.21,1.1,1.1,0,0,1,.1-.19,1.26,1.26,0,0,1,.14-.18,1.12,1.12,0,0,1,1-.3.82.82,0,0,1,.21.06l.19.1.17.14a1.2,1.2,0,0,1,.14.18,1.14,1.14,0,0,1,.11.19.81.81,0,0,1,.06.21.84.84,0,0,1,0,.22,1.11,1.11,0,0,1-1.12,1.12Z"/><path class="cls-1" d="M10.28,16.5a.5.5,0,0,1-.5-.5V10.64a.5.5,0,1,1,1,0V16A.5.5,0,0,1,10.28,16.5Z"/><path class="cls-2" d="M21.72,21.7H10.28a.51.51,0,0,1,0-1H21.72a.51.51,0,0,1,0,1Z"/><path class="cls-2" d="M21.72,23.83H10.28a.51.51,0,0,1,0-1H21.72a.51.51,0,1,1,0,1Z"/><path class="cls-2" d="M21.72,26H10.28a.51.51,0,0,1,0-1H21.72a.51.51,0,0,1,0,1Z"/><path class="cls-1" d="M24.46,1.83V30.17H7.54V1.83H24.46m.7-1.58H6.84A.89.89,0,0,0,6,1.14V30.86a.89.89,0,0,0,.89.89H25.16a.89.89,0,0,0,.89-.89V1.14a.89.89,0,0,0-.89-.89Z"/><path class="cls-2" d="M10.28,11.76a1.13,1.13,0,0,1-.8-.32,1.15,1.15,0,0,1-.33-.8,1.67,1.67,0,0,1,0-.22,1.61,1.61,0,0,1,.07-.21,1.1,1.1,0,0,1,.1-.19,1.26,1.26,0,0,1,.14-.18,1.12,1.12,0,0,1,1-.3.82.82,0,0,1,.21.06l.19.1.17.14a1.2,1.2,0,0,1,.14.18,1.14,1.14,0,0,1,.11.19.81.81,0,0,1,.06.21.84.84,0,0,1,0,.22,1.11,1.11,0,0,1-1.12,1.12Z"/><path class="cls-1" d="M10.28,16.5a.5.5,0,0,1-.5-.5V10.64a.5.5,0,1,1,1,0V16A.5.5,0,0,1,10.28,16.5Z"/><path class="cls-2" d="M21.72,21.7H10.28a.51.51,0,0,1,0-1H21.72a.51.51,0,0,1,0,1Z"/><path class="cls-2" d="M21.72,23.83H10.28a.51.51,0,0,1,0-1H21.72a.51.51,0,1,1,0,1Z"/><path class="cls-2" d="M21.72,26H10.28a.51.51,0,0,1,0-1H21.72a.51.51,0,0,1,0,1Z"/></svg>