<svg id="expanded" xmlns="http://www.w3.org/2000/svg" viewBox="0 0 32 32"><defs><style>.cls-1{fill:#54a4da;}.cls-2{fill:#4d4c4c;}</style></defs><title>calendar2</title><path class="cls-1" d="M30.92,9.72H1.08a.5.5,0,0,1,0-1H30.92a.5.5,0,0,1,0,1Z"/><path class="cls-2" d="M28.5,30.75H3.5A2.86,2.86,0,0,1,.33,27.57V6.22A2.86,2.86,0,0,1,3.5,3h25a2.87,2.87,0,0,1,3.18,3.18V27.57A2.87,2.87,0,0,1,28.5,30.75ZM3.5,4.55C2.3,4.55,1.83,5,1.83,6.22V27.57c0,1.21.47,1.68,1.68,1.68h25c1.21,0,1.68-.47,1.68-1.68V6.22c0-1.21-.47-1.68-1.68-1.68Z"/><path class="cls-2" d="M20.89,6.56a.75.75,0,0,1-.75-.75V2a.75.75,0,0,1,1.5,0V5.81A.75.75,0,0,1,20.89,6.56Z"/><path class="cls-2" d="M11.11,6.56a.75.75,0,0,1-.75-.75V2a.75.75,0,0,1,1.5,0V5.81A.75.75,0,0,1,11.11,6.56Z"/><circle class="cls-2" cx="7.64" cy="22.64" r="0.88"/><circle class="cls-2" cx="7.64" cy="14.24" r="0.88"/><circle class="cls-2" cx="11.82" cy="22.64" r="0.88"/><circle class="cls-2" cx="16" cy="22.64" r="0.88"/><path class="cls-2" d="M25.24,14.74H7.64a.5.5,0,0,1,0-1h17.6a.5.5,0,0,1,0,1Z"/><path class="cls-2" d="M25.24,18.94H7.39a.5.5,0,0,1,0-1H25.24a.5.5,0,0,1,0,1Z"/><path class="cls-2" d="M16,23.14H7.64a.5.5,0,0,1,0-1H16a.5.5,0,0,1,0,1Z"/></svg>