<svg id="expanded" xmlns="http://www.w3.org/2000/svg" viewBox="0 0 32 32"><defs><style>.cls-1{fill:#4d4c4c;}.cls-2{fill:#54a4da;}</style></defs><title>car2</title><path class="cls-1" d="M15.8,4.88a22.93,22.93,0,0,1,6.86.8.34.34,0,0,1,.11-.11A.35.35,0,0,1,23,5.5a1.29,1.29,0,0,1,.9.66s1,.93,2.38,5.41l0,0a.27.27,0,0,0,.13.07h0c.08,0,.08-.17.08-.17s0-.18,0-.33,0-.44.26-.57a1.51,1.51,0,0,1,.6-.1,3.43,3.43,0,0,1,1.29.26.84.84,0,0,1,.49.72v.23a.61.61,0,0,1-.47.6l-.87.17-.25,0h0l-.91.08v0l.21.69a3.55,3.55,0,0,1,3.26,3.54L30,19.93,30,21.49a3.39,3.39,0,0,1-.78,2L29.12,26A1.17,1.17,0,0,1,28,27.13h0l-1.15,0a1.45,1.45,0,0,1-1.42-1.45v-.79c-1.64.09-4.86.23-9.36.23-4.73,0-8.05-.15-9.6-.25v.81A1.45,1.45,0,0,1,5,27.1l-1.15,0h0A1.17,1.17,0,0,1,2.64,26l-.07-2.8A3.38,3.38,0,0,1,2,21.49L2,19.93l-.11-3.09a3.55,3.55,0,0,1,2.85-3.48h0l.22-.74v0l-1-.08H4l-.25,0-.87-.17a.61.61,0,0,1-.47-.6v-.23a.84.84,0,0,1,.49-.72,3.43,3.43,0,0,1,1.29-.26,1.51,1.51,0,0,1,.6.1c.25.13.26.55.26.57s0,.33,0,.33,0,.15.08.17h0a.41.41,0,0,0,.18-.11C6.7,7.09,7.74,6.16,7.74,6.16a1.29,1.29,0,0,1,.9-.66.35.35,0,0,1,.2.06.34.34,0,0,1,.1.11,23,23,0,0,1,6.86-.79m0-1.5a27.66,27.66,0,0,0-6.73.68,1.89,1.89,0,0,0-.43,0A2.64,2.64,0,0,0,6.57,5.22,12,12,0,0,0,4.62,9L4.19,9a4.82,4.82,0,0,0-2,.42,2.33,2.33,0,0,0-1.3,2.06v.23a2.13,2.13,0,0,0,.82,1.68A5,5,0,0,0,.37,16.84v.05L.48,20l.05,1.55a4.88,4.88,0,0,0,.54,2.06L1.14,26a2.65,2.65,0,0,0,2.67,2.6h.07L5,28.6A2.94,2.94,0,0,0,7.8,26.41c1.83.08,4.61.17,8.2.17s6.17-.08,8-.16a2.94,2.94,0,0,0,2.78,2.17l1.15,0H28A2.65,2.65,0,0,0,30.62,26l.05-2a4.92,4.92,0,0,0,.79-2.49L31.51,20l.12-3.09v-.06a5,5,0,0,0-1.56-3.64,2.13,2.13,0,0,0,.6-1.48v-.23a2.33,2.33,0,0,0-1.3-2.06,4.82,4.82,0,0,0-2-.42L27,9a12,12,0,0,0-2-3.81A2.64,2.64,0,0,0,23,4a1.89,1.89,0,0,0-.44.05,27.63,27.63,0,0,0-6.73-.68Z"/><path class="cls-2" d="M25,12.37H6.58a.69.69,0,0,1-.64-.93L7.6,7a.87.87,0,0,1,.67-.55A48.41,48.41,0,0,1,16,5.86a39.75,39.75,0,0,1,7.25.61.87.87,0,0,1,.64.53l1.77,4.43a.69.69,0,0,1-.64.94ZM6.87,11.79h0ZM7,11.37H24.56L23,7.44a38.89,38.89,0,0,0-7-.58,47.64,47.64,0,0,0-7.48.59Z"/><path class="cls-2" d="M5,18.21a1.68,1.68,0,0,1-1.69-1.94,2.11,2.11,0,0,1,2.06-1.81A1.68,1.68,0,0,1,7,16.41,2.11,2.11,0,0,1,5,18.21Zm.37-2.74a1.12,1.12,0,0,0-1.07.94h0a.72.72,0,0,0,.16.58.7.7,0,0,0,.54.23A1.12,1.12,0,0,0,6,16.27a.72.72,0,0,0-.16-.58A.7.7,0,0,0,5.34,15.47Z"/><path class="cls-2" d="M26.68,18.21a2.11,2.11,0,0,1-2.06-1.81,1.68,1.68,0,0,1,1.69-1.94,2.11,2.11,0,0,1,2.06,1.81,1.68,1.68,0,0,1-1.69,1.94Zm-.37-2.74a.7.7,0,0,0-.54.23.72.72,0,0,0-.16.58,1.12,1.12,0,0,0,1.07.94.7.7,0,0,0,.54-.23.71.71,0,0,0,.16-.58A1.12,1.12,0,0,0,26.31,15.47Z"/><path class="cls-1" d="M17,16.69H15a.5.5,0,0,1,0-1h2a.5.5,0,0,1,0,1Z"/><path class="cls-1" d="M15.81,20.79A13.87,13.87,0,0,1,10.62,20a2,2,0,0,1-1-.91L6.89,14a.5.5,0,0,1,.88-.48l2.74,5A1,1,0,0,0,11,19a12.86,12.86,0,0,0,4.81.76,11.79,11.79,0,0,0,5-1,1.05,1.05,0,0,0,.48-.5l2.36-4.75a.5.5,0,1,1,.9.45L22.2,18.78a2,2,0,0,1-.94,1A12.81,12.81,0,0,1,15.81,20.79Z"/><path class="cls-1" d="M15.72,23.63a79.36,79.36,0,0,1-11.07-.7.5.5,0,0,1-.42-.57.51.51,0,0,1,.57-.42,78.31,78.31,0,0,0,10.91.68,93.09,93.09,0,0,0,11.49-.68.5.5,0,1,1,.14,1A94.15,94.15,0,0,1,15.72,23.63Z"/><path class="cls-1" d="M15.8,4.88a22.93,22.93,0,0,1,6.86.8.34.34,0,0,1,.11-.11A.35.35,0,0,1,23,5.5a1.29,1.29,0,0,1,.9.66s1,.93,2.38,5.41l0,0a.27.27,0,0,0,.13.07h0c.08,0,.08-.17.08-.17s0-.18,0-.33,0-.44.26-.57a1.51,1.51,0,0,1,.6-.1,3.43,3.43,0,0,1,1.29.26.84.84,0,0,1,.49.72v.23a.61.61,0,0,1-.47.6l-.87.17-.25,0h0l-.91.08v0l.21.69a3.55,3.55,0,0,1,3.26,3.54L30,19.93,30,21.49a3.39,3.39,0,0,1-.78,2L29.12,26A1.17,1.17,0,0,1,28,27.13h0l-1.15,0a1.45,1.45,0,0,1-1.42-1.45v-.79c-1.64.09-4.86.23-9.36.23-4.73,0-8.05-.15-9.6-.25v.81A1.45,1.45,0,0,1,5,27.1l-1.15,0h0A1.17,1.17,0,0,1,2.64,26l-.07-2.8A3.38,3.38,0,0,1,2,21.49L2,19.93l-.11-3.09a3.55,3.55,0,0,1,2.85-3.48h0l.22-.74v0l-1-.08H4l-.25,0-.87-.17a.61.61,0,0,1-.47-.6v-.23a.84.84,0,0,1,.49-.72,3.43,3.43,0,0,1,1.29-.26,1.51,1.51,0,0,1,.6.1c.25.13.26.55.26.57s0,.33,0,.33,0,.15.08.17h0a.41.41,0,0,0,.18-.11C6.7,7.09,7.74,6.16,7.74,6.16a1.29,1.29,0,0,1,.9-.66.35.35,0,0,1,.2.06.34.34,0,0,1,.1.11,23,23,0,0,1,6.86-.79m0-1.5a27.66,27.66,0,0,0-6.73.68,1.89,1.89,0,0,0-.43,0A2.64,2.64,0,0,0,6.57,5.22,12,12,0,0,0,4.62,9L4.19,9a4.82,4.82,0,0,0-2,.42,2.33,2.33,0,0,0-1.3,2.06v.23a2.13,2.13,0,0,0,.82,1.68A5,5,0,0,0,.37,16.84v.05L.48,20l.05,1.55a4.88,4.88,0,0,0,.54,2.06L1.14,26a2.65,2.65,0,0,0,2.67,2.6h.07L5,28.6A2.94,2.94,0,0,0,7.8,26.41c1.83.08,4.61.17,8.2.17s6.17-.08,8-.16a2.94,2.94,0,0,0,2.78,2.17l1.15,0H28A2.65,2.65,0,0,0,30.62,26l.05-2a4.92,4.92,0,0,0,.79-2.49L31.51,20l.12-3.09v-.06a5,5,0,0,0-1.56-3.64,2.13,2.13,0,0,0,.6-1.48v-.23a2.33,2.33,0,0,0-1.3-2.06,4.82,4.82,0,0,0-2-.42L27,9a12,12,0,0,0-2-3.81A2.64,2.64,0,0,0,23,4a1.89,1.89,0,0,0-.44.05,27.63,27.63,0,0,0-6.73-.68Z"/><path class="cls-2" d="M25,12.37H6.58a.69.69,0,0,1-.64-.93L7.6,7a.87.87,0,0,1,.67-.55A48.41,48.41,0,0,1,16,5.86a39.75,39.75,0,0,1,7.25.61.87.87,0,0,1,.64.53l1.77,4.43a.69.69,0,0,1-.64.94ZM6.87,11.79h0ZM7,11.37H24.56L23,7.44a38.89,38.89,0,0,0-7-.58,47.64,47.64,0,0,0-7.48.59Z"/><path class="cls-2" d="M5,18.21a1.68,1.68,0,0,1-1.69-1.94,2.11,2.11,0,0,1,2.06-1.81A1.68,1.68,0,0,1,7,16.41,2.11,2.11,0,0,1,5,18.21Zm.37-2.74a1.12,1.12,0,0,0-1.07.94h0a.72.72,0,0,0,.16.58.7.7,0,0,0,.54.23A1.12,1.12,0,0,0,6,16.27a.72.72,0,0,0-.16-.58A.7.7,0,0,0,5.34,15.47Z"/><path class="cls-2" d="M26.68,18.21a2.11,2.11,0,0,1-2.06-1.81,1.68,1.68,0,0,1,1.69-1.94,2.11,2.11,0,0,1,2.06,1.81,1.68,1.68,0,0,1-1.69,1.94Zm-.37-2.74a.7.7,0,0,0-.54.23.72.72,0,0,0-.16.58,1.12,1.12,0,0,0,1.07.94.7.7,0,0,0,.54-.23.71.71,0,0,0,.16-.58A1.12,1.12,0,0,0,26.31,15.47Z"/><path class="cls-1" d="M17,16.69H15a.5.5,0,0,1,0-1h2a.5.5,0,0,1,0,1Z"/><path class="cls-1" d="M15.81,20.79A13.87,13.87,0,0,1,10.62,20a2,2,0,0,1-1-.91L6.89,14a.5.5,0,0,1,.88-.48l2.74,5A1,1,0,0,0,11,19a12.86,12.86,0,0,0,4.81.76,11.79,11.79,0,0,0,5-1,1.05,1.05,0,0,0,.48-.5l2.36-4.75a.5.5,0,1,1,.9.45L22.2,18.78a2,2,0,0,1-.94,1A12.81,12.81,0,0,1,15.81,20.79Z"/><path class="cls-1" d="M15.72,23.63a79.36,79.36,0,0,1-11.07-.7.5.5,0,0,1-.42-.57.51.51,0,0,1,.57-.42,78.31,78.31,0,0,0,10.91.68,93.09,93.09,0,0,0,11.49-.68.5.5,0,1,1,.14,1A94.15,94.15,0,0,1,15.72,23.63Z"/></svg>