<svg id="expanded" xmlns="http://www.w3.org/2000/svg" viewBox="0 0 32 32"><defs><style>.cls-1{fill:#4d4c4c;}.cls-2{fill:#54a4da;}.cls-3{fill:#fff;}</style></defs><title>certificate</title><path class="cls-1" d="M22.13,2.89,25.9,6.65V19.44H2.38V2.89H22.13m.62-1.5H.88V20.94H27.4V6L22.75,1.39Z"/><path class="cls-1" d="M26.57,7H21.74V2.21a.63.63,0,0,1,1.25,0V5.79h3.58a.63.63,0,0,1,0,1.25Z"/><path class="cls-2" d="M17.79,9.24H5.54a.5.5,0,0,1,0-1H17.79a.5.5,0,0,1,0,1Z"/><path class="cls-2" d="M14,12H5.54a.5.5,0,1,1,0-1H14a.5.5,0,0,1,0,1Z"/><path class="cls-2" d="M11,14.81H5.54a.5.5,0,0,1,0-1H11a.5.5,0,0,1,0,1Z"/><polygon class="cls-3" points="26.86 27.53 29.86 29.22 27.5 23.06 23.84 24.18 25.32 30.61 26.86 27.53"/><path class="cls-1" d="M25.15,32.08l-1.91-8.24,4.56-1.39,3,7.89-3.75-2.12Zm-.72-7.55,1.07,4.62,1.15-2.31L28.9,28.1l-1.7-4.42Z"/><polygon class="cls-3" points="18.76 27.05 19.68 30.37 22.37 24.35 18.98 22.55 15.49 28.14 18.76 27.05"/><path class="cls-1" d="M19.57,31.84l-1.15-4.15-4.09,1.37,4.48-7.17L23,24.12Zm-.47-5.44.69,2.49,1.93-4.33-2.56-1.36-2.51,4Z"/><path class="cls-3" d="M24.1,10l.46.47a1,1,0,0,0,1,.25l.63-.2a1,1,0,0,1,1.27.67l.19.63a1,1,0,0,0,.79.7l.65.11A1,1,0,0,1,30,13.84l-.13.65a1,1,0,0,0,.38,1l.53.4a1,1,0,0,1,.17,1.43l-.41.52a1,1,0,0,0-.13,1.05l.28.6a1,1,0,0,1-.51,1.35l-.61.26a1,1,0,0,0-.6.87l0,.66a1,1,0,0,1-1.08,1l-.66,0a1,1,0,0,0-.94.49l-.34.57a1,1,0,0,1-1.4.34l-.56-.35a1,1,0,0,0-1.06,0l-.56.35a1,1,0,0,1-1.4-.34L20.56,24a1,1,0,0,0-.94-.49l-.66,0a1,1,0,0,1-1.08-1l0-.66a1,1,0,0,0-.6-.87l-.61-.26a1,1,0,0,1-.51-1.35l.28-.6a1,1,0,0,0-.13-1.05l-.41-.52A1,1,0,0,1,16,15.88l.53-.4a1,1,0,0,0,.38-1l-.13-.65a1,1,0,0,1,.82-1.18l.65-.11a1,1,0,0,0,.79-.7l.19-.63a1,1,0,0,1,1.27-.67l.63.2a1,1,0,0,0,1-.25l.46-.47A1,1,0,0,1,24.1,10Z"/><path class="cls-1" d="M21.76,25.84a1.77,1.77,0,0,1-.42-.05A1.74,1.74,0,0,1,20.25,25l-.34-.57a.26.26,0,0,0-.24-.13l-.66,0a1.76,1.76,0,0,1-1.88-1.67l0-.66a.26.26,0,0,0-.15-.22l-.61-.27a1.76,1.76,0,0,1-.89-2.35l.28-.6a.25.25,0,0,0,0-.27l-.41-.52a1.76,1.76,0,0,1,.3-2.49l.53-.4a.26.26,0,0,0,.1-.25L16.08,14a1.76,1.76,0,0,1,1.43-2.07l.65-.11a.25.25,0,0,0,.2-.18l.19-.64a1.76,1.76,0,0,1,2.22-1.17l.63.2a.25.25,0,0,0,.26-.06l.46-.47a1.8,1.8,0,0,1,2.51,0l.46.47a.26.26,0,0,0,.26.06l.63-.2A1.76,1.76,0,0,1,28.22,11l.19.63a.25.25,0,0,0,.2.18l.65.11A1.76,1.76,0,0,1,30.69,14l-.13.65a.26.26,0,0,0,.1.25l.52.4a1.76,1.76,0,0,1,.3,2.49l-.41.52a.26.26,0,0,0,0,.27l.28.6a1.76,1.76,0,0,1-.89,2.35l-.61.26a.26.26,0,0,0-.15.22l0,.66a1.76,1.76,0,0,1-1.88,1.67l-.66,0a.26.26,0,0,0-.24.13l-.33.57a1.76,1.76,0,0,1-2.44.6l-.56-.35a.26.26,0,0,0-.27,0l-.56.35A1.75,1.75,0,0,1,21.76,25.84Zm-2.07-3.06a1.75,1.75,0,0,1,1.51.86l.34.57a.26.26,0,0,0,.36.09l.56-.35a1.75,1.75,0,0,1,1.85,0l.56.35a.26.26,0,0,0,.36-.09l.33-.57a1.75,1.75,0,0,1,1.64-.86l.66,0a.23.23,0,0,0,.19-.06.25.25,0,0,0,.09-.18l0-.66a1.74,1.74,0,0,1,1.05-1.52l.61-.26a.26.26,0,0,0,.13-.34l-.28-.6a1.75,1.75,0,0,1,.22-1.84l.42-.52a.26.26,0,0,0,0-.36l-.53-.4a1.75,1.75,0,0,1-.66-1.73l.13-.65a.25.25,0,0,0,0-.19.26.26,0,0,0-.17-.11l-.65-.11A1.75,1.75,0,0,1,27,12.05l-.19-.63a.25.25,0,0,0-.13-.15.25.25,0,0,0-.2,0l-.63.2A1.75,1.75,0,0,1,24,11l-.46-.47a.22.22,0,0,0-.37,0l-.46.47a1.75,1.75,0,0,1-1.8.44l-.63-.2a.26.26,0,0,0-.2,0,.26.26,0,0,0-.13.15l-.19.63a1.75,1.75,0,0,1-1.39,1.23l-.65.11a.26.26,0,0,0-.17.11.25.25,0,0,0,0,.19l.13.65A1.75,1.75,0,0,1,17,16.07l-.53.4a.26.26,0,0,0-.1.17.25.25,0,0,0,.05.19l.41.52a1.75,1.75,0,0,1,.22,1.84l-.28.6a.26.26,0,0,0,.13.34l.61.27a1.74,1.74,0,0,1,1.05,1.52l0,.66a.25.25,0,0,0,.09.18.23.23,0,0,0,.19.06l.66,0Z"/><path class="cls-2" d="M23.38,22.26a4.75,4.75,0,1,1,4.75-4.75A4.76,4.76,0,0,1,23.38,22.26Zm0-8.51a3.75,3.75,0,1,0,3.75,3.75A3.76,3.76,0,0,0,23.38,13.75Z"/><path class="cls-1" d="M22.13,2.89,25.9,6.65V19.44H2.38V2.89H22.13m.62-1.5H.88V20.94H27.4V6L22.75,1.39Z"/><path class="cls-1" d="M26.57,7H21.74V2.21a.63.63,0,0,1,1.25,0V5.79h3.58a.63.63,0,0,1,0,1.25Z"/><path class="cls-2" d="M17.79,9.24H5.54a.5.5,0,0,1,0-1H17.79a.5.5,0,0,1,0,1Z"/><path class="cls-2" d="M14,12H5.54a.5.5,0,1,1,0-1H14a.5.5,0,0,1,0,1Z"/><path class="cls-2" d="M11,14.81H5.54a.5.5,0,0,1,0-1H11a.5.5,0,0,1,0,1Z"/><polygon class="cls-3" points="26.86 27.53 29.86 29.22 27.5 23.06 23.84 24.18 25.32 30.61 26.86 27.53"/><path class="cls-1" d="M25.15,32.08l-1.91-8.24,4.56-1.39,3,7.89-3.75-2.12Zm-.72-7.55,1.07,4.62,1.15-2.31L28.9,28.1l-1.7-4.42Z"/><polygon class="cls-3" points="18.76 27.05 19.68 30.37 22.37 24.35 18.98 22.55 15.49 28.14 18.76 27.05"/><path class="cls-1" d="M19.57,31.84l-1.15-4.15-4.09,1.37,4.48-7.17L23,24.12Zm-.47-5.44.69,2.49,1.93-4.33-2.56-1.36-2.51,4Z"/><path class="cls-3" d="M24.1,10l.46.47a1,1,0,0,0,1,.25l.63-.2a1,1,0,0,1,1.27.67l.19.63a1,1,0,0,0,.79.7l.65.11A1,1,0,0,1,30,13.84l-.13.65a1,1,0,0,0,.38,1l.53.4a1,1,0,0,1,.17,1.43l-.41.52a1,1,0,0,0-.13,1.05l.28.6a1,1,0,0,1-.51,1.35l-.61.26a1,1,0,0,0-.6.87l0,.66a1,1,0,0,1-1.08,1l-.66,0a1,1,0,0,0-.94.49l-.34.57a1,1,0,0,1-1.4.34l-.56-.35a1,1,0,0,0-1.06,0l-.56.35a1,1,0,0,1-1.4-.34L20.56,24a1,1,0,0,0-.94-.49l-.66,0a1,1,0,0,1-1.08-1l0-.66a1,1,0,0,0-.6-.87l-.61-.26a1,1,0,0,1-.51-1.35l.28-.6a1,1,0,0,0-.13-1.05l-.41-.52A1,1,0,0,1,16,15.88l.53-.4a1,1,0,0,0,.38-1l-.13-.65a1,1,0,0,1,.82-1.18l.65-.11a1,1,0,0,0,.79-.7l.19-.63a1,1,0,0,1,1.27-.67l.63.2a1,1,0,0,0,1-.25l.46-.47A1,1,0,0,1,24.1,10Z"/><path class="cls-1" d="M21.76,25.84a1.77,1.77,0,0,1-.42-.05A1.74,1.74,0,0,1,20.25,25l-.34-.57a.26.26,0,0,0-.24-.13l-.66,0a1.76,1.76,0,0,1-1.88-1.67l0-.66a.26.26,0,0,0-.15-.22l-.61-.27a1.76,1.76,0,0,1-.89-2.35l.28-.6a.25.25,0,0,0,0-.27l-.41-.52a1.76,1.76,0,0,1,.3-2.49l.53-.4a.26.26,0,0,0,.1-.25L16.08,14a1.76,1.76,0,0,1,1.43-2.07l.65-.11a.25.25,0,0,0,.2-.18l.19-.64a1.76,1.76,0,0,1,2.22-1.17l.63.2a.25.25,0,0,0,.26-.06l.46-.47a1.8,1.8,0,0,1,2.51,0l.46.47a.26.26,0,0,0,.26.06l.63-.2A1.76,1.76,0,0,1,28.22,11l.19.63a.25.25,0,0,0,.2.18l.65.11A1.76,1.76,0,0,1,30.69,14l-.13.65a.26.26,0,0,0,.1.25l.52.4a1.76,1.76,0,0,1,.3,2.49l-.41.52a.26.26,0,0,0,0,.27l.28.6a1.76,1.76,0,0,1-.89,2.35l-.61.26a.26.26,0,0,0-.15.22l0,.66a1.76,1.76,0,0,1-1.88,1.67l-.66,0a.26.26,0,0,0-.24.13l-.33.57a1.76,1.76,0,0,1-2.44.6l-.56-.35a.26.26,0,0,0-.27,0l-.56.35A1.75,1.75,0,0,1,21.76,25.84Zm-2.07-3.06a1.75,1.75,0,0,1,1.51.86l.34.57a.26.26,0,0,0,.36.09l.56-.35a1.75,1.75,0,0,1,1.85,0l.56.35a.26.26,0,0,0,.36-.09l.33-.57a1.75,1.75,0,0,1,1.64-.86l.66,0a.23.23,0,0,0,.19-.06.25.25,0,0,0,.09-.18l0-.66a1.74,1.74,0,0,1,1.05-1.52l.61-.26a.26.26,0,0,0,.13-.34l-.28-.6a1.75,1.75,0,0,1,.22-1.84l.42-.52a.26.26,0,0,0,0-.36l-.53-.4a1.75,1.75,0,0,1-.66-1.73l.13-.65a.25.25,0,0,0,0-.19.26.26,0,0,0-.17-.11l-.65-.11A1.75,1.75,0,0,1,27,12.05l-.19-.63a.25.25,0,0,0-.13-.15.25.25,0,0,0-.2,0l-.63.2A1.75,1.75,0,0,1,24,11l-.46-.47a.22.22,0,0,0-.37,0l-.46.47a1.75,1.75,0,0,1-1.8.44l-.63-.2a.26.26,0,0,0-.2,0,.26.26,0,0,0-.13.15l-.19.63a1.75,1.75,0,0,1-1.39,1.23l-.65.11a.26.26,0,0,0-.17.11.25.25,0,0,0,0,.19l.13.65A1.75,1.75,0,0,1,17,16.07l-.53.4a.26.26,0,0,0-.1.17.25.25,0,0,0,.05.19l.41.52a1.75,1.75,0,0,1,.22,1.84l-.28.6a.26.26,0,0,0,.13.34l.61.27a1.74,1.74,0,0,1,1.05,1.52l0,.66a.25.25,0,0,0,.09.18.23.23,0,0,0,.19.06l.66,0Z"/><path class="cls-2" d="M23.38,22.26a4.75,4.75,0,1,1,4.75-4.75A4.76,4.76,0,0,1,23.38,22.26Zm0-8.51a3.75,3.75,0,1,0,3.75,3.75A3.76,3.76,0,0,0,23.38,13.75Z"/></svg>