<svg id="exapanded" xmlns="http://www.w3.org/2000/svg" viewBox="0 0 32 32"><defs><style>.cls-1{fill:#54a4da;}.cls-2{fill:#4c4c4c;}</style></defs><title>dots_h</title><path class="cls-1" d="M8.29,19.7a2.14,2.14,0,0,1-2.14-2.14v-.73a.5.5,0,0,1,1,0v.73A1.14,1.14,0,0,0,8.29,18.7a7.22,7.22,0,0,0,1.21-.18l.33-.06a.5.5,0,0,1,.19,1l-.32.06A7.76,7.76,0,0,1,8.29,19.7Z"/><path class="cls-2" d="M9.5,1A1.67,1.67,0,0,0,8.28.47h0a2.4,2.4,0,0,0-2.21.95,2.52,2.52,0,0,0,.07,2.52,10.66,10.66,0,0,1,1,4.44,10.66,10.66,0,0,1-1,4.44,2.53,2.53,0,0,0-.07,2.52,2.41,2.41,0,0,0,2.21.95h0a1.67,1.67,0,0,0,1.22-.58A11.88,11.88,0,0,0,12,8.38,11.88,11.88,0,0,0,9.5,1Zm-1,13.88a.83.83,0,0,1-.24.1c-.59,0-1-.13-1.16-.38a1.52,1.52,0,0,1,.15-1.32,11.92,11.92,0,0,0,1.09-5,11.91,11.91,0,0,0-1.09-5,1.52,1.52,0,0,1-.15-1.32c.16-.24.57-.38,1.15-.38h0a.49.49,0,0,1,.24.1,10.63,10.63,0,0,1,2.27,6.56A10.62,10.62,0,0,1,8.52,14.93Z"/><path class="cls-2" d="M25.24,28.09l-8-2.72-8,2.72a.5.5,0,1,0,.32.95l7-2.39L17,28.56a.23.23,0,0,0,.45,0l.43-1.91,7,2.39.16,0a.5.5,0,0,0,.16-1Z"/><circle class="cls-2" cx="9.33" cy="30.47" r="1.06"/><circle class="cls-2" cx="25.16" cy="30.47" r="1.06"/><circle class="cls-2" cx="17.25" cy="30.47" r="1.06"/><rect class="cls-1" x="16.75" y="23.75" width="1" height="1.34"/><path class="cls-2" d="M22.19,15.72H12.3a2.68,2.68,0,0,0,0,5.36h2.82v1.08a1.63,1.63,0,0,0,1.63,1.63h1a1.63,1.63,0,0,0,1.63-1.62V21.08h2.82a2.68,2.68,0,1,0,0-5.36Zm-4.07,6.45a.38.38,0,0,1-.37.38h-1a.38.38,0,0,1-.37-.37V21.08h1.75Zm4.07-2.33H12.3a1.43,1.43,0,0,1,0-2.86h9.89a1.43,1.43,0,1,1,0,2.86Z"/></svg>