<?xml version="1.0" encoding="UTF-8"?>
<svg width="34px" height="34px" viewBox="0 0 34 34" version="1.1" xmlns="http://www.w3.org/2000/svg" xmlns:xlink="http://www.w3.org/1999/xlink">
    <!-- Generator: Sketch 41 (35326) - http://www.bohemiancoding.com/sketch -->
    <title>Page 1</title>
    <desc>Created with Sketch.</desc>
    <defs></defs>
    <g id="Home" stroke="none" stroke-width="1" fill="none" fill-rule="evenodd" stroke-linecap="round" stroke-linejoin="round">
        <g id="Home-(tablet)" transform="translate(-474.000000, -4957.000000)" stroke-width="1.5">
            <g id="Group-25" transform="translate(37.000000, 4958.000000)">
                <g id="Page-1" transform="translate(438.000000, 0.000000)">
                    <path d="M16.2424242,0.727272727 C11.9340606,0.727272727 8.2870303,2.23418182 5.27321212,5.27321212 C2.23321212,8.2870303 0.727272727,11.9350303 0.727272727,16.2433939 C0.727272727,20.5255758 2.23321212,24.1726061 5.27321212,27.2126061 C8.2870303,30.2254545 11.9340606,31.7313939 16.2424242,31.7575758 C20.5246061,31.7313939 24.1716364,30.2254545 27.2116364,27.2126061 C30.2506667,24.1726061 31.7575758,20.5255758 31.7575758,16.2433939 C31.7575758,11.9350303 30.2506667,8.2870303 27.2116364,5.27321212 C24.1716364,2.23418182 20.5246061,0.727272727 16.2424242,0.727272727 L16.2424242,0.727272727 Z" id="Stroke-1" stroke="#4C4C4C"></path>
                    <polyline id="Stroke-3" stroke="#54A5DB" points="24.5419636 10.6131394 14.9739636 21.5823515 9.66099394 16.9821091"></polyline>
                </g>
            </g>
        </g>
    </g>
</svg>