<svg id="expanded" xmlns="http://www.w3.org/2000/svg" viewBox="0 0 32 32"><defs><style>.cls-1{fill:#54a4da;}.cls-2{fill:#4d4c4c;}</style></defs><title>chip</title><path class="cls-1" d="M14.42.21a.63.63,0,0,0-.62.63V5.38H15V.83A.63.63,0,0,0,14.42.21ZM.21,11.26a.63.63,0,0,0,.63.63H5.38V10.64H.83A.63.63,0,0,0,.21,11.26ZM11.26.21a.63.63,0,0,0-.62.63V5.38h1.25V.83A.63.63,0,0,0,11.26.21ZM.21,14.42A.63.63,0,0,0,.83,15H5.38V13.79H.83A.63.63,0,0,0,.21,14.42Zm0,3.16a.63.63,0,0,0,.63.63H5.38V17H.83A.63.63,0,0,0,.21,17.58Zm31.58-6.32a.63.63,0,0,0-.62-.62H26.63v1.25h4.54A.63.63,0,0,0,31.79,11.26ZM20.74.21a.63.63,0,0,0-.62.63V5.38h1.25V.83A.63.63,0,0,0,20.74.21Zm-3.16,0A.63.63,0,0,0,17,.83V5.38h1.25V.83A.63.63,0,0,0,17.58.21ZM31.17,17H26.63v1.25h4.54a.63.63,0,0,0,0-1.25ZM20.11,31.17a.63.63,0,0,0,1.25,0V26.63H20.11ZM31.17,20.11H26.63v1.25h4.54a.63.63,0,0,0,0-1.25Zm0-6.32H26.63V15h4.54a.63.63,0,0,0,0-1.25ZM10.64,31.17a.62.62,0,0,0,1.25,0V26.63H10.64ZM.21,20.74a.63.63,0,0,0,.63.63H5.38V20.11H.83A.63.63,0,0,0,.21,20.74ZM13.79,31.17a.63.63,0,0,0,1.25,0V26.63H13.79Zm3.16,0a.63.63,0,0,0,1.25,0V26.63H17Z"/><path class="cls-2" d="M24.56,6.13a1.32,1.32,0,0,1,1.32,1.32V24.56a1.32,1.32,0,0,1-1.32,1.32H7.44a1.32,1.32,0,0,1-1.32-1.32V7.44A1.32,1.32,0,0,1,7.44,6.13H24.56m0-1.5H7.44A2.82,2.82,0,0,0,4.63,7.44V24.56a2.82,2.82,0,0,0,2.82,2.82H24.56a2.82,2.82,0,0,0,2.82-2.82V7.44a2.82,2.82,0,0,0-2.82-2.82Z"/></svg>