<svg id="expanded" xmlns="http://www.w3.org/2000/svg" viewBox="0 0 32 32"><defs><style>.cls-1{fill:#4d4c4c;}.cls-2{fill:#54a4da;}</style></defs><title>clock</title><path class="cls-1" d="M16,31.88A15.26,15.26,0,0,1,4.79,27.23,15.38,15.38,0,0,1,.13,16,15.38,15.38,0,0,1,4.79,4.77,15.25,15.25,0,0,1,16,.13,15.4,15.4,0,0,1,27.25,4.77a15.83,15.83,0,0,1,3.85,6.11,17.46,17.46,0,0,1,.45,1.69A17.82,17.82,0,0,1,31.87,16a15.43,15.43,0,0,1-4.62,11.23A15.4,15.4,0,0,1,16,31.88ZM16,1.64A13.78,13.78,0,0,0,5.87,5.84h0A13.91,13.91,0,0,0,1.65,16,13.91,13.91,0,0,0,5.87,26.15,13.79,13.79,0,0,0,16,30.36a13.92,13.92,0,0,0,10.18-4.2A14,14,0,0,0,30.35,16a16.28,16.28,0,0,0-.29-3.12c-.12-.53-.24-1-.41-1.52a14.31,14.31,0,0,0-3.48-5.52A13.93,13.93,0,0,0,16,1.64ZM5.33,5.31h0Z"/><path class="cls-2" d="M15.95,15.06a.51.51,0,0,1-.51-.51V6.72a.51.51,0,0,1,1,0v7.83A.51.51,0,0,1,15.95,15.06Z"/><path class="cls-2" d="M24,23.66a.51.51,0,0,1-.34-.13l-7-6.3a.51.51,0,0,1,.68-.75l7,6.3a.51.51,0,0,1-.34.88Z"/><path class="cls-2" d="M16,17.71A1.71,1.71,0,1,1,17.7,16,1.71,1.71,0,0,1,16,17.71Zm0-2.41a.7.7,0,1,0,.68.7A.69.69,0,0,0,16,15.3Z"/></svg>