<svg id="expanded" xmlns="http://www.w3.org/2000/svg" viewBox="0 0 32 32"><defs><style>.cls-1{fill:#ffffff;}</style></defs><title>close</title><path class="cls-1" d="M1.13,31.88a1,1,0,0,1-.71-1.71L30.17.42a1,1,0,0,1,1.41,1.41L1.83,31.58A1,1,0,0,1,1.13,31.88Z"/><path class="cls-1" d="M30.88,31.88a1,1,0,0,1-.71-.29L.42,1.83A1,1,0,0,1,1.83.42L31.58,30.17a1,1,0,0,1-.71,1.71Z"/><path class="cls-1" d="M1.13,31.88a1,1,0,0,1-.71-1.71L30.17.42a1,1,0,0,1,1.41,1.41L1.83,31.58A1,1,0,0,1,1.13,31.88Z"/><path class="cls-1" d="M30.88,31.88a1,1,0,0,1-.71-.29L.42,1.83A1,1,0,0,1,1.83.42L31.58,30.17a1,1,0,0,1-.71,1.71Z"/></svg>