<svg id="expanded" xmlns="http://www.w3.org/2000/svg" viewBox="0 0 32 32"><defs><style>.cls-1{fill:#4d4c4c;}.cls-2{fill:#54a4da;}</style></defs><title>command</title><path class="cls-1" d="M9,26.47a5.62,5.62,0,0,1-5.56-5.66V6.08A5.62,5.62,0,0,1,9,.43a5.62,5.62,0,0,1,5.56,5.66V8.51a.75.75,0,0,1-1.5,0V6.08A4.11,4.11,0,0,0,9,1.93,4.11,4.11,0,0,0,5,6.08V20.81A4.11,4.11,0,0,0,9,25a4.11,4.11,0,0,0,4.06-4.16V18.13a.75.75,0,0,1,1.5,0v2.68A5.62,5.62,0,0,1,9,26.47Z"/><path class="cls-1" d="M23,26.47a5.57,5.57,0,0,1-5.56-5.56V12.12a5.56,5.56,0,0,1,11.12,0v8.79A5.57,5.57,0,0,1,23,26.47ZM23,8.06a4.06,4.06,0,0,0-4.06,4.06v8.79a4.06,4.06,0,1,0,8.12,0V12.12A4.06,4.06,0,0,0,23,8.06Z"/><path class="cls-2" d="M27.11,31.82H4.45a1,1,0,0,1,0-2H27.11a1,1,0,0,1,0,2Z"/></svg>