<svg id="expanded" xmlns="http://www.w3.org/2000/svg" viewBox="0 0 32 32"><defs><style>.cls-1{fill:#54a4da;}.cls-2{fill:#4d4c4c;}</style></defs><title>construction_cone</title><path class="cls-1" d="M16,27.12c-4.31,0-7.56-1.43-7.56-3.33a.5.5,0,0,1,1,0c0,1.1,2.81,2.33,6.56,2.33s6.56-1.23,6.56-2.33a.5.5,0,0,1,1,0C23.56,25.69,20.31,27.12,16,27.12ZM16,16a10.81,10.81,0,0,1-5.63-1.55.5.5,0,1,1,.52-.85,10.14,10.14,0,0,0,10.22,0,.5.5,0,1,1,.52.85A10.82,10.82,0,0,1,16,16Zm0-5.06a11.11,11.11,0,0,1-4.28-.84.5.5,0,1,1,.39-.92,10.25,10.25,0,0,0,7.79,0,.5.5,0,1,1,.39.92A11.1,11.1,0,0,1,16,10.92Z"/><path class="cls-2" d="M16,31.83a6.18,6.18,0,0,1-2.26-.39L1.67,26.51C.55,26,.39,25.37.39,25s.17-1,1.28-1.5l6.68-2.73L13.5,1.25C13.62.31,15.1.17,16,.17s2.38.14,2.5,1.09l5.15,19.52,6.68,2.73c1.12.46,1.28,1.14,1.28,1.5s-.17,1-1.28,1.5L18.26,31.44A6.19,6.19,0,0,1,16,31.83ZM2,25l.23.11,12.07,4.94a5.23,5.23,0,0,0,3.38,0l12.07-4.94L30,25l-.23-.11-7.37-3L17.09,1.79A4.24,4.24,0,0,0,16,1.67a4.24,4.24,0,0,0-1.09.12L9.61,21.88l-7.37,3Z"/><path class="cls-1" d="M16,4.67h-.9a.5.5,0,0,1,0-1H16a.5.5,0,0,1,0,1Z"/><path class="cls-1" d="M16,27.12c-4.31,0-7.56-1.43-7.56-3.33a.5.5,0,0,1,1,0c0,1.1,2.81,2.33,6.56,2.33s6.56-1.23,6.56-2.33a.5.5,0,0,1,1,0C23.56,25.69,20.31,27.12,16,27.12ZM16,16a10.81,10.81,0,0,1-5.63-1.55.5.5,0,1,1,.52-.85,10.14,10.14,0,0,0,10.22,0,.5.5,0,1,1,.52.85A10.82,10.82,0,0,1,16,16Zm0-5.06a11.11,11.11,0,0,1-4.28-.84.5.5,0,1,1,.39-.92,10.25,10.25,0,0,0,7.79,0,.5.5,0,1,1,.39.92A11.1,11.1,0,0,1,16,10.92Z"/><path class="cls-2" d="M16,31.83a6.18,6.18,0,0,1-2.26-.39L1.67,26.51C.55,26,.39,25.37.39,25s.17-1,1.28-1.5l6.68-2.73L13.5,1.25C13.62.31,15.1.17,16,.17s2.38.14,2.5,1.09l5.15,19.52,6.68,2.73c1.12.46,1.28,1.14,1.28,1.5s-.17,1-1.28,1.5L18.26,31.44A6.19,6.19,0,0,1,16,31.83ZM2,25l.23.11,12.07,4.94a5.23,5.23,0,0,0,3.38,0l12.07-4.94L30,25l-.23-.11-7.37-3L17.09,1.79A4.24,4.24,0,0,0,16,1.67a4.24,4.24,0,0,0-1.09.12L9.61,21.88l-7.37,3Z"/><path class="cls-1" d="M16,4.67h-.9a.5.5,0,0,1,0-1H16a.5.5,0,0,1,0,1Z"/></svg>