<svg id="expanded" xmlns="http://www.w3.org/2000/svg" viewBox="0 0 16 16"><defs><style>.cls-1,.cls-2{fill:#54a4da;}.cls-2{fill-rule:evenodd;}.cls-3{fill:#4c4c4c;}</style></defs><title>educate16</title><path class="cls-1" d="M1.74,9.56a.38.38,0,0,1-.37-.37V6.53a.38.38,0,0,1,.75,0V9.19A.38.38,0,0,1,1.74,9.56Z"/><polygon class="cls-2" points="2.46 11.01 1.02 11.01 1.02 9.77 1.74 9.19 2.46 9.77 2.46 11.01 2.46 11.01 2.46 11.01"/><path class="cls-3" d="M8,12.8a6.67,6.67,0,0,1-4.34-1.21A.75.75,0,0,1,3.42,11l0-3L.63,7.07a.75.75,0,0,1,0-1.42L7.76,3.24a.75.75,0,0,1,.48,0l7.13,2.41a.75.75,0,0,1,0,1.42L12.58,8l0,3a.75.75,0,0,1-.26.57A6.67,6.67,0,0,1,8,12.8Zm-3.1-2.17A6.32,6.32,0,0,0,8,11.3a6.32,6.32,0,0,0,3.09-.67l0-2.11-2.85,1h0a.75.75,0,0,1-.22,0H8a.75.75,0,0,1-.24,0l-2.86-1ZM4.37,6.75h0L8,8l3.59-1.21h0l1.19-.4L8,4.74,3.22,6.36Z"/></svg>