<svg xmlns="http://www.w3.org/2000/svg" viewBox="0 0 33.5 26.4"><style type="text/css">  
	.st0{fill:#4C4C4C;}
	.st1{display:none;}
	.st2{fill:#54A5DB;}
</style><path class="st0" d="M30.3-0.1H3.2C1.4-0.1 0 1.4 0 3.2v20c0 1.8 1.4 3.2 3.2 3.2h27c1.8 0 3.2-1.4 3.3-3.2v-20C33.5 1.4 32.1-0.1 30.3-0.1zM30.3 1.4c0.2 0 0.3 0 0.5 0.1l-13 13c-0.3 0.3-0.7 0.5-1.1 0.5 -0.5 0-1-0.2-1.3-0.5L2.5 1.6C2.7 1.5 3 1.4 3.2 1.4H30.3zM30.2 25h-27c-1 0-1.8-0.8-1.8-1.8v-20c0-0.2 0-0.3 0.1-0.5l12.8 12.8c0.6 0.6 1.5 1 2.3 1 0 0 0.1 0 0.1 0 0.9 0 1.6-0.4 2.2-1l13-13C32 2.7 32 3 32 3.2l0 19.9C32 24.2 31.2 25 30.2 25z"/><polygon class="st2" points="20.9 13.6 20.2 14.3 32.1 22.9 32.1 21.7 "/><polygon class="st2" points="13.2 14.3 12.5 13.6 1.5 21.6 1.5 22.9 "/></svg>