<svg id="expanded" xmlns="http://www.w3.org/2000/svg" viewBox="0 0 32 32"><defs><style>.cls-1{fill:#4d4c4c;}</style></defs><title>face_frown</title><path class="cls-1" d="M16,31.79A15.79,15.79,0,1,1,31.79,16,15.81,15.81,0,0,1,16,31.79ZM16,1.71A14.29,14.29,0,1,0,30.29,16,14.31,14.31,0,0,0,16,1.71Z"/><circle class="cls-1" cx="12.42" cy="12.11" r="1.33"/><circle class="cls-1" cx="19.66" cy="12.11" r="1.33"/><path class="cls-1" d="M8.47,23.46A.5.5,0,0,1,8,22.71a9.11,9.11,0,0,1,15.92,0,.5.5,0,1,1-.87.49,8.11,8.11,0,0,0-14.18,0A.5.5,0,0,1,8.47,23.46Z"/><path class="cls-1" d="M16,31.79A15.79,15.79,0,1,1,31.79,16,15.81,15.81,0,0,1,16,31.79ZM16,1.71A14.29,14.29,0,1,0,30.29,16,14.31,14.31,0,0,0,16,1.71Z"/><circle class="cls-1" cx="12.42" cy="12.11" r="1.33"/><circle class="cls-1" cx="19.66" cy="12.11" r="1.33"/><path class="cls-1" d="M8.47,23.46A.5.5,0,0,1,8,22.71a9.11,9.11,0,0,1,15.92,0,.5.5,0,1,1-.87.49,8.11,8.11,0,0,0-14.18,0A.5.5,0,0,1,8.47,23.46Z"/></svg>