<?xml version="1.0" encoding="utf-8"?>
<!-- Generator: Adobe Illustrator 19.2.1, SVG Export Plug-In . SVG Version: 6.00 Build 0)  -->
<svg version="1.1" id="Layer_1" xmlns="http://www.w3.org/2000/svg" xmlns:xlink="http://www.w3.org/1999/xlink" x="0px" y="0px"
	 viewBox="0 0 18 18" style="enable-background:new 0 0 18 18;" xml:space="preserve">
<style type="text/css">
	.st0{fill:#4C4C4C;}
	.st1{fill:#54A5DB;}
</style>
<title>Tools</title>
<desc>Created with Sketch.</desc>
<g id="SmartSensor-HD">
	<g id="SmartSensor-HD-_x28_phone_x29_" transform="translate(-98.000000, -7260.000000)">
		<g id="Group-20" transform="translate(82.000000, 7261.000000)">
			<g id="Group-19">
				<g id="Checkmark" transform="translate(17.000000, 0.000000)">
					<g id="wtx_Full_Color_icons_32px-30">
						<g id="Layer_1_1_">
							<g id="Group">
								<g id="Shape">
									<path class="st0" d="M8,17c-2.5,0-4.6-0.9-6.4-2.6C-0.1,12.6-1,10.5-1,8c0-2.5,0.9-4.6,2.6-6.4C3.4-0.1,5.5-1,8-1
										c2.5,0,4.6,0.9,6.4,2.6C16.1,3.4,17,5.5,17,8c0,2.5-0.9,4.6-2.6,6.4C12.6,16.1,10.5,17,8,17z M8,0.1
										c-2.2,0-4.1,0.8-5.6,2.3C0.8,3.9,0.1,5.8,0.1,8c0,2.2,0.8,4.1,2.3,5.6c1.5,1.5,3.4,2.3,5.6,2.3c2.2,0,4.1-0.8,5.6-2.3
										c1.5-1.5,2.3-3.4,2.3-5.6c0-2.2-0.8-4.1-2.3-5.6C12.1,0.8,10.2,0.1,8,0.1z"/>
								</g>
								<g id="Shape_1_">
									<polygon class="st1" points="7.3,11.4 4.2,8.7 4.6,8.2 7.3,10.4 12.3,4.7 12.8,5.2 									"/>
								</g>
							</g>
						</g>
					</g>
				</g>
			</g>
		</g>
	</g>
</g>
</svg>
