<svg id="expanded" xmlns="http://www.w3.org/2000/svg" viewBox="0 0 32 32"><defs><style>.cls-1{fill:#54a4da;}.cls-2{fill:#4d4c4c;}</style></defs><title>flag</title><path class="cls-1" d="M7.39,14.42l-.14,0a.59.59,0,0,1-.45-.47.5.5,0,0,1,.4-.58h.06c2.79-3.58,6.21-3.55,9.53-3.53s6.5,0,9-3.57c-2.87.9-6.1-.61-9.24-2.08C12.59,2.29,8.8.52,5.9,3.53a.5.5,0,0,1-1-.1.71.71,0,0,1,.16-.51C8.51-.73,12.83,1.3,17,3.26c3.51,1.64,6.82,3.2,9.52,1.58a.63.63,0,0,1,.75.08.58.58,0,0,1,.1.71c-2.95,5.24-6.83,5.21-10.62,5.18-3.27,0-6.37,0-8.89,3.35A.62.62,0,0,1,7.39,14.42Zm-.3-.85h0ZM26.53,5.15h0Z"/><path class="cls-2" d="M10.31,31.74a.75.75,0,0,1-.74-.62l-5.29-30A.75.75,0,1,1,5.76.88l5.29,30a.75.75,0,0,1-.61.87Z"/><path class="cls-1" d="M7.39,14.42l-.14,0a.59.59,0,0,1-.45-.47.5.5,0,0,1,.4-.58h.06c2.79-3.58,6.21-3.55,9.53-3.53s6.5,0,9-3.57c-2.87.9-6.1-.61-9.24-2.08C12.59,2.29,8.8.52,5.9,3.53a.5.5,0,0,1-1-.1.71.71,0,0,1,.16-.51C8.51-.73,12.83,1.3,17,3.26c3.51,1.64,6.82,3.2,9.52,1.58a.63.63,0,0,1,.75.08.58.58,0,0,1,.1.71c-2.95,5.24-6.83,5.21-10.62,5.18-3.27,0-6.37,0-8.89,3.35A.62.62,0,0,1,7.39,14.42Zm-.3-.85h0ZM26.53,5.15h0Z"/><path class="cls-2" d="M10.31,31.74a.75.75,0,0,1-.74-.62l-5.29-30A.75.75,0,1,1,5.76.88l5.29,30a.75.75,0,0,1-.61.87Z"/></svg>