<?xml version="1.0" encoding="utf-8"?>
<!-- Generator: Adobe Illustrator 20.1.0, SVG Export Plug-In . SVG Version: 6.00 Build 0)  -->
<svg version="1.1" id="Layer_1" xmlns="http://www.w3.org/2000/svg" xmlns:xlink="http://www.w3.org/1999/xlink" x="0px" y="0px"
	 viewBox="0 0 32 32" style="enable-background:new 0 0 32 32;" xml:space="preserve">
<style type="text/css">
	.st0{fill:#4C4C4C;}
</style>
<g>
	<g>
		<path class="st0" d="M16,32C7.2,32,0,24.8,0,16C0,7.2,7.2,0,16,0c8.8,0,16,7.2,16,16C32,24.8,24.8,32,16,32z M16,1.4
			C7.9,1.4,1.4,7.9,1.4,16c0,8.1,6.6,14.6,14.6,14.6c8.1,0,14.6-6.6,14.6-14.6C30.6,7.9,24.1,1.4,16,1.4z"/>
	</g>
	<g>
		<circle class="st0" cx="12.4" cy="12" r="1.4"/>
	</g>
	<g>
		<circle class="st0" cx="19.7" cy="12" r="1.4"/>
	</g>
	<g>
		<path class="st0" d="M8.3,23.5c-0.1,0-0.1,0-0.2-0.1c-0.2-0.1-0.3-0.4-0.2-0.6c1.6-2.9,4.7-4.7,8.1-4.7s6.4,1.8,8.1,4.7
			c0.1,0.2,0,0.5-0.2,0.6c-0.2,0.1-0.5,0-0.6-0.2C21.8,20.7,19,19,16,19s-5.8,1.6-7.3,4.3C8.6,23.5,8.5,23.5,8.3,23.5z"/>
	</g>
</g>
</svg>
