<svg xmlns="http://www.w3.org/2000/svg" viewBox="0 0 32 32"><style type="text/css">  
	.st0{fill:#5E5E5E;}
</style><path class="st0" d="M18.4 31.8h-4.9c-1.5 0-2.4-0.9-2.4-2.3v-2.7c-0.8-0.3-1.6-0.8-2.4-1.4l-2.5 1.4c-1.5 0.7-2.7 0.3-3.4-1l-2.4-3.9c-0.1-0.2-0.2-0.3-0.2-0.5 -0.4-0.8-0.5-2 1-2.9l2.5-1.4c0-0.3 0-0.5 0-0.7V16c0-0.4 0-0.8 0-1.3l-2.4-1.3c0 0-0.1-0.1-0.1-0.1l-0.1-0.1c-0.4-0.3-0.9-0.6-1-1.3 -0.2-0.4-0.3-1.1 0.3-2L2.9 6c0.8-1.3 2-1.6 3.4-0.8l2.6 1.4c0 0 0.1-0.1 0.1-0.1 0.1-0.1 0.3-0.2 0.4-0.3 0 0 0.1 0 0.1-0.1 0.6-0.3 1.1-0.5 1.7-0.8V2.6c0-1.5 0.9-2.4 2.4-2.4h4.9c1.5 0 2.4 0.9 2.4 2.4v2.7c0.9 0.3 1.7 0.8 2.4 1.3l2.5-1.3c1.1-0.7 2.4-0.4 3.3 0.8 0 0 0 0.1 0.1 0.1l2.4 4.1c0.8 1.2 0.5 2.4-0.8 3.3 0 0-0.1 0-0.1 0.1l-2.5 1.3c0 0 0 0 0 0 0 0.3 0.1 0.5 0.1 0.8V16c0 0.5 0 0.9-0.1 1.3l2.4 1.3c0.6 0.3 1 0.7 1.3 1.3 0.2 0.4 0.2 0.9 0.1 1.4 0 0.2-0.1 0.4-0.2 0.5 0 0 0 0.1-0.1 0.1L29.1 26c-0.9 1.3-2.1 1.6-3.4 0.8l-2.6-1.3c-0.2 0.1-0.4 0.3-0.6 0.4 -0.5 0.3-1 0.6-1.6 0.8v2.8C20.9 30.9 19.9 31.8 18.4 31.8zM8.8 23.2c0.2 0 0.4 0.1 0.6 0.2 1.1 0.8 2 1.4 3 1.7 0.4 0.1 0.7 0.5 0.7 0.9v3.4c0 0.3 0 0.4 0.5 0.4h4.9c0.5 0 0.5-0.1 0.5-0.4v-3.5c0-0.4 0.3-0.8 0.7-0.9 0.6-0.2 1.3-0.5 1.9-0.9 0.2-0.1 0.4-0.2 0.5-0.4 0.1-0.1 0.3-0.2 0.4-0.3 0.3-0.2 0.7-0.2 1-0.1l3.2 1.7c0.4 0.2 0.5 0.3 0.8-0.2l2.4-4c0 0 0.1-0.1 0.1-0.2 0 0 0 0 0 0 0-0.1 0-0.1 0-0.1 0-0.1-0.1-0.1-0.2-0.2 0 0-0.1 0-0.1-0.1l-3-1.7c-0.4-0.2-0.6-0.6-0.5-1 0.1-0.6 0.2-1.1 0.2-1.7v-0.3c0-0.2 0-0.4 0-0.6 0-0.3-0.1-0.5-0.1-0.8 0-0.4 0.2-0.7 0.5-0.9l3-1.5c0.2-0.2 0.3-0.3 0.3-0.3 0 0 0-0.1-0.1-0.3l-2.4-4.1c-0.3-0.4-0.5-0.4-0.7-0.2l-3.1 1.6c-0.3 0.2-0.8 0.1-1.1-0.1 -0.8-0.7-1.9-1.2-3-1.6 -0.4-0.1-0.7-0.5-0.7-0.9V2.6c0-0.4-0.1-0.5-0.5-0.5h-4.9c-0.4 0-0.5 0.1-0.5 0.5v3.4c0 0.4-0.3 0.8-0.6 0.9 -0.8 0.3-1.4 0.6-2.1 0.9 -0.1 0-0.1 0.1-0.2 0.2C9.9 8.2 9.7 8.4 9.3 8.6 9 8.7 8.7 8.7 8.4 8.6L5.3 6.9C4.8 6.7 4.7 6.7 4.5 7.1l-2.4 4.1c0 0 0 0.1-0.1 0.1 -0.1 0.1-0.1 0.2-0.1 0.2 0 0.1 0 0.1 0.1 0.2 0.1 0.1 0.2 0.1 0.2 0.2l0 0 3 1.5c0.4 0.2 0.6 0.6 0.5 1 -0.1 0.6-0.1 1.1-0.1 1.7v0.4c0 0.3 0 0.8 0.1 1 0.1 0.4-0.1 0.9-0.5 1.1l-3 1.7C2 20.3 2 20.4 1.9 20.4c0 0 0 0.1 0.1 0.2 0 0 0 0.1 0 0.1 0 0 0 0 0 0l2.4 4c0.2 0.3 0.3 0.5 0.8 0.2l3-1.6C8.5 23.3 8.6 23.2 8.8 23.2zM30 21.1C30 21.1 30 21.1 30 21.1 30 21.1 30 21.1 30 21.1zM2.1 21.1L2.1 21.1 2.1 21.1z"/><path class="st0" d="M15.8 22c-1.7 0-3.1-0.6-4.1-1.8C10.5 19 10 17.7 10 16.1c0-1.6 0.6-3.1 1.7-4.1 1-1.1 2.5-1.7 4.1-1.7 1.6 0 2.9 0.6 4.1 1.7 1.1 1 1.7 2.4 1.7 4.1 0 1.6-0.6 2.9-1.7 4.1C18.7 21.4 17.4 22 15.8 22zM15.8 12.2c-1.1 0-2 0.4-2.7 1.1 0 0 0 0-0.1 0.1 -0.8 0.7-1.1 1.6-1.1 2.7 0 1.1 0.4 1.9 1.2 2.7 0.7 0.8 1.6 1.2 2.7 1.2 1.1 0 1.9-0.4 2.7-1.2 0.8-0.8 1.2-1.7 1.2-2.7 0-1.1-0.4-2-1.1-2.7C17.7 12.6 16.9 12.2 15.8 12.2z"/></svg>