<svg id="expanded" xmlns="http://www.w3.org/2000/svg" viewBox="0 0 32 32"><defs><style>.cls-1{fill:#4d4c4c;}.cls-2{fill:#54a4da;}</style></defs><title>mind</title><g id="Stroke-3"><path class="cls-1" d="M26.18,31.92h0a.75.75,0,0,1-.75-.75V22.84a.75.75,0,0,1,.24-.55,11.83,11.83,0,0,0,3.81-8.74A12,12,0,1,0,5.68,15.23a.75.75,0,0,1-.12.53l-.11.16L2.55,22a.2.2,0,0,0,0,.2.2.2,0,0,0,.18.1l1.66,0h0a1.84,1.84,0,0,1,1.83,1.84v3.66A2.08,2.08,0,0,0,8.67,29.9l7.5-1.48A2.23,2.23,0,0,0,18,26.2V19.1a.75.75,0,0,1,.75-.75h0a.75.75,0,0,1,.75.75v7.09a3.72,3.72,0,0,1-3.07,3.71L8.95,31.38a3.58,3.58,0,0,1-4.23-3.53V24.19a.34.34,0,0,0-.35-.34l-1.66,0h0a1.71,1.71,0,0,1-1.52-2.44l2.93-6.14,0-.07a12.77,12.77,0,0,1-.11-1.61,13.46,13.46,0,1,1,22.88,9.61v8A.75.75,0,0,1,26.18,31.92Z"/></g><g id="Typography-_-Styles" data-name="Typography-&amp;-Styles"><g id="Typography-_-Colors" data-name="Typography-&amp;-Colors"><g id="Page-1"><path class="cls-2" d="M25.39,10.11a2.5,2.5,0,0,0-1.94-3.36A2.5,2.5,0,0,0,20.09,4.8a2.5,2.5,0,0,0-3.6-.29,7.39,7.39,0,0,0-1.54.17,2.25,2.25,0,0,0-.45.11A7.52,7.52,0,0,0,9,12a2.33,2.33,0,0,0,2.35,2.28s6.29,0,6.29,0a3.82,3.82,0,0,0,3,3.22h.1a2.48,2.48,0,0,0,.67.1,2.43,2.43,0,0,0,.66-.1h.1a3.82,3.82,0,0,0,3-3.44,2.5,2.5,0,0,0,.15-4Zm-.88,3.27a.5.5,0,0,0-.27.44,2.81,2.81,0,0,1-2.19,2.73,2.3,2.3,0,0,1-.61.11,2.34,2.34,0,0,1-.62-.11,2.81,2.81,0,0,1-2.19-2.73.5.5,0,0,0-.5-.5l-6.74,0A1.35,1.35,0,0,1,10,12,6.52,6.52,0,0,1,14.8,5.75a1.66,1.66,0,0,1,.32-.08,6.57,6.57,0,0,1,1.4-.16h.15A.48.48,0,0,0,17,5.36a1.55,1.55,0,0,1,2.43.32.5.5,0,0,0,.71.19,1.5,1.5,0,0,1,2.3,1.33.5.5,0,0,0,.15.37.51.51,0,0,0,.37.15,1.52,1.52,0,0,1,1.36.75,1.5,1.5,0,0,1,0,1.55.5.5,0,0,0,.19.71,1.5,1.5,0,0,1,0,2.66Z"/></g></g></g><g id="Stroke-2"><path class="cls-2" d="M24.75,10.78H14.88a.5.5,0,1,1,0-1h9.87a.5.5,0,1,1,0,1Z"/></g><g id="Stroke-1"><path class="cls-2" d="M20.25,14.31H11.89a.5.5,0,1,1,0-1h8.36a.5.5,0,0,1,0,1Z"/></g></svg>