<?xml version="1.0" encoding="utf-8"?>
<!-- Generator: Adobe Illustrator 21.0.2, SVG Export Plug-In . SVG Version: 6.00 Build 0)  -->
<svg version="1.1" id="Layer_1" xmlns="http://www.w3.org/2000/svg" xmlns:xlink="http://www.w3.org/1999/xlink" x="0px" y="0px"
	 viewBox="0 0 73 72" style="enable-background:new 0 0 73 72;" xml:space="preserve">
<style type="text/css">
	.st0{fill:#4C4C4C;}
	.st1{fill:#54A5DB;}
</style>
<title>Page 1</title>
<desc>Created with Sketch.</desc>
<g id="About-Us">
	<g id="About-us" transform="translate(-684.000000, -3102.000000)">
		<g id="Page-1" transform="translate(684.000000, 3102.000000)">
			<g id="Stroke-1">
				<path class="st0" d="M71.6,72H44.5c-0.4,0-0.8-0.3-0.8-0.8c0-5.2,4.2-9.4,9.4-9.4h9.8c5.2,0,9.4,4.2,9.4,9.4
					C72.4,71.7,72,72,71.6,72z M45.3,70.5h25.5c-0.4-4-3.8-7.2-7.9-7.2h-9.8C49.1,63.3,45.7,66.5,45.3,70.5z"/>
			</g>
			<g id="Stroke-3">
				<path class="st1" d="M65.6,56.5H49.8c-0.3,0-0.5-0.2-0.5-0.5s0.2-0.5,0.5-0.5h15.8c0.3,0,0.5,0.2,0.5,0.5S65.9,56.5,65.6,56.5z"
					/>
			</g>
			<g id="Stroke-5">
				<path class="st1" d="M28.1,44.2c-0.1,0-0.3,0-0.4-0.1l-5-5c-0.2-0.2-0.2-0.5,0-0.7s0.5-0.2,0.7,0l5,5c0.2,0.2,0.2,0.5,0,0.7
					C28.4,44.1,28.3,44.2,28.1,44.2z"/>
			</g>
			<g id="Stroke-7">
				<path class="st1" d="M33.9,12.2c-0.1,0-0.3,0-0.4-0.1c-0.2-0.2-0.2-0.5,0-0.7L39,5.9c0.2-0.2,0.5-0.2,0.7,0
					c0.2,0.2,0.2,0.5,0,0.7l-5.5,5.5C34.1,12.2,34,12.2,33.9,12.2z"/>
			</g>
			<g id="Stroke-9">
				<path class="st1" d="M49.5,38.8c-0.1,0-0.3,0-0.4-0.1c-0.2-0.2-0.2-0.5,0-0.7l7.4-7.4c0.2-0.2,0.5-0.2,0.7,0
					c0.2,0.2,0.2,0.5,0,0.7l-7.4,7.4C49.8,38.7,49.7,38.8,49.5,38.8z"/>
			</g>
			<g id="Stroke-11">
				<path class="st1" d="M33.2,22.2c-0.1,0-0.3,0-0.4-0.1c-0.2-0.2-0.2-0.5,0-0.7l10.7-10.7c0.2-0.2,0.5-0.2,0.7,0
					c0.2,0.2,0.2,0.5,0,0.7L33.6,22.1C33.5,22.2,33.4,22.2,33.2,22.2z"/>
			</g>
			<g id="Stroke-13">
				<path class="st1" d="M45.1,34.1c-0.1,0-0.3,0-0.4-0.1c-0.2-0.2-0.2-0.5,0-0.7l10.7-10.7c0.2-0.2,0.5-0.2,0.7,0s0.2,0.5,0,0.7
					L45.4,33.9C45.3,34,45.2,34.1,45.1,34.1z"/>
			</g>
			<g id="Fill-15">
				<path class="st0" d="M37.7,0c-0.8,0-1.7,0.3-2.3,1L23.1,13.2c-0.6,0.6-1,1.5-1,2.3c0,0.9,0.3,1.7,1,2.3c0.9,0.9,2,1.6,3.2,1.9
					c0.2,1.1,0.7,2,1.5,2.8c1,1,2.4,1.6,3.9,1.6c0.1,0,0.3,0,0.4,0c4.2,2.7,7.8,6.3,10.5,10.5c-0.1,1.6,0.4,3.1,1.6,4.3
					c0.8,0.8,1.8,1.3,2.8,1.5c0.4,1.2,1,2.3,1.9,3.2c0.6,0.6,1.5,1,2.3,1c0.9,0,1.7-0.3,2.3-1l12.2-12.2c1.3-1.3,1.3-3.4,0-4.7
					c-0.9-0.9-2-1.6-3.2-1.9c-0.2-1-0.7-2-1.5-2.8c-1-1-2.4-1.6-3.9-1.6c-0.1,0-0.3,0-0.4,0c-4.2-2.7-7.8-6.3-10.5-10.5
					c0.1-1.6-0.4-3.1-1.6-4.3C44,4.9,43,4.4,41.9,4.2C41.6,3,40.9,1.9,40,1C39.3,0.3,38.5,0,37.7,0 M37.7,3.3
					c1.2,1.2,1.6,2.8,1.2,4.3c-0.1,0.4,0,0.5,0.2,0.5c0.1,0,0.3-0.1,0.3-0.1c0.4-0.4,1-0.7,1.6-0.7c0.6,0,1.1,0.2,1.6,0.7
					c0.7,0.7,0.8,1.7,0.4,2.5c3.3,5.5,7.9,10.1,13.4,13.4c0.3-0.2,0.7-0.2,1-0.2c0.6,0,1.1,0.2,1.6,0.6c0.9,0.9,0.9,2.3,0,3.2
					c0,0-0.2,0.5,0.2,0.5c0.1,0,0.1,0,0.2,0c0.4-0.1,0.8-0.2,1.2-0.2c1.1,0,2.3,0.4,3.2,1.3L51.3,41.4c-1.2-1.2-1.6-2.8-1.2-4.3
					c0.1-0.4,0-0.5-0.2-0.5c-0.1,0-0.3,0.1-0.3,0.1c-0.4,0.4-1,0.7-1.6,0.7s-1.1-0.2-1.6-0.7c-0.7-0.7-0.8-1.7-0.4-2.6
					c-3.3-5.5-7.9-10.1-13.4-13.4c-0.3,0.2-0.7,0.2-1,0.2c-0.6,0-1.1-0.2-1.6-0.6c-0.9-0.9-0.9-2.3,0-3.2c0,0,0.2-0.5-0.2-0.5
					c-0.1,0-0.1,0-0.2,0c-0.4,0.1-0.8,0.2-1.2,0.2c-1.1,0-2.3-0.4-3.2-1.3L37.7,3.3"/>
			</g>
			<g id="Stroke-17">
				<path class="st0" d="M7.2,66.2c-1.2,0-2.8-0.4-4.5-2.1c-2-2-2.2-3.9-2.1-5.1c0.3-1.9,1.7-3.7,3.9-5c1.6-0.9,2.8-1.4,3.8-1.7
					c1-0.4,1.7-0.6,2.2-1.2l11.6-11.6l-0.9-0.9c-1.3-1.3-1.3-3.5,0-4.9l0.9-0.9c1.3-1.3,3.5-1.3,4.9,0l0.9,0.9l8.4-8.4
					c0.3-0.3,0.7-0.3,1,0c1.5,1.3,2.9,2.7,4.2,4.2c0.3,0.3,0.2,0.7,0,1l-8.4,8.4l0.9,0.9l0,0c1.3,1.3,1.3,3.5,0,4.9l-0.9,0.9
					c-1.3,1.3-3.6,1.3-4.9,0l-0.9-0.9L15.7,56.3c-0.6,0.6-0.8,1.2-1.2,2.2c-0.4,1-0.8,2.2-1.7,3.8c-1.2,2.2-3,3.6-5,3.9
					C7.7,66.2,7.5,66.2,7.2,66.2z M24.5,33.3c-0.5,0-1,0.2-1.4,0.6l-0.9,0.9c-0.8,0.8-0.8,2,0,2.7l1.5,1.5c0.3,0.3,0.3,0.8,0,1.1
					L11.6,52.1c-0.8,0.8-1.7,1.1-2.7,1.5c-0.9,0.3-2.1,0.8-3.6,1.6c-1.8,1-2.9,2.4-3.1,3.9C2,60.4,2.6,61.7,3.8,63
					c1.3,1.3,2.6,1.8,3.9,1.6c1.4-0.2,2.9-1.3,3.9-3.1c0.9-1.5,1.3-2.7,1.6-3.6c0.4-1.1,0.7-2,1.5-2.7L26.8,43
					c0.1-0.1,0.3-0.2,0.5-0.2l0,0c0.2,0,0.4,0.1,0.5,0.2l1.5,1.5c0.7,0.7,2,0.7,2.7,0l0.9-0.9c0.8-0.8,0.8-2,0-2.7l-1.5-1.5
					c-0.1-0.1-0.2-0.3-0.2-0.5c0-0.2,0.1-0.4,0.2-0.5l8.5-8.5c-1-1.1-2-2.1-3.1-3.1l-8.5,8.5c-0.3,0.3-0.8,0.3-1.1,0l-1.5-1.5
					C25.5,33.5,25,33.3,24.5,33.3z"/>
			</g>
		</g>
	</g>
</g>
</svg>
