<?xml version="1.0" encoding="UTF-8"?>
<svg width="32px" height="32px" viewBox="0 0 32 32" version="1.1" xmlns="http://www.w3.org/2000/svg" xmlns:xlink="http://www.w3.org/1999/xlink">
    <!-- Generator: Sketch 41 (35326) - http://www.bohemiancoding.com/sketch -->
    <title>LifeSaver</title>
    <desc>Created with Sketch.</desc>
    <defs></defs>
    <g id="Home" stroke="none" stroke-width="1" fill="none" fill-rule="evenodd">
        <g id="Home-(tablet)" transform="translate(-369.000000, -5874.000000)">
            <g id="Group-26" transform="translate(368.000000, 5874.000000)">
                <g id="LifeSaver" transform="translate(1.000000, 0.000000)">
                    <g id="Page-1">
                        <path d="M4.45388387,21.6877419 C4.19788387,21.4472258 3.94085161,21.2077419 3.6827871,20.9692903 C3.24923871,20.5698065 2.81362581,20.1723871 2.37491613,19.7780645 C-0.103535484,17.5783226 -0.103535484,14.2317419 2.37491613,12.032 C2.80330323,11.6469677 3.22962581,11.2588387 3.65285161,10.8686452 C3.95323871,10.5909677 4.25156129,10.3122581 4.54885161,10.0325161" id="Stroke-1" stroke="#54A4DA" stroke-linecap="round"></path>
                        <path d="M21.8379355,27.1963871 C21.6397419,27.4069677 21.4415484,27.6185806 21.2443871,27.8301935 C20.7509677,28.3607742 20.2627097,28.8954839 19.7775484,29.4353548 C17.5778065,31.9138065 14.2322581,31.9138065 12.0314839,29.4353548 C11.5669677,28.9171613 11.0983226,28.404129 10.6255484,27.8941935" id="Stroke-3" stroke="#54A4DA" stroke-linecap="round"></path>
                        <path d="M27.4266839,10.1888 C28.0893935,10.8102194 28.759329,11.4244129 29.4354581,12.0324129 C31.9139097,14.2321548 31.9139097,17.5777032 29.4354581,19.7784774 C28.9967484,20.1717677 28.5611355,20.5691871 28.1275871,20.968671 C27.8592,21.2174452 27.5918452,21.4662194 27.3255226,21.7160258" id="Stroke-5" stroke="#54A4DA" stroke-linecap="round"></path>
                        <path d="M10.2805677,4.28510968 C10.8699871,3.6544 11.4542452,3.01749677 12.0323097,2.3744 C14.2320516,-0.103019355 17.5776,-0.103019355 19.7783742,2.3744 C20.2645677,2.91633548 20.7548903,3.45310968 21.2503742,3.98575484" id="Stroke-7" stroke="#54A4DA" stroke-linecap="round"></path>
                        <path d="M18.4055742,9.93723871 C18.6543484,10.0414968 18.8948645,10.1694968 19.1302194,10.3078194 L23.6711226,5.76588387 C23.4657032,5.60485161 23.2592516,5.4427871 23.0476387,5.29517419 L18.4055742,9.93723871 Z" id="Fill-9" fill="#54A4DA"></path>
                        <path d="M12.6771613,10.3052387 C12.9125161,10.1658839 13.152,10.0389161 13.4018065,9.93465806 L8.75767742,5.29052903 C8.54606452,5.43710968 8.34064516,5.60020645 8.13522581,5.76227097 L12.6771613,10.3052387 Z" id="Fill-11" fill="#54A4DA"></path>
                        <path d="M26.0476903,8.13491613 L21.5047226,12.6778839 C21.6440774,12.9122065 21.7710452,13.1527226 21.8753032,13.402529 L26.5194323,8.7584 C26.3728516,8.54575484 26.2097548,8.34033548 26.0476903,8.13491613" id="Fill-13" fill="#54A4DA"></path>
                        <path d="M20.4659613,11.344 C20.5598968,11.435871 20.6424774,11.5339355 20.7281548,11.6289032 L25.1978323,7.15922581 C25.1090581,7.06425806 25.0295742,6.96619355 24.936671,6.87329032 C24.8427355,6.78141935 24.744671,6.70193548 24.6497032,6.61316129 L20.1800258,11.0828387 C20.2760258,11.1685161 20.3730581,11.2510968 20.4659613,11.344" id="Fill-15" fill="#54A4DA"></path>
                        <path d="M11.0813935,11.6288 C11.167071,11.5338323 11.2506839,11.4357677 11.3435871,11.3438968 C11.4364903,11.2499613 11.5324903,11.1673806 11.6284903,11.0817032 L7.1588129,6.61099355 C7.06487742,6.70183226 6.96578065,6.78028387 6.87390968,6.87421935 C6.77997419,6.96609032 6.70049032,7.0651871 6.61068387,7.15809032 L11.0813935,11.6288 Z" id="Fill-17" fill="#54A4DA"></path>
                        <path d="M11.3434839,20.4664774 C11.2505806,20.3735742 11.168,20.2765419 11.0823226,20.1805419 L6.61264516,24.6502194 C6.70141935,24.7451871 6.78090323,24.8442839 6.87380645,24.9371871 C6.96670968,25.0290581 7.06477419,25.1085419 7.15974194,25.1973161 L11.6294194,20.7276387 C11.5344516,20.6419613 11.4363871,20.5593806 11.3434839,20.4664774" id="Fill-19" fill="#54A4DA"></path>
                        <path d="M19.1257806,21.4983226 C18.8893935,21.6366452 18.6499097,21.7625806 18.4001032,21.8668387 L23.0411355,26.5089032 C23.2537806,26.3623226 23.4602323,26.2002581 23.6666839,26.0392258 L19.1257806,21.4983226 Z" id="Fill-21" fill="#54A4DA"></path>
                        <path d="M9.93476129,13.4020129 C10.0390194,13.1522065 10.1659871,12.9127226 10.3043097,12.6773677 L5.76237419,8.1344 C5.60030968,8.34085161 5.4372129,8.54523871 5.2896,8.75788387 L9.93476129,13.4020129 Z" id="Fill-23" fill="#54A4DA"></path>
                        <path d="M20.7276387,20.1802323 C20.6419613,20.2762323 20.5593806,20.3732645 20.4664774,20.4661677 C20.3725419,20.559071 20.2755097,20.6406194 20.1795097,20.7262968 L24.6491871,25.1970065 C24.7441548,25.1072 24.8432516,25.0297806 24.9361548,24.9368774 C25.0290581,24.8439742 25.1085419,24.7448774 25.1983484,24.6509419 L20.7276387,20.1802323 Z" id="Fill-25" fill="#54A4DA"></path>
                        <path d="M21.8727226,18.4055742 C21.7684645,18.6553806 21.6414968,18.8948645 21.5021419,19.1302194 L26.0440774,23.6721548 C26.2061419,23.4657032 26.3682065,23.2602839 26.5147871,23.0476387 L21.8727226,18.4055742 Z" id="Fill-27" fill="#54A4DA"></path>
                        <path d="M10.3072,19.1303226 C10.1688774,18.8949677 10.0419097,18.6554839 9.93661935,18.4056774 L5.29455484,23.0477419 C5.44216774,23.2593548 5.6032,23.4658065 5.76526452,23.6722581 L10.3072,19.1303226 Z" id="Fill-29" fill="#54A4DA"></path>
                        <path d="M13.407071,21.8702452 C13.1572645,21.7659871 12.9167484,21.6390194 12.6813935,21.5006968 L8.13945806,26.0426323 C8.34590968,26.2046968 8.55132903,26.3667613 8.76397419,26.5133419 L13.407071,21.8702452 Z" id="Fill-31" fill="#54A4DA"></path>
                        <path d="M20.4659613,20.4664774 C19.2024774,21.7196387 17.6860903,22.3451871 15.9054452,22.3565419 C14.1134452,22.3451871 12.5960258,21.7196387 11.3438968,20.4664774 C10.0793806,19.2029935 9.45383226,17.6855742 9.45383226,15.9059613 C9.45383226,14.1139613 10.0793806,12.5965419 11.3438968,11.3444129 C12.5960258,10.0798968 14.1134452,9.45331613 15.9054452,9.45331613 C17.6860903,9.45331613 19.2024774,10.0798968 20.4659613,11.3444129 C21.7304774,12.5965419 22.3570581,14.1139613 22.3570581,15.9059613 C22.3570581,17.6855742 21.7304774,19.2029935 20.4659613,20.4664774 L20.4659613,20.4664774 Z M24.936671,6.87370323 C22.4334452,4.37150968 19.4306065,3.13073548 15.9054452,3.13073548 C12.3575742,3.13073548 9.35473548,4.37150968 6.87421935,6.87370323 C4.37099355,9.35525161 3.13125161,12.3591226 3.13125161,15.9059613 C3.13125161,19.4311226 4.37099355,22.4349935 6.87421935,24.9371871 C9.35473548,27.4177032 12.3575742,28.6574452 15.9054452,28.6791226 C19.4306065,28.6574452 22.4334452,27.4177032 24.936671,24.9371871 C27.4388645,22.4349935 28.6796387,19.4311226 28.6796387,15.9059613 C28.6796387,12.3591226 27.4388645,9.35525161 24.936671,6.87370323 L24.936671,6.87370323 Z" id="Stroke-33" stroke="#5E5E5E" stroke-width="1.5" stroke-linecap="round" stroke-linejoin="round"></path>
                    </g>
                </g>
            </g>
        </g>
    </g>
</svg>