<svg id="expanded" xmlns="http://www.w3.org/2000/svg" viewBox="0 0 32 32"><defs><style>.cls-1{fill:#4d4c4c;}.cls-2{fill:#54a4da;}</style></defs><title>light</title><path class="cls-1" d="M16,23.42A7.42,7.42,0,1,1,23.42,16,7.43,7.43,0,0,1,16,23.42Zm0-13.35A5.92,5.92,0,1,0,21.92,16,5.93,5.93,0,0,0,16,10.08Z"/><path class="cls-2" d="M16,31.83a.75.75,0,0,1-.75-.75V27.22a.75.75,0,0,1,1.5,0v3.86A.75.75,0,0,1,16,31.83Zm10.65-4.4a.75.75,0,0,1-.53-.22L23.4,24.48a.75.75,0,1,1,1.06-1.06l2.73,2.73a.75.75,0,0,1-.53,1.28Zm-21.33,0a.75.75,0,0,1-.53-1.28L7.54,23.4A.75.75,0,1,1,8.6,24.46L5.87,27.19A.75.75,0,0,1,5.34,27.41ZM31.08,16.76H27.22a.75.75,0,0,1,0-1.5h3.86a.75.75,0,0,1,0,1.5Zm-26.31,0H.92a.75.75,0,1,1,0-1.5H4.78a.75.75,0,0,1,0,1.5ZM23.93,8.82a.75.75,0,0,1-.53-1.28l2.73-2.73a.75.75,0,1,1,1.06,1.06L24.46,8.6A.75.75,0,0,1,23.93,8.82ZM8,8.82a.75.75,0,0,1-.53-.22L4.79,5.87A.75.75,0,0,1,5.85,4.81L8.58,7.54A.75.75,0,0,1,8,8.82ZM16,5.53a.75.75,0,0,1-.75-.75V.92a.75.75,0,1,1,1.5,0V4.78A.75.75,0,0,1,16,5.53Z"/><path class="cls-1" d="M16,23.42A7.42,7.42,0,1,1,23.42,16,7.43,7.43,0,0,1,16,23.42Zm0-13.35A5.92,5.92,0,1,0,21.92,16,5.93,5.93,0,0,0,16,10.08Z"/><path class="cls-2" d="M16,31.83a.75.75,0,0,1-.75-.75V27.22a.75.75,0,0,1,1.5,0v3.86A.75.75,0,0,1,16,31.83Zm10.65-4.4a.75.75,0,0,1-.53-.22L23.4,24.48a.75.75,0,1,1,1.06-1.06l2.73,2.73a.75.75,0,0,1-.53,1.28Zm-21.33,0a.75.75,0,0,1-.53-1.28L7.54,23.4A.75.75,0,1,1,8.6,24.46L5.87,27.19A.75.75,0,0,1,5.34,27.41ZM31.08,16.76H27.22a.75.75,0,0,1,0-1.5h3.86a.75.75,0,0,1,0,1.5Zm-26.31,0H.92a.75.75,0,1,1,0-1.5H4.78a.75.75,0,0,1,0,1.5ZM23.93,8.82a.75.75,0,0,1-.53-1.28l2.73-2.73a.75.75,0,1,1,1.06,1.06L24.46,8.6A.75.75,0,0,1,23.93,8.82ZM8,8.82a.75.75,0,0,1-.53-.22L4.79,5.87A.75.75,0,0,1,5.85,4.81L8.58,7.54A.75.75,0,0,1,8,8.82ZM16,5.53a.75.75,0,0,1-.75-.75V.92a.75.75,0,1,1,1.5,0V4.78A.75.75,0,0,1,16,5.53Z"/></svg>