<?xml version="1.0" encoding="utf-8"?>
<!-- Generator: Adobe Illustrator 20.1.0, SVG Export Plug-In . SVG Version: 6.00 Build 0)  -->
<svg version="1.1" id="Layer_1" xmlns="http://www.w3.org/2000/svg" xmlns:xlink="http://www.w3.org/1999/xlink" x="0px" y="0px"
	 viewBox="0 0 32 32" style="enable-background:new 0 0 32 32;" xml:space="preserve">
<style type="text/css">
	.st0{fill:#007AB5;}
	.st1{fill:#FEFEFE;}
</style>
<title>LinkedIn</title>
<desc>Created with Sketch.</desc>
<rect id="Rectangle-2" class="st0" width="32" height="32"/>
<path id="Fill-4" class="st1" d="M7.2,4.4c1.5,0,2.8,1.2,2.8,2.8c0,1.5-1.2,2.8-2.8,2.8c-1.5,0-2.8-1.2-2.8-2.8
	C4.4,5.7,5.7,4.4,7.2,4.4L7.2,4.4z M4.8,27.3h4.8V12H4.8V27.3z"/>
<path id="Fill-6" class="st1" d="M12.4,11.9H17V14h0.1c0.6-1.2,2.2-2.5,4.5-2.5c4.8,0,5.7,3.2,5.7,7.3v8.4h-4.7v-7.4
	c0-1.8,0-4-2.5-4c-2.5,0-2.8,1.9-2.8,3.9v7.6h-4.7V11.9z"/>
</svg>
