<svg width="141px" height="36px" viewBox="0 0 141 36" version="1.1" xmlns="http://www.w3.org/2000/svg" xmlns:xlink="http://www.w3.org/1999/xlink" xmlns:sketch="http://www.bohemiancoding.com/sketch/ns">
  <g id="Page-1" stroke="none" stroke-width="1" fill="none" fill-rule="evenodd" sketch:type="MSPage">
    <g id="nav_logo" sketch:type="MSArtboardGroup">
      <g id="Group" sketch:type="MSLayerGroup" transform="translate(12.000000, 12.000000)">
        <g id="Page-1" sketch:type="MSShapeGroup">
          <g id="images" transform="translate(0.000000, 0.650000)" fill="#EAAB00">
            <path d="M8.775,0 C8.775,0 3.65625,1.4625 3.65625,3.65625 C3.65625,6.58125 11.7,8.04375 11.7,8.04375 L11.7,0 L8.775,0 L8.775,0 Z M0,0 L7.3125,0 C7.3125,0 1.4625,1.4625 1.4625,4.3875 C1.4625,8.775 11.7,10.96875 11.7,10.96875 L11.7,11.7 L0,11.7 L0,0 L0,0 Z" id="Shape"></path>
          </g>
          <g id="text" transform="translate(14.300000, 0.000000)" fill="#FFFFFF">
          <path d="M14.022905,12.35 L10.629905,12.35 L8.639605,3.4723 L6.631755,12.35 L3.238755,12.35 L0.324805,0.6643 L2.954705,0.6643 L4.962555,9.01615 L7.022405,0.6643 L10.274355,0.6643 L12.299755,9.01615 L14.289405,0.6643 L16.918655,0.6643 L14.022905,12.35 L14.022905,12.35 Z" id="Shape"></path>
          <path d="M19.81863,7.87618 L22.53693,7.87618 L21.18623,2.98103 L19.81863,7.87618 L19.81863,7.87618 Z M26.58773,12.35013 L23.81613,12.35013 L23.17653,10.06928 L19.21478,10.06928 L18.57518,12.35013 L15.80358,12.35013 L19.41043,0.66443 L22.96333,0.66443 L26.58773,12.35013 L26.58773,12.35013 Z" id="Shape"></path>
          <path d="M32.488235,12.35 L28.686385,12.35 L25.346035,0.6643 L28.081885,0.6643 L30.586985,9.96385 L33.092085,0.6643 L35.828585,0.6643 L32.488235,12.35 L32.488235,12.35 Z" id="Shape"></path>
          <path d="M36.89699,12.35 L36.89699,0.6643 L44.34079,0.6643 L44.34079,2.99845 L39.56199,2.99845 L39.56199,5.1389 L43.96769,5.1389 L43.96769,7.4724 L39.56199,7.4724 L39.56199,10.0165 L44.34079,10.0165 L44.34079,12.35 L36.89699,12.35 L36.89699,12.35 Z" id="Shape"></path>
          <path d="M51.2018,2.998645 L51.2018,12.350195 L48.5368,12.350195 L48.5368,2.998645 L45.35635,2.998645 L45.35635,0.664495 L54.3816,0.664495 L54.3816,2.998645 L51.2018,2.998645 L51.2018,2.998645 Z" id="Shape"></path>
          <path d="M72.5257,4.29676 C72.5257,3.38481 71.9394,2.82256 70.6069,2.82256 C69.27505,2.82256 68.6881,3.38481 68.6881,4.29676 L68.6881,8.71806 C68.6881,9.63066 69.27505,10.19161 70.6069,10.19161 C71.9394,10.19161 72.5257,9.63066 72.5257,8.71806 L72.5257,4.29676 L72.5257,4.29676 Z M75.1907,8.94621 C75.1907,10.71811 73.94725,12.52511 70.6069,12.52511 C67.2672,12.52511 66.0231,10.71811 66.0231,8.94621 L66.0231,4.06861 C66.0231,2.29671 67.2672,0.48971 70.6069,0.48971 C73.94725,0.48971 75.1907,2.29671 75.1907,4.06861 L75.1907,8.94621 L75.1907,8.94621 Z" id="Shape"></path>
          <path d="M79.4222,4.66492 L79.4222,12.34987 L76.88135,12.34987 L76.88135,0.66482 L80.15085,0.66482 L84.0411,8.71767 L84.0411,0.66482 L86.58195,0.66482 L86.58195,12.34987 L83.2949,12.34987 L79.4222,4.66492 L79.4222,4.66492 Z" id="Shape"></path>
          <rect id="Rectangle-path" x="88.71655" y="0.6643" width="2.665" height="11.6857"></rect>
          <path d="M99.1107,6.4194 L102.69935,12.35 L99.9102,12.35 L97.6183,8.4903 L95.3264,12.35 L92.53725,12.35 L96.10835,6.4194 L92.66205,0.6643 L95.4512,0.6643 L97.6183,4.34915 L99.78605,0.6643 L102.5752,0.6643 L99.1107,6.4194 L99.1107,6.4194 Z" id="Shape"></path>
          <path d="M62.53845,8.349705 C63.7286,7.858305 64.2616,6.875505 64.2616,5.419505 L64.2616,3.980405 C64.2616,1.787305 63.19625,0.664755 60.3174,0.664755 L55.39625,0.664755 L55.39625,12.349805 L58.06125,12.349805 L58.06125,2.998905 L60.1757,2.998905 C61.25925,2.998905 61.5966,3.349255 61.5966,4.226105 L61.5966,5.156255 C61.5966,6.033755 61.31255,6.437405 60.1757,6.437405 L59.61735,6.437405 L59.62515,8.717605 L62.23685,12.349805 L65.3991,12.349805 L62.53845,8.349705 L62.53845,8.349705 Z" id="Shape"></path>
          </g>
        </g>
      </g>
    </g>
  </g>
</svg>