<?xml version="1.0" encoding="utf-8"?>
<!-- Generator: Adobe Illustrator 20.1.0, SVG Export Plug-In . SVG Version: 6.00 Build 0)  -->
<svg version="1.1" id="Layer_1" xmlns="http://www.w3.org/2000/svg" xmlns:xlink="http://www.w3.org/1999/xlink" x="0px" y="0px"
	 viewBox="0 0 16 16" style="enable-background:new 0 0 16 16;" xml:space="preserve">
<style type="text/css">
	.st0{fill:#4C4C4C;}
	.st1{fill:#2A9DFF;}
</style>
<title>Marker</title>
<desc>Created with Sketch.</desc>
<g id="Symbols">
	<g id="Event-_x2013_-Pulse-Live-Traffic" transform="translate(-335.000000, -99.000000)">
		<g id="Group-2" transform="translate(336.000000, 100.000000)">
			<g id="Marker">
				<g id="Page-1-Copy-6">
					<g id="Stroke-1">
						<path class="st0" d="M7,15l-0.5-0.4c-0.2-0.2-5.6-5.3-5.6-9.5C0.9,1.7,3.6-1,7-1s6.1,2.7,6.1,6.1c0,4.2-5.4,9.2-5.6,9.5L7,15z
							 M7,0.4c-2.6,0-4.7,2.1-4.7,4.7c0,2.9,3.4,6.7,4.7,8c1.3-1.3,4.7-5,4.7-8C11.7,2.5,9.6,0.4,7,0.4z"/>
					</g>
					<g id="Stroke-3">
						<path class="st1" d="M7,8.4c-1.8,0-3.3-1.5-3.3-3.3S5.2,1.8,7,1.8c1.8,0,3.3,1.5,3.3,3.3S8.8,8.4,7,8.4z M7,2.7
							c-1.3,0-2.4,1.1-2.4,2.4S5.7,7.5,7,7.5s2.4-1.1,2.4-2.4S8.3,2.7,7,2.7z"/>
					</g>
				</g>
			</g>
		</g>
	</g>
</g>
</svg>
