<svg id="expanded" xmlns="http://www.w3.org/2000/svg" viewBox="0 0 32 32"><defs><style>.cls-1{fill:#54a4da;}.cls-2{fill:#4d4c4c;}</style></defs><title>mobile</title><path class="cls-1" d="M17.41,29.11H14.59a.5.5,0,0,1,0-1h2.83a.5.5,0,0,1,0,1Z"/><path class="cls-1" d="M22.11,26.84H9.89a.5.5,0,0,1,0-1H22.11a.5.5,0,1,1,0,1Z"/><path class="cls-1" d="M22.11,10.93H9.89a.5.5,0,0,1,0-1H22.11a.5.5,0,1,1,0,1Z"/><path class="cls-2" d="M20.68,7.72a1.43,1.43,0,0,1,1.43,1.43V28.91a1.43,1.43,0,0,1-1.43,1.43H11.32a1.43,1.43,0,0,1-1.43-1.43V9.14a1.43,1.43,0,0,1,1.43-1.43h9.36m0-1.5H11.32A2.93,2.93,0,0,0,8.39,9.14V28.91a2.93,2.93,0,0,0,2.93,2.93h9.36a2.93,2.93,0,0,0,2.93-2.93V9.14a2.93,2.93,0,0,0-2.93-2.93Z"/><path class="cls-1" d="M17.41,29.11H14.59a.5.5,0,0,1,0-1h2.83a.5.5,0,0,1,0,1Z"/><path class="cls-1" d="M22.11,26.84H9.89a.5.5,0,0,1,0-1H22.11a.5.5,0,1,1,0,1Z"/><path class="cls-1" d="M22.11,10.93H9.89a.5.5,0,0,1,0-1H22.11a.5.5,0,1,1,0,1Z"/><path class="cls-2" d="M20.68,7.72a1.43,1.43,0,0,1,1.43,1.43V28.91a1.43,1.43,0,0,1-1.43,1.43H11.32a1.43,1.43,0,0,1-1.43-1.43V9.14a1.43,1.43,0,0,1,1.43-1.43h9.36m0-1.5H11.32A2.93,2.93,0,0,0,8.39,9.14V28.91a2.93,2.93,0,0,0,2.93,2.93h9.36a2.93,2.93,0,0,0,2.93-2.93V9.14a2.93,2.93,0,0,0-2.93-2.93Z"/><path class="cls-1" d="M26.21,8.81a.5.5,0,0,1-.5-.5,4.08,4.08,0,0,0-4.08-4.08.5.5,0,0,1,0-1,5.08,5.08,0,0,1,5.08,5.08A.5.5,0,0,1,26.21,8.81Z"/><path class="cls-1" d="M29.15,8.81a.5.5,0,0,1-.5-.5,7,7,0,0,0-7-7,.5.5,0,0,1,0-1,8,8,0,0,1,8,8A.5.5,0,0,1,29.15,8.81Z"/><path class="cls-1" d="M17.41,29.11H14.59a.5.5,0,0,1,0-1h2.83a.5.5,0,0,1,0,1Z"/><path class="cls-1" d="M22.11,26.84H9.89a.5.5,0,0,1,0-1H22.11a.5.5,0,1,1,0,1Z"/><path class="cls-1" d="M22.11,10.93H9.89a.5.5,0,0,1,0-1H22.11a.5.5,0,1,1,0,1Z"/><path class="cls-2" d="M20.68,7.72a1.43,1.43,0,0,1,1.43,1.43V28.91a1.43,1.43,0,0,1-1.43,1.43H11.32a1.43,1.43,0,0,1-1.43-1.43V9.14a1.43,1.43,0,0,1,1.43-1.43h9.36m0-1.5H11.32A2.93,2.93,0,0,0,8.39,9.14V28.91a2.93,2.93,0,0,0,2.93,2.93h9.36a2.93,2.93,0,0,0,2.93-2.93V9.14a2.93,2.93,0,0,0-2.93-2.93Z"/><path class="cls-1" d="M17.41,29.11H14.59a.5.5,0,0,1,0-1h2.83a.5.5,0,0,1,0,1Z"/><path class="cls-1" d="M22.11,26.84H9.89a.5.5,0,0,1,0-1H22.11a.5.5,0,1,1,0,1Z"/><path class="cls-1" d="M22.11,10.93H9.89a.5.5,0,0,1,0-1H22.11a.5.5,0,1,1,0,1Z"/><path class="cls-2" d="M20.68,7.72a1.43,1.43,0,0,1,1.43,1.43V28.91a1.43,1.43,0,0,1-1.43,1.43H11.32a1.43,1.43,0,0,1-1.43-1.43V9.14a1.43,1.43,0,0,1,1.43-1.43h9.36m0-1.5H11.32A2.93,2.93,0,0,0,8.39,9.14V28.91a2.93,2.93,0,0,0,2.93,2.93h9.36a2.93,2.93,0,0,0,2.93-2.93V9.14a2.93,2.93,0,0,0-2.93-2.93Z"/><path class="cls-1" d="M26.21,8.81a.5.5,0,0,1-.5-.5,4.08,4.08,0,0,0-4.08-4.08.5.5,0,0,1,0-1,5.08,5.08,0,0,1,5.08,5.08A.5.5,0,0,1,26.21,8.81Z"/><path class="cls-1" d="M29.15,8.81a.5.5,0,0,1-.5-.5,7,7,0,0,0-7-7,.5.5,0,0,1,0-1,8,8,0,0,1,8,8A.5.5,0,0,1,29.15,8.81Z"/></svg>