<svg id="expanded" xmlns="http://www.w3.org/2000/svg" viewBox="0 0 32 32"><defs><style>.cls-1{fill:#54a4da;}.cls-2{fill:#4d4c4c;}</style></defs><title>office</title><path class="cls-1" d="M26.22,10.09h-.05L15.95,9a.5.5,0,0,1,.1-1L26.27,9.1a.5.5,0,0,1-.05,1Z"/><path class="cls-1" d="M26.22,13.3h0L16,12.77a.5.5,0,1,1,.05-1l10.22.53a.5.5,0,0,1,0,1Z"/><path class="cls-1" d="M26.22,16.51H16a.5.5,0,0,1,0-1H26.22a.5.5,0,1,1,0,1Z"/><path class="cls-1" d="M16,20.25a.5.5,0,0,1,0-1l10.22-.53a.49.49,0,0,1,.53.47.5.5,0,0,1-.47.53L16,20.25Z"/><path class="cls-1" d="M16,24a.5.5,0,0,1-.05-1l10.22-1.07a.5.5,0,0,1,.1,1L16.05,24Z"/><path class="cls-1" d="M16,27.73a.5.5,0,0,1-.08-1l10.22-1.6a.51.51,0,0,1,.57.42.5.5,0,0,1-.42.57l-10.22,1.6Z"/><path class="cls-2" d="M22.59,6.56h-.12l-6.59-1a.75.75,0,0,1-.63-.74V1a.75.75,0,0,1,.9-.73l6.59,1.37a.75.75,0,0,1,.6.73v3.4a.75.75,0,0,1-.75.75ZM16.75,4.13l5.09.8V3L16.75,2Z"/><path class="cls-2" d="M16,31.72a.75.75,0,0,1-.75-.75V4.79A.75.75,0,0,1,16.12,4l10.22,1.6a.75.75,0,0,1,.63.74V28.84a.75.75,0,0,1-.6.73L16.15,31.7Zm.75-26.06V30l8.72-1.82V7Z"/><path class="cls-1" d="M5.78,10.09a.5.5,0,0,1-.05-1L15.95,8a.5.5,0,0,1,.1,1L5.83,10.09Z"/><path class="cls-1" d="M5.78,13.3a.5.5,0,0,1,0-1L16,11.77a.49.49,0,0,1,.53.47.5.5,0,0,1-.47.53L5.8,13.3Z"/><path class="cls-1" d="M16,16.51H5.78a.5.5,0,1,1,0-1H16a.5.5,0,0,1,0,1Z"/><path class="cls-1" d="M16,20.25h0L5.75,19.71a.5.5,0,0,1-.47-.53.49.49,0,0,1,.53-.47L16,19.25a.5.5,0,0,1,0,1Z"/><path class="cls-1" d="M16,24h-.05L5.73,22.92a.5.5,0,0,1,.1-1L16.05,23A.5.5,0,0,1,16,24Z"/><path class="cls-1" d="M16,27.73h-.08L5.7,26.12a.5.5,0,0,1,.15-1l10.22,1.6a.5.5,0,0,1-.08,1Z"/><path class="cls-2" d="M9.41,6.56a.75.75,0,0,1-.75-.75V2.41a.75.75,0,0,1,.6-.73L15.85.3a.75.75,0,0,1,.9.73V4.78a.75.75,0,0,1-.63.74l-6.59,1ZM10.16,3V4.93l5.09-.8V2Z"/><path class="cls-2" d="M16,31.72l-.15,0L5.63,29.57a.75.75,0,0,1-.6-.73V6.39a.75.75,0,0,1,.63-.74L15.88,4a.75.75,0,0,1,.87.74V31a.75.75,0,0,1-.75.75ZM6.53,28.23,15.25,30V5.66L6.53,7Z"/><path class="cls-1" d="M26.22,10.09h-.05L15.95,9a.5.5,0,0,1,.1-1L26.27,9.1a.5.5,0,0,1-.05,1Z"/><path class="cls-1" d="M26.22,13.3h0L16,12.77a.5.5,0,1,1,.05-1l10.22.53a.5.5,0,0,1,0,1Z"/><path class="cls-1" d="M26.22,16.51H16a.5.5,0,0,1,0-1H26.22a.5.5,0,1,1,0,1Z"/><path class="cls-1" d="M16,20.25a.5.5,0,0,1,0-1l10.22-.53a.49.49,0,0,1,.53.47.5.5,0,0,1-.47.53L16,20.25Z"/><path class="cls-1" d="M16,24a.5.5,0,0,1-.05-1l10.22-1.07a.5.5,0,0,1,.1,1L16.05,24Z"/><path class="cls-1" d="M16,27.73a.5.5,0,0,1-.08-1l10.22-1.6a.51.51,0,0,1,.57.42.5.5,0,0,1-.42.57l-10.22,1.6Z"/><path class="cls-2" d="M22.59,6.56h-.12l-6.59-1a.75.75,0,0,1-.63-.74V1a.75.75,0,0,1,.9-.73l6.59,1.37a.75.75,0,0,1,.6.73v3.4a.75.75,0,0,1-.75.75ZM16.75,4.13l5.09.8V3L16.75,2Z"/><path class="cls-2" d="M16,31.72a.75.75,0,0,1-.75-.75V4.79A.75.75,0,0,1,16.12,4l10.22,1.6a.75.75,0,0,1,.63.74V28.84a.75.75,0,0,1-.6.73L16.15,31.7Zm.75-26.06V30l8.72-1.82V7Z"/><path class="cls-1" d="M5.78,10.09a.5.5,0,0,1-.05-1L15.95,8a.5.5,0,0,1,.1,1L5.83,10.09Z"/><path class="cls-1" d="M5.78,13.3a.5.5,0,0,1,0-1L16,11.77a.49.49,0,0,1,.53.47.5.5,0,0,1-.47.53L5.8,13.3Z"/><path class="cls-1" d="M16,16.51H5.78a.5.5,0,1,1,0-1H16a.5.5,0,0,1,0,1Z"/><path class="cls-1" d="M16,20.25h0L5.75,19.71a.5.5,0,0,1-.47-.53.49.49,0,0,1,.53-.47L16,19.25a.5.5,0,0,1,0,1Z"/><path class="cls-1" d="M16,24h-.05L5.73,22.92a.5.5,0,0,1,.1-1L16.05,23A.5.5,0,0,1,16,24Z"/><path class="cls-1" d="M16,27.73h-.08L5.7,26.12a.5.5,0,0,1,.15-1l10.22,1.6a.5.5,0,0,1-.08,1Z"/><path class="cls-2" d="M9.41,6.56a.75.75,0,0,1-.75-.75V2.41a.75.75,0,0,1,.6-.73L15.85.3a.75.75,0,0,1,.9.73V4.78a.75.75,0,0,1-.63.74l-6.59,1ZM10.16,3V4.93l5.09-.8V2Z"/><path class="cls-2" d="M16,31.72l-.15,0L5.63,29.57a.75.75,0,0,1-.6-.73V6.39a.75.75,0,0,1,.63-.74L15.88,4a.75.75,0,0,1,.87.74V31a.75.75,0,0,1-.75.75ZM6.53,28.23,15.25,30V5.66L6.53,7Z"/></svg>