<svg id="expanded" xmlns="http://www.w3.org/2000/svg" viewBox="0 0 32 32"><defs><style>.cls-1{fill:#4d4c4c;}.cls-2{fill:#54a4da;}</style></defs><title>paper</title><path class="cls-1" d="M19.23,1.75,25.68,8.2V30.25H6.32V1.75H19.23m.62-1.5h-15v31.5H27.18V7.58L19.85.25Z"/><polygon class="cls-1" points="19.85 7.58 27.18 7.58 19.85 0.25 19.85 7.58"/><path class="cls-2" d="M23.33,11.13H8.67a.5.5,0,1,1,0-1H23.33a.5.5,0,1,1,0,1Z"/><path class="cls-2" d="M23.33,14.71H8.67a.5.5,0,1,1,0-1H23.33a.5.5,0,1,1,0,1Z"/><path class="cls-2" d="M23.33,18.29H8.67a.5.5,0,1,1,0-1H23.33a.5.5,0,1,1,0,1Z"/><path class="cls-2" d="M18.21,21.87H8.67a.5.5,0,1,1,0-1h9.54a.5.5,0,1,1,0,1Z"/><path class="cls-1" d="M19.23,1.75,25.68,8.2V30.25H6.32V1.75H19.23m.62-1.5h-15v31.5H27.18V7.58L19.85.25Z"/><polygon class="cls-1" points="19.85 7.58 27.18 7.58 19.85 0.25 19.85 7.58"/><path class="cls-2" d="M23.33,11.13H8.67a.5.5,0,1,1,0-1H23.33a.5.5,0,1,1,0,1Z"/><path class="cls-2" d="M23.33,14.71H8.67a.5.5,0,1,1,0-1H23.33a.5.5,0,1,1,0,1Z"/><path class="cls-2" d="M23.33,18.29H8.67a.5.5,0,1,1,0-1H23.33a.5.5,0,1,1,0,1Z"/><path class="cls-2" d="M18.21,21.87H8.67a.5.5,0,1,1,0-1h9.54a.5.5,0,1,1,0,1Z"/></svg>