<svg id="expanded" xmlns="http://www.w3.org/2000/svg" viewBox="0 0 32 32"><defs><style>.cls-1{fill:#4d4c4c;}.cls-2{fill:#54a4da;}</style></defs><title>pedestrian</title><path class="cls-1" d="M21.91,31.54H18.31a.5.5,0,0,1-.49-.41l-1.28-6.77-1.49-2L14.25,25a.5.5,0,0,1-.09.16L9.49,31a.5.5,0,0,1-.54.17l-1.29-.39a.49.49,0,0,1-.21-.13A2.83,2.83,0,0,1,7,27.32l3-3.94,1.94-5.08,1-6.72-.15,0L10.56,16.8a.5.5,0,0,1-.22.24,1.92,1.92,0,0,1-1.78.19,2,2,0,0,1-1-1.38.5.5,0,0,1,0-.28l2.54-6.81a.5.5,0,0,1,.26-.28l5.7-2.57a3.14,3.14,0,0,1,2.6,0l.13.06a2.91,2.91,0,0,1,1.33,1.24l0,.1c.47,1.54,1.23,4,1.4,4.5a47,47,0,0,0,4.34,2.58.5.5,0,0,1,.22.64c-1.16,2.66-1.6,2.5-1.93,2.38s-4-1.7-4.4-1.87a.5.5,0,0,1-.17-.11l-1-1.06c0,.21,0,2.14,0,2.63l2.71,5.77a.48.48,0,0,1,0,.15L22.41,31a.5.5,0,0,1-.5.56Zm-3.19-1h2.62l-1-7.42-2.72-5.8a.5.5,0,0,1,0-.22s0-2.71,0-2.83,0-.23.37-1a.5.5,0,0,1,.37-.28.49.49,0,0,1,.44.15l1.47,1.55,4,1.72A10.55,10.55,0,0,0,25,15c-4.13-2.27-4.28-2.6-4.35-2.77-.16-.37-1.2-3.8-1.45-4.62a1.91,1.91,0,0,0-.85-.77l-.13-.06a2.14,2.14,0,0,0-1.77,0L11,9.31,8.56,15.77a1,1,0,0,0,.42.55.92.92,0,0,0,.73-.09L12,11a.5.5,0,0,1,.31-.28l1.13-.37a.5.5,0,0,1,.48.09.5.5,0,0,1,.17.46L12.93,18.5a.51.51,0,0,1,0,.1l-2,5.2a.5.5,0,0,1-.07.13l-3,3.93a1.82,1.82,0,0,0,.27,2l.83.25,4.4-5.49,1.07-3.44a.5.5,0,0,1,.39-.34.5.5,0,0,1,.48.19l2.15,2.84a.49.49,0,0,1,.09.21Z"/><g id="path3017"><path class="cls-2" d="M20.31,5.53A2.55,2.55,0,1,1,22.86,3,2.55,2.55,0,0,1,20.31,5.53Zm0-4.09A1.55,1.55,0,1,0,21.86,3,1.55,1.55,0,0,0,20.31,1.44Z"/></g><path class="cls-1" d="M21.91,31.54H18.31a.5.5,0,0,1-.49-.41l-1.28-6.77-1.49-2L14.25,25a.5.5,0,0,1-.09.16L9.49,31a.5.5,0,0,1-.54.17l-1.29-.39a.49.49,0,0,1-.21-.13A2.83,2.83,0,0,1,7,27.32l3-3.94,1.94-5.08,1-6.72-.15,0L10.56,16.8a.5.5,0,0,1-.22.24,1.92,1.92,0,0,1-1.78.19,2,2,0,0,1-1-1.38.5.5,0,0,1,0-.28l2.54-6.81a.5.5,0,0,1,.26-.28l5.7-2.57a3.14,3.14,0,0,1,2.6,0l.13.06a2.91,2.91,0,0,1,1.33,1.24l0,.1c.47,1.54,1.23,4,1.4,4.5a47,47,0,0,0,4.34,2.58.5.5,0,0,1,.22.64c-1.16,2.66-1.6,2.5-1.93,2.38s-4-1.7-4.4-1.87a.5.5,0,0,1-.17-.11l-1-1.06c0,.21,0,2.14,0,2.63l2.71,5.77a.48.48,0,0,1,0,.15L22.41,31a.5.5,0,0,1-.5.56Zm-3.19-1h2.62l-1-7.42-2.72-5.8a.5.5,0,0,1,0-.22s0-2.71,0-2.83,0-.23.37-1a.5.5,0,0,1,.37-.28.49.49,0,0,1,.44.15l1.47,1.55,4,1.72A10.55,10.55,0,0,0,25,15c-4.13-2.27-4.28-2.6-4.35-2.77-.16-.37-1.2-3.8-1.45-4.62a1.91,1.91,0,0,0-.85-.77l-.13-.06a2.14,2.14,0,0,0-1.77,0L11,9.31,8.56,15.77a1,1,0,0,0,.42.55.92.92,0,0,0,.73-.09L12,11a.5.5,0,0,1,.31-.28l1.13-.37a.5.5,0,0,1,.48.09.5.5,0,0,1,.17.46L12.93,18.5a.51.51,0,0,1,0,.1l-2,5.2a.5.5,0,0,1-.07.13l-3,3.93a1.82,1.82,0,0,0,.27,2l.83.25,4.4-5.49,1.07-3.44a.5.5,0,0,1,.39-.34.5.5,0,0,1,.48.19l2.15,2.84a.49.49,0,0,1,.09.21Z"/><g id="path3017-2" data-name="path3017"><path class="cls-2" d="M20.31,5.53A2.55,2.55,0,1,1,22.86,3,2.55,2.55,0,0,1,20.31,5.53Zm0-4.09A1.55,1.55,0,1,0,21.86,3,1.55,1.55,0,0,0,20.31,1.44Z"/></g></svg>