<?xml version="1.0" encoding="utf-8"?>
<!-- Generator: Adobe Illustrator 20.1.0, SVG Export Plug-In . SVG Version: 6.00 Build 0)  -->
<svg version="1.1" id="Layer_1" xmlns="http://www.w3.org/2000/svg" xmlns:xlink="http://www.w3.org/1999/xlink" x="0px" y="0px"
	 viewBox="0 0 32 32" style="enable-background:new 0 0 32 32;" xml:space="preserve">
<style type="text/css">
	.st0{fill:#4C4C4C;}
	.st1{fill:#55A5DB;}
</style>
<g>
	<g>
		<path class="st0" d="M24,31.9H5.5c-3.1,0-5.5-2.5-5.5-5.5V8.2c0-3.1,2.5-5.5,5.5-5.5h13.2c0.4,0,0.7,0.3,0.7,0.7s-0.3,0.7-0.7,0.7
			H5.5c-2.3,0-4.1,1.8-4.1,4.1v18.2c0,2.3,1.8,4.1,4.1,4.1H24c2.3,0,4.1-1.8,4.1-4.1V12.6c0-0.4,0.3-0.7,0.7-0.7s0.7,0.3,0.7,0.7
			v13.8C29.6,29.5,27.1,31.9,24,31.9z"/>
	</g>
</g>
<g>
	<g>
		<path class="st0" d="M29.6,6.5c-0.1,0-0.2,0-0.3-0.1l-3.8-3.7c-0.1-0.1-0.1-0.2-0.1-0.3s0.1-0.3,0.1-0.3L27,0.4
			c0.7-0.7,1.8-0.7,2.5,0l1.9,1.9C31.8,2.7,32,3.1,32,3.6s-0.2,0.9-0.5,1.3L30,6.4C29.9,6.5,29.8,6.5,29.6,6.5z M26.5,2.3l3.1,3.1
			l1.2-1.2C31,4,31,3.8,31,3.6c0-0.2-0.1-0.4-0.2-0.6l-1.9-1.9c-0.3-0.3-0.8-0.3-1.2,0L26.5,2.3z"/>
	</g>
</g>
<path class="st1" d="M28.4,7.2l-3.8-3.7c-0.2-0.2-0.5-0.2-0.7,0L10.2,17.1c-0.1,0.1-0.2,0.4-0.1,0.6c0.1,0.2,0.3,0.3,0.5,0.3
	c0,0,1.1-0.2,2.2,1c1.2,1.1,1,2.1,1,2.2c0,0.2,0.1,0.4,0.2,0.5c0.1,0,0.2,0.1,0.2,0.1c0.1,0,0.2,0,0.3-0.1L28.4,7.9
	c0.1-0.1,0.1-0.2,0.1-0.3C28.6,7.4,28.5,7.3,28.4,7.2z M14.7,20.1c-0.1-0.5-0.5-1.2-1.2-1.9c-0.7-0.7-1.4-1-1.9-1.2L24.3,4.5
	l1.2,1.2L20,11.1c-0.2,0.2-0.2,0.5,0,0.7c0.1,0.1,0.2,0.1,0.3,0.1c0.1,0,0.2,0,0.3-0.1l5.5-5.4l1.2,1.2L14.7,20.1z"/>
<path class="st0" d="M13.6,18.3c-1.4-1.4-2.6-1.3-3-1.3c0,0-0.1,0-0.1,0l-0.3,0.1l-3.3,7.7l7.5-3.2l0.3-0.2l0.1-0.4
	C14.8,20.7,14.9,19.6,13.6,18.3z M13.8,20.9l-4.3,1.8L9,22.2l1.8-4.3c0.3,0,1.1,0,2.1,1C13.8,19.9,13.8,20.6,13.8,20.9z"/>
</svg>
