<svg id="expanded_thinner" data-name="expanded thinner" xmlns="http://www.w3.org/2000/svg" viewBox="0 0 32 32"><defs><style>.cls-1{fill:#4c4c4c;}.cls-2{fill:#54a4da;}</style></defs><title>phone</title><path class="cls-1" d="M24.45,31.54a20.33,20.33,0,0,1-10-2.79A28.84,28.84,0,0,1,4.08,19,22.25,22.25,0,0,1,.66,10.25C.6,9.85.56,9.46.51,9.07L.46,8.6v-2l.3-2.15a2.65,2.65,0,0,1,.95-1.8,14.28,14.28,0,0,1,1.45-1A9.5,9.5,0,0,1,6.07.47h.81L7,.47a2.51,2.51,0,0,1,1.5,1.21q1,1.58,2.05,3.15L12.1,7.19a1.91,1.91,0,0,1-.23,2.57,8.7,8.7,0,0,1-1,.8l-.28.21-.47.34c-.18.12-.35.25-.52.38A1.87,1.87,0,0,0,9,13.64a10.36,10.36,0,0,0,1.31,2.62,17.5,17.5,0,0,0,7.07,6.39,6.5,6.5,0,0,0,1.15.42,1.47,1.47,0,0,0,1.67-.56c.2-.25.39-.52.57-.79l.32-.46.16-.22a7.44,7.44,0,0,1,.54-.71,2.21,2.21,0,0,1,3.09-.39L28.07,22,30,23.29l.34.22A2.35,2.35,0,0,1,31.53,25a.49.49,0,0,1,0,.13v.76a.5.5,0,0,1,0,.22A9.83,9.83,0,0,1,29.64,30,2.57,2.57,0,0,1,28,31.17l-.5.08a20.65,20.65,0,0,1-2.68.29ZM6.24,1.46a8.49,8.49,0,0,0-2.57,1,13.43,13.43,0,0,0-1.35,1,1.64,1.64,0,0,0-.58,1.15L1.5,6.42c0,.07,0,.13,0,.18V8.54L1.5,9c0,.38.09.76.15,1.14a21.26,21.26,0,0,0,3.27,8.32,27.85,27.85,0,0,0,10,9.47,19,19,0,0,0,9.86,2.66,19.81,19.81,0,0,0,2.55-.28l.5-.08c.37-.06.64-.33,1-.79a8.78,8.78,0,0,0,1.68-3.54l0-.08v-.58a1.41,1.41,0,0,0-.73-.81c-.15-.08-.28-.18-.42-.27l-1.88-1.24-3.2-2.1a1.24,1.24,0,0,0-1.8.22,6.33,6.33,0,0,0-.47.62l-.17.23-.3.44c-.2.29-.4.58-.62.85a2.48,2.48,0,0,1-2.72.89,7.37,7.37,0,0,1-1.32-.49,18.49,18.49,0,0,1-7.47-6.75A11.33,11.33,0,0,1,8,13.91a2.88,2.88,0,0,1,1-3.2c.19-.15.38-.29.58-.42L10,10l.28-.22a7.7,7.7,0,0,0,.84-.7.93.93,0,0,0,.11-1.32L9.73,5.38Q8.7,3.8,7.67,2.22a1.58,1.58,0,0,0-.85-.77Z"/><path class="cls-2" d="M27.86,14.53a.38.38,0,0,1-.37-.37,9.86,9.86,0,0,0-9.84-9.84.37.37,0,0,1,0-.75A10.61,10.61,0,0,1,28.24,14.16.38.38,0,0,1,27.86,14.53Z"/><path class="cls-2" d="M23.49,14.53a.38.38,0,0,1-.37-.37,5.48,5.48,0,0,0-5.47-5.47.38.38,0,0,1,0-.75,6.23,6.23,0,0,1,6.22,6.22A.38.38,0,0,1,23.49,14.53Z"/><path class="cls-1" d="M24.45,31.54a20.33,20.33,0,0,1-10-2.79A28.84,28.84,0,0,1,4.08,19,22.25,22.25,0,0,1,.66,10.25C.6,9.85.56,9.46.51,9.07L.46,8.6v-2l.3-2.15a2.65,2.65,0,0,1,.95-1.8,14.28,14.28,0,0,1,1.45-1A9.5,9.5,0,0,1,6.07.47h.81L7,.47a2.51,2.51,0,0,1,1.5,1.21q1,1.58,2.05,3.15L12.1,7.19a1.91,1.91,0,0,1-.23,2.57,8.7,8.7,0,0,1-1,.8l-.28.21-.47.34c-.18.12-.35.25-.52.38A1.87,1.87,0,0,0,9,13.64a10.36,10.36,0,0,0,1.31,2.62,17.5,17.5,0,0,0,7.07,6.39,6.5,6.5,0,0,0,1.15.42,1.47,1.47,0,0,0,1.67-.56c.2-.25.39-.52.57-.79l.32-.46.16-.22a7.44,7.44,0,0,1,.54-.71,2.21,2.21,0,0,1,3.09-.39L28.07,22,30,23.29l.34.22A2.35,2.35,0,0,1,31.53,25a.49.49,0,0,1,0,.13v.76a.5.5,0,0,1,0,.22A9.83,9.83,0,0,1,29.64,30,2.57,2.57,0,0,1,28,31.17l-.5.08a20.65,20.65,0,0,1-2.68.29ZM6.24,1.46a8.49,8.49,0,0,0-2.57,1,13.43,13.43,0,0,0-1.35,1,1.64,1.64,0,0,0-.58,1.15L1.5,6.42c0,.07,0,.13,0,.18V8.54L1.5,9c0,.38.09.76.15,1.14a21.26,21.26,0,0,0,3.27,8.32,27.85,27.85,0,0,0,10,9.47,19,19,0,0,0,9.86,2.66,19.81,19.81,0,0,0,2.55-.28l.5-.08c.37-.06.64-.33,1-.79a8.78,8.78,0,0,0,1.68-3.54l0-.08v-.58a1.41,1.41,0,0,0-.73-.81c-.15-.08-.28-.18-.42-.27l-1.88-1.24-3.2-2.1a1.24,1.24,0,0,0-1.8.22,6.33,6.33,0,0,0-.47.62l-.17.23-.3.44c-.2.29-.4.58-.62.85a2.48,2.48,0,0,1-2.72.89,7.37,7.37,0,0,1-1.32-.49,18.49,18.49,0,0,1-7.47-6.75A11.33,11.33,0,0,1,8,13.91a2.88,2.88,0,0,1,1-3.2c.19-.15.38-.29.58-.42L10,10l.28-.22a7.7,7.7,0,0,0,.84-.7.93.93,0,0,0,.11-1.32L9.73,5.38Q8.7,3.8,7.67,2.22a1.58,1.58,0,0,0-.85-.77Z"/><path class="cls-2" d="M27.86,14.53a.38.38,0,0,1-.37-.37,9.86,9.86,0,0,0-9.84-9.84.37.37,0,0,1,0-.75A10.61,10.61,0,0,1,28.24,14.16.38.38,0,0,1,27.86,14.53Z"/><path class="cls-2" d="M23.49,14.53a.38.38,0,0,1-.37-.37,5.48,5.48,0,0,0-5.47-5.47.38.38,0,0,1,0-.75,6.23,6.23,0,0,1,6.22,6.22A.38.38,0,0,1,23.49,14.53Z"/></svg>