<svg id="expanded" xmlns="http://www.w3.org/2000/svg" viewBox="0 0 32 32"><defs><style>.cls-1{fill:#54a4da;}.cls-2{fill:#4d4c4c;}</style></defs><title>quote</title><path class="cls-1" d="M23.93,26.79l2.41-4H23.93V15h7.95v8.13L27.1,28.92Zm-9.91,0,2.41-4H14V15H22v8.13l-4.78,5.76Z"/><path class="cls-2" d="M4.9,3.08.13,8.84V17H8.07V9.19H5.66l2.41-4Zm9.91,0L10,8.84V17H18V9.19H15.58l2.41-4Z"/><path class="cls-1" d="M23.93,26.79l2.41-4H23.93V15h7.95v8.13L27.1,28.92Zm-9.91,0,2.41-4H14V15H22v8.13l-4.78,5.76Z"/><path class="cls-2" d="M4.9,3.08.13,8.84V17H8.07V9.19H5.66l2.41-4Zm9.91,0L10,8.84V17H18V9.19H15.58l2.41-4Z"/></svg>