<?xml version="1.0" encoding="UTF-8" standalone="no"?>
<svg width="78px" height="73px" viewBox="0 0 78 73" version="1.1" xmlns="http://www.w3.org/2000/svg" xmlns:xlink="http://www.w3.org/1999/xlink">
    <!-- Generator: Sketch 39.1 (31720) - http://www.bohemiancoding.com/sketch -->
    <title>Page 1</title>
    <desc>Created with Sketch.</desc>
    <defs></defs>
    <g id="Support" stroke="none" stroke-width="1" fill="none" fill-rule="evenodd">
        <g transform="translate(-1022.000000, -259.000000)" id="Page-1">
            <g transform="translate(1022.000000, 259.000000)">
                <path d="M64.9003,72.5 L12.2793,72.5 C11.8653,72.5 11.5293,72.164 11.5293,71.75 C11.5293,71.336 11.8653,71 12.2793,71 L64.9003,71 C65.3143,71 65.6503,71.336 65.6503,71.75 C65.6503,72.164 65.3143,72.5 64.9003,72.5" id="Fill-1" fill="#4C4C4C"></path>
                <path d="M76.4291,44.7499 L0.7471,44.7499" id="Stroke-3" stroke="#54A5DB" stroke-linecap="round"></path>
                <path d="M74.4398,58.4688 L2.7398,58.4688 C1.6408,58.4688 0.7498,57.5778 0.7498,56.4798 L0.7498,2.7398 C0.7498,1.6408 1.6408,0.7498 2.7398,0.7498 L74.4398,0.7498 C75.5388,0.7498 76.4288,1.6408 76.4288,2.7398 L76.4288,56.4798 C76.4288,57.5778 75.5388,58.4688 74.4398,58.4688 L74.4398,58.4688 Z" id="Stroke-5" stroke="#4C4C4C" stroke-width="1.5" stroke-linejoin="round"></path>
                <path d="M38.5896,52.106 C38.4726,52.106 38.3386,52.089 38.2236,52.073 C38.1066,52.039 37.9896,52.006 37.8716,51.956 C37.7566,51.906 37.6556,51.856 37.5396,51.79 C37.4396,51.723 37.3566,51.639 37.2566,51.556 C36.9066,51.206 36.7066,50.723 36.7066,50.223 C36.7066,49.74 36.9066,49.257 37.2566,48.907 C37.3566,48.823 37.4396,48.74 37.5396,48.673 C37.6556,48.607 37.7566,48.54 37.8716,48.49 C37.9896,48.457 38.1066,48.424 38.2236,48.39 C38.4566,48.34 38.7056,48.34 38.9556,48.39 C39.0726,48.424 39.1886,48.457 39.3056,48.49 C39.4226,48.54 39.5216,48.607 39.6226,48.673 C39.7386,48.74 39.8226,48.823 39.9226,48.907 C40.2726,49.257 40.4726,49.74 40.4726,50.223 C40.4726,50.723 40.2726,51.206 39.9226,51.556 C39.8226,51.639 39.7386,51.723 39.6226,51.79 C39.5216,51.856 39.4226,51.906 39.3056,51.956 C39.1886,52.006 39.0726,52.039 38.9556,52.073 C38.8386,52.089 38.7056,52.106 38.5896,52.106" id="Fill-7" fill="#54A5DB"></path>
                <path d="M30.2136,58.4688 C30.2136,58.4688 29.8196,67.3158 25.0896,71.7498 L52.3686,71.7498 C47.6386,67.3158 47.2446,58.4688 47.2446,58.4688 L30.2136,58.4688 L30.2136,58.4688 Z" id="Stroke-9" stroke="#4C4C4C"></path>
            </g>
        </g>
    </g>
</svg>