<svg xmlns="http://www.w3.org/2000/svg" viewBox="0 0 12 176"><style type="text/css">  
	.st0{fill:#B3B4B4;}
</style><title>  Scroll_vertical</title><path class="st0" d="M6.5 164v-17.1c1.4-0.2 2.5-1.5 2.5-2.9s-1.1-2.7-2.5-2.9v-21.1c0.9-0.2 1.5-1 1.5-1.9s-0.6-1.7-1.5-1.9V93.9C7.4 93.7 8 92.9 8 92s-0.6-1.7-1.5-1.9V67.9C7.4 67.7 8 66.9 8 66s-0.6-1.7-1.5-1.9V41.9C7.4 41.7 8 40.9 8 40s-0.6-1.7-1.5-1.9V0h-1v38.1C4.6 38.3 4 39.1 4 40s0.6 1.7 1.5 1.9v22.1C4.6 64.3 4 65.1 4 66s0.6 1.7 1.5 1.9v22.1C4.6 90.3 4 91.1 4 92s0.6 1.7 1.5 1.9v22.1c-0.9 0.2-1.5 1-1.5 1.9s0.6 1.7 1.5 1.9v21.1C4.1 141.3 3 142.5 3 144s1.1 2.7 2.5 2.9V164c-3.1 0.3-5.5 2.8-5.5 6 0 3.3 2.7 6 6 6s6-2.7 6-6C12 166.9 9.6 164.3 6.5 164zM6 175c-2.8 0-5-2.2-5-5s2.2-5 5-5 5 2.2 5 5S8.8 175 6 175z"/></svg>
