<svg xmlns="http://www.w3.org/2000/svg" viewBox="0 0 14 173"><style type="text/css">  
	.st0{fill:#B3B4B4;}
</style><title>  Scroll_vertical</title><path class="st0" d="M13 144c0-3.1-2.4-5.7-5.5-6v-17.1c1.4-0.2 2.5-1.5 2.5-2.9s-1.1-2.7-2.5-2.9V93.9C8.4 93.7 9 92.9 9 92s-0.6-1.7-1.5-1.9V67.9C8.4 67.7 9 66.9 9 66s-0.6-1.7-1.5-1.9V41.9C8.4 41.7 9 40.9 9 40s-0.6-1.7-1.5-1.9V0h-1v38.1C5.6 38.3 5 39.1 5 40s0.6 1.7 1.5 1.9v22.1C5.6 64.3 5 65.1 5 66s0.6 1.7 1.5 1.9v22.1C5.6 90.3 5 91.1 5 92s0.6 1.7 1.5 1.9v21.1C5.1 115.3 4 116.5 4 118s1.1 2.7 2.5 2.9V138c-3.1 0.3-5.5 2.8-5.5 6s2.4 5.7 5.5 6v17.1C5.1 167.3 4 168.5 4 170c0 1.7 1.3 3 3 3s3-1.3 3-3c0-1.5-1.1-2.7-2.5-2.9V150C10.6 149.7 13 147.1 13 144zM2 144c0-2.8 2.2-5 5-5s5 2.2 5 5 -2.2 5-5 5S2 146.8 2 144z"/></svg>