<?xml version="1.0" encoding="UTF-8" standalone="no"?>
<svg width="161px" height="71px" viewBox="0 0 161 71" version="1.1" xmlns="http://www.w3.org/2000/svg" xmlns:xlink="http://www.w3.org/1999/xlink">
    <!-- Generator: Sketch 39.1 (31720) - http://www.bohemiancoding.com/sketch -->
    <title>Page 1</title>
    <desc>Created with Sketch.</desc>
    <defs>
        <polygon id="path-1" points="87.498 35.74995 87.498 0.5 0.464 0.5 0.464 70.9999 87.498 70.9999 87.498 35.74995"></polygon>
    </defs>
    <g id="Support" stroke="none" stroke-width="1" fill="none" fill-rule="evenodd">
        <g transform="translate(-298.000000, -262.000000)" id="Page-1">
            <g transform="translate(298.000000, 261.000000)">
                <g id="Group-35" transform="translate(0.000000, 0.500000)">
                    <path d="M43.5171,0.521 C36.1121,0.521 21.7781,1.208 16.4881,1.561 C11.1081,1.919 0.0001,6.443 0.0001,18.137 L0.0001,58.773 C0.0001,64.69 3.9141,70.978 11.1691,70.978 L43.5171,70.978 L75.8651,70.978 C83.1201,70.978 87.0341,64.69 87.0341,58.773 L87.0341,18.137 C87.0341,6.443 75.9261,1.919 70.5461,1.561 C65.2561,1.208 50.9211,0.521 43.5171,0.521" id="Fill-1" fill="#4C4C4C"></path>
                    <path d="M43.5171,1.9059 C50.8841,1.9059 65.2741,2.5959 70.4541,2.9419 C75.6341,3.2869 85.6501,7.5459 85.6501,18.1369 L85.6501,58.7729 C85.6501,64.4139 81.9661,69.5939 75.8651,69.5939 L43.5171,69.5939 L11.1691,69.5939 C5.0681,69.5939 1.3841,64.4139 1.3841,58.7729 L1.3841,18.1369 C1.3841,7.5459 11.3991,3.2869 16.5801,2.9419 C21.7601,2.5959 36.1491,1.9059 43.5171,1.9059" id="Fill-3" fill="#FFFFFF"></path>
                    <path d="M43.5171,5.2987 C36.5171,5.2987 22.2451,5.9647 16.8061,6.3277 C14.2651,6.4967 4.7781,8.9967 4.7781,18.1377 L4.7781,58.7727 C4.7781,62.4647 6.9731,66.2017 11.1691,66.2017 L75.8651,66.2017 C80.0611,66.2017 82.2561,62.4647 82.2561,58.7727 L82.2561,18.1377 C82.2561,8.9977 72.7691,6.4967 70.2281,6.3277 C64.7891,5.9647 50.5171,5.2987 43.5171,5.2987" id="Fill-5" fill="#4C4C4C"></path>
                    <path d="M43.5171,5.9143 C50.5011,5.9143 64.7541,6.5793 70.1871,6.9413 C72.6071,7.1023 81.6411,9.4763 81.6411,18.1373 L81.6411,58.7733 C81.6411,62.1593 79.6571,65.5863 75.8651,65.5863 L11.1691,65.5863 C7.3771,65.5863 5.3921,62.1593 5.3921,58.7733 L5.3921,18.1373 C5.3921,9.4763 14.4271,7.1023 16.8471,6.9413 C22.2801,6.5793 36.5331,5.9143 43.5171,5.9143" id="Fill-7" fill="#FFFFFF"></path>
                    <path d="M43.5171,2.7526 C42.7661,2.7526 42.1561,3.3626 42.1561,4.1136 C42.1561,4.8646 42.7661,5.4746 43.5171,5.4746 C44.2681,5.4746 44.8781,4.8646 44.8781,4.1136 C44.8781,3.3626 44.2681,2.7526 43.5171,2.7526" id="Fill-9" fill="#4C4C4C"></path>
                    <path d="M43.5171,3.3682 C43.9281,3.3682 44.2631,3.7022 44.2631,4.1142 C44.2631,4.5252 43.9281,4.8592 43.5171,4.8592 C43.1051,4.8592 42.7711,4.5252 42.7711,4.1142 C42.7711,3.7022 43.1051,3.3682 43.5171,3.3682" id="Fill-11" fill="#FFFFFF"></path>
                    <path d="M22.7183,3.4596 C21.9673,3.4596 21.3573,4.0686 21.3573,4.8206 C21.3573,5.5716 21.9673,6.1816 22.7183,6.1816 C23.4693,6.1816 24.0793,5.5716 24.0793,4.8206 C24.0793,4.0686 23.4693,3.4596 22.7183,3.4596" id="Fill-13" fill="#4C4C4C"></path>
                    <path d="M22.7183,4.0752 C23.1293,4.0752 23.4643,4.4092 23.4643,4.8202 C23.4643,5.2312 23.1293,5.5662 22.7183,5.5662 C22.3073,5.5662 21.9723,5.2312 21.9723,4.8202 C21.9723,4.4092 22.3073,4.0752 22.7183,4.0752" id="Fill-15" fill="#FFFFFF"></path>
                    <path d="M64.5835,3.4596 C63.8325,3.4596 63.2225,4.0686 63.2225,4.8206 C63.2225,5.5716 63.8325,6.1816 64.5835,6.1816 C65.3345,6.1816 65.9445,5.5716 65.9445,4.8206 C65.9445,4.0686 65.3345,3.4596 64.5835,3.4596" id="Fill-17" fill="#4C4C4C"></path>
                    <path d="M64.5835,4.0752 C64.9945,4.0752 65.3285,4.4092 65.3285,4.8202 C65.3285,5.2312 64.9945,5.5662 64.5835,5.5662 C64.1715,5.5662 63.8375,5.2312 63.8375,4.8202 C63.8375,4.4092 64.1715,4.0752 64.5835,4.0752" id="Fill-19" fill="#FFFFFF"></path>
                    <path d="M43.5171,66.0254 C42.7661,66.0254 42.1561,66.6344 42.1561,67.3864 C42.1561,68.1374 42.7661,68.7474 43.5171,68.7474 C44.2681,68.7474 44.8781,68.1374 44.8781,67.3864 C44.8781,66.6344 44.2681,66.0254 43.5171,66.0254" id="Fill-21" fill="#4C4C4C"></path>
                    <path d="M43.5171,66.641 C43.9281,66.641 44.2631,66.975 44.2631,67.386 C44.2631,67.797 43.9281,68.132 43.5171,68.132 C43.1051,68.132 42.7711,67.797 42.7711,67.386 C42.7711,66.975 43.1051,66.641 43.5171,66.641" id="Fill-23" fill="#FFFFFF"></path>
                    <path d="M22.7183,66.0254 C21.9673,66.0254 21.3573,66.6344 21.3573,67.3864 C21.3573,68.1374 21.9673,68.7474 22.7183,68.7474 C23.4693,68.7474 24.0793,68.1374 24.0793,67.3864 C24.0793,66.6344 23.4693,66.0254 22.7183,66.0254" id="Fill-25" fill="#4C4C4C"></path>
                    <path d="M22.7183,66.641 C23.1293,66.641 23.4643,66.975 23.4643,67.386 C23.4643,67.797 23.1293,68.132 22.7183,68.132 C22.3073,68.132 21.9723,67.797 21.9723,67.386 C21.9723,66.975 22.3073,66.641 22.7183,66.641" id="Fill-27" fill="#FFFFFF"></path>
                    <path d="M64.5835,66.0254 C63.8325,66.0254 63.2225,66.6344 63.2225,67.3864 C63.2225,68.1374 63.8325,68.7474 64.5835,68.7474 C65.3345,68.7474 65.9445,68.1374 65.9445,67.3864 C65.9445,66.6344 65.3345,66.0254 64.5835,66.0254" id="Fill-29" fill="#4C4C4C"></path>
                    <path d="M64.5835,66.641 C64.9945,66.641 65.3285,66.975 65.3285,67.386 C65.3285,67.797 64.9945,68.132 64.5835,68.132 C64.1715,68.132 63.8375,67.797 63.8375,67.386 C63.8375,66.975 64.1715,66.641 64.5835,66.641" id="Fill-31" fill="#FFFFFF"></path>
                    <path d="M80.1143,34.2635 L80.1143,22.8405 C80.1083,22.8365 80.1013,22.8325 80.0953,22.8285 L80.1143,34.2635 Z M6.9193,22.8285 L6.9193,34.2635 L6.9193,22.8285 Z M75.4763,10.3575 C73.1483,8.9535 70.7363,8.5095 69.9613,8.4575 C64.5733,8.0985 50.4403,7.4405 43.5173,7.4405 C36.5943,7.4405 22.4613,8.0985 17.0723,8.4575 C16.2973,8.5095 13.8783,8.9555 11.5473,10.3645 L75.4683,10.3645 L75.4763,10.3575 L75.4763,10.3575 Z M6.9193,46.7275 L6.9193,58.6195 C6.9193,60.0665 7.3533,61.4675 8.1083,62.4625 C8.9123,63.5225 9.9983,64.0595 11.3373,64.0595 L75.6973,64.0595 C77.0353,64.0595 78.1213,63.5225 78.9263,62.4625 C79.6813,61.4675 80.1143,60.0665 80.1143,58.6195 L80.1143,46.7275 L6.9193,46.7275 Z M6.9193,34.2755 C6.9193,34.2755 8.2443,38.2715 8.2443,41.0105 C8.2443,43.7515 6.9193,46.7195 6.9193,46.7195 L6.9193,34.2755 Z M80.1143,46.7195 L80.1143,46.6055 C79.8763,46.0395 78.8383,43.4365 78.8383,41.0115 C78.8383,38.5855 79.8763,35.1785 80.1143,34.4275 L80.1143,34.2745 L80.1143,46.7195 Z" id="Stroke-33" stroke="#4C4C4C" stroke-linecap="round" stroke-linejoin="round"></path>
                </g>
                <path d="M8.9341,23.5872 L78.1001,23.5872 M6.6871,34.6282 L80.3471,34.6282 M6.6871,46.9312 L80.3471,46.9312" id="Stroke-36" stroke="#4C4C4C"></path>
                <g id="Group-102" transform="translate(6.000000, 0.500000)">
                    <path d="M74.0957,22.5695 C72.7667,21.5635 71.6247,15.4145 71.3957,13.8485 C71.1677,12.2835 69.4677,10.3825 69.4677,10.3825 L5.5467,10.3825 C5.5467,10.3825 3.8477,12.2835 3.6187,13.8485 C3.3897,15.4145 2.2487,21.5635 0.9197,22.5695" id="Stroke-37" stroke="#4C4C4C" stroke-linecap="round" stroke-linejoin="round"></path>
                    <path d="M74.2485,0.5209 C66.8465,0.5209 52.5105,1.2069 47.2205,1.5599 C41.8405,1.9189 30.7315,6.4429 30.7315,18.1369 L30.7315,58.7719 C30.7315,64.6899 34.6465,70.9789 41.9025,70.9789 L74.2485,70.9789 L106.5955,70.9789 C113.8505,70.9789 117.7665,64.6899 117.7665,58.7719 L117.7665,18.1369 C117.7665,6.4429 106.6575,1.9189 101.2775,1.5599 C95.9865,1.2069 81.6515,0.5209 74.2485,0.5209" id="Fill-39" fill="#4C4C4C"></path>
                    <path d="M74.2485,1.9064 C81.6165,1.9064 96.0045,2.5964 101.1855,2.9424 C106.3655,3.2884 116.3795,7.5464 116.3795,18.1374 L116.3795,58.7724 C116.3795,64.4124 112.6965,69.5924 106.5955,69.5924 L74.2485,69.5924 L41.9025,69.5924 C35.8015,69.5924 32.1175,64.4124 32.1175,58.7724 L32.1175,18.1374 C32.1175,7.5464 42.1315,3.2884 47.3125,2.9424 C52.4925,2.5964 66.8815,1.9064 74.2485,1.9064" id="Fill-41" fill="#FFFFFF"></path>
                    <path d="M74.2485,2.7531 C73.4975,2.7531 72.8875,3.3631 72.8875,4.1141 C72.8875,4.8651 73.4975,5.4751 74.2485,5.4751 C74.9995,5.4751 75.6095,4.8651 75.6095,4.1141 C75.6095,3.3631 74.9995,2.7531 74.2485,2.7531" id="Fill-43" fill="#4C4C4C"></path>
                    <path d="M74.2485,5.9149 C67.2655,5.9149 53.0125,6.5799 47.5795,6.9419 C45.1605,7.1029 36.1255,9.4759 36.1255,18.1369 L36.1255,58.7719 C36.1255,62.1579 38.1105,65.5839 41.9025,65.5839 L106.5955,65.5839 C110.3885,65.5839 112.3715,62.1579 112.3715,58.7719 L112.3715,18.1369 C112.3715,9.4759 103.3375,7.1029 100.9185,6.9419 C95.4855,6.5799 81.2325,5.9149 74.2485,5.9149" id="Fill-45" fill="#4C4C4C"></path>
                    <path d="M74.2485,6.5305 C81.2225,6.5305 95.4525,7.1945 100.8775,7.5565 C103.1755,7.7095 111.7565,9.9535 111.7565,18.1375 L111.7565,58.7725 C111.7565,61.8515 109.9835,64.9685 106.5955,64.9685 L41.9025,64.9685 C38.5145,64.9685 36.7415,61.8515 36.7415,58.7725 L36.7415,18.1375 C36.7415,9.9535 45.3225,7.7095 47.6205,7.5565 C53.0445,7.1945 67.2745,6.5305 74.2485,6.5305" id="Fill-47" fill="#FFFFFF"></path>
                    <path d="M74.2485,3.3693 C74.6595,3.3693 74.9935,3.7033 74.9935,4.1143 C74.9935,4.5253 74.6595,4.8593 74.2485,4.8593 C73.8385,4.8593 73.5035,4.5253 73.5035,4.1143 C73.5035,3.7033 73.8385,3.3693 74.2485,3.3693" id="Fill-49" fill="#FFFFFF"></path>
                    <path d="M53.4502,3.46 C52.6992,3.46 52.0892,4.07 52.0892,4.821 C52.0892,5.572 52.6992,6.182 53.4502,6.182 C54.2012,6.182 54.8112,5.572 54.8112,4.821 C54.8112,4.07 54.2012,3.46 53.4502,3.46" id="Fill-51" fill="#4C4C4C"></path>
                    <path d="M95.3145,3.46 C94.5635,3.46 93.9535,4.07 93.9535,4.821 C93.9535,5.572 94.5635,6.182 95.3145,6.182 C96.0655,6.182 96.6755,5.572 96.6755,4.821 C96.6755,4.07 96.0655,3.46 95.3145,3.46" id="Fill-53" fill="#4C4C4C"></path>
                    <path d="M74.2485,66.0239 C73.4975,66.0239 72.8875,66.6339 72.8875,67.3849 C72.8875,68.1369 73.4975,68.7459 74.2485,68.7459 C74.9995,68.7459 75.6095,68.1369 75.6095,67.3849 C75.6095,66.6339 74.9995,66.0239 74.2485,66.0239" id="Fill-55" fill="#4C4C4C"></path>
                    <path d="M74.2485,66.6401 C74.6595,66.6401 74.9935,66.9741 74.9935,67.3851 C74.9935,67.7961 74.6595,68.1301 74.2485,68.1301 C73.8385,68.1301 73.5035,67.7961 73.5035,67.3851 C73.5035,66.9741 73.8385,66.6401 74.2485,66.6401" id="Fill-57" fill="#FFFFFF"></path>
                    <path d="M53.4502,66.0239 C52.6992,66.0239 52.0892,66.6339 52.0892,67.3849 C52.0892,68.1369 52.6992,68.7459 53.4502,68.7459 C54.2012,68.7459 54.8112,68.1369 54.8112,67.3849 C54.8112,66.6339 54.2012,66.0239 53.4502,66.0239" id="Fill-59" fill="#4C4C4C"></path>
                    <path d="M53.4502,66.6401 C53.8612,66.6401 54.1952,66.9741 54.1952,67.3851 C54.1952,67.7961 53.8612,68.1301 53.4502,68.1301 C53.0402,68.1301 52.7052,67.7961 52.7052,67.3851 C52.7052,66.9741 53.0402,66.6401 53.4502,66.6401" id="Fill-61" fill="#FFFFFF"></path>
                    <path d="M95.3145,66.0239 C94.5635,66.0239 93.9535,66.6339 93.9535,67.3849 C93.9535,68.1369 94.5635,68.7459 95.3145,68.7459 C96.0655,68.7459 96.6755,68.1369 96.6755,67.3849 C96.6755,66.6339 96.0655,66.0239 95.3145,66.0239" id="Fill-63" fill="#4C4C4C"></path>
                    <path d="M95.3145,66.6401 C95.7255,66.6401 96.0595,66.9741 96.0595,67.3851 C96.0595,67.7961 95.7255,68.1301 95.3145,68.1301 C94.9035,68.1301 94.5695,67.7961 94.5695,67.3851 C94.5695,66.9741 94.9035,66.6401 95.3145,66.6401" id="Fill-65" fill="#FFFFFF"></path>
                    <path d="M53.4502,4.0762 C53.8612,4.0762 54.1952,4.4102 54.1952,4.8212 C54.1952,5.2322 53.8612,5.5662 53.4502,5.5662 C53.0402,5.5662 52.7052,5.2322 52.7052,4.8212 C52.7052,4.4102 53.0402,4.0762 53.4502,4.0762" id="Fill-67" fill="#FFFFFF"></path>
                    <path d="M95.3145,4.0762 C95.7255,4.0762 96.0595,4.4102 96.0595,4.8212 C96.0595,5.2322 95.7255,5.5662 95.3145,5.5662 C94.9035,5.5662 94.5695,5.2322 94.5695,4.8212 C94.5695,4.4102 94.9035,4.0762 95.3145,4.0762" id="Fill-69" fill="#FFFFFF"></path>
                    <g id="Group-73" transform="translate(67.000000, 0.000000)">
                        <mask id="mask-2" fill="white">
                            <use xlink:href="#path-1"></use>
                        </mask>
                        <g id="Clip-72"></g>
                        <path d="M43.981,0.4999 C36.594,0.4999 22.292,1.1849 17.015,1.5369 C11.615,1.8969 0.464,6.4389 0.464,18.1829 L0.464,58.7139 C0.464,64.6699 4.408,70.9999 11.717,70.9999 L43.981,70.9999 L76.245,70.9999 C83.554,70.9999 87.498,64.6699 87.498,58.7139 L87.498,18.1829 C87.498,6.4389 76.348,1.8969 70.948,1.5369 C65.67,1.1849 51.368,0.4999 43.981,0.4999" id="Fill-71" fill="#4C4C4C" mask="url(#mask-2)"></path>
                    </g>
                    <path d="M110.981,1.9938 C118.33,1.9938 132.682,2.6828 137.849,3.0268 C143.015,3.3718 153.004,7.6198 153.004,18.1828 L153.004,58.7138 C153.004,64.3398 149.33,69.5068 143.245,69.5068 L110.981,69.5068 L78.717,69.5068 C72.632,69.5068 68.958,64.3398 68.958,58.7138 L68.958,18.1828 C68.958,7.6198 78.947,3.3718 84.114,3.0268 C89.28,2.6828 103.632,1.9938 110.981,1.9938" id="Fill-74" fill="#FFFFFF"></path>
                    <path d="M110.981,5.3944 C104,5.3944 89.764,6.0584 84.34,6.4204 C81.81,6.5894 72.359,9.0794 72.359,18.1834 L72.359,58.7134 C72.359,62.3874 74.543,66.1054 78.717,66.1054 L143.245,66.1054 C147.419,66.1054 149.604,62.3874 149.604,58.7134 L149.604,18.1834 C149.604,9.0794 140.153,6.5894 137.623,6.4204 C132.198,6.0584 117.962,5.3944 110.981,5.3944" id="Fill-76" fill="#4C4C4C"></path>
                    <path d="M110.981,5.9917 C117.947,5.9917 132.163,6.6547 137.583,7.0167 C139.996,7.1777 149.006,9.5447 149.006,18.1827 L149.006,58.7137 C149.006,62.0907 147.027,65.5087 143.245,65.5087 L78.717,65.5087 C74.935,65.5087 72.956,62.0907 72.956,58.7137 L72.956,18.1827 C72.956,9.5447 81.967,7.1777 84.38,7.0167 C89.799,6.6547 104.015,5.9917 110.981,5.9917" id="Fill-78" fill="#FFFFFF"></path>
                    <path d="M110.981,6.7915 C91.032,6.7915 89.871,7.4525 84.469,7.8135 C83.643,7.8685 80.961,8.3685 78.499,9.9985 C75.705,11.8485 74.289,14.9555 74.289,18.1825 L74.289,59.2465 C74.289,60.6995 74.723,62.1065 75.481,63.1055 C76.287,64.1695 77.376,64.7085 78.717,64.7085 C78.717,64.7085 95.152,63.9095 110.981,63.9095 C126.81,63.9095 143.245,64.7085 143.245,64.7085 C144.586,64.7085 145.675,64.1695 146.481,63.1055 C147.239,62.1065 147.674,60.6995 147.674,59.2465 L147.674,18.1825 C147.674,14.9555 146.257,11.8485 143.463,9.9985 C141.002,8.3685 138.32,7.8685 137.494,7.8135 C132.091,7.4525 130.93,6.7915 110.981,6.7915" id="Fill-80" fill="#4C4C4C"></path>
                    <path d="M110.981,7.3888 C126.449,7.3888 130.565,7.7838 134.197,8.1318 C135.247,8.2328 136.24,8.3288 137.455,8.4088 C138.236,8.4608 140.779,8.9378 143.133,10.4968 C145.639,12.1558 147.076,14.9578 147.076,18.1828 L147.076,59.2468 C147.076,60.5718 146.686,61.8468 146.005,62.7448 C145.309,63.6648 144.406,64.1118 143.274,64.1128 C143.109,64.1038 126.644,63.3118 110.981,63.3118 C95.318,63.3118 78.853,64.1038 78.717,64.1118 C77.557,64.1118 76.654,63.6648 75.957,62.7448 C75.276,61.8468 74.887,60.5718 74.887,59.2468 L74.887,18.1828 C74.887,14.9568 76.323,12.1558 78.829,10.4968 C81.184,8.9378 83.727,8.4608 84.508,8.4088 C85.723,8.3288 86.715,8.2328 87.765,8.1318 C91.397,7.7838 95.513,7.3888 110.981,7.3888" id="Fill-82" fill="#FFFFFF"></path>
                    <path d="M110.981,2.8387 C110.231,2.8387 109.624,3.4467 109.624,4.1957 C109.624,4.9457 110.231,5.5527 110.981,5.5527 C111.731,5.5527 112.338,4.9457 112.338,4.1957 C112.338,3.4467 111.731,2.8387 110.981,2.8387 M110.981,3.4357 C111.4,3.4357 111.741,3.7767 111.741,4.1957 C111.741,4.6147 111.4,4.9557 110.981,4.9557 C110.562,4.9557 110.221,4.6147 110.221,4.1957 C110.221,3.7767 110.562,3.4357 110.981,3.4357" id="Fill-84" fill="#4C4C4C"></path>
                    <path d="M90.2363,3.5438 C89.4863,3.5438 88.8783,4.1518 88.8783,4.9018 C88.8783,5.6508 89.4863,6.2578 90.2363,6.2578 C90.9863,6.2578 91.5933,5.6508 91.5933,4.9018 C91.5933,4.1518 90.9863,3.5438 90.2363,3.5438 M90.2363,4.1408 C90.6553,4.1408 90.9963,4.4818 90.9963,4.9018 C90.9963,5.3198 90.6553,5.6608 90.2363,5.6608 C89.8173,5.6608 89.4763,5.3198 89.4763,4.9018 C89.4763,4.4818 89.8173,4.1408 90.2363,4.1408" id="Fill-86" fill="#4C4C4C"></path>
                    <path d="M131.9927,3.5438 C131.2427,3.5438 130.6357,4.1518 130.6357,4.9018 C130.6357,5.6508 131.2427,6.2578 131.9927,6.2578 C132.7417,6.2578 133.3497,5.6508 133.3497,4.9018 C133.3497,4.1518 132.7417,3.5438 131.9927,3.5438 M131.9927,4.1408 C132.4117,4.1408 132.7527,4.4818 132.7527,4.9018 C132.7527,5.3198 132.4117,5.6608 131.9927,5.6608 C131.5737,5.6608 131.2327,5.3198 131.2327,4.9018 C131.2327,4.4818 131.5737,4.1408 131.9927,4.1408" id="Fill-88" fill="#4C4C4C"></path>
                    <path d="M110.981,65.9473 C110.231,65.9473 109.624,66.5553 109.624,67.3043 C109.624,68.0543 110.231,68.6613 110.981,68.6613 C111.731,68.6613 112.338,68.0543 112.338,67.3043 C112.338,66.5553 111.731,65.9473 110.981,65.9473" id="Fill-90" fill="#4C4C4C"></path>
                    <path d="M110.981,66.5446 C111.4,66.5446 111.741,66.8856 111.741,67.3046 C111.741,67.7236 111.4,68.0646 110.981,68.0646 C110.562,68.0646 110.221,67.7236 110.221,67.3046 C110.221,66.8856 110.562,66.5446 110.981,66.5446" id="Fill-92" fill="#FFFFFF"></path>
                    <path d="M90.2363,65.9473 C89.4863,65.9473 88.8783,66.5553 88.8783,67.3043 C88.8783,68.0543 89.4863,68.6613 90.2363,68.6613 C90.9863,68.6613 91.5933,68.0543 91.5933,67.3043 C91.5933,66.5553 90.9863,65.9473 90.2363,65.9473" id="Fill-94" fill="#4C4C4C"></path>
                    <path d="M90.2363,66.5446 C90.6553,66.5446 90.9963,66.8856 90.9963,67.3046 C90.9963,67.7236 90.6553,68.0646 90.2363,68.0646 C89.8173,68.0646 89.4763,67.7236 89.4763,67.3046 C89.4763,66.8856 89.8173,66.5446 90.2363,66.5446" id="Fill-96" fill="#FFFFFF"></path>
                    <path d="M131.9927,65.9473 C131.2427,65.9473 130.6357,66.5553 130.6357,67.3043 C130.6357,68.0543 131.2427,68.6613 131.9927,68.6613 C132.7417,68.6613 133.3497,68.0543 133.3497,67.3043 C133.3497,66.5553 132.7417,65.9473 131.9927,65.9473" id="Fill-98" fill="#4C4C4C"></path>
                    <path d="M131.9927,66.5446 C132.4117,66.5446 132.7527,66.8856 132.7527,67.3046 C132.7527,67.7236 132.4117,68.0646 131.9927,68.0646 C131.5737,68.0646 131.2327,67.7236 131.2327,67.3046 C131.2327,66.8856 131.5737,66.5446 131.9927,66.5446" id="Fill-100" fill="#FFFFFF"></path>
                </g>
            </g>
        </g>
    </g>
</svg>