<?xml version="1.0" encoding="utf-8"?>
<!-- Generator: Adobe Illustrator 19.2.1, SVG Export Plug-In . SVG Version: 6.00 Build 0)  -->
<svg version="1.1" id="Layer_1" xmlns="http://www.w3.org/2000/svg" xmlns:xlink="http://www.w3.org/1999/xlink" x="0px" y="0px"
	 viewBox="0 0 41 40.9" style="enable-background:new 0 0 41 40.9;" xml:space="preserve">
<style type="text/css">
	.st0{fill:none;stroke:#55A5DB;stroke-width:1.5;stroke-linecap:round;stroke-linejoin:round;stroke-miterlimit:10;}
	.st1{fill:none;stroke:#FFFFFF;stroke-width:1.5;stroke-linecap:round;stroke-linejoin:round;stroke-miterlimit:10;}
</style>
<g>
	<path class="st0" d="M15.1,8.3c-2.1,0-4.1,0-6.2,0c-1.7,0-2.6,0.9-2.6,2.6v13.3c0,1.7,0.9,2.6,2.6,2.6h1.5V35l7.4-8.2h9.8
		c0.2,0,0.4,0,0.6,0c1.3-0.2,2-0.9,2-2.3"/>
	<path class="st1" d="M30.2,24.5l4.7,5.2v-8.2h1.5c1.7,0,2.6-0.9,2.6-2.6c0-4.4,0-8.9,0-13.3C39,3.9,38.1,3,36.4,3
		c-6.2,0-12.4,0-18.7,0c-1.7,0-2.6,0.9-2.6,2.6v2.8"/>
	<path class="st1" d="M30.2,24.5l-2.7-3h-9.8c-0.2,0-0.3,0-0.5,0c-1.4-0.2-2.1-1-2.1-2.6V8.3"/>
</g>
</svg>
