<?xml version="1.0" encoding="UTF-8" standalone="no"?>
<svg width="38px" height="34px" viewBox="0 0 38 34" version="1.1" xmlns="http://www.w3.org/2000/svg" xmlns:xlink="http://www.w3.org/1999/xlink">
    <!-- Generator: Sketch 39.1 (31720) - http://www.bohemiancoding.com/sketch -->
    <title>Page 1 Copy 6</title>
    <desc>Created with Sketch.</desc>
    <defs></defs>
    <g id="Support" stroke="none" stroke-width="1" fill="none" fill-rule="evenodd" stroke-linecap="round" stroke-linejoin="round">
        <g transform="translate(-703.000000, -491.000000)" stroke="#7F7F7F" id="Page-1-Copy-6" stroke-width="1.5" fill="#FFFFFF">
            <path d="M721.911758,492 C712.034891,492 704,498.412913 704,506.295807 C704,510.774746 706.561965,514.91169 711.028905,517.646653 L711.473899,517.918649 L711.288901,518.401643 C710.521912,520.417616 709.273929,522.192592 707.67295,523.579573 C707.499953,523.729571 707.612951,524.012567 707.840948,523.999567 C709.444926,523.907568 711.050905,523.651572 712.631883,523.234577 C714.923852,522.631586 717.043824,521.724598 718.934798,520.538614 L719.125795,520.419616 L719.348792,520.444615 C720.197781,520.542614 721.059769,520.591613 721.911758,520.591613 C731.787624,520.591613 739.822515,514.1787 739.822515,506.295807 C739.822515,498.412913 731.787624,492 721.911758,492 L721.911758,492 Z"></path>
        </g>
    </g>
</svg>