<svg id="expanded" xmlns="http://www.w3.org/2000/svg" viewBox="0 0 32 32"><defs><style>.cls-1{fill:#4d4c4c;}</style></defs><title>speech</title><path class="cls-1" d="M4.11,30.26a1,1,0,0,1-.62-1.67,10.21,10.21,0,0,0,2.77-3.9C2.36,22.24.13,18.56.13,14.56.13,7.49,7.25,1.74,16,1.74S31.87,7.49,31.87,14.56,24.75,27.38,16,27.38a19.88,19.88,0,0,1-2.18-.12,20,20,0,0,1-5.47,2.33,21.25,21.25,0,0,1-4.19.67Zm.37-.54h0Zm-.39-1h0ZM16,3.24C8.08,3.24,1.63,8.32,1.63,14.56c0,3.51,2,6.77,5.58,8.94l.38.23a.75.75,0,0,1,.31.91L7.73,25a11.73,11.73,0,0,1-2.15,3.56A19.72,19.72,0,0,0,8,28.14a18.42,18.42,0,0,0,5.11-2.19l.16-.1a.77.77,0,0,1,.48-.11l.19,0a18.35,18.35,0,0,0,2.08.12c7.92,0,14.37-5.08,14.37-11.32S23.92,3.24,16,3.24Z"/><path class="cls-1" d="M4.11,30.26a1,1,0,0,1-.62-1.67,10.21,10.21,0,0,0,2.77-3.9C2.36,22.24.13,18.56.13,14.56.13,7.49,7.25,1.74,16,1.74S31.87,7.49,31.87,14.56,24.75,27.38,16,27.38a19.88,19.88,0,0,1-2.18-.12,20,20,0,0,1-5.47,2.33,21.25,21.25,0,0,1-4.19.67Zm.37-.54h0Zm-.39-1h0ZM16,3.24C8.08,3.24,1.63,8.32,1.63,14.56c0,3.51,2,6.77,5.58,8.94l.38.23a.75.75,0,0,1,.31.91L7.73,25a11.73,11.73,0,0,1-2.15,3.56A19.72,19.72,0,0,0,8,28.14a18.42,18.42,0,0,0,5.11-2.19l.16-.1a.77.77,0,0,1,.48-.11l.19,0a18.35,18.35,0,0,0,2.08.12c7.92,0,14.37-5.08,14.37-11.32S23.92,3.24,16,3.24Z"/></svg>