<?xml version="1.0" encoding="UTF-8" standalone="no"?>
<svg width="35px" height="34px" viewBox="0 0 35 34" version="1.1" xmlns="http://www.w3.org/2000/svg" xmlns:xlink="http://www.w3.org/1999/xlink">
    <!-- Generator: Sketch 39.1 (31720) - http://www.bohemiancoding.com/sketch -->
    <title>Page 1</title>
    <desc>Created with Sketch.</desc>
    <defs></defs>
    <g id="Support" stroke="none" stroke-width="1" fill="none" fill-rule="evenodd" stroke-linecap="round" stroke-linejoin="round">
        <g transform="translate(-703.000000, -1162.000000)" id="Group" stroke-width="1.5">
            <g transform="translate(441.000000, 1162.000000)">
                <g id="Group-11" transform="translate(1.000000, 0.000000)">
                    <g id="Page-1" transform="translate(261.000000, 0.000000)">
                        <path d="M9.5374,6.0964 L3.3704,6.0964 C1.6234,6.0964 0.7504,6.9694 0.7504,8.7164 L0.7504,22.0034 C0.7504,23.7244 1.6234,24.5974 3.3704,24.5974 L4.8524,24.5974 L4.8524,32.7504 L12.2374,24.5974 L22.0304,24.5974 C22.2154,24.5974 22.4004,24.5974 22.5864,24.5714 C23.8834,24.4124 24.5444,23.6444 24.6244,22.2424" id="Stroke-1" stroke="#4C4C4C"></path>
                        <path d="M24.624,22.2422 L29.309,27.4302 L29.309,19.2512 L30.791,19.2512 C32.511,19.2512 33.385,18.3772 33.385,16.6572 L33.385,3.3442 C33.385,1.6242 32.511,0.7502 30.791,0.7502 L12.132,0.7502 C10.384,0.7502 9.511,1.6242 9.537,3.3442 L9.537,6.0962" id="Stroke-3" stroke="#54A4DA"></path>
                        <path d="M24.624,22.2422 L21.924,19.2512 L12.132,19.2512 C11.946,19.2512 11.787,19.2512 11.628,19.2242 C10.226,19.0662 9.511,18.2182 9.537,16.6572 L9.537,6.0962" id="Stroke-5" stroke="#54A4DA"></path>
                    </g>
                </g>
            </g>
        </g>
    </g>
</svg>