<?xml version="1.0" encoding="utf-8"?>
<!-- Generator: Adobe Illustrator 20.1.0, SVG Export Plug-In . SVG Version: 6.00 Build 0)  -->
<svg version="1.1" id="Layer_1" xmlns="http://www.w3.org/2000/svg" xmlns:xlink="http://www.w3.org/1999/xlink" x="0px" y="0px"
	 viewBox="0 0 16 16" style="enable-background:new 0 0 16 16;" xml:space="preserve">
<style type="text/css">
	.st0{fill:#54A4DA;}
	.st1{fill:#4C4C4C;}
</style>
<title>stop-watch</title>
<desc>Created with Sketch.</desc>
<path class="st0" d="M10.5,11.6L8.6,8.7C8.8,8.5,8.9,8.3,8.9,8c0-0.4-0.3-0.7-0.6-0.9V2.4H7.8v4.7C7.4,7.2,7.1,7.6,7.1,8
	C7.1,8.6,7.5,9,8,9c0.1,0,0.1,0,0.2,0l1.9,2.9L10.5,11.6z M7.6,8c0-0.2,0.2-0.4,0.4-0.4S8.4,7.8,8.4,8c0,0.2-0.2,0.4-0.4,0.4
	C7.8,8.4,7.6,8.3,7.6,8z"/>
<path class="st1" d="M8,16.1c-4.4,0-8-3.6-8-8c0-4.4,3.6-8,8-8c4.4,0,8,3.6,8,8C16,12.5,12.4,16.1,8,16.1z M8,0.9
	c-4,0-7.2,3.2-7.2,7.2c0,4,3.2,7.2,7.2,7.2s7.2-3.2,7.2-7.2C15.2,4.1,12,0.9,8,0.9z"/>
</svg>
