<svg id="expanded" xmlns="http://www.w3.org/2000/svg" viewBox="0 0 32 32"><defs><style>.cls-1{fill:#54a4da;}.cls-2{fill:#4d4c4c;}</style></defs><title>stopwatch</title><path class="cls-1" d="M20.21,24.28a.51.51,0,0,1-.43-.23l-3.56-5.47a.51.51,0,1,1,.85-.56l3.56,5.47a.51.51,0,0,1-.43.79Zm-4.16-7.9a.51.51,0,0,1-.51-.51V6.76a.51.51,0,1,1,1,0v9.11A.51.51,0,0,1,16.05,16.38Z"/><path class="cls-1" d="M16,18.79a1.73,1.73,0,1,1,1.71-1.73A1.72,1.72,0,0,1,16,18.79Zm0-2.43a.71.71,0,1,0,.69.71A.7.7,0,0,0,16,16.36ZM17.86,3.58H14.14a.51.51,0,0,1-.5-.4L13.11.74a.51.51,0,0,1,.5-.62H18.4a.51.51,0,0,1,.5.62l-.53,2.43A.51.51,0,0,1,17.86,3.58Zm-3.32-1h2.9l.31-1.41H14.24Z"/><path class="cls-2" d="M16,31.88A14.76,14.76,0,1,1,30.77,17.11,14.78,14.78,0,0,1,16,31.88Zm0-28A13.23,13.23,0,1,0,29.24,17.11,13.25,13.25,0,0,0,16,3.88Z"/><path class="cls-1" d="M20.21,24.28a.51.51,0,0,1-.43-.23l-3.56-5.47a.51.51,0,1,1,.85-.56l3.56,5.47a.51.51,0,0,1-.43.79Zm-4.16-7.9a.51.51,0,0,1-.51-.51V6.76a.51.51,0,1,1,1,0v9.11A.51.51,0,0,1,16.05,16.38Z"/><path class="cls-1" d="M16,18.79a1.73,1.73,0,1,1,1.71-1.73A1.72,1.72,0,0,1,16,18.79Zm0-2.43a.71.71,0,1,0,.69.71A.7.7,0,0,0,16,16.36ZM17.86,3.58H14.14a.51.51,0,0,1-.5-.4L13.11.74a.51.51,0,0,1,.5-.62H18.4a.51.51,0,0,1,.5.62l-.53,2.43A.51.51,0,0,1,17.86,3.58Zm-3.32-1h2.9l.31-1.41H14.24Z"/><path class="cls-2" d="M16,31.88A14.76,14.76,0,1,1,30.77,17.11,14.78,14.78,0,0,1,16,31.88Zm0-28A13.23,13.23,0,1,0,29.24,17.11,13.25,13.25,0,0,0,16,3.88Z"/></svg>