<svg xmlns="http://www.w3.org/2000/svg" viewBox="0 0 32 32"><style type="text/css">  
	.st0{fill:#56A6DA;}
	.st1{fill:#6D6E70;}
</style><path class="st0" d="M21.9 25.2c-0.1 0-0.2 0-0.2-0.1l-11.3-6.5c-0.2-0.1-0.3-0.4-0.2-0.7 0.1-0.2 0.4-0.3 0.7-0.2l11.3 6.5c0.2 0.1 0.3 0.4 0.2 0.7C22.2 25.1 22 25.2 21.9 25.2zM10.6 14.3c-0.2 0-0.3-0.1-0.4-0.2 -0.1-0.2-0.1-0.5 0.2-0.7l11.3-6.5c0.2-0.1 0.5-0.1 0.7 0.2 0.1 0.2 0.1 0.5-0.2 0.7l-11.3 6.5C10.7 14.3 10.7 14.3 10.6 14.3z"/><path class="st1" d="M25.7 32c-2.8 0-5.1-2.3-5.1-5.1s2.3-5.1 5.1-5.1 5.1 2.3 5.1 5.1S28.5 32 25.7 32zM25.7 23.2c-2 0-3.7 1.6-3.7 3.7s1.6 3.7 3.7 3.7 3.7-1.6 3.7-3.7S27.7 23.2 25.7 23.2zM6.8 21.1c-2.8 0-5.1-2.3-5.1-5.1 0-2.8 2.3-5.1 5.1-5.1s5.1 2.3 5.1 5.1C11.9 18.8 9.6 21.1 6.8 21.1zM6.8 12.3c-2 0-3.7 1.6-3.7 3.7 0 2 1.6 3.7 3.7 3.7s3.7-1.6 3.7-3.7C10.4 14 8.8 12.3 6.8 12.3zM25.7 10.2c-2.8 0-5.1-2.3-5.1-5.1 0-2.8 2.3-5.1 5.1-5.1s5.1 2.3 5.1 5.1C30.8 7.9 28.5 10.2 25.7 10.2zM25.7 1.4c-2 0-3.7 1.6-3.7 3.7 0 2 1.6 3.7 3.7 3.7s3.7-1.6 3.7-3.7C29.3 3.1 27.7 1.4 25.7 1.4z"/></svg>