<svg id="expanded" xmlns="http://www.w3.org/2000/svg" viewBox="0 0 32 32"><defs><style>.cls-1{fill:#54a4da;}.cls-2{fill:#4d4c4c;}</style></defs><title>tablet</title><path class="cls-1" d="M5.32,26.64a.47.47,0,0,1-.47-.47V5.83a.47.47,0,1,1,.94,0V26.17A.47.47,0,0,1,5.32,26.64Z"/><path class="cls-1" d="M3.38,17.38a.47.47,0,0,1-.47-.47V15.09a.47.47,0,1,1,.94,0v1.83A.47.47,0,0,1,3.38,17.38Z"/><path class="cls-2" d="M29,5.83a1.4,1.4,0,0,1,1.4,1.4V24.77a1.4,1.4,0,0,1-1.4,1.4H3a1.4,1.4,0,0,1-1.4-1.4V7.23A1.4,1.4,0,0,1,3,5.83H29m0-1.41H3A2.81,2.81,0,0,0,.19,7.23V24.77A2.81,2.81,0,0,0,3,27.58H29a2.81,2.81,0,0,0,2.81-2.81V7.23A2.81,2.81,0,0,0,29,4.42Z"/><path class="cls-1" d="M19.94,18.53a.64.64,0,0,1-.45-.19,3.38,3.38,0,0,0-2.4-1h0a3.37,3.37,0,0,0-2.4,1,.64.64,0,0,1-.91-.91,4.64,4.64,0,0,1,3.31-1.37h0a4.65,4.65,0,0,1,3.31,1.37.64.64,0,0,1-.45,1.09Z"/><path class="cls-1" d="M21.77,16.7a.64.64,0,0,1-.45-.19,6,6,0,0,0-4.23-1.76h0a6,6,0,0,0-4.23,1.75.64.64,0,0,1-.91-.91,7.22,7.22,0,0,1,5.14-2.13h0a7.23,7.23,0,0,1,5.14,2.13.64.64,0,0,1-.45,1.09Z"/><path class="cls-1" d="M5.32,26.64a.47.47,0,0,1-.47-.47V5.83a.47.47,0,1,1,.94,0V26.17A.47.47,0,0,1,5.32,26.64Z"/><path class="cls-1" d="M3.38,17.38a.47.47,0,0,1-.47-.47V15.09a.47.47,0,1,1,.94,0v1.83A.47.47,0,0,1,3.38,17.38Z"/><path class="cls-2" d="M29,5.83a1.4,1.4,0,0,1,1.4,1.4V24.77a1.4,1.4,0,0,1-1.4,1.4H3a1.4,1.4,0,0,1-1.4-1.4V7.23A1.4,1.4,0,0,1,3,5.83H29m0-1.41H3A2.81,2.81,0,0,0,.19,7.23V24.77A2.81,2.81,0,0,0,3,27.58H29a2.81,2.81,0,0,0,2.81-2.81V7.23A2.81,2.81,0,0,0,29,4.42Z"/><path class="cls-1" d="M19.94,18.53a.64.64,0,0,1-.45-.19,3.38,3.38,0,0,0-2.4-1h0a3.37,3.37,0,0,0-2.4,1,.64.64,0,0,1-.91-.91,4.64,4.64,0,0,1,3.31-1.37h0a4.65,4.65,0,0,1,3.31,1.37.64.64,0,0,1-.45,1.09Z"/><path class="cls-1" d="M21.77,16.7a.64.64,0,0,1-.45-.19,6,6,0,0,0-4.23-1.76h0a6,6,0,0,0-4.23,1.75.64.64,0,0,1-.91-.91,7.22,7.22,0,0,1,5.14-2.13h0a7.23,7.23,0,0,1,5.14,2.13.64.64,0,0,1-.45,1.09Z"/></svg>