<?xml version="1.0" encoding="utf-8"?>
<!-- Generator: Adobe Illustrator 21.0.2, SVG Export Plug-In . SVG Version: 6.00 Build 0)  -->
<svg version="1.1" id="expanded" xmlns="http://www.w3.org/2000/svg" xmlns:xlink="http://www.w3.org/1999/xlink" x="0px" y="0px"
	 viewBox="0 0 32 32" style="enable-background:new 0 0 32 32;" xml:space="preserve">
<style type="text/css">
	.st0{fill:#54A4DA;}
	.st1{fill:#4D4C4C;}
</style>
<title>tablet_mobile</title>
<path class="st0" d="M4.7,25.1c-0.3,0-0.5-0.2-0.5-0.5V5.9c0-0.3,0.2-0.5,0.5-0.5s0.5,0.2,0.5,0.5v18.7C5.2,24.9,4.9,25.1,4.7,25.1z
	"/>
<path class="st0" d="M16.9,16.2c-0.1,0-0.3-0.1-0.4-0.1c-0.4-0.4-1-0.7-1.6-0.7l0,0c-0.6,0-1.2,0.2-1.6,0.7c-0.2,0.2-0.5,0.2-0.7,0
	c-0.2-0.2-0.2-0.5,0-0.7c0.6-0.6,1.4-0.9,2.3-0.9l0,0c0.9,0,1.7,0.3,2.3,0.9c0.2,0.2,0.2,0.5,0,0.7C17.2,16.1,17,16.2,16.9,16.2
	L16.9,16.2z"/>
<path class="st0" d="M18.1,14.9c-0.1,0-0.3-0.1-0.4-0.1c-0.7-0.7-1.7-1.2-2.8-1.2l0,0c-1.1,0-2.1,0.4-2.8,1.2
	c-0.2,0.2-0.5,0.2-0.7,0s-0.2-0.5,0-0.7c0.9-0.9,2.2-1.5,3.5-1.4l0,0c1.3,0,2.6,0.5,3.5,1.5c0.2,0.2,0.2,0.5,0,0.7
	C18.4,14.9,18.3,14.9,18.1,14.9L18.1,14.9z"/>
<path class="st0" d="M2.9,16.6c-0.3,0-0.5-0.2-0.5-0.5v-1.7c0-0.3,0.2-0.5,0.5-0.5s0.5,0.2,0.5,0.5v1.7C3.4,16.4,3.2,16.6,2.9,16.6z
	"/>
<path class="st1" d="M22.2,25.1H2.5c-1,0-1.8-0.8-1.8-1.8V7.2c0-1,0.8-1.8,1.8-1.8h23.9c1,0,1.8,0.8,1.8,1.8v4.7h-1V7.2
	c0-0.4-0.4-0.8-0.8-0.8l0,0H2.5c-0.4,0-0.8,0.4-0.8,0.8v16.1c0,0.4,0.4,0.8,0.8,0.8c0,0,0,0,0,0h19.6V25.1z"/>
<path class="st0" d="M27.4,25.1h-1.7c-0.3,0-0.5-0.2-0.5-0.5s0.2-0.5,0.5-0.5h1.7c0.3,0,0.5,0.2,0.5,0.5S27.7,25.1,27.4,25.1z"/>
<path class="st0" d="M30.2,23.7h-7.2c-0.3,0-0.5-0.2-0.5-0.5s0.2-0.5,0.5-0.5h7.2c0.3,0,0.5,0.2,0.5,0.5S30.5,23.7,30.2,23.7z"/>
<path class="st0" d="M30.2,14.3h-7.2c-0.3,0-0.5-0.2-0.5-0.5s0.2-0.5,0.5-0.5h7.2c0.3,0,0.5,0.2,0.5,0.5S30.5,14.3,30.2,14.3z"/>
<path class="st1" d="M29.3,12.2c0.5,0,0.9,0.4,0.9,0.8v0v11.7c0,0.5-0.4,0.9-0.9,0.9l0,0h-5.6c-0.5,0-0.9-0.4-0.9-0.9l0,0V13
	c0-0.5,0.4-0.9,0.9-0.9l0,0L29.3,12.2 M29.3,11.1h-5.6c-1,0-1.9,0.8-1.9,1.9l0,0v11.7c0,1,0.8,1.9,1.9,1.9l0,0h5.6
	c1,0,1.9-0.8,1.9-1.9l0,0V13C31.2,12,30.4,11.1,29.3,11.1L29.3,11.1z"/>
<path class="st0" d="M4.7,25.1c-0.3,0-0.5-0.2-0.5-0.5V5.9c0-0.3,0.2-0.5,0.5-0.5s0.5,0.2,0.5,0.5v18.7C5.2,24.9,4.9,25.1,4.7,25.1z
	"/>
<path class="st0" d="M16.9,16.2c-0.1,0-0.3-0.1-0.4-0.1c-0.4-0.4-1-0.7-1.6-0.7l0,0c-0.6,0-1.2,0.2-1.6,0.7c-0.2,0.2-0.5,0.2-0.7,0
	c-0.2-0.2-0.2-0.5,0-0.7c0.6-0.6,1.4-0.9,2.3-0.9l0,0c0.9,0,1.7,0.3,2.3,0.9c0.2,0.2,0.2,0.5,0,0.7C17.2,16.1,17,16.2,16.9,16.2
	L16.9,16.2z"/>
<path class="st0" d="M18.1,14.9c-0.1,0-0.3-0.1-0.4-0.1c-0.7-0.7-1.7-1.2-2.8-1.2l0,0c-1.1,0-2.1,0.4-2.8,1.2
	c-0.2,0.2-0.5,0.2-0.7,0s-0.2-0.5,0-0.7c0.9-0.9,2.2-1.5,3.5-1.4l0,0c1.3,0,2.6,0.5,3.5,1.5c0.2,0.2,0.2,0.5,0,0.7
	C18.4,14.9,18.3,14.9,18.1,14.9L18.1,14.9z"/>
<path class="st0" d="M2.9,16.6c-0.3,0-0.5-0.2-0.5-0.5v-1.7c0-0.3,0.2-0.5,0.5-0.5s0.5,0.2,0.5,0.5v1.7C3.4,16.4,3.2,16.6,2.9,16.6z
	"/>
<path class="st1" d="M22.2,25.1H2.5c-1,0-1.8-0.8-1.8-1.8V7.2c0-1,0.8-1.8,1.8-1.8h23.9c1,0,1.8,0.8,1.8,1.8v4.7h-1V7.2
	c0-0.4-0.4-0.8-0.8-0.8l0,0H2.5c-0.4,0-0.8,0.4-0.8,0.8v16.1c0,0.4,0.4,0.8,0.8,0.8c0,0,0,0,0,0h19.6V25.1z"/>
<path class="st0" d="M27.4,25.1h-1.7c-0.3,0-0.5-0.2-0.5-0.5s0.2-0.5,0.5-0.5h1.7c0.3,0,0.5,0.2,0.5,0.5S27.7,25.1,27.4,25.1z"/>
<path class="st0" d="M30.2,23.7h-7.2c-0.3,0-0.5-0.2-0.5-0.5s0.2-0.5,0.5-0.5h7.2c0.3,0,0.5,0.2,0.5,0.5S30.5,23.7,30.2,23.7z"/>
<path class="st0" d="M30.2,14.3h-7.2c-0.3,0-0.5-0.2-0.5-0.5s0.2-0.5,0.5-0.5h7.2c0.3,0,0.5,0.2,0.5,0.5S30.5,14.3,30.2,14.3z"/>
<path class="st1" d="M29.3,12.2c0.5,0,0.9,0.4,0.9,0.8v0v11.7c0,0.5-0.4,0.9-0.9,0.9l0,0h-5.6c-0.5,0-0.9-0.4-0.9-0.9l0,0V13
	c0-0.5,0.4-0.9,0.9-0.9l0,0L29.3,12.2 M29.3,11.1h-5.6c-1,0-1.9,0.8-1.9,1.9l0,0v11.7c0,1,0.8,1.9,1.9,1.9l0,0h5.6
	c1,0,1.9-0.8,1.9-1.9l0,0V13C31.2,12,30.4,11.1,29.3,11.1L29.3,11.1z"/>
</svg>
