<svg id="expanded" xmlns="http://www.w3.org/2000/svg" viewBox="0 0 32 32"><defs><style>.cls-1{fill:#4d4c4c;}.cls-2{fill:#54a4da;}</style></defs><title>thumbdown</title><path class="cls-1" d="M5.79,2.58H17.14a2.37,2.37,0,0,1,1.41.47l.38.29a3.06,3.06,0,0,0,.66.2h2a.75.75,0,0,1,.75.75v11a.75.75,0,0,1-.42.68l-2.39,1.15a1.66,1.66,0,0,0-.71.66L15.21,23.9v4.54a.76.76,0,0,1,0,.17c-.05.22-.42,1.34-2.65,1.72-2,.34-2.8-.84-3-1.59L8.22,24.69a2,2,0,0,1-.07-1l.78-4.37H2.62l-.18,0-.14,0A2.74,2.74,0,0,1,.23,16.61v-.13A2.72,2.72,0,0,1,1,14.59L.32,13c-.11-.3-.43-1.63,1.63-3.81C3.12,8,3.42,5.53,3.49,4.52c.06-.81,1.11-1.46,2-1.87A.75.75,0,0,1,5.79,2.58ZM20.86,5H19.39a4.54,4.54,0,0,1-1.17-.37l-.12-.08-.44-.33a.86.86,0,0,0-.51-.17H6a4.14,4.14,0,0,0-1,.65c-.12,1.46-.52,4-1.94,5.53-1.27,1.34-1.31,2.11-1.31,2.26l.86,2a.75.75,0,0,1-.29.93,1.23,1.23,0,0,0-.57,1v.13a1.24,1.24,0,0,0,.93,1.2H9.82a.75.75,0,0,1,.74.88L9.63,24a.53.53,0,0,0,0,.26L11,28.31l0,.1c0,.14.23.61,1.25.44a2.35,2.35,0,0,0,1.43-.6V23.7a.74.74,0,0,1,.1-.38L17.54,17a3.15,3.15,0,0,1,1.35-1.25l2-.95ZM4.95,4.77Z"/><path class="cls-2" d="M24,1.61H31a.75.75,0,0,1,.75.75V14.08a3.06,3.06,0,0,1-3.05,3.05H21.65a.75.75,0,0,1-.75-.75V4.67A3.06,3.06,0,0,1,24,1.61Zm6.32,1.5H24A1.56,1.56,0,0,0,22.4,4.67v11h6.32a1.56,1.56,0,0,0,1.55-1.55Z"/><path class="cls-1" d="M5.79,2.58H17.14a2.37,2.37,0,0,1,1.41.47l.38.29a3.06,3.06,0,0,0,.66.2h2a.75.75,0,0,1,.75.75v11a.75.75,0,0,1-.42.68l-2.39,1.15a1.66,1.66,0,0,0-.71.66L15.21,23.9v4.54a.76.76,0,0,1,0,.17c-.05.22-.42,1.34-2.65,1.72-2,.34-2.8-.84-3-1.59L8.22,24.69a2,2,0,0,1-.07-1l.78-4.37H2.62l-.18,0-.14,0A2.74,2.74,0,0,1,.23,16.61v-.13A2.72,2.72,0,0,1,1,14.59L.32,13c-.11-.3-.43-1.63,1.63-3.81C3.12,8,3.42,5.53,3.49,4.52c.06-.81,1.11-1.46,2-1.87A.75.75,0,0,1,5.79,2.58ZM20.86,5H19.39a4.54,4.54,0,0,1-1.17-.37l-.12-.08-.44-.33a.86.86,0,0,0-.51-.17H6a4.14,4.14,0,0,0-1,.65c-.12,1.46-.52,4-1.94,5.53-1.27,1.34-1.31,2.11-1.31,2.26l.86,2a.75.75,0,0,1-.29.93,1.23,1.23,0,0,0-.57,1v.13a1.24,1.24,0,0,0,.93,1.2H9.82a.75.75,0,0,1,.74.88L9.63,24a.53.53,0,0,0,0,.26L11,28.31l0,.1c0,.14.23.61,1.25.44a2.35,2.35,0,0,0,1.43-.6V23.7a.74.74,0,0,1,.1-.38L17.54,17a3.15,3.15,0,0,1,1.35-1.25l2-.95ZM4.95,4.77Z"/><path class="cls-2" d="M24,1.61H31a.75.75,0,0,1,.75.75V14.08a3.06,3.06,0,0,1-3.05,3.05H21.65a.75.75,0,0,1-.75-.75V4.67A3.06,3.06,0,0,1,24,1.61Zm6.32,1.5H24A1.56,1.56,0,0,0,22.4,4.67v11h6.32a1.56,1.56,0,0,0,1.55-1.55Z"/></svg>