<svg id="expanded" xmlns="http://www.w3.org/2000/svg" viewBox="0 0 32 32"><defs><style>.cls-1{fill:#4d4c4c;}.cls-2{fill:#54a4da;}</style></defs><title>thumbsup</title><path class="cls-1" d="M26.21,29.42H14.86a2.37,2.37,0,0,1-1.41-.47l-.38-.29a3.06,3.06,0,0,0-.66-.2h-2a.75.75,0,0,1-.75-.75v-11a.75.75,0,0,1,.42-.68l2.39-1.15a1.66,1.66,0,0,0,.71-.66L16.79,8.1V3.57a.76.76,0,0,1,0-.17c.05-.22.42-1.34,2.65-1.72,2-.34,2.8.84,3,1.59l1.35,4.05a2,2,0,0,1,.07,1l-.78,4.37h6.31l.18,0,.14,0a2.74,2.74,0,0,1,2.06,2.65v.13a2.72,2.72,0,0,1-.76,1.9L31.68,19c.11.3.43,1.63-1.63,3.81-1.17,1.24-1.47,3.71-1.54,4.71-.06.81-1.11,1.46-2,1.87A.75.75,0,0,1,26.21,29.42ZM11.14,27h1.47a4.54,4.54,0,0,1,1.17.37l.12.08.44.33a.86.86,0,0,0,.51.17H26a4.14,4.14,0,0,0,1-.65c.12-1.46.52-4,1.94-5.53,1.27-1.34,1.31-2.11,1.31-2.26l-.86-2a.75.75,0,0,1,.29-.93,1.23,1.23,0,0,0,.57-1v-.13a1.24,1.24,0,0,0-.93-1.2H22.18a.75.75,0,0,1-.74-.88L22.37,8a.53.53,0,0,0,0-.26L21,3.69l0-.1c0-.14-.23-.61-1.25-.44a2.35,2.35,0,0,0-1.43.6V8.3a.74.74,0,0,1-.1.38L14.46,15a3.15,3.15,0,0,1-1.35,1.25l-2,.95Zm15.92.27Z"/><path class="cls-2" d="M8,30.39H1a.75.75,0,0,1-.75-.75V17.92a3.06,3.06,0,0,1,3.05-3.05h7.07a.75.75,0,0,1,.75.75V27.33A3.06,3.06,0,0,1,8,30.39Zm-6.32-1.5H8A1.56,1.56,0,0,0,9.6,27.33v-11H3.28a1.56,1.56,0,0,0-1.55,1.55Z"/><path class="cls-1" d="M26.21,29.42H14.86a2.37,2.37,0,0,1-1.41-.47l-.38-.29a3.06,3.06,0,0,0-.66-.2h-2a.75.75,0,0,1-.75-.75v-11a.75.75,0,0,1,.42-.68l2.39-1.15a1.66,1.66,0,0,0,.71-.66L16.79,8.1V3.57a.76.76,0,0,1,0-.17c.05-.22.42-1.34,2.65-1.72,2-.34,2.8.84,3,1.59l1.35,4.05a2,2,0,0,1,.07,1l-.78,4.37h6.31l.18,0,.14,0a2.74,2.74,0,0,1,2.06,2.65v.13a2.72,2.72,0,0,1-.76,1.9L31.68,19c.11.3.43,1.63-1.63,3.81-1.17,1.24-1.47,3.71-1.54,4.71-.06.81-1.11,1.46-2,1.87A.75.75,0,0,1,26.21,29.42ZM11.14,27h1.47a4.54,4.54,0,0,1,1.17.37l.12.08.44.33a.86.86,0,0,0,.51.17H26a4.14,4.14,0,0,0,1-.65c.12-1.46.52-4,1.94-5.53,1.27-1.34,1.31-2.11,1.31-2.26l-.86-2a.75.75,0,0,1,.29-.93,1.23,1.23,0,0,0,.57-1v-.13a1.24,1.24,0,0,0-.93-1.2H22.18a.75.75,0,0,1-.74-.88L22.37,8a.53.53,0,0,0,0-.26L21,3.69l0-.1c0-.14-.23-.61-1.25-.44a2.35,2.35,0,0,0-1.43.6V8.3a.74.74,0,0,1-.1.38L14.46,15a3.15,3.15,0,0,1-1.35,1.25l-2,.95Zm15.92.27Z"/><path class="cls-2" d="M8,30.39H1a.75.75,0,0,1-.75-.75V17.92a3.06,3.06,0,0,1,3.05-3.05h7.07a.75.75,0,0,1,.75.75V27.33A3.06,3.06,0,0,1,8,30.39Zm-6.32-1.5H8A1.56,1.56,0,0,0,9.6,27.33v-11H3.28a1.56,1.56,0,0,0-1.55,1.55Z"/></svg>