<svg id="expanded" xmlns="http://www.w3.org/2000/svg" viewBox="0 0 32 32"><defs><style>.cls-1{fill:#4d4c4c;}.cls-2{fill:#54a4da;}</style></defs><title>trafficlight3</title><path class="cls-1" d="M10.83,10.07a.75.75,0,0,1-.46-.16L5,5.76H5A.9.9,0,0,1,4.67,5V3.73a.9.9,0,0,1,.9-.9h5.26a.75.75,0,0,1,.75.75V9.32a.75.75,0,0,1-.42.67A.76.76,0,0,1,10.83,10.07ZM6.17,4.75l3.91,3V4.32H6.17Z"/><path class="cls-1" d="M10.83,18.95a.75.75,0,0,1-.46-.16L5,14.63H5a.9.9,0,0,1-.34-.71V12.6a.9.9,0,0,1,.9-.9h5.26a.75.75,0,0,1,.75.75V18.2a.75.75,0,0,1-.42.67A.76.76,0,0,1,10.83,18.95ZM6.17,13.63l3.91,3V13.2H6.17Z"/><path class="cls-1" d="M10.83,27.82a.75.75,0,0,1-.46-.16L5,23.51H5a.9.9,0,0,1-.34-.71V21.48a.9.9,0,0,1,.9-.9h5.26a.75.75,0,0,1,.75.75v5.75a.75.75,0,0,1-.42.67A.76.76,0,0,1,10.83,27.82ZM6.17,22.51l3.91,3V22.07H6.17Z"/><path class="cls-1" d="M22.58,31.79H11a.75.75,0,0,1-.75-.75V1A.75.75,0,0,1,11,.21H22.58a.75.75,0,0,1,.75.75V31A.75.75,0,0,1,22.58,31.79Zm-10.81-1.5H21.83V1.71H11.77Z"/><path class="cls-2" d="M16.8,10.86a3.56,3.56,0,1,1,3.56-3.51A3.54,3.54,0,0,1,16.8,10.86Zm0-6.11a2.56,2.56,0,1,0,2.56,2.6A2.55,2.55,0,0,0,16.8,4.75Z"/><path class="cls-2" d="M16.8,19.56A3.56,3.56,0,1,1,20.35,16,3.54,3.54,0,0,1,16.8,19.56Zm0-6.11A2.56,2.56,0,1,0,19.35,16,2.55,2.55,0,0,0,16.8,13.44Z"/><path class="cls-2" d="M16.8,28.25a3.56,3.56,0,1,1,3.56-3.51A3.54,3.54,0,0,1,16.8,28.25Zm0-6.11a2.56,2.56,0,1,0,2.56,2.6A2.55,2.55,0,0,0,16.8,22.14Z"/><path class="cls-1" d="M10.83,10.07a.75.75,0,0,1-.46-.16L5,5.76H5A.9.9,0,0,1,4.67,5V3.73a.9.9,0,0,1,.9-.9h5.26a.75.75,0,0,1,.75.75V9.32a.75.75,0,0,1-.42.67A.76.76,0,0,1,10.83,10.07ZM6.17,4.75l3.91,3V4.32H6.17Z"/><path class="cls-1" d="M10.83,18.95a.75.75,0,0,1-.46-.16L5,14.63H5a.9.9,0,0,1-.34-.71V12.6a.9.9,0,0,1,.9-.9h5.26a.75.75,0,0,1,.75.75V18.2a.75.75,0,0,1-.42.67A.76.76,0,0,1,10.83,18.95ZM6.17,13.63l3.91,3V13.2H6.17Z"/><path class="cls-1" d="M10.83,27.82a.75.75,0,0,1-.46-.16L5,23.51H5a.9.9,0,0,1-.34-.71V21.48a.9.9,0,0,1,.9-.9h5.26a.75.75,0,0,1,.75.75v5.75a.75.75,0,0,1-.42.67A.76.76,0,0,1,10.83,27.82ZM6.17,22.51l3.91,3V22.07H6.17Z"/><path class="cls-1" d="M22.58,31.79H11a.75.75,0,0,1-.75-.75V1A.75.75,0,0,1,11,.21H22.58a.75.75,0,0,1,.75.75V31A.75.75,0,0,1,22.58,31.79Zm-10.81-1.5H21.83V1.71H11.77Z"/><path class="cls-2" d="M16.8,10.86a3.56,3.56,0,1,1,3.56-3.51A3.54,3.54,0,0,1,16.8,10.86Zm0-6.11a2.56,2.56,0,1,0,2.56,2.6A2.55,2.55,0,0,0,16.8,4.75Z"/><path class="cls-2" d="M16.8,19.56A3.56,3.56,0,1,1,20.35,16,3.54,3.54,0,0,1,16.8,19.56Zm0-6.11A2.56,2.56,0,1,0,19.35,16,2.55,2.55,0,0,0,16.8,13.44Z"/><path class="cls-2" d="M16.8,28.25a3.56,3.56,0,1,1,3.56-3.51A3.54,3.54,0,0,1,16.8,28.25Zm0-6.11a2.56,2.56,0,1,0,2.56,2.6A2.55,2.55,0,0,0,16.8,22.14Z"/></svg>