<svg id="expanded" xmlns="http://www.w3.org/2000/svg" viewBox="0 0 32 32"><defs><style>.cls-1{fill:#4d4c4c;}.cls-2{fill:#54a4da;}</style></defs><title>trash</title><path class="cls-1" d="M28.1,5.74H26.78a.75.75,0,0,1,0-1.5H28.1a.75.75,0,0,1,0,1.5Z"/><path class="cls-1" d="M5.42,5.74H4.23a.75.75,0,0,1,0-1.5H5.42a.75.75,0,0,1,0,1.5Z"/><path class="cls-1" d="M23.65,31.9H8.56a2.09,2.09,0,0,1-2.27-2.12L4.68,5a.75.75,0,0,1,1.5-.1L7.78,29.67c0,.56.21.72.77.72H23.65c.54,0,.73-.17.78-.74L26,4.94a.75.75,0,0,1,1.5.1L25.92,29.77A2.12,2.12,0,0,1,23.65,31.9Z"/><path class="cls-1" d="M26.78,5.74H5.42a.75.75,0,0,1,0-1.5H26.78a.75.75,0,0,1,0,1.5Z"/><path class="cls-2" d="M20.66,27.11h0a.5.5,0,0,1-.48-.52l.73-17a.51.51,0,0,1,.52-.48.5.5,0,0,1,.48.52l-.73,17A.5.5,0,0,1,20.66,27.11Z"/><path class="cls-2" d="M16,27.11a.5.5,0,0,1-.5-.5v-17a.5.5,0,0,1,1,0v17A.5.5,0,0,1,16,27.11Z"/><path class="cls-2" d="M11.42,27.11a.5.5,0,0,1-.5-.48l-.73-17a.5.5,0,0,1,1,0l.73,17a.5.5,0,0,1-.48.52Z"/><path class="cls-1" d="M22.11,5.38a.75.75,0,0,1-.75-.75V3.42c0-1.12-.41-1.4-.54-1.49a2.32,2.32,0,0,0-1.25-.3H12.76c-1.29,0-1.79.5-1.79,1.79V4.63a.75.75,0,1,1-1.5,0V3.42A3,3,0,0,1,12.76.13h6.81a3.78,3.78,0,0,1,2.08.55,3.1,3.1,0,0,1,1.21,2.74V4.63A.75.75,0,0,1,22.11,5.38Z"/><path class="cls-1" d="M28.1,5.74H26.78a.75.75,0,0,1,0-1.5H28.1a.75.75,0,0,1,0,1.5Z"/><path class="cls-1" d="M5.42,5.74H4.23a.75.75,0,0,1,0-1.5H5.42a.75.75,0,0,1,0,1.5Z"/><path class="cls-1" d="M23.65,31.9H8.56a2.09,2.09,0,0,1-2.27-2.12L4.68,5a.75.75,0,0,1,1.5-.1L7.78,29.67c0,.56.21.72.77.72H23.65c.54,0,.73-.17.78-.74L26,4.94a.75.75,0,0,1,1.5.1L25.92,29.77A2.12,2.12,0,0,1,23.65,31.9Z"/><path class="cls-1" d="M26.78,5.74H5.42a.75.75,0,0,1,0-1.5H26.78a.75.75,0,0,1,0,1.5Z"/><path class="cls-2" d="M20.66,27.11h0a.5.5,0,0,1-.48-.52l.73-17a.51.51,0,0,1,.52-.48.5.5,0,0,1,.48.52l-.73,17A.5.5,0,0,1,20.66,27.11Z"/><path class="cls-2" d="M16,27.11a.5.5,0,0,1-.5-.5v-17a.5.5,0,0,1,1,0v17A.5.5,0,0,1,16,27.11Z"/><path class="cls-2" d="M11.42,27.11a.5.5,0,0,1-.5-.48l-.73-17a.5.5,0,0,1,1,0l.73,17a.5.5,0,0,1-.48.52Z"/><path class="cls-1" d="M22.11,5.38a.75.75,0,0,1-.75-.75V3.42c0-1.12-.41-1.4-.54-1.49a2.32,2.32,0,0,0-1.25-.3H12.76c-1.29,0-1.79.5-1.79,1.79V4.63a.75.75,0,1,1-1.5,0V3.42A3,3,0,0,1,12.76.13h6.81a3.78,3.78,0,0,1,2.08.55,3.1,3.1,0,0,1,1.21,2.74V4.63A.75.75,0,0,1,22.11,5.38Z"/></svg>