<svg id="expanded" xmlns="http://www.w3.org/2000/svg" viewBox="0 0 32 32"><defs><style>.cls-1{fill:#54a4da;}.cls-2{fill:#4d4c4c;}</style></defs><title>viewpoint</title><path class="cls-1" d="M30.24,31.75H1.76a.75.75,0,1,1,0-1.5H30.24a.75.75,0,1,1,0,1.5Z"/><path class="cls-2" d="M19.25,26.75A.75.75,0,0,1,18.5,26V10A.75.75,0,0,1,20,10V26A.75.75,0,0,1,19.25,26.75Z"/><path class="cls-2" d="M26.16,17.81H19.25a.75.75,0,0,1-.75-.75V8.13a.75.75,0,0,1,.75-.75h6.91A3.58,3.58,0,0,1,29.74,11v3.29A3.58,3.58,0,0,1,26.16,17.81ZM20,16.31h6.16a2.08,2.08,0,0,0,2.07-2.07V11a2.08,2.08,0,0,0-2.07-2.07H20Z"/><path class="cls-2" d="M9.53,26.75a.75.75,0,0,1-.73-.56l-6.51-25A.75.75,0,0,1,3.75.81L9.53,23,15.31.81a.75.75,0,1,1,1.46.38l-6.51,25A.75.75,0,0,1,9.53,26.75Z"/></svg>