<?xml version="1.0" encoding="utf-8"?>
<!-- Generator: Adobe Illustrator 20.1.0, SVG Export Plug-In . SVG Version: 6.00 Build 0)  -->
<svg version="1.1" id="Layer_1" xmlns="http://www.w3.org/2000/svg" xmlns:xlink="http://www.w3.org/1999/xlink" x="0px" y="0px"
	 viewBox="0 0 216 54" style="enable-background:new 0 0 216 54;" xml:space="preserve">
<style type="text/css">
	.st0{fill:#FFFFFF;}
	.st1{fill:#EAAB00;}
</style>
<title>Wavetronix_RGB_Logo_wpadding</title>
<g id="text">
	<path class="st0" d="M61.6,36h-5.2l-3.1-13.7L50.2,36H45l-4.5-18h4l3.1,12.9L50.8,18h5l3.1,12.9L62,18h4L61.6,36z"/>
	<path class="st0" d="M80.9,36h-4.3l-1-3.5h-6.1l-1,3.5h-4.2l5.6-18h5.5L80.9,36z M70.5,29.1h4.2l-2.1-7.5L70.5,29.1z"/>
	<path class="st0" d="M90,36h-5.9L79,18h4.2L87,32.3L90.9,18h4.2L90,36z"/>
	<path class="st0" d="M96.8,36V18h11.4v3.6h-7.3v3.3h6.8v3.6h-6.8v3.9h7.3V36H96.8z"/>
	<path class="st0" d="M118.8,21.6V36h-4.1V21.6h-4.9V18h13.9v3.6L118.8,21.6z"/>
	<path class="st0" d="M155.7,30.8c0,2.7-1.9,5.5-7.1,5.5s-7.1-2.8-7.1-5.5v-7.5c0-2.7,1.9-5.5,7.1-5.5s7.1,2.8,7.1,5.5V30.8z
		 M151.6,23.6c0-1.4-0.9-2.3-3-2.3s-3,0.9-3,2.3v6.8c0,1.4,0.9,2.3,3,2.3s3-0.9,3-2.3V23.6z"/>
	<path class="st0" d="M162.2,24.2V36h-3.9V18h5l6,12.4V18h3.9v18h-5.1L162.2,24.2z"/>
	<path class="st0" d="M176.5,36V18h4.1v18H176.5z"/>
	<path class="st0" d="M192.5,26.9L198,36h-4.3l-3.5-5.9l-3.5,5.9h-4.3l5.5-9.1l-5.3-8.9h4.3l3.3,5.7l3.3-5.7h4.3L192.5,26.9z"/>
	<path class="st0" d="M136.2,29.9c1.8-0.8,2.6-2.3,2.6-4.5v-2.2c0-3.4-1.6-5.1-6.1-5.1h-7.6v18h4.1V21.6h3.2c1.7,0,2.2,0.5,2.2,1.9
		v1.4c0,1.4-0.4,2-2.2,2h-0.9v3.5l4,5.6h4.9L136.2,29.9z"/>
	<path class="st1" d="M18,18h11.2c0,0-9,2.2-9,6.8c0,6.8,15.8,10.1,15.8,10.1V36H18V18z M31.5,18c0,0-7.9,2.2-7.9,5.6
		c0,4.5,12.4,6.8,12.4,6.8V18H31.5z"/>
</g>
</svg>
