<svg id="expanded" xmlns="http://www.w3.org/2000/svg" viewBox="0 0 32 32"><defs><style>.cls-1{fill:#54a4da;}.cls-2{fill:#4d4c4c;}</style></defs><title>weather</title><path class="cls-1" d="M11.46,25.28A.5.5,0,0,1,11,25l-1.44-2.5a.5.5,0,1,1,.87-.5l1.44,2.5a.5.5,0,0,1-.43.75Z"/><path class="cls-1" d="M14.86,25.28a.5.5,0,0,1-.43-.25L13,22.53a.5.5,0,0,1,.87-.5l1.44,2.5a.5.5,0,0,1-.43.75Z"/><path class="cls-1" d="M18.26,25.28a.5.5,0,0,1-.43-.25l-1.44-2.5a.5.5,0,1,1,.87-.5l1.44,2.5a.5.5,0,0,1-.43.75Z"/><path class="cls-1" d="M21.66,25.28a.5.5,0,0,1-.43-.25l-1.44-2.5a.5.5,0,1,1,.87-.5l1.44,2.5a.5.5,0,0,1-.43.75Z"/><path class="cls-1" d="M15.29,29.74a.5.5,0,0,1-.43-.25L13.41,27a.5.5,0,0,1,.87-.5L15.72,29a.5.5,0,0,1-.43.75Z"/><path class="cls-1" d="M18.69,29.74a.5.5,0,0,1-.43-.25L16.81,27a.5.5,0,1,1,.87-.5L19.12,29a.5.5,0,0,1-.43.75Z"/><path class="cls-1" d="M22.09,29.74a.5.5,0,0,1-.43-.25L20.21,27a.5.5,0,1,1,.87-.5L22.52,29a.5.5,0,0,1-.43.75Z"/><path class="cls-2" d="M7.73,24A7.56,7.56,0,1,1,11,9.6l3.16,1.52a.75.75,0,0,1-.65,1.35l-3.16-1.52a6,6,0,0,0-2.63-.6,6.06,6.06,0,1,0,0,12.12.75.75,0,0,1,0,1.5Z"/><path class="cls-2" d="M26.34,24H24.17a.75.75,0,0,1,0-1.5h2.17a4,4,0,1,0-2-7.45.75.75,0,0,1-.75-1.3A5.49,5.49,0,1,1,26.34,24Z"/><path class="cls-2" d="M22.34,17.86a.75.75,0,0,1-.57-1.24A7.78,7.78,0,1,0,8.32,9.71a.75.75,0,1,1-1.46-.35,9.28,9.28,0,1,1,16,8.24A.75.75,0,0,1,22.34,17.86Z"/><path class="cls-1" d="M11.46,25.28A.5.5,0,0,1,11,25l-1.44-2.5a.5.5,0,1,1,.87-.5l1.44,2.5a.5.5,0,0,1-.43.75Z"/><path class="cls-1" d="M14.86,25.28a.5.5,0,0,1-.43-.25L13,22.53a.5.5,0,0,1,.87-.5l1.44,2.5a.5.5,0,0,1-.43.75Z"/><path class="cls-1" d="M18.26,25.28a.5.5,0,0,1-.43-.25l-1.44-2.5a.5.5,0,1,1,.87-.5l1.44,2.5a.5.5,0,0,1-.43.75Z"/><path class="cls-1" d="M21.66,25.28a.5.5,0,0,1-.43-.25l-1.44-2.5a.5.5,0,1,1,.87-.5l1.44,2.5a.5.5,0,0,1-.43.75Z"/><path class="cls-1" d="M15.29,29.74a.5.5,0,0,1-.43-.25L13.41,27a.5.5,0,0,1,.87-.5L15.72,29a.5.5,0,0,1-.43.75Z"/><path class="cls-1" d="M18.69,29.74a.5.5,0,0,1-.43-.25L16.81,27a.5.5,0,1,1,.87-.5L19.12,29a.5.5,0,0,1-.43.75Z"/><path class="cls-1" d="M22.09,29.74a.5.5,0,0,1-.43-.25L20.21,27a.5.5,0,1,1,.87-.5L22.52,29a.5.5,0,0,1-.43.75Z"/><path class="cls-2" d="M7.73,24A7.56,7.56,0,1,1,11,9.6l3.16,1.52a.75.75,0,0,1-.65,1.35l-3.16-1.52a6,6,0,0,0-2.63-.6,6.06,6.06,0,1,0,0,12.12.75.75,0,0,1,0,1.5Z"/><path class="cls-2" d="M26.34,24H24.17a.75.75,0,0,1,0-1.5h2.17a4,4,0,1,0-2-7.45.75.75,0,0,1-.75-1.3A5.49,5.49,0,1,1,26.34,24Z"/><path class="cls-2" d="M22.34,17.86a.75.75,0,0,1-.57-1.24A7.78,7.78,0,1,0,8.32,9.71a.75.75,0,1,1-1.46-.35,9.28,9.28,0,1,1,16,8.24A.75.75,0,0,1,22.34,17.86Z"/></svg>