<svg id="expanded" xmlns="http://www.w3.org/2000/svg" viewBox="0 0 32 32"><defs><style>.cls-1{fill:#4d4c4c;}.cls-2{fill:#54a4da;}</style></defs><title>weather_light</title><path class="cls-1" d="M22,3.82a.5.5,0,0,1-.5-.5V.93a.5.5,0,0,1,1,0V3.32A.5.5,0,0,1,22,3.82Z"/><path class="cls-1" d="M17.13,5.85a.5.5,0,0,1-.35-.15L15.09,4a.5.5,0,0,1,.71-.71L17.49,5a.5.5,0,0,1-.35.86Z"/><path class="cls-1" d="M27,5.85A.5.5,0,0,1,26.6,5l1.69-1.69A.5.5,0,0,1,29,4L27.31,5.71A.5.5,0,0,1,27,5.85Z"/><path class="cls-1" d="M28.64,17.36a.5.5,0,0,1-.35-.15L26.6,15.53a.5.5,0,0,1,.71-.71L29,16.5a.5.5,0,0,1-.35.86Z"/><path class="cls-1" d="M31.37,10.76H29a.5.5,0,1,1,0-1h2.39a.5.5,0,1,1,0,1Z"/><path class="cls-2" d="M17.83,27.93a.5.5,0,0,1-.44-.25l-1.18-2a.5.5,0,1,1,.87-.5l1.18,2a.5.5,0,0,1-.43.75Z"/><path class="cls-2" d="M18.18,31.57a.5.5,0,0,1-.44-.25l-1.18-2a.5.5,0,0,1,.87-.5l1.18,2a.5.5,0,0,1-.43.75Z"/><path class="cls-1" d="M18.38,21.91a.75.75,0,0,1-.57-1.25,6.22,6.22,0,1,0-10.75-5.5.75.75,0,0,1-1.47-.35A7.72,7.72,0,1,1,19,21.65.75.75,0,0,1,18.38,21.91Z"/><path class="cls-1" d="M6.44,26.9a6.32,6.32,0,1,1,2.74-12l2.58,1.24a.75.75,0,1,1-.65,1.36L8.53,16.25a4.77,4.77,0,0,0-2.09-.47,4.81,4.81,0,1,0,0,9.62.75.75,0,1,1,0,1.51Z"/><path class="cls-1" d="M21.65,26.9H19.88a.75.75,0,0,1,0-1.51h1.77a3.12,3.12,0,1,0-1.56-5.83.75.75,0,1,1-.75-1.31,4.63,4.63,0,1,1,2.31,8.64Z"/><path class="cls-2" d="M9.49,27.93a.5.5,0,0,1-.44-.25l-1.18-2a.5.5,0,1,1,.87-.5l1.18,2a.5.5,0,0,1-.43.75Z"/><path class="cls-2" d="M12.27,27.93a.5.5,0,0,1-.44-.25l-1.18-2a.5.5,0,1,1,.87-.5l1.18,2a.5.5,0,0,1-.43.75Z"/><path class="cls-2" d="M15.05,27.93a.5.5,0,0,1-.44-.25l-1.18-2a.5.5,0,1,1,.87-.5l1.18,2a.5.5,0,0,1-.43.75Z"/><path class="cls-2" d="M12.62,31.57a.5.5,0,0,1-.44-.25l-1.18-2a.5.5,0,1,1,.87-.5l1.18,2a.5.5,0,0,1-.43.75Z"/><path class="cls-2" d="M15.4,31.57a.5.5,0,0,1-.44-.25l-1.18-2a.5.5,0,0,1,.87-.5l1.18,2a.5.5,0,0,1-.43.75Z"/><path class="cls-2" d="M23.08,15.24a.5.5,0,0,1-.11-1,4.09,4.09,0,1,0-4.71-5.56.5.5,0,0,1-.93-.39,5.1,5.1,0,1,1,5.86,6.92Z"/><path class="cls-1" d="M22,3.82a.5.5,0,0,1-.5-.5V.93a.5.5,0,0,1,1,0V3.32A.5.5,0,0,1,22,3.82Z"/><path class="cls-1" d="M17.13,5.85a.5.5,0,0,1-.35-.15L15.09,4a.5.5,0,0,1,.71-.71L17.49,5a.5.5,0,0,1-.35.86Z"/><path class="cls-1" d="M27,5.85A.5.5,0,0,1,26.6,5l1.69-1.69A.5.5,0,0,1,29,4L27.31,5.71A.5.5,0,0,1,27,5.85Z"/><path class="cls-1" d="M28.64,17.36a.5.5,0,0,1-.35-.15L26.6,15.53a.5.5,0,0,1,.71-.71L29,16.5a.5.5,0,0,1-.35.86Z"/><path class="cls-1" d="M31.37,10.76H29a.5.5,0,1,1,0-1h2.39a.5.5,0,1,1,0,1Z"/><path class="cls-2" d="M17.83,27.93a.5.5,0,0,1-.44-.25l-1.18-2a.5.5,0,1,1,.87-.5l1.18,2a.5.5,0,0,1-.43.75Z"/><path class="cls-2" d="M18.18,31.57a.5.5,0,0,1-.44-.25l-1.18-2a.5.5,0,0,1,.87-.5l1.18,2a.5.5,0,0,1-.43.75Z"/><path class="cls-1" d="M18.38,21.91a.75.75,0,0,1-.57-1.25,6.22,6.22,0,1,0-10.75-5.5.75.75,0,0,1-1.47-.35A7.72,7.72,0,1,1,19,21.65.75.75,0,0,1,18.38,21.91Z"/><path class="cls-1" d="M6.44,26.9a6.32,6.32,0,1,1,2.74-12l2.58,1.24a.75.75,0,1,1-.65,1.36L8.53,16.25a4.77,4.77,0,0,0-2.09-.47,4.81,4.81,0,1,0,0,9.62.75.75,0,1,1,0,1.51Z"/><path class="cls-1" d="M21.65,26.9H19.88a.75.75,0,0,1,0-1.51h1.77a3.12,3.12,0,1,0-1.56-5.83.75.75,0,1,1-.75-1.31,4.63,4.63,0,1,1,2.31,8.64Z"/><path class="cls-2" d="M9.49,27.93a.5.5,0,0,1-.44-.25l-1.18-2a.5.5,0,1,1,.87-.5l1.18,2a.5.5,0,0,1-.43.75Z"/><path class="cls-2" d="M12.27,27.93a.5.5,0,0,1-.44-.25l-1.18-2a.5.5,0,1,1,.87-.5l1.18,2a.5.5,0,0,1-.43.75Z"/><path class="cls-2" d="M15.05,27.93a.5.5,0,0,1-.44-.25l-1.18-2a.5.5,0,1,1,.87-.5l1.18,2a.5.5,0,0,1-.43.75Z"/><path class="cls-2" d="M12.62,31.57a.5.5,0,0,1-.44-.25l-1.18-2a.5.5,0,1,1,.87-.5l1.18,2a.5.5,0,0,1-.43.75Z"/><path class="cls-2" d="M15.4,31.57a.5.5,0,0,1-.44-.25l-1.18-2a.5.5,0,0,1,.87-.5l1.18,2a.5.5,0,0,1-.43.75Z"/><path class="cls-2" d="M23.08,15.24a.5.5,0,0,1-.11-1,4.09,4.09,0,1,0-4.71-5.56.5.5,0,0,1-.93-.39,5.1,5.1,0,1,1,5.86,6.92Z"/></svg>