<?xml version="1.0" encoding="utf-8"?>
<!-- Generator: Adobe Illustrator 19.2.1, SVG Export Plug-In . SVG Version: 6.00 Build 0)  -->
<svg version="1.1" id="Layer_1" xmlns="http://www.w3.org/2000/svg" xmlns:xlink="http://www.w3.org/1999/xlink" x="0px" y="0px"
	 viewBox="0 0 172 60" style="enable-background:new 0 0 172 60;" xml:space="preserve">
<style type="text/css">
	.st0{clip-path:url(#SVGID_2_);}
	.st1{clip-path:url(#SVGID_4_);fill:#010101;}
	.st2{clip-path:url(#SVGID_6_);}
	.st3{clip-path:url(#SVGID_8_);fill:#FFFFFF;}
	.st4{clip-path:url(#SVGID_10_);}
	.st5{clip-path:url(#SVGID_12_);fill:#FFFFFF;}
	.st6{clip-path:url(#SVGID_14_);}
	.st7{clip-path:url(#SVGID_16_);fill:#FFFFFF;}
	.st8{clip-path:url(#SVGID_18_);}
	.st9{clip-path:url(#SVGID_20_);fill:#FFFFFF;}
</style>
<g>
	<defs>
		<path id="SVGID_1_" d="M10,0C4.5,0,0,4.5,0,10v40c0,5.5,4.5,10,10,10h152c5.5,0,10-4.5,10-10V10c0-5.5-4.5-10-10-10H10z"/>
	</defs>
	<clipPath id="SVGID_2_">
		<use xlink:href="#SVGID_1_"  style="overflow:visible;"/>
	</clipPath>
	<g class="st0">
		<defs>
			<rect id="SVGID_3_" width="172" height="60"/>
		</defs>
		<clipPath id="SVGID_4_">
			<use xlink:href="#SVGID_3_"  style="overflow:visible;"/>
		</clipPath>
		<rect x="-5" y="-5" class="st1" width="182" height="70"/>
	</g>
</g>
<g>
	<defs>
		<path id="SVGID_5_" d="M32.7,25.1L11,29.5v15.8l21.7,4.3L37,48V26.7L32.7,25.1z M20.5,42l-4.8-0.7v-4h4.8V42z M20.5,36.7h-4.8V33
			l4.8-0.7V36.7z M27.2,42.9L21.1,42v-4.7h6.1V42.9z M27.2,36.7h-6.1v-4.4l6.1-0.9V36.7z M17.7,27.2v-3.6c0-2.2,1.1-2.9,3.3-3.4
			c3.2-0.8,3.4,1.3,3.4,2.6v3.1l0.8-0.2v-2.8c0-2.5-0.8-4.4-4.4-3.6c-1.9,0.4-3.9,0.9-3.9,4.2v3.9L17.7,27.2z M25.8,21.3
			c0.1,0.2,0.1,0.5,0.1,0.8c2.1-0.3,2,0.6,2,2.3v0.7l0.8-0.2v-0.5C28.8,21.7,28.3,21,25.8,21.3z M23.5,21.9c0,0.2,0.1,0.5,0.1,0.8
			c-1.1,0.5-1.6,0.9-1.6,2.6v1l-0.8,0.2v-1.2C21.3,22.7,22.2,22.3,23.5,21.9z"/>
	</defs>
	<clipPath id="SVGID_6_">
		<use xlink:href="#SVGID_5_"  style="overflow:visible;"/>
	</clipPath>
	<g class="st2">
		<defs>
			<rect id="SVGID_7_" width="172" height="60"/>
		</defs>
		<clipPath id="SVGID_8_">
			<use xlink:href="#SVGID_7_"  style="overflow:visible;"/>
		</clipPath>
		<rect x="6" y="14.1" class="st3" width="36" height="40.5"/>
	</g>
</g>
<g>
	<defs>
		<path id="SVGID_9_" d="M129.6,27.7h-1v-3.6c0-0.7-0.1-1.2-0.3-1.5c-0.2-0.3-0.6-0.5-1.1-0.5c-0.4,0-0.8,0.2-1.1,0.6
			c-0.3,0.4-0.5,0.9-0.5,1.4v3.6h-1V24c0-1.2-0.5-1.9-1.4-1.9c-0.4,0-0.8,0.2-1.1,0.6c-0.3,0.4-0.4,0.9-0.4,1.5v3.6h-1v-6.3h1v1h0
			c0.5-0.8,1.1-1.2,2-1.2c0.4,0,0.8,0.1,1.1,0.3c0.3,0.2,0.6,0.6,0.7,1c0.5-0.9,1.2-1.3,2.1-1.3c1.4,0,2.1,0.9,2.1,2.6V27.7z
			 M118,24.6c0-0.8-0.2-1.4-0.5-1.8c-0.4-0.4-0.9-0.6-1.5-0.6c-0.7,0-1.2,0.2-1.5,0.7c-0.4,0.4-0.6,1.1-0.6,1.8
			c0,0.8,0.2,1.4,0.6,1.8c0.4,0.4,0.9,0.6,1.5,0.6c0.7,0,1.2-0.2,1.5-0.6C117.8,26,118,25.3,118,24.6z M119,24.5
			c0,1-0.3,1.8-0.9,2.4c-0.6,0.6-1.3,0.9-2.3,0.9c-0.9,0-1.7-0.3-2.2-0.9c-0.6-0.6-0.8-1.4-0.8-2.4c0-1,0.3-1.9,0.9-2.5
			c0.6-0.6,1.4-0.9,2.4-0.9c0.9,0,1.7,0.3,2.2,0.9C118.8,22.7,119,23.5,119,24.5z M112.3,22.4c-0.2-0.1-0.4-0.2-0.8-0.2
			c-0.4,0-0.8,0.2-1.1,0.6c-0.3,0.4-0.4,1-0.4,1.7v3.2h-1v-6.3h1v1.3h0c0.1-0.4,0.4-0.8,0.6-1c0.3-0.3,0.6-0.4,1-0.4
			c0.3,0,0.5,0,0.6,0.1V22.4z M108.2,19.2c-0.2-0.1-0.4-0.2-0.7-0.2c-0.7,0-1.1,0.4-1.1,1.3v1h1.5v0.9h-1.5v5.5h-1v-5.5h-1.1v-0.9
			h1.1v-1c0-0.6,0.2-1.2,0.6-1.6c0.4-0.4,0.9-0.6,1.4-0.6c0.3,0,0.6,0,0.7,0.1V19.2z M99,24.9v-0.9c0-0.5-0.2-1-0.5-1.3
			c-0.3-0.3-0.8-0.5-1.3-0.5c-0.6,0-1.1,0.2-1.5,0.7c-0.4,0.5-0.5,1.1-0.5,1.9c0,0.7,0.2,1.3,0.5,1.7c0.3,0.4,0.8,0.6,1.4,0.6
			c0.6,0,1-0.2,1.4-0.6C98.9,26,99,25.5,99,24.9z M100.1,27.7h-1v-1.1h0c-0.5,0.8-1.2,1.2-2.2,1.2c-0.8,0-1.4-0.3-1.9-0.9
			c-0.5-0.6-0.7-1.3-0.7-2.3c0-1,0.3-1.9,0.8-2.5c0.5-0.6,1.2-1,2.1-1c0.9,0,1.5,0.3,1.9,1h0v-3.9h1V27.7z M91.8,24.5l-1.5,0.2
			c-0.5,0.1-0.9,0.2-1.1,0.4c-0.2,0.2-0.3,0.5-0.3,0.9c0,0.3,0.1,0.6,0.3,0.8c0.2,0.2,0.5,0.3,0.9,0.3c0.5,0,0.9-0.2,1.2-0.5
			c0.3-0.4,0.5-0.8,0.5-1.3V24.5z M92.8,27.7h-1v-1h0c-0.4,0.8-1.1,1.1-1.9,1.1c-0.6,0-1.1-0.2-1.5-0.5C88,27,87.8,26.6,87.8,26
			c0-1.2,0.7-1.9,2.1-2.1l1.9-0.3c0-1.1-0.4-1.6-1.3-1.6c-0.8,0-1.5,0.3-2.1,0.8v-1c0.2-0.1,0.5-0.3,1-0.4c0.5-0.1,0.8-0.2,1.2-0.2
			c1.5,0,2.2,0.8,2.2,2.4V27.7z M85.7,24.6c0-0.8-0.2-1.4-0.5-1.8c-0.4-0.4-0.9-0.6-1.5-0.6c-0.7,0-1.2,0.2-1.5,0.7
			c-0.4,0.4-0.6,1.1-0.6,1.8c0,0.8,0.2,1.4,0.6,1.8c0.4,0.4,0.9,0.6,1.5,0.6c0.7,0,1.2-0.2,1.5-0.6C85.5,26,85.7,25.3,85.7,24.6z
			 M86.7,24.5c0,1-0.3,1.8-0.9,2.4c-0.6,0.6-1.3,0.9-2.3,0.9c-0.9,0-1.7-0.3-2.2-0.9c-0.6-0.6-0.8-1.4-0.8-2.4c0-1,0.3-1.9,0.9-2.5
			c0.6-0.6,1.4-0.9,2.4-0.9c0.9,0,1.7,0.3,2.2,0.9C86.5,22.7,86.7,23.5,86.7,24.5z M77.9,18.3h1v9.4h-1V18.3z M76,27.7h-1v-3.6
			c0-1.3-0.5-2-1.5-2c-0.5,0-0.9,0.2-1.3,0.6c-0.3,0.4-0.5,0.9-0.5,1.4v3.6h-1v-6.3h1v1.1h0c0.5-0.8,1.2-1.2,2.1-1.2
			c0.7,0,1.2,0.2,1.6,0.7c0.4,0.5,0.5,1.1,0.5,1.9V27.7z M69.5,21.4l-1.9,6.3h-1.1l-1.3-4.5c0-0.2-0.1-0.4-0.1-0.6h0
			c0,0.1-0.1,0.3-0.1,0.6l-1.4,4.6h-1l-1.9-6.3h1.1l1.3,4.8c0,0.2,0.1,0.4,0.1,0.6h0.1c0-0.2,0-0.4,0.1-0.6l1.5-4.8h0.9l1.3,4.8
			c0,0.2,0.1,0.4,0.1,0.6h0c0-0.2,0-0.4,0.1-0.6l1.3-4.8H69.5z M58.9,24.6c0-0.8-0.2-1.4-0.5-1.8c-0.4-0.4-0.9-0.6-1.5-0.6
			c-0.7,0-1.2,0.2-1.5,0.7c-0.4,0.4-0.6,1.1-0.6,1.8c0,0.8,0.2,1.4,0.6,1.8c0.4,0.4,0.9,0.6,1.5,0.6c0.7,0,1.2-0.2,1.5-0.6
			C58.8,26,58.9,25.3,58.9,24.6z M60,24.5c0,1-0.3,1.8-0.9,2.4c-0.6,0.6-1.3,0.9-2.3,0.9c-0.9,0-1.7-0.3-2.2-0.9
			c-0.6-0.6-0.8-1.4-0.8-2.4c0-1,0.3-1.9,0.9-2.5c0.6-0.6,1.4-0.9,2.4-0.9c0.9,0,1.7,0.3,2.2,0.9C59.7,22.7,60,23.5,60,24.5z
			 M51.5,23.2c0-2.3-1.2-3.4-3.6-3.4h-1.4v7h1.3c1.2,0,2.1-0.3,2.7-0.9C51.2,25.2,51.5,24.3,51.5,23.2z M52.6,23.2
			c0,0.9-0.2,1.7-0.6,2.4c-0.4,0.7-1,1.2-1.7,1.6c-0.7,0.4-1.6,0.6-2.5,0.6h-2.3v-8.9h2.5C51,18.8,52.6,20.3,52.6,23.2z"/>
	</defs>
	<clipPath id="SVGID_10_">
		<use xlink:href="#SVGID_9_"  style="overflow:visible;"/>
	</clipPath>
	<g class="st4">
		<defs>
			<rect id="SVGID_11_" width="172" height="60"/>
		</defs>
		<clipPath id="SVGID_12_">
			<use xlink:href="#SVGID_11_"  style="overflow:visible;"/>
		</clipPath>
		<rect x="40.5" y="13.2" class="st5" width="94.1" height="19.7"/>
	</g>
</g>
<g>
	<defs>
		<path id="SVGID_13_" d="M116.4,44.1c0,0.8-0.3,1.5-0.9,2c-0.6,0.5-1.5,0.8-2.5,0.8c-0.9,0-1.7-0.2-2.3-0.6v-1.6
			c0.7,0.6,1.6,0.9,2.5,0.9c1.2,0,1.8-0.4,1.8-1.3c0-0.4-0.1-0.6-0.4-0.9c-0.2-0.2-0.8-0.5-1.6-0.9c-0.8-0.4-1.4-0.7-1.8-1.1
			c-0.3-0.4-0.5-1-0.5-1.6c0-0.8,0.3-1.4,0.9-2c0.6-0.5,1.4-0.8,2.4-0.8c0.7,0,1.4,0.1,2,0.4v1.5c-0.6-0.4-1.3-0.7-2.1-0.7
			c-0.5,0-0.9,0.1-1.2,0.4c-0.3,0.2-0.5,0.6-0.5,0.9c0,0.4,0.1,0.7,0.4,1c0.2,0.2,0.7,0.5,1.4,0.8c0.9,0.4,1.5,0.8,1.9,1.2
			C116.3,43,116.4,43.5,116.4,44.1z M110,37.2l-2.8,9.4h-1.6l-1.9-6.8c-0.1-0.2-0.1-0.5-0.1-0.9h0c0,0.2-0.1,0.5-0.2,0.8l-2.1,6.8
			h-1.5l-2.8-9.4h1.6l1.9,7.1c0.1,0.2,0.1,0.5,0.1,0.8h0.1c0-0.2,0.1-0.5,0.2-0.9l2.2-7.1h1.4l2,7.1c0.1,0.2,0.1,0.5,0.1,0.8h0.1
			c0-0.3,0.1-0.6,0.2-0.8l1.9-7.1H110z M94.7,41.9c0-1.2-0.3-2.1-0.8-2.7c-0.5-0.6-1.3-0.9-2.3-0.9c-1,0-1.7,0.3-2.3,1
			c-0.6,0.6-0.8,1.6-0.8,2.7c0,1.1,0.3,2,0.9,2.7c0.6,0.6,1.3,1,2.3,1c1,0,1.7-0.3,2.3-0.9C94.4,44,94.7,43.1,94.7,41.9z M96.2,41.9
			c0,1.5-0.4,2.7-1.3,3.6c-0.9,0.9-2,1.4-3.4,1.4c-1.4,0-2.5-0.4-3.3-1.3c-0.8-0.9-1.2-2.1-1.2-3.5c0-1.6,0.4-2.8,1.3-3.7
			c0.9-0.9,2-1.4,3.5-1.4c1.4,0,2.5,0.4,3.3,1.3C95.8,39.2,96.2,40.4,96.2,41.9z M83.6,42.4V41c0-0.8-0.3-1.4-0.8-1.9
			c-0.5-0.5-1.2-0.8-1.9-0.8c-0.9,0-1.6,0.3-2.2,1c-0.5,0.7-0.8,1.6-0.8,2.8c0,1.1,0.3,1.9,0.8,2.6c0.5,0.6,1.2,0.9,2,0.9
			c0.8,0,1.5-0.3,2-0.9C83.3,44.1,83.6,43.3,83.6,42.4z M85.1,46.6h-1.5V45h0c-0.7,1.2-1.8,1.8-3.2,1.8c-1.2,0-2.1-0.4-2.8-1.3
			c-0.7-0.9-1.1-2-1.1-3.4c0-1.6,0.4-2.8,1.2-3.8c0.8-0.9,1.8-1.4,3.1-1.4c1.3,0,2.2,0.5,2.8,1.5h0v-5.8h1.5V46.6z M74.6,46.6h-1.5
			v-5.4c0-2-0.7-3-2.2-3c-0.7,0-1.4,0.3-1.9,0.8c-0.5,0.6-0.8,1.3-0.8,2.2v5.4h-1.5v-9.4h1.5v1.6h0C69,37.6,70,37,71.4,37
			c1,0,1.8,0.3,2.4,1c0.5,0.7,0.8,1.6,0.8,2.9V46.6z M62.9,37.2h1.5v9.4h-1.5V37.2z M64.7,34.1c0,0.3-0.1,0.5-0.3,0.7
			c-0.2,0.2-0.4,0.3-0.7,0.3c-0.3,0-0.5-0.1-0.7-0.3c-0.2-0.2-0.3-0.4-0.3-0.7c0-0.3,0.1-0.5,0.3-0.7c0.2-0.2,0.4-0.3,0.7-0.3
			c0.3,0,0.5,0.1,0.7,0.3C64.6,33.6,64.7,33.8,64.7,34.1z M61.7,33.4L58,46.6h-1.8L53.4,37c-0.1-0.4-0.2-0.8-0.2-1.3h0
			c0,0.5-0.1,0.9-0.2,1.3l-2.7,9.7h-1.8l-3.9-13.2h1.7l2.8,10.1c0.1,0.4,0.2,0.9,0.2,1.3h0c0-0.4,0.1-0.8,0.3-1.3l2.9-10.1H54
			l2.8,10.2c0.1,0.4,0.2,0.8,0.2,1.2h0c0-0.3,0.1-0.7,0.2-1.3L60,33.4H61.7z"/>
	</defs>
	<clipPath id="SVGID_14_">
		<use xlink:href="#SVGID_13_"  style="overflow:visible;"/>
	</clipPath>
	<g class="st6">
		<defs>
			<rect id="SVGID_15_" width="172" height="60"/>
		</defs>
		<clipPath id="SVGID_16_">
			<use xlink:href="#SVGID_15_"  style="overflow:visible;"/>
		</clipPath>
		<rect x="39.6" y="27.7" class="st7" width="81.9" height="24.2"/>
	</g>
</g>
<g>
	<defs>
		<path id="SVGID_17_" d="M160.6,41c0-0.9-0.2-1.5-0.6-2c-0.4-0.5-1-0.7-1.7-0.7c-0.7,0-1.3,0.3-1.8,0.8c-0.5,0.5-0.8,1.2-0.9,2
			H160.6z M162.2,42.3h-6.7c0,1.1,0.3,1.9,0.8,2.4c0.5,0.6,1.3,0.8,2.2,0.8c1.1,0,2-0.3,2.9-1V46c-0.8,0.6-1.9,0.9-3.3,0.9
			c-1.3,0-2.4-0.4-3.2-1.3c-0.8-0.9-1.1-2.1-1.1-3.6c0-0.9,0.2-1.8,0.6-2.6c0.4-0.8,0.9-1.4,1.6-1.8c0.7-0.4,1.4-0.6,2.2-0.6
			c1.2,0,2.2,0.4,2.9,1.2c0.7,0.8,1,1.9,1,3.3V42.3z M153.1,38.7c-0.3-0.2-0.7-0.3-1.2-0.3c-0.7,0-1.2,0.3-1.6,0.9
			c-0.4,0.6-0.6,1.5-0.6,2.5v4.8h-1.5v-9.4h1.5v1.9h0c0.2-0.7,0.5-1.2,1-1.5c0.4-0.4,0.9-0.6,1.5-0.6c0.4,0,0.7,0,0.9,0.1V38.7z
			 M145,41.9c0-1.2-0.3-2.1-0.8-2.7c-0.5-0.6-1.3-0.9-2.3-0.9c-1,0-1.7,0.3-2.3,1c-0.6,0.6-0.8,1.6-0.8,2.7c0,1.1,0.3,2,0.9,2.7
			c0.6,0.6,1.3,1,2.3,1c1,0,1.7-0.3,2.3-0.9C144.8,44,145,43.1,145,41.9z M146.6,41.9c0,1.5-0.4,2.7-1.3,3.6c-0.9,0.9-2,1.4-3.4,1.4
			c-1.4,0-2.5-0.4-3.3-1.3c-0.8-0.9-1.2-2.1-1.2-3.5c0-1.6,0.4-2.8,1.3-3.7c0.9-0.9,2-1.4,3.5-1.4c1.4,0,2.5,0.4,3.3,1.3
			C146.2,39.2,146.6,40.4,146.6,41.9z M136.1,46.5c-0.4,0.2-0.8,0.3-1.4,0.3c-1.6,0-2.5-0.9-2.5-2.8v-5.6h-1.6v-1.3h1.6v-2.3
			l1.5-0.5v2.8h2.4v1.3h-2.4v5.3c0,0.6,0.1,1.1,0.3,1.4c0.2,0.3,0.6,0.4,1.1,0.4c0.4,0,0.7-0.1,1-0.3V46.5z M129.9,43.3
			c0,1.1-0.4,2-1.2,2.6c-0.8,0.6-1.9,1-3.2,1c-0.5,0-1-0.1-1.7-0.2c-0.6-0.2-1.1-0.3-1.3-0.5v-1.8c0.4,0.3,0.9,0.6,1.5,0.8
			c0.6,0.2,1.2,0.3,1.7,0.3c1.7,0,2.5-0.7,2.5-2c0-0.6-0.2-1-0.5-1.4c-0.4-0.4-1.1-0.9-2.2-1.6c-1.1-0.6-1.8-1.2-2.3-1.8
			c-0.4-0.6-0.7-1.2-0.7-2c0-1,0.4-1.9,1.2-2.5c0.8-0.7,1.8-1,3-1c1.2,0,2.1,0.2,2.6,0.5v1.7c-0.7-0.5-1.6-0.8-2.7-0.8
			c-0.7,0-1.3,0.2-1.8,0.5c-0.5,0.4-0.7,0.8-0.7,1.5c0,0.4,0.1,0.8,0.2,1.1c0.1,0.3,0.4,0.5,0.7,0.8c0.3,0.3,0.9,0.6,1.7,1
			c1.2,0.7,2,1.3,2.5,1.8C129.7,41.9,129.9,42.6,129.9,43.3z"/>
	</defs>
	<clipPath id="SVGID_18_">
		<use xlink:href="#SVGID_17_"  style="overflow:visible;"/>
	</clipPath>
	<g class="st8">
		<defs>
			<rect id="SVGID_19_" width="172" height="60"/>
		</defs>
		<clipPath id="SVGID_20_">
			<use xlink:href="#SVGID_19_"  style="overflow:visible;"/>
		</clipPath>
		<rect x="117.5" y="28.2" class="st9" width="49.7" height="23.7"/>
	</g>
</g>
</svg>
