<svg id="expanded" xmlns="http://www.w3.org/2000/svg" viewBox="0 0 32 32"><defs><style>.cls-1{fill:#54a4da;}</style></defs><title>x</title><path class="cls-1" d="M7.7,29.37H7.63a2.61,2.61,0,0,1-1.87-.85L3.39,25.94a2.61,2.61,0,0,1,.08-3.64h0C5,20.76,7.7,18.12,9.83,16c-3.27-3.27-5.29-5.32-6.45-6.5a2.62,2.62,0,0,1,.1-3.77L6.06,3.36a2.61,2.61,0,0,1,3.64.09C10.84,4.61,12.83,6.63,16,9.8L22.4,3.4a2.6,2.6,0,0,1,1.85-.77h0a2.61,2.61,0,0,1,1.85.77l2.48,2.47a2.62,2.62,0,0,1,0,3.71L22.2,16l6.4,6.38a2.62,2.62,0,0,1,0,3.71l-2.47,2.48a2.63,2.63,0,0,1-3.71,0L16,22.18c-3.4,3.4-5.37,5.35-6.49,6.45A2.59,2.59,0,0,1,7.7,29.37Zm-3.18-6a1.12,1.12,0,0,0,0,1.56l2.38,2.58a1.12,1.12,0,0,0,1.61,0c1.18-1.15,3.29-3.25,7-7l.53-.53,7.46,7.44a1.13,1.13,0,0,0,1.59,0L27.54,25a1.12,1.12,0,0,0,0-1.59L20.08,16l.53-.53,6.93-6.95a1.11,1.11,0,0,0,.33-.79,1.12,1.12,0,0,0-.33-.79L25,4.46a1.12,1.12,0,0,0-.79-.33h0a1.12,1.12,0,0,0-.79.33L16,11.93l-.53-.53C12,7.91,9.83,5.73,8.63,4.5a1.12,1.12,0,0,0-1.56,0L4.5,6.83a1.12,1.12,0,0,0,0,1.61c1.22,1.25,3.39,3.44,7,7l.53.53-.53.53c-2.19,2.19-5.21,5.17-6.9,6.84Z"/><path class="cls-1" d="M7.7,29.37H7.63a2.61,2.61,0,0,1-1.87-.85L3.39,25.94a2.61,2.61,0,0,1,.08-3.64h0C5,20.76,7.7,18.12,9.83,16c-3.27-3.27-5.29-5.32-6.45-6.5a2.62,2.62,0,0,1,.1-3.77L6.06,3.36a2.61,2.61,0,0,1,3.64.09C10.84,4.61,12.83,6.63,16,9.8L22.4,3.4a2.6,2.6,0,0,1,1.85-.77h0a2.61,2.61,0,0,1,1.85.77l2.48,2.47a2.62,2.62,0,0,1,0,3.71L22.2,16l6.4,6.38a2.62,2.62,0,0,1,0,3.71l-2.47,2.48a2.63,2.63,0,0,1-3.71,0L16,22.18c-3.4,3.4-5.37,5.35-6.49,6.45A2.59,2.59,0,0,1,7.7,29.37Zm-3.18-6a1.12,1.12,0,0,0,0,1.56l2.38,2.58a1.12,1.12,0,0,0,1.61,0c1.18-1.15,3.29-3.25,7-7l.53-.53,7.46,7.44a1.13,1.13,0,0,0,1.59,0L27.54,25a1.12,1.12,0,0,0,0-1.59L20.08,16l.53-.53,6.93-6.95a1.11,1.11,0,0,0,.33-.79,1.12,1.12,0,0,0-.33-.79L25,4.46a1.12,1.12,0,0,0-.79-.33h0a1.12,1.12,0,0,0-.79.33L16,11.93l-.53-.53C12,7.91,9.83,5.73,8.63,4.5a1.12,1.12,0,0,0-1.56,0L4.5,6.83a1.12,1.12,0,0,0,0,1.61c1.22,1.25,3.39,3.44,7,7l.53.53-.53.53c-2.19,2.19-5.21,5.17-6.9,6.84Z"/></svg>