<?xml version="1.0" encoding="UTF-8"?>
<svg width="32px" height="32px" viewBox="0 0 32 32" version="1.1" xmlns="http://www.w3.org/2000/svg" xmlns:xlink="http://www.w3.org/1999/xlink">
    <!-- Generator: Sketch 40 (33762) - http://www.bohemiancoding.com/sketch -->
    <title>YouTube</title>
    <desc>Created with Sketch.</desc>
    <defs>
        <polygon id="path-1" points="31.6803441 31.6803441 31.6803441 0.000103225806 0.000103225806 0.000103225806 0.000103225806 31.6803441 31.6803441 31.6803441"></polygon>
        <linearGradient x1="50%" y1="0%" x2="50%" y2="100%" id="linearGradient-3">
            <stop stop-color="#EDEDED" offset="0%"></stop>
            <stop stop-color="#F5F5F5" offset="100%"></stop>
        </linearGradient>
        <path d="M13.6436989,18.4699871 L13.6436989,12.4990624 L19.2333763,15.4244817 L13.6436989,18.4699871 Z M26.1491613,11.2923527 C26.1491613,11.2923527 25.9437419,9.83136344 25.3126882,9.18792258 C24.5126882,8.34353548 23.616,8.33906237 23.2048172,8.28985806 C20.2608172,8.07549247 15.8448172,8.07549247 15.8448172,8.07549247 L15.8355269,8.07549247 C15.8355269,8.07549247 11.419871,8.07549247 8.47552688,8.28985806 C8.06434409,8.33906237 7.168,8.34353548 6.36765591,9.18792258 C5.73694624,9.83136344 5.53187097,11.2923527 5.53187097,11.2923527 C5.53187097,11.2923527 5.32129032,13.0079656 5.32129032,14.7235785 L5.32129032,16.3318366 C5.32129032,18.0474495 5.53187097,19.7630624 5.53187097,19.7630624 C5.53187097,19.7630624 5.73694624,21.2240516 6.36765591,21.8674925 C7.168,22.7118796 8.2191828,22.6853849 8.68748387,22.7738151 C10.3704086,22.9362237 15.8403441,22.9868043 15.8403441,22.9868043 C15.8403441,22.9868043 20.2608172,22.9799226 23.2048172,22.765557 C23.616,22.7160086 24.5126882,22.7118796 25.3126882,21.8674925 C25.9437419,21.2240516 26.1491613,19.7630624 26.1491613,19.7630624 C26.1491613,19.7630624 26.3593978,18.0474495 26.3593978,16.3318366 L26.3593978,14.7235785 C26.3593978,13.0079656 26.1491613,11.2923527 26.1491613,11.2923527 L26.1491613,11.2923527 Z" id="path-4"></path>
        <filter x="-50%" y="-50%" width="200%" height="200%" filterUnits="objectBoundingBox" id="filter-5">
            <feOffset dx="0" dy="1" in="SourceAlpha" result="shadowOffsetOuter1"></feOffset>
            <feGaussianBlur stdDeviation="1" in="shadowOffsetOuter1" result="shadowBlurOuter1"></feGaussianBlur>
            <feColorMatrix values="0 0 0 0 0   0 0 0 0 0   0 0 0 0 0  0 0 0 0.25 0" type="matrix" in="shadowBlurOuter1"></feColorMatrix>
        </filter>
    </defs>
    <g id="Navigation" stroke="none" stroke-width="1" fill="none" fill-rule="evenodd">
        <g id="Contact-Us-menu" transform="translate(-678.000000, -62.000000)">
            <g id="YouTube" transform="translate(678.000000, 62.000000)">
                <g id="Group-Copy-2">
                    <mask id="mask-2" fill="white">
                        <use xlink:href="#path-1"></use>
                    </mask>
                    <use id="Clip-2" fill="#CC181E" xlink:href="#path-1"></use>
                    <g id="Fill-4" mask="url(#mask-2)">
                        <use fill="black" fill-opacity="1" filter="url(#filter-5)" xlink:href="#path-4"></use>
                        <use fill="url(#linearGradient-3)" fill-rule="evenodd" xlink:href="#path-4"></use>
                    </g>
                    <polygon id="Fill-6" fill-opacity="0.25" fill="#000000" mask="url(#mask-2)" points="13.6436989 12.4989935 18.5937204 15.7784774 19.2433548 15.4072086"></polygon>
                </g>
            </g>
        </g>
    </g>
</svg>