<?xml version="1.0" encoding="utf-8"?>
<!-- Generator: Adobe Illustrator 19.2.1, SVG Export Plug-In . SVG Version: 6.00 Build 0)  -->
<svg version="1.1" id="Layer_1" xmlns="http://www.w3.org/2000/svg" xmlns:xlink="http://www.w3.org/1999/xlink" x="0px" y="0px"
	 viewBox="0 0 34 34.2" style="enable-background:new 0 0 34 34.2;" xml:space="preserve">
<style type="text/css">
	.st0{fill:none;stroke:#55A5DB;stroke-width:1.5;stroke-linecap:round;stroke-linejoin:round;stroke-miterlimit:10;}
</style>
<g>
	<path class="st0" d="M30.9,12h-9V3c0-1.1-0.9-2.1-2.1-2.1h-5.8C12.9,0.9,12,1.9,12,3v9h-9C1.9,12,1,12.9,1,14v5.8
		c0,1.1,0.9,2.1,2.1,2.1h9v9c0,1.1,0.9,2.1,2.1,2.1h5.8c1.1,0,2.1-0.9,2.1-2.1v-9h9c1.1,0,2.1-0.9,2.1-2.1V14
		C33,12.9,32.1,12,30.9,12z"/>
</g>
</svg>
