<svg id="expanded" xmlns="http://www.w3.org/2000/svg" viewBox="0 0 32 32"><defs><style>.cls-1{fill:#4d4c4c;}</style></defs><title>bolt2</title><path class="cls-1" d="M7.74,31.88a.75.75,0,0,1-.69-1l4.92-12H6.32a.75.75,0,0,1-.7-1L12.39.6a.75.75,0,0,1,.7-.48h12a.75.75,0,0,1,.61,1.18l-6.54,9.27h6.52a.75.75,0,0,1,.56,1.25L8.3,31.63A.75.75,0,0,1,7.74,31.88Zm-.33-14.5h5.67a.75.75,0,0,1,.69,1l-3.71,9L24,12.07H17.73a.75.75,0,0,1-.61-1.18l6.54-9.27h-10Z"/><path class="cls-1" d="M7.74,31.88a.75.75,0,0,1-.69-1l4.92-12H6.32a.75.75,0,0,1-.7-1L12.39.6a.75.75,0,0,1,.7-.48h12a.75.75,0,0,1,.61,1.18l-6.54,9.27h6.52a.75.75,0,0,1,.56,1.25L8.3,31.63A.75.75,0,0,1,7.74,31.88Zm-.33-14.5h5.67a.75.75,0,0,1,.69,1l-3.71,9L24,12.07H17.73a.75.75,0,0,1-.61-1.18l6.54-9.27h-10Z"/></svg>