<svg id="expanded" xmlns="http://www.w3.org/2000/svg" viewBox="0 0 16 16"><defs><style>.cls-1{fill:#54a4da;}.cls-2{fill:#4c4c4c;}.cls-3{fill:#fff;}</style></defs><title>book16</title><path class="cls-1" d="M4,12H2.12a.38.38,0,1,1,0-.75H4A.37.37,0,1,1,4,12Z"/><path class="cls-1" d="M4.9,14.13H2.12a.38.38,0,1,1,0-.75H4.9a.38.38,0,0,1,0,.75Z"/><path class="cls-1" d="M12.78,13.05H2.2a.38.38,0,0,1,0-.75H12.78a.38.38,0,0,1,0,.75Z"/><path class="cls-2" d="M13.14,15.29H1.2A.38.38,0,0,1,1,14.63a2.69,2.69,0,0,0,.65-2,2.69,2.69,0,0,0-.65-2,.38.38,0,0,1,.24-.66H13.14a2.61,2.61,0,1,1,0,5.23ZM1.95,14.54H13.14a1.86,1.86,0,1,0,0-3.73H1.95a4.12,4.12,0,0,1,.41,1.86A4.12,4.12,0,0,1,1.95,14.54Z"/><path class="cls-2" d="M13.14,15.41H.63a.5.5,0,0,1,0-1H13.14a1.74,1.74,0,1,0,0-3.48H.63a.5.5,0,0,1,0-1H13.14a2.74,2.74,0,0,1,0,5.48Z"/><path class="cls-3" d="M7.77,4.19l.2.12C8,4.25,7.77,4,7.83,4a4.34,4.34,0,0,1,.43-1.08,4.26,4.26,0,0,1,.8-1"/><path class="cls-1" d="M8,4.68a.38.38,0,0,1-.21-.06l-.17-.1.06-.11h0c-.2-.28-.21-.46-.15-.59A4.69,4.69,0,0,1,7.94,2.7a4.62,4.62,0,0,1,.87-1.12.38.38,0,1,1,.51.55,3.87,3.87,0,0,0-.73.94,4,4,0,0,0-.36.87c.24.4.06.59,0,.66A.37.37,0,0,1,8,4.68Zm-.15-.58h0ZM7.75,4l.07.1Z"/><path class="cls-2" d="M7.4,10.64a2,2,0,0,1-.76-.16,4,4,0,0,1-2-2.18,5.14,5.14,0,0,1-.19-.54C3.77,6,4.31,4.14,5.71,3.54A2.55,2.55,0,0,1,8,3.71a2.57,2.57,0,0,1,2.37-.25h0A3,3,0,0,1,11.79,7a4.68,4.68,0,0,1-.34,1.27,4,4,0,0,1-2,2.18,1.84,1.84,0,0,1-1.35.05l0,0A1.67,1.67,0,0,1,7.4,10.64ZM6.62,4.36a1.31,1.31,0,0,0-.52.1c-.89.38-1.2,1.71-.7,3a4.94,4.94,0,0,0,.17.47A3,3,0,0,0,7,9.56a.84.84,0,0,0,.66,0l.12-.07a.5.5,0,0,1,.55,0,.85.85,0,0,0,.74,0,3,3,0,0,0,1.44-1.64,3.83,3.83,0,0,0,.28-1,2.08,2.08,0,0,0-.87-2.43,1.69,1.69,0,0,0-1.67.32.5.5,0,0,1-.58,0A1.91,1.91,0,0,0,6.62,4.36Z"/><path class="cls-1" d="M6.62,1.09A1.45,1.45,0,0,0,7.93,3,1.5,1.5,0,0,0,6.62,1.09Z"/><ellipse class="cls-1" cx="6.35" cy="5.52" rx="0.68" ry="0.53" transform="translate(-1.8 7.61) rotate(-55.36)"/></svg>