<svg id="expanded" xmlns="http://www.w3.org/2000/svg" viewBox="0 0 32 32"><defs><style>.cls-1{fill:#54a4da;}.cls-2{fill:#4d4c4c;}</style></defs><title>box_opened</title><path class="cls-1" d="M19,25a.5.5,0,0,1-.43-.76l2.32-3.84,2.61,1.5a.5.5,0,0,1-.5.87l-1.76-1-1.82,3A.5.5,0,0,1,19,25Z"/><path class="cls-2" d="M16,30.22l-.34-.13c-.08,0-.19-.07-9.67-5.57a1.52,1.52,0,0,1-.75-1.31V16.15h1.5v7.06C11.56,26,14.9,27.92,16,28.52l9-5.3V16.38h1.5v6.83a1.52,1.52,0,0,1-.74,1.3Z"/><path class="cls-2" d="M15.63,16.81,4.21,10.87,15.28,5.18a1.51,1.51,0,0,1,1.38,0l9.78,5-.69,1.33L16,6.51,7.47,10.88l8.85,4.6Z"/><path class="cls-2" d="M20.79,19.72,15.95,17l-5,2.46L.7,14.25a.91.91,0,0,1,0-1.62L5.84,10,16,15.3,26.1,10l5.28,2.67a.91.91,0,0,1,0,1.62Zm-3.25-3.55L20.83,18l8.83-4.5-3.55-1.8ZM2.42,13.44l8.5,4.33,3.38-1.65L5.83,11.72Z"/><path class="cls-2" d="M5.48,11.53.25,8.71l11.4-5.49a1.28,1.28,0,0,1,1.17,0l3.5,1.94L15.61,6.5,12.2,4.62,3.55,8.79l2.64,1.43Z"/><path class="cls-2" d="M19.36,15.23l-.66-1.35,9.24-4.53L19,4.66l-7.36,4L11,7.4l7.71-4.24a.75.75,0,0,1,.71,0L29.94,8.7a.75.75,0,0,1,0,1.34Z"/><path class="cls-2" d="M16,29.89a.5.5,0,0,1-.5-.5V18.87a.5.5,0,0,1,1,0V29.39A.5.5,0,0,1,16,29.89Z"/><path class="cls-2" d="M15.62,16.65a.5.5,0,0,1-.5-.5V5.84a.5.5,0,0,1,1,0v10.3A.5.5,0,0,1,15.62,16.65Z"/><path class="cls-1" d="M19,25a.5.5,0,0,1-.43-.76l2.32-3.84,2.61,1.5a.5.5,0,0,1-.5.87l-1.76-1-1.82,3A.5.5,0,0,1,19,25Z"/><path class="cls-2" d="M16,30.22l-.34-.13c-.08,0-.19-.07-9.67-5.57a1.52,1.52,0,0,1-.75-1.31V16.15h1.5v7.06C11.56,26,14.9,27.92,16,28.52l9-5.3V16.38h1.5v6.83a1.52,1.52,0,0,1-.74,1.3Z"/><path class="cls-2" d="M15.63,16.81,4.21,10.87,15.28,5.18a1.51,1.51,0,0,1,1.38,0l9.78,5-.69,1.33L16,6.51,7.47,10.88l8.85,4.6Z"/><path class="cls-2" d="M20.79,19.72,15.95,17l-5,2.46L.7,14.25a.91.91,0,0,1,0-1.62L5.84,10,16,15.3,26.1,10l5.28,2.67a.91.91,0,0,1,0,1.62Zm-3.25-3.55L20.83,18l8.83-4.5-3.55-1.8ZM2.42,13.44l8.5,4.33,3.38-1.65L5.83,11.72Z"/><path class="cls-2" d="M5.48,11.53.25,8.71l11.4-5.49a1.28,1.28,0,0,1,1.17,0l3.5,1.94L15.61,6.5,12.2,4.62,3.55,8.79l2.64,1.43Z"/><path class="cls-2" d="M19.36,15.23l-.66-1.35,9.24-4.53L19,4.66l-7.36,4L11,7.4l7.71-4.24a.75.75,0,0,1,.71,0L29.94,8.7a.75.75,0,0,1,0,1.34Z"/><path class="cls-2" d="M16,29.89a.5.5,0,0,1-.5-.5V18.87a.5.5,0,0,1,1,0V29.39A.5.5,0,0,1,16,29.89Z"/><path class="cls-2" d="M15.62,16.65a.5.5,0,0,1-.5-.5V5.84a.5.5,0,0,1,1,0v10.3A.5.5,0,0,1,15.62,16.65Z"/></svg>