<svg id="expanded" xmlns="http://www.w3.org/2000/svg" viewBox="0 0 32 32"><defs><style>.cls-1{fill:#4d4c4c;}.cls-2{fill:#54a4da;}</style></defs><title>bulb</title><path class="cls-1" d="M20.43,24.57H11.57a.75.75,0,0,1-.72-.53,29.64,29.64,0,0,0-3.34-7.86A.7.7,0,0,1,7.45,16a10.26,10.26,0,1,1,18.78-5.65,10.32,10.32,0,0,1-1.69,5.68l-.06.11A29.63,29.63,0,0,0,21.14,24,.75.75,0,0,1,20.43,24.57Zm-8.3-1.5h7.74a29.54,29.54,0,0,1,3.29-7.61l0,0a9,9,0,0,0,1.55-5,8.73,8.73,0,1,0-16,4.94.65.65,0,0,1,.07.12A29.57,29.57,0,0,1,12.13,23.07Z"/><path class="cls-1" d="M20,27.23H12a.75.75,0,0,1,0-1.5H20a.75.75,0,0,1,0,1.5Z"/><path class="cls-1" d="M20.46,24.57H11.54a.75.75,0,0,1,0-1.5h8.93a.75.75,0,0,1,0,1.5Z"/><path class="cls-1" d="M16,31.67a4.89,4.89,0,0,1-4.17-2.33.5.5,0,0,1,.42-.76h7.49a.5.5,0,0,1,.42.76A4.89,4.89,0,0,1,16,31.67Zm-2.71-2.1a3.88,3.88,0,0,0,5.41,0Z"/><path class="cls-2" d="M17.14,22.5a.5.5,0,0,1-.5-.5V15.47a.5.5,0,0,1,.08-.27l2-3.14a.5.5,0,0,1,.84.54l-1.94,3V22A.5.5,0,0,1,17.14,22.5Z"/><path class="cls-2" d="M14.8,22.5a.5.5,0,0,1-.5-.5V15.53l-1.88-2.94a.5.5,0,0,1,.84-.54l2,3.06a.5.5,0,0,1,.08.27V22A.5.5,0,0,1,14.8,22.5Z"/><path class="cls-1" d="M20.43,24.57H11.57a.75.75,0,0,1-.72-.53,29.64,29.64,0,0,0-3.34-7.86A.7.7,0,0,1,7.45,16a10.26,10.26,0,1,1,18.78-5.65,10.32,10.32,0,0,1-1.69,5.68l-.06.11A29.63,29.63,0,0,0,21.14,24,.75.75,0,0,1,20.43,24.57Zm-8.3-1.5h7.74a29.54,29.54,0,0,1,3.29-7.61l0,0a9,9,0,0,0,1.55-5,8.73,8.73,0,1,0-16,4.94.65.65,0,0,1,.07.12A29.57,29.57,0,0,1,12.13,23.07Z"/><path class="cls-1" d="M20,27.23H12a.75.75,0,0,1,0-1.5H20a.75.75,0,0,1,0,1.5Z"/><path class="cls-1" d="M20.46,24.57H11.54a.75.75,0,0,1,0-1.5h8.93a.75.75,0,0,1,0,1.5Z"/><path class="cls-1" d="M16,31.67a4.89,4.89,0,0,1-4.17-2.33.5.5,0,0,1,.42-.76h7.49a.5.5,0,0,1,.42.76A4.89,4.89,0,0,1,16,31.67Zm-2.71-2.1a3.88,3.88,0,0,0,5.41,0Z"/><path class="cls-2" d="M17.14,22.5a.5.5,0,0,1-.5-.5V15.47a.5.5,0,0,1,.08-.27l2-3.14a.5.5,0,0,1,.84.54l-1.94,3V22A.5.5,0,0,1,17.14,22.5Z"/><path class="cls-2" d="M14.8,22.5a.5.5,0,0,1-.5-.5V15.53l-1.88-2.94a.5.5,0,0,1,.84-.54l2,3.06a.5.5,0,0,1,.08.27V22A.5.5,0,0,1,14.8,22.5Z"/></svg>