<?xml version="1.0" encoding="UTF-8"?>
<svg width="55px" height="85px" viewBox="0 0 55 85" version="1.1" xmlns="http://www.w3.org/2000/svg" xmlns:xlink="http://www.w3.org/1999/xlink">
    <!-- Generator: Sketch 41 (35326) - http://www.bohemiancoding.com/sketch -->
    <title>Group 3</title>
    <desc>Created with Sketch.</desc>
    <defs>
        <polygon id="path-1" points="54.7701957 0.18161398 0 0.18161398 0 84.9103141 54.7701957 84.9103141"></polygon>
    </defs>
    <g id="Support" stroke="none" stroke-width="1" fill="none" fill-rule="evenodd">
        <g id="support" transform="translate(-692.000000, -224.000000)">
            <g id="Group" transform="translate(563.000000, 224.000000)">
                <g id="Group-3" transform="translate(129.000000, 0.000000)">
                    <mask id="mask-2" fill="white">
                        <use xlink:href="#path-1"></use>
                    </mask>
                    <g id="Clip-2"></g>
                    <path d="M53.6953043,0.181496048 L1.07465217,0.181496048 C0.481608696,0.181496048 -0.000239130435,0.656758606 -0.000239130435,1.24169714 L-0.000239130435,83.850113 C-0.000239130435,84.4362309 0.481608696,84.9103141 1.07465217,84.9103141 L53.6953043,84.9103141 C54.2895435,84.9103141 54.7701957,84.4362309 54.7701957,83.850113 L54.7701957,1.24169714 C54.7701957,0.656758606 54.2895435,0.181496048 53.6953043,0.181496048 L53.6953043,0.181496048 Z M1.79323913,83.1413468 L52.9767174,83.1413468 L52.9767174,1.95046338 L1.79323913,1.95046338 L1.79323913,83.1413468 Z" id="Fill-1" fill="#5E5E5E" mask="url(#mask-2)"></path>
                </g>
            </g>
        </g>
    </g>
</svg>