<svg id="expanded" xmlns="http://www.w3.org/2000/svg" viewBox="0 0 32 32"><defs><style>.cls-1{fill:#fff;}.cls-2{fill:#4d4c4c;}.cls-3{fill:#54a4da;}</style></defs><title>cabinet2</title><rect class="cls-1" x="5.25" y="1.05" width="21.51" height="26.8" rx="0.09" ry="0.09"/><path class="cls-2" d="M26,1.86v25.2H6V1.86H26M26.67.25H5.33a.89.89,0,0,0-.89.89V27.77a.89.89,0,0,0,.89.89H26.67a.89.89,0,0,0,.89-.89V1.14a.89.89,0,0,0-.89-.89Z"/><path class="cls-3" d="M21.74,6.06H10.26a.5.5,0,1,1,0-1H21.74a.5.5,0,0,1,0,1Z"/><path class="cls-3" d="M21.74,8.2H10.26a.5.5,0,1,1,0-1H21.74a.5.5,0,0,1,0,1Z"/><path class="cls-3" d="M8.75,15.6A1,1,0,0,1,8,15.29a1.07,1.07,0,0,1-.3-.74,1,1,0,0,1,.3-.73,1.08,1.08,0,0,1,1.48,0,1,1,0,0,1,.22.34.59.59,0,0,1,.06.19.7.7,0,0,1,0,.2,1.07,1.07,0,0,1-.3.74A1,1,0,0,1,8.75,15.6Z"/><path class="cls-2" d="M8.75,20a.5.5,0,0,1-.5-.5v-4.9a.5.5,0,0,1,1,0v4.9A.5.5,0,0,1,8.75,20Z"/><path class="cls-1" d="M2.35,31V28a1.07,1.07,0,0,1,1.07-1.07H28.58A1.07,1.07,0,0,1,29.65,28v3Z"/><path class="cls-2" d="M28.58,27.66a.32.32,0,0,1,.32.32v2.27H3.1V28a.32.32,0,0,1,.32-.32H28.58m0-1.5H3.42A1.82,1.82,0,0,0,1.6,28v3.77H30.4V28a1.82,1.82,0,0,0-1.82-1.82Z"/><path class="cls-3" d="M21.74,10.35H10.26a.5.5,0,1,1,0-1H21.74a.5.5,0,0,1,0,1Z"/></svg>