<?xml version="1.0" encoding="utf-8"?>
<!-- Generator: Adobe Illustrator 19.2.1, SVG Export Plug-In . SVG Version: 6.00 Build 0)  -->
<svg version="1.1" id="Layer_1" xmlns="http://www.w3.org/2000/svg" xmlns:xlink="http://www.w3.org/1999/xlink" x="0px" y="0px"
	 viewBox="0 0 32 32" style="enable-background:new 0 0 32 32;" xml:space="preserve">
<style type="text/css">
	.st0{clip-path:url(#SVGID_2_);}
	.st1{clip-path:url(#SVGID_4_);}
	.st2{fill:#55A5DB;}
	.st3{clip-path:url(#SVGID_6_);}
	.st4{clip-path:url(#SVGID_8_);}
	.st5{fill:#5E5F5F;}
	.st6{fill-rule:evenodd;clip-rule:evenodd;fill:#5E5F5F;}
</style>
<g>
	<defs>
		<path id="SVGID_1_" d="M10.5,11.3c-0.1,0-0.2,0-0.3-0.1c0,0-0.1,0-0.1-0.1c0,0-0.1-0.1-0.1-0.1c0,0-0.1-0.1-0.1-0.1
			c0,0,0-0.1-0.1-0.1c0-0.1-0.1-0.2-0.1-0.3c0-0.2,0.1-0.4,0.2-0.5c0.1-0.1,0.1-0.1,0.2-0.2c0.3-0.1,0.6,0,0.8,0.2
			c0.1,0.1,0.2,0.3,0.2,0.5c0,0.1,0,0.2-0.1,0.3c0,0,0,0.1-0.1,0.1c0,0-0.1,0.1-0.1,0.1C10.8,11.2,10.6,11.3,10.5,11.3"/>
	</defs>
	<clipPath id="SVGID_2_">
		<use xlink:href="#SVGID_1_"  style="overflow:visible;"/>
	</clipPath>
	<g class="st0">
		<defs>
			<rect id="SVGID_3_" x="-308.6" y="-117.9" width="650.3" height="712.1"/>
		</defs>
		<clipPath id="SVGID_4_">
			<use xlink:href="#SVGID_3_"  style="overflow:visible;"/>
		</clipPath>
		<g class="st1">
			<rect x="7.5" y="7.6" class="st2" width="5.9" height="5.9"/>
		</g>
	</g>
</g>
<g>
	<defs>
		<path id="SVGID_5_" d="M10.5,16.2c-0.1,0-0.2-0.1-0.2-0.2v-5.4c0-0.1,0.1-0.2,0.2-0.2s0.2,0.1,0.2,0.2V16
			C10.7,16.1,10.6,16.2,10.5,16.2"/>
	</defs>
	<clipPath id="SVGID_6_">
		<use xlink:href="#SVGID_5_"  style="overflow:visible;"/>
	</clipPath>
	<g class="st3">
		<defs>
			<rect id="SVGID_7_" x="-308.6" y="-117.9" width="650.3" height="712.1"/>
		</defs>
		<clipPath id="SVGID_8_">
			<use xlink:href="#SVGID_7_"  style="overflow:visible;"/>
		</clipPath>
		<g class="st4">
			<rect x="8" y="8.1" class="st5" width="5" height="10.4"/>
		</g>
	</g>
</g>
<g>
	<path class="st2" d="M22,21.5H10.5c-0.1,0-0.2-0.1-0.2-0.2c0-0.1,0.1-0.2,0.2-0.2H22c0.1,0,0.2,0.1,0.2,0.2
		C22.2,21.4,22.1,21.5,22,21.5z"/>
</g>
<g>
	<path class="st2" d="M22,23.7H10.5c-0.1,0-0.2-0.1-0.2-0.2c0-0.1,0.1-0.2,0.2-0.2H22c0.1,0,0.2,0.1,0.2,0.2
		C22.2,23.6,22.1,23.7,22,23.7z"/>
</g>
<g>
	<path class="st2" d="M22,25.8H10.5c-0.1,0-0.2-0.1-0.2-0.2c0-0.1,0.1-0.2,0.2-0.2H22c0.1,0,0.2,0.1,0.2,0.2
		C22.2,25.7,22.1,25.8,22,25.8z"/>
</g>
<g>
	<path class="st6" d="M6.8,31.3h18.9V0.7H6.8V31.3z M25.9,0H6.5C6.3,0,6.1,0.2,6.1,0.4v31.2c0,0.2,0.2,0.4,0.4,0.4h19.4
		c0.2,0,0.4-0.2,0.4-0.4V0.4C26.3,0.2,26.2,0,25.9,0z"/>
</g>
</svg>
