<svg id="expanded" xmlns="http://www.w3.org/2000/svg" viewBox="0 0 32 32"><defs><style>.cls-1{fill:#4d4c4c;}.cls-2{fill:#54a4da;}.cls-3{fill:#fff;}</style></defs><title>cable</title><path class="cls-1" d="M16,28.53C7.29,28.53.71,25.83.71,22.24c0-1.71,1.44-3.23,4.16-4.39a.75.75,0,1,1,.59,1.38c-2.07.88-3.25,2-3.25,3C2.21,24.5,7.88,27,16,27s13.79-2.53,13.79-4.79c0-1-1.21-2.15-3.31-3a.75.75,0,0,1,.58-1.38c2.77,1.16,4.23,2.69,4.23,4.42C31.29,25.83,24.71,28.53,16,28.53Z"/><path class="cls-2" d="M16,25C8.46,25,5.31,22.32,5.18,22.2L5,22.05V13.66a.5.5,0,0,1,1,0v7.91C6.74,22.09,9.83,24,16,24s9.26-1.87,10-2.39V13.66a.5.5,0,0,1,1,0v8.39l-.17.15C26.69,22.32,23.54,25,16,25Z"/><path class="cls-2" d="M8.8,21H8.69C6.25,20.48,5,19.7,5,18.7a.5.5,0,0,1,1,0c0,.18.53.81,2.9,1.33a.5.5,0,0,1-.11,1Z"/><path class="cls-2" d="M8.75,19.23H8.65C6.23,18.68,5,17.91,5,16.92a.5.5,0,0,1,1,0c0,.18.52.81,2.85,1.32a.5.5,0,0,1-.11,1Z"/><path class="cls-2" d="M8.8,17.44H8.7C6.25,16.89,5,16.12,5,15.12a.5.5,0,0,1,1,0c0,.18.53.82,2.9,1.34a.5.5,0,0,1-.11,1Z"/><path class="cls-2" d="M18.22,20.91l-.13,0a.5.5,0,0,1-.35-.61c.59-2.19,2.39-3.45,5.5-3.86l.5-.06a14,14,0,0,0,4.06-.93c.29-.13.36-.21.37-.25A.23.23,0,0,0,28.1,15c-.69-.8-2.69-.8-3.75-.8h-.1a.5.5,0,0,1,0-1h.1c1.33,0,3.53,0,4.52,1.15a1.19,1.19,0,0,1,.26,1.12,1.53,1.53,0,0,1-.91.86,14.72,14.72,0,0,1-4.34,1l-.5.06c-2.7.35-4.18,1.35-4.66,3.13A.5.5,0,0,1,18.22,20.91Z"/><ellipse class="cls-3" cx="16" cy="8.89" rx="3.62" ry="0.88"/><path class="cls-2" d="M16,10.26c-1,0-4.12-.1-4.12-1.38S15,7.51,16,7.51s4.12.1,4.12,1.38S17,10.26,16,10.26ZM13.11,8.89A9,9,0,0,0,16,9.26a9,9,0,0,0,2.89-.38A9,9,0,0,0,16,8.51,9,9,0,0,0,13.11,8.89Z"/><path class="cls-1" d="M16,5.72c9.19,0,14.21,2.67,14.21,4s-5,4-14.21,4-14.21-2.67-14.21-4,5-4,14.21-4m0-1.5C7.32,4.22.29,6.7.29,9.76s7,5.55,15.71,5.55,15.71-2.48,15.71-5.55S24.68,4.22,16,4.22Z"/><path class="cls-1" d="M16,28.53C7.29,28.53.71,25.83.71,22.24c0-1.71,1.44-3.23,4.16-4.39a.75.75,0,1,1,.59,1.38c-2.07.88-3.25,2-3.25,3C2.21,24.5,7.88,27,16,27s13.79-2.53,13.79-4.79c0-1-1.21-2.15-3.31-3a.75.75,0,0,1,.58-1.38c2.77,1.16,4.23,2.69,4.23,4.42C31.29,25.83,24.71,28.53,16,28.53Z"/><path class="cls-2" d="M16,25C8.46,25,5.31,22.32,5.18,22.2L5,22.05V13.66a.5.5,0,0,1,1,0v7.91C6.74,22.09,9.83,24,16,24s9.26-1.87,10-2.39V13.66a.5.5,0,0,1,1,0v8.39l-.17.15C26.69,22.32,23.54,25,16,25Z"/><path class="cls-2" d="M8.8,21H8.69C6.25,20.48,5,19.7,5,18.7a.5.5,0,0,1,1,0c0,.18.53.81,2.9,1.33a.5.5,0,0,1-.11,1Z"/><path class="cls-2" d="M8.75,19.23H8.65C6.23,18.68,5,17.91,5,16.92a.5.5,0,0,1,1,0c0,.18.52.81,2.85,1.32a.5.5,0,0,1-.11,1Z"/><path class="cls-2" d="M8.8,17.44H8.7C6.25,16.89,5,16.12,5,15.12a.5.5,0,0,1,1,0c0,.18.53.82,2.9,1.34a.5.5,0,0,1-.11,1Z"/><path class="cls-2" d="M18.22,20.91l-.13,0a.5.5,0,0,1-.35-.61c.59-2.19,2.39-3.45,5.5-3.86l.5-.06a14,14,0,0,0,4.06-.93c.29-.13.36-.21.37-.25A.23.23,0,0,0,28.1,15c-.69-.8-2.69-.8-3.75-.8h-.1a.5.5,0,0,1,0-1h.1c1.33,0,3.53,0,4.52,1.15a1.19,1.19,0,0,1,.26,1.12,1.53,1.53,0,0,1-.91.86,14.72,14.72,0,0,1-4.34,1l-.5.06c-2.7.35-4.18,1.35-4.66,3.13A.5.5,0,0,1,18.22,20.91Z"/><ellipse class="cls-3" cx="16" cy="8.89" rx="3.62" ry="0.88"/><path class="cls-2" d="M16,10.26c-1,0-4.12-.1-4.12-1.38S15,7.51,16,7.51s4.12.1,4.12,1.38S17,10.26,16,10.26ZM13.11,8.89A9,9,0,0,0,16,9.26a9,9,0,0,0,2.89-.38A9,9,0,0,0,16,8.51,9,9,0,0,0,13.11,8.89Z"/><path class="cls-1" d="M16,5.72c9.19,0,14.21,2.67,14.21,4s-5,4-14.21,4-14.21-2.67-14.21-4,5-4,14.21-4m0-1.5C7.32,4.22.29,6.7.29,9.76s7,5.55,15.71,5.55,15.71-2.48,15.71-5.55S24.68,4.22,16,4.22Z"/></svg>