<svg xmlns="http://www.w3.org/2000/svg" viewBox="0 0 48 48"><style type="text/css">  
	.st0{fill:none;stroke:#54A5DB;stroke-linecap:round;stroke-linejoin:round;stroke-miterlimit:10;}
	.st1{fill:none;stroke:#4C4C4C;stroke-width:1.5;stroke-linecap:round;stroke-linejoin:round;stroke-miterlimit:10;}
	.st2{fill:#54A5DB;}
	.st3{display:none;}
	.st4{display:inline;}
	.st5{fill:#58595B;}
</style><line class="st0" x1="7.1" y1="16.3" x2="40.9" y2="16.3"/><path class="st1" d="M38.2 10.2H30 18.9h-9c-1.8 0-2.8 0.9-2.8 2.8v24.2C7.1 39 8 40 9.9 40h28.4c1.8 0 2.8-0.9 2.8-2.8V12.9C40.9 11.1 40 10.2 38.2 10.2L38.2 10.2z"/><polyline class="st1" points="29.9 12.4 29.9 10.2 29.9 8.1 "/><polyline class="st1" points="18.9 12.4 18.9 10.2 18.9 8.1 "/><circle class="st2" cx="14.5" cy="22" r="1"/><circle class="st2" cx="19.3" cy="22" r="1"/><circle class="st2" cx="24" cy="22" r="1"/><circle class="st2" cx="28.7" cy="22" r="1"/><circle class="st2" cx="33.5" cy="22" r="1"/><circle class="st2" cx="14.5" cy="26.8" r="1"/><circle class="st2" cx="19.3" cy="26.8" r="1"/><circle class="st2" cx="24" cy="26.8" r="1"/><circle class="st2" cx="28.7" cy="26.8" r="1"/><circle class="st2" cx="33.5" cy="26.8" r="1"/><circle class="st2" cx="14.5" cy="31.5" r="1"/><circle class="st2" cx="19.3" cy="31.5" r="1"/><circle class="st2" cx="24" cy="31.5" r="1"/><g class="st3"><g class="st4"><path class="st5" d="M37.9 50.1c-2-2-4.6-3.1-7.4-3.1l0 0c-0.8 0-1.5 0.7-1.5 1.5s0.7 1.5 1.5 1.5c2 0 3.9 0.8 5.3 2.2s2.2 3.3 2.2 5.3c0 0.8 0.7 1.5 1.5 1.5l0 0c0.8 0 1.5-0.7 1.5-1.5C41 54.7 39.9 52 37.9 50.1z"/><path class="st5" d="M39.3 65.7c-1.6-1.1-3.2-2.2-4.7-3.4 -0.5-0.4-1.1-0.4-1.6 0 -0.6 0.5-0.9 1.2-1.5 1.8 -0.5 0.5-2.2 0.5-5.2-2.5s-2.9-4.8-2.5-5.2c0.6-0.6 1.4-0.9 1.8-1.5 0.4-0.5 0.4-1.1 0-1.6 -1.2-1.5-2.4-3.1-3.4-4.7 -0.4-0.5-1-0.8-1.6-0.6s-2.1 1.1-2.6 1.7c-1.8 1.9-0.9 7.6 5.9 14.4s12.5 7.6 14.4 5.9c0.5-0.5 1.5-2 1.7-2.6C40.1 66.6 39.9 66 39.3 65.7z"/></g></g></svg>