<svg id="expanded" xmlns="http://www.w3.org/2000/svg" viewBox="0 0 32 32"><defs><style>.cls-1{fill:#54a4da;}.cls-2{fill:#4d4c4c;}</style></defs><title>calendar</title><path class="cls-1" d="M31,9.68H1a.5.5,0,0,1,0-1H31a.5.5,0,0,1,0,1Z"/><path class="cls-2" d="M28.57,30.83H3.43A2.88,2.88,0,0,1,.24,27.64V6.16A2.88,2.88,0,0,1,3.43,3H28.57a2.88,2.88,0,0,1,3.19,3.19V27.64A2.88,2.88,0,0,1,28.57,30.83ZM3.43,4.47c-1.22,0-1.69.47-1.69,1.69V27.64c0,1.22.47,1.69,1.69,1.69H28.57c1.22,0,1.69-.47,1.69-1.69V6.16c0-1.22-.47-1.69-1.69-1.69Z"/><path class="cls-2" d="M21.27,6.5a.75.75,0,0,1-.75-.75V1.92a.75.75,0,0,1,1.5,0V5.75A.75.75,0,0,1,21.27,6.5Z"/><path class="cls-2" d="M11.44,6.5a.75.75,0,0,1-.75-.75V1.92a.75.75,0,0,1,1.5,0V5.75A.75.75,0,0,1,11.44,6.5Z"/><circle class="cls-1" cx="7.59" cy="14.23" r="0.89"/><circle class="cls-1" cx="11.8" cy="14.23" r="0.89"/><circle class="cls-1" cx="16" cy="14.23" r="0.89"/><circle class="cls-1" cx="20.2" cy="14.23" r="0.89"/><circle class="cls-1" cx="24.41" cy="14.23" r="0.89"/><circle class="cls-1" cx="7.59" cy="18.45" r="0.89"/><circle class="cls-1" cx="11.8" cy="18.45" r="0.89"/><circle class="cls-1" cx="16" cy="18.45" r="0.89"/><circle class="cls-1" cx="20.2" cy="18.45" r="0.89"/><circle class="cls-1" cx="24.41" cy="18.45" r="0.89"/><circle class="cls-1" cx="7.59" cy="22.68" r="0.89"/><circle class="cls-1" cx="11.8" cy="22.68" r="0.89"/><circle class="cls-1" cx="16" cy="22.68" r="0.89"/><path class="cls-1" d="M31,9.68H1a.5.5,0,0,1,0-1H31a.5.5,0,0,1,0,1Z"/><path class="cls-2" d="M28.57,30.83H3.43A2.88,2.88,0,0,1,.24,27.64V6.16A2.88,2.88,0,0,1,3.43,3H28.57a2.88,2.88,0,0,1,3.19,3.19V27.64A2.88,2.88,0,0,1,28.57,30.83ZM3.43,4.47c-1.22,0-1.69.47-1.69,1.69V27.64c0,1.22.47,1.69,1.69,1.69H28.57c1.22,0,1.69-.47,1.69-1.69V6.16c0-1.22-.47-1.69-1.69-1.69Z"/><path class="cls-2" d="M21.27,6.5a.75.75,0,0,1-.75-.75V1.92a.75.75,0,0,1,1.5,0V5.75A.75.75,0,0,1,21.27,6.5Z"/><path class="cls-2" d="M11.44,6.5a.75.75,0,0,1-.75-.75V1.92a.75.75,0,0,1,1.5,0V5.75A.75.75,0,0,1,11.44,6.5Z"/><circle class="cls-1" cx="7.59" cy="14.23" r="0.89"/><circle class="cls-1" cx="11.8" cy="14.23" r="0.89"/><circle class="cls-1" cx="16" cy="14.23" r="0.89"/><circle class="cls-1" cx="20.2" cy="14.23" r="0.89"/><circle class="cls-1" cx="24.41" cy="14.23" r="0.89"/><circle class="cls-1" cx="7.59" cy="18.45" r="0.89"/><circle class="cls-1" cx="11.8" cy="18.45" r="0.89"/><circle class="cls-1" cx="16" cy="18.45" r="0.89"/><circle class="cls-1" cx="20.2" cy="18.45" r="0.89"/><circle class="cls-1" cx="24.41" cy="18.45" r="0.89"/><circle class="cls-1" cx="7.59" cy="22.68" r="0.89"/><circle class="cls-1" cx="11.8" cy="22.68" r="0.89"/><circle class="cls-1" cx="16" cy="22.68" r="0.89"/></svg>