<svg id="expanded" xmlns="http://www.w3.org/2000/svg" viewBox="0 0 32 32"><defs><style>.cls-1{fill:#4d4c4c;}.cls-2{fill:#54a4da;}</style></defs><title>car1</title><path class="cls-1" d="M16,5.75c4.75,0,6.45.09,7.66.84a15.33,15.33,0,0,1,2.78,4l0,0a.66.66,0,0,1,.62-.42h2.24c1.15,0,.94,1.55.94,1.55a.72.72,0,0,1-.69.6H28.51c-.45,0-.87.21-.71.83a16.69,16.69,0,0,1,1.11,2.68,15,15,0,0,1-.35,5.25s0,.06,0,.09v3.58a1.52,1.52,0,0,1-1.51,1.51H25.81a1.52,1.52,0,0,1-1.51-1.51V23.63H7.7v1.11a1.52,1.52,0,0,1-1.51,1.51H4.94a1.51,1.51,0,0,1-1.51-1.51V21.17s0-.06,0-.09a15,15,0,0,1-.35-5.25A16.67,16.67,0,0,1,4.2,13.15c.16-.63-.26-.84-.71-.84H2.42a.72.72,0,0,1-.69-.6s-.22-1.55.94-1.55H4.91a.66.66,0,0,1,.61.42l0,0a15.35,15.35,0,0,1,2.77-4c1.21-.75,2.91-.84,7.66-.84m0-1.5c-5,0-6.87.09-8.45,1.07-.25.16-1,.6-2.62,3.35H2.67a2.34,2.34,0,0,0-1.8.79,3.29,3.29,0,0,0-.63,2.47,2.21,2.21,0,0,0,1.33,1.72l0,.16h.7a11.29,11.29,0,0,0-.6,1.65,16.15,16.15,0,0,0,.29,5.72v3.56a3,3,0,0,0,3,3H6.19a3,3,0,0,0,3-2.62H22.83a3,3,0,0,0,3,2.62h1.24a3,3,0,0,0,3-3V21.18a16.17,16.17,0,0,0,.29-5.72,11.26,11.26,0,0,0-.6-1.65H30v0a2.21,2.21,0,0,0,1.74-1.85,3.29,3.29,0,0,0-.63-2.47,2.34,2.34,0,0,0-1.8-.79H27.08c-1.65-2.75-2.37-3.2-2.63-3.35C22.87,4.34,21,4.25,16,4.25Z"/><path class="cls-2" d="M6.09,14.8a3.45,3.45,0,0,1,.86.34A3.78,3.78,0,0,1,8.2,16.42H8a7,7,0,0,1-2-.24,3.13,3.13,0,0,1,.08-1.39m-.21-1a.62.62,0,0,0-.48.17c-.4.45-.71,2.46-.06,3A5.66,5.66,0,0,0,8,17.42a2.91,2.91,0,0,0,1.34-.18c.26-.29-.23-1.9-1.88-2.95a3.79,3.79,0,0,0-1.6-.52Z"/><path class="cls-1" d="M18.8,21.49H13.2c-1.29,0-2.19-.41-2.42-1.1a1,1,0,0,1,.13-.94,1.22,1.22,0,0,1,1-.47h8.15a1.22,1.22,0,0,1,1,.47,1,1,0,0,1,.13.94h0C21,21.09,20.11,21.49,18.8,21.49ZM11.92,20a.28.28,0,0,0-.21.06c.05.17.48.45,1.48.45H18.8c1,0,1.43-.28,1.47-.41a.09.09,0,0,0,0,0,.29.29,0,0,0-.2-.05Z"/><path class="cls-2" d="M25.91,14.8A3.14,3.14,0,0,1,26,16.18a7,7,0,0,1-2,.24H23.8a3.78,3.78,0,0,1,1.25-1.28,3.46,3.46,0,0,1,.86-.34m.21-1a3.79,3.79,0,0,0-1.6.52c-1.64,1-2.14,2.65-1.88,2.95a2.91,2.91,0,0,0,1.34.18,5.66,5.66,0,0,0,2.69-.48c.65-.55.33-2.55-.06-3a.61.61,0,0,0-.48-.17Z"/><path class="cls-2" d="M16,13a60,60,0,0,1-9.45-.72l-.7-.11.34-.62A21.72,21.72,0,0,1,8.86,7.46l0,0c.93-.57,2.5-.66,7.09-.66s6.17.09,7.13.69a21,21,0,0,1,2.7,4.07l.34.62-.7.11A59.63,59.63,0,0,1,16,13ZM7.4,11.38a61.57,61.57,0,0,0,17.2,0,16.76,16.76,0,0,0-2.05-3.11c-.69-.42-2.32-.5-6.55-.5-4,0-5.8.07-6.53.5A17,17,0,0,0,7.4,11.38Z"/><path class="cls-1" d="M16,5.75c4.75,0,6.45.09,7.66.84a15.33,15.33,0,0,1,2.78,4l0,0a.66.66,0,0,1,.62-.42h2.24c1.15,0,.94,1.55.94,1.55a.72.72,0,0,1-.69.6H28.51c-.45,0-.87.21-.71.83a16.69,16.69,0,0,1,1.11,2.68,15,15,0,0,1-.35,5.25s0,.06,0,.09v3.58a1.52,1.52,0,0,1-1.51,1.51H25.81a1.52,1.52,0,0,1-1.51-1.51V23.63H7.7v1.11a1.52,1.52,0,0,1-1.51,1.51H4.94a1.51,1.51,0,0,1-1.51-1.51V21.17s0-.06,0-.09a15,15,0,0,1-.35-5.25A16.67,16.67,0,0,1,4.2,13.15c.16-.63-.26-.84-.71-.84H2.42a.72.72,0,0,1-.69-.6s-.22-1.55.94-1.55H4.91a.66.66,0,0,1,.61.42l0,0a15.35,15.35,0,0,1,2.77-4c1.21-.75,2.91-.84,7.66-.84m0-1.5c-5,0-6.87.09-8.45,1.07-.25.16-1,.6-2.62,3.35H2.67a2.34,2.34,0,0,0-1.8.79,3.29,3.29,0,0,0-.63,2.47,2.21,2.21,0,0,0,1.33,1.72l0,.16h.7a11.29,11.29,0,0,0-.6,1.65,16.15,16.15,0,0,0,.29,5.72v3.56a3,3,0,0,0,3,3H6.19a3,3,0,0,0,3-2.62H22.83a3,3,0,0,0,3,2.62h1.24a3,3,0,0,0,3-3V21.18a16.17,16.17,0,0,0,.29-5.72,11.26,11.26,0,0,0-.6-1.65H30v0a2.21,2.21,0,0,0,1.74-1.85,3.29,3.29,0,0,0-.63-2.47,2.34,2.34,0,0,0-1.8-.79H27.08c-1.65-2.75-2.37-3.2-2.63-3.35C22.87,4.34,21,4.25,16,4.25Z"/><path class="cls-2" d="M6.09,14.8a3.45,3.45,0,0,1,.86.34A3.78,3.78,0,0,1,8.2,16.42H8a7,7,0,0,1-2-.24,3.13,3.13,0,0,1,.08-1.39m-.21-1a.62.62,0,0,0-.48.17c-.4.45-.71,2.46-.06,3A5.66,5.66,0,0,0,8,17.42a2.91,2.91,0,0,0,1.34-.18c.26-.29-.23-1.9-1.88-2.95a3.79,3.79,0,0,0-1.6-.52Z"/><path class="cls-1" d="M18.8,21.49H13.2c-1.29,0-2.19-.41-2.42-1.1a1,1,0,0,1,.13-.94,1.22,1.22,0,0,1,1-.47h8.15a1.22,1.22,0,0,1,1,.47,1,1,0,0,1,.13.94h0C21,21.09,20.11,21.49,18.8,21.49ZM11.92,20a.28.28,0,0,0-.21.06c.05.17.48.45,1.48.45H18.8c1,0,1.43-.28,1.47-.41a.09.09,0,0,0,0,0,.29.29,0,0,0-.2-.05Z"/><path class="cls-2" d="M25.91,14.8A3.14,3.14,0,0,1,26,16.18a7,7,0,0,1-2,.24H23.8a3.78,3.78,0,0,1,1.25-1.28,3.46,3.46,0,0,1,.86-.34m.21-1a3.79,3.79,0,0,0-1.6.52c-1.64,1-2.14,2.65-1.88,2.95a2.91,2.91,0,0,0,1.34.18,5.66,5.66,0,0,0,2.69-.48c.65-.55.33-2.55-.06-3a.61.61,0,0,0-.48-.17Z"/><path class="cls-2" d="M16,13a60,60,0,0,1-9.45-.72l-.7-.11.34-.62A21.72,21.72,0,0,1,8.86,7.46l0,0c.93-.57,2.5-.66,7.09-.66s6.17.09,7.13.69a21,21,0,0,1,2.7,4.07l.34.62-.7.11A59.63,59.63,0,0,1,16,13ZM7.4,11.38a61.57,61.57,0,0,0,17.2,0,16.76,16.76,0,0,0-2.05-3.11c-.69-.42-2.32-.5-6.55-.5-4,0-5.8.07-6.53.5A17,17,0,0,0,7.4,11.38Z"/></svg>