<?xml version="1.0" encoding="utf-8"?>
<!-- Generator: Adobe Illustrator 21.0.2, SVG Export Plug-In . SVG Version: 6.00 Build 0)  -->
<svg version="1.1" id="Layer_1" xmlns="http://www.w3.org/2000/svg" xmlns:xlink="http://www.w3.org/1999/xlink" x="0px" y="0px"
	 viewBox="0 0 72 72" style="enable-background:new 0 0 72 72;" xml:space="preserve">
<style type="text/css">
	.st0{fill:#2A9DFF;}
	.st1{fill:#4C4C4C;}
</style>
<title>Page 1</title>
<desc>Created with Sketch.</desc>
<g id="About-Us">
	<g id="About-us" transform="translate(-683.000000, -2608.000000)">
		<g id="Page-1" transform="translate(684.000000, 2608.000000)">
			<g id="Fill-1">
				<path class="st0" d="M36.4,0h-2.3c-1.6,0-2.9,1.3-2.9,3v0.7c-0.4-0.6-0.8-0.7-1.4-0.7h0c-0.1,0-0.3,0-0.4,0.1
					C23.4,4.8,19.2,10,19,16c-1.7,0.5-3.5,1.7-3.5,6.3c0,0.8,0.6,1.4,1.4,1.4h36.8c0.8,0,1.4-0.6,1.4-1.4c0-4.6-1.7-5.8-3.5-6.3
					c-0.3-6-4.4-11.2-10.5-13c-0.1,0-0.3-0.1-0.4-0.1c-0.5,0-1,0.2-1.3,0.7V3C39.3,1.3,38,0,36.4,0 M36.4,1.4c0.8,0,1.5,0.7,1.5,1.6
					v11.4c0,0,1.8-10.1,2.7-10.1c0,0,0,0,0,0c5.7,1.7,9.6,6.7,9.6,12.3c0,1.4,3.5-0.7,3.5,5.7H16.9c0-6.3,3.5-4.2,3.5-5.7
					c0-5.6,3.8-10.5,9.5-12.3c0,0,0,0,0,0c0.9,0,2.7,10.1,2.7,10.1V3c0-0.9,0.7-1.6,1.5-1.6H36.4"/>
			</g>
			<g id="Stroke-3">
				<path class="st1" d="M66.1,72L4.3,72c-0.9,0-1.7-0.3-2.3-1c-0.6-0.6-1-1.4-1-2.3l0-4.2c0-3.2,2.1-6,5.2-6.8c0,0,0.1-0.1,0.1-0.1
					C20.1,52.2,27.2,46,27.3,46c0,0,0,0,0.1-0.1c0.5-0.5,0.9-1.1,0.9-1.9c0-0.7-0.3-1.3-0.8-1.8c-0.3-0.2-0.6-0.4-0.9-0.7
					c-0.1-0.1-0.2-0.2-0.3-0.2l-0.1-0.1c-0.2-0.2-0.5-0.4-0.7-0.7l-0.1-0.1c-0.1-0.1-0.2-0.2-0.3-0.3c-0.3-0.3-0.6-0.7-0.9-1.1
					c-0.1-0.1-0.1-0.2-0.2-0.3l-0.1-0.1c-0.2-0.3-0.4-0.6-0.6-0.9c-0.1-0.2-0.2-0.3-0.3-0.5c-0.3-0.4-0.5-0.9-0.7-1.3l-0.2-0.3
					c-0.2-0.4-0.4-0.8-0.5-1.2c-0.1-0.2-0.1-0.3-0.2-0.5c-0.2-0.5-0.4-1-0.6-1.5l-0.1-0.2c-0.1-0.5-0.3-1-0.4-1.4
					c0-0.2-0.1-0.3-0.1-0.5c-0.1-0.6-0.2-1.1-0.3-1.7c0,0,0-0.1,0-0.1c-0.1-0.6-0.1-1.1-0.2-1.7l0-0.5c0-0.7-0.1-1.3-0.1-1.9
					c0-0.6,0-1.2,0.1-1.7c0-0.4,0.3-0.7,0.7-0.7l0,0l29.8,0c0.4,0,0.7,0.3,0.7,0.7c0,0.6,0.1,1.1,0.1,1.7c0,0.6,0,1.1-0.1,1.9l0,0.5
					c0,0.6-0.1,1.1-0.2,1.7c0,0,0,0.1,0,0.1c-0.1,0.6-0.2,1.2-0.3,1.7l-0.1,0.5c-0.1,0.5-0.3,1-0.4,1.4l-0.1,0.3
					c-0.2,0.5-0.4,1-0.6,1.5c-0.1,0.1-0.1,0.3-0.2,0.4c-0.2,0.4-0.4,0.8-0.5,1.2L48.3,36c-0.2,0.4-0.5,0.9-0.7,1.3l-0.3,0.5
					c-0.2,0.3-0.4,0.6-0.6,0.9l-0.1,0.1c-0.1,0.1-0.1,0.2-0.2,0.3c-0.3,0.4-0.6,0.7-0.9,1.1c-0.1,0.1-0.2,0.3-0.3,0.4
					c-0.3,0.3-0.5,0.5-0.7,0.7l-0.1,0.1c-0.1,0.1-0.2,0.2-0.3,0.3c-0.3,0.3-0.6,0.5-0.9,0.7c-0.4,0.4-0.7,1.1-0.7,1.7
					c0,0.7,0.3,1.4,0.8,1.9c0,0,0.1,0.1,0.1,0.1c0.8,0.6,7.8,6.5,20.9,11.7c0.1,0,0.2,0.1,0.2,0.2c2.9,1,4.9,3.7,4.9,6.7l0,4.2
					C69.3,70.5,67.9,72,66.1,72z M7.1,58.9C7,58.9,6.9,59,6.8,59c-2.6,0.6-4.4,2.9-4.4,5.5l0,4.2c0,0.5,0.2,1,0.5,1.3
					c0.4,0.4,0.8,0.5,1.3,0.5l61.8,0c1,0,1.9-0.8,1.9-1.9l0-4.2c0-2.6-1.7-4.8-4.3-5.5c-0.2,0-0.3-0.1-0.4-0.2
					C49.5,53.3,42.7,47.3,42.4,47c0,0-0.1-0.1-0.1-0.1C41.4,46.2,41,45.2,41,44c0-1.1,0.4-2.1,1.2-2.8c0.3-0.3,0.6-0.5,0.9-0.7
					c0.1-0.1,0.2-0.1,0.2-0.2l0.1-0.1c0.2-0.2,0.4-0.4,0.6-0.6c0.1-0.2,0.3-0.3,0.4-0.4c0.3-0.3,0.6-0.6,0.8-1
					c0.1-0.1,0.1-0.1,0.2-0.2l0.1-0.1c0.2-0.3,0.4-0.6,0.6-0.8l0.3-0.4c0.2-0.4,0.5-0.8,0.7-1.2l0.2-0.3c0.2-0.4,0.3-0.7,0.5-1.1
					c0.1-0.2,0.1-0.3,0.2-0.4c0.2-0.5,0.4-0.9,0.5-1.4l0.1-0.2c0.1-0.4,0.3-0.9,0.4-1.4l0.1-0.4c0.1-0.5,0.2-1.1,0.3-1.6l0-0.1
					c0.1-0.5,0.1-1,0.2-1.6l0-0.4c0-0.6,0.1-1.2,0.1-1.8c0-0.3,0-0.7,0-1l-28.5,0c0,0.3,0,0.6,0,1c0,0.6,0,1.2,0.1,1.8l0,0.4
					c0,0.5,0.1,1.1,0.2,1.6l-0.7,0.2l0.7-0.1c0.1,0.5,0.2,1.1,0.3,1.6l0.1,0.4c0.1,0.5,0.2,0.9,0.4,1.4l0.1,0.2
					c0.2,0.5,0.3,1,0.5,1.4c0.1,0.1,0.1,0.3,0.2,0.4c0.2,0.4,0.3,0.7,0.5,1.1l0.2,0.3c0.2,0.4,0.4,0.8,0.7,1.2
					c0.1,0.1,0.2,0.3,0.3,0.4c0.2,0.3,0.4,0.6,0.6,0.8l0.1,0.1c0.1,0.1,0.1,0.2,0.2,0.2c0.3,0.3,0.5,0.7,0.8,1
					c0.1,0.1,0.2,0.2,0.3,0.3l0.1,0.1c0.2,0.2,0.4,0.4,0.6,0.6l0.1,0.1c0.1,0.1,0.1,0.1,0.2,0.2c0.3,0.2,0.5,0.5,0.8,0.7
					c0.8,0.8,1.3,1.8,1.3,2.9c0,1.1-0.5,2.2-1.3,2.9c0,0,0,0-0.1,0.1C27.9,47.3,21,53.4,7.1,58.9z M43.3,45.9
					C43.3,45.9,43.3,46,43.3,45.9C43.3,46,43.3,46,43.3,45.9z"/>
			</g>
			<g id="Fill-5">
				<path class="st0" d="M36.4,0h-2.3c-1.4,0-2.5,1-2.8,2.3c-2.5,0.6-4.8,1.6-6.8,3.2C21.2,8.1,19.2,11.9,19,16
					c-1.7,0.5-3.5,1.7-3.5,6.3c0,0.8,0.6,1.4,1.4,1.4h36.8c0.8,0,1.4-0.6,1.4-1.4c0-4.6-1.7-5.8-3.5-6.3c-0.1-3.1-1.2-6-3.3-8.4
					C46,5,42.9,3.1,39.2,2.3C38.9,1,37.8,0,36.4,0 M37.9,3v0.5c3.8,0.6,7.1,2.4,9.3,5c1.9,2.2,3,4.9,3,7.8c0,0.1,0,0.2,0,0.3
					c0,1.4,3.5-0.7,3.5,5.7H16.9c0-6.3,3.5-4.2,3.5-5.7c0-4,1.9-7.6,5.1-10c2-1.6,4.5-2.7,7.3-3.1V3c0-0.9,0.7-1.6,1.5-1.6h2.3
					C37.2,1.4,37.9,2.1,37.9,3z"/>
			</g>
		</g>
	</g>
</g>
</svg>
