<?xml version="1.0" encoding="UTF-8"?>
<svg width="17px" height="17px" viewBox="0 0 17 17" version="1.1" xmlns="http://www.w3.org/2000/svg" xmlns:xlink="http://www.w3.org/1999/xlink">
    <!-- Generator: Sketch 40.2 (33826) - http://www.bohemiancoding.com/sketch -->
    <title>Certified</title>
    <desc>Created with Sketch.</desc>
    <defs></defs>
    <g id="Symbols" stroke="none" stroke-width="1" fill="none" fill-rule="evenodd">
        <g id="101---no-add" transform="translate(-10.000000, -19.000000)">
            <g id="Certified" transform="translate(10.000000, 20.000000)">
                <g id="Page-1-Copy-37">
                    <path d="M0,-0.0001 L0,10.3424 L14.027,10.3424 L14.027,2.4549 L11.5715,-0.0001 L0,-0.0001 Z M0.75,0.7499 L11.261,0.7499 L13.2775,2.7659 L13.2775,9.5919 L0.75,9.5919 L0.75,0.7499 Z" id="Fill-1" fill="#4C4C4C"></path>
                    <polyline id="Stroke-2" stroke="#4C4C4C" stroke-width="1.25" stroke-linecap="round" points="11.36745 0.4358 11.36745 2.6593 13.59145 2.6593"></polyline>
                    <path d="M2.4668,3.88775 L8.9453,3.88775" id="Stroke-4" stroke="#54A5DB" stroke-linecap="round"></path>
                    <path d="M2.4668,5.36 L6.9213,5.36" id="Stroke-5" stroke="#54A5DB" stroke-linecap="round"></path>
                    <path d="M2.4668,6.8322 L5.3558,6.8322" id="Stroke-6" stroke="#54A5DB" stroke-linecap="round"></path>
                    <polygon id="Fill-7" fill="#FFFFFF" points="13.74555 13.82355 15.33305 14.72055 14.08405 11.46305 12.14455 12.05605 12.93155 15.45505"></polygon>
                    <polygon id="Stroke-8" stroke="#4C4C4C" points="13.74555 13.82355 15.33305 14.72055 14.08405 11.46305 12.14455 12.05605 12.93155 15.45505"></polygon>
                    <polygon id="Fill-10" fill="#FFFFFF" points="9.4587 13.57215 9.9467 15.32865 11.3677 12.14265 9.5767 11.19065 7.7292 14.15015"></polygon>
                    <g id="Group-23" transform="translate(7.500000, 4.055400)">
                        <polygon id="Stroke-11" stroke="#4C4C4C" points="1.9587 9.51675 2.4467 11.27325 3.8677 8.08725 2.0767 7.13525 0.2292 10.09475"></polygon>
                        <path d="M4.78635,0.5042 L5.03135,0.7547 C5.17235,0.8992 5.38335,0.9512 5.57585,0.8887 L5.90935,0.7807 C6.19335,0.6887 6.49735,0.8487 6.58335,1.1347 L6.68385,1.4702 C6.74185,1.6637 6.90435,1.8077 7.10335,1.8417 L7.44885,1.9012 C7.74285,1.9517 7.93835,2.2347 7.88135,2.5277 L7.81435,2.8712 C7.77535,3.0697 7.85285,3.2727 8.01335,3.3957 L8.29135,3.6087 C8.52835,3.7902 8.56985,4.1312 8.38285,4.3642 L8.16385,4.6372 C8.03735,4.7952 8.01135,5.0107 8.09635,5.1942 L8.24385,5.5117 C8.36935,5.7827 8.24735,6.1042 7.97385,6.2237 L7.65285,6.3637 C7.46735,6.4447 7.34385,6.6232 7.33385,6.8252 L7.31685,7.1747 C7.30185,7.4732 7.04485,7.7012 6.74685,7.6797 L6.39785,7.6547 C6.19585,7.6402 6.00335,7.7412 5.90085,7.9152 L5.72285,8.2167 C5.57135,8.4742 5.23785,8.5562 4.98385,8.3992 L4.68635,8.2147 C4.51435,8.1082 4.29685,8.1082 4.12535,8.2147 L3.82735,8.3992 C3.57385,8.5562 3.23985,8.4742 3.08835,8.2167 L2.91035,7.9152 C2.80785,7.7412 2.61535,7.6402 2.41385,7.6547 L2.06435,7.6797 C1.76635,7.7012 1.50935,7.4732 1.49485,7.1747 L1.47735,6.8252 C1.46735,6.6232 1.34385,6.4447 1.15885,6.3637 L0.83785,6.2237 C0.56385,6.1042 0.44235,5.7827 0.56785,5.5117 L0.71535,5.1942 C0.80035,5.0107 0.77385,4.7952 0.64735,4.6372 L0.42835,4.3642 C0.24185,4.1312 0.28285,3.7902 0.52035,3.6087 L0.79835,3.3957 C0.95885,3.2727 1.03585,3.0697 0.99735,2.8712 L0.93035,2.5277 C0.87335,2.2347 1.06835,1.9517 1.36285,1.9012 L1.70785,1.8417 C1.90735,1.8077 2.06985,1.6637 2.12785,1.4702 L2.22835,1.1347 C2.31385,0.8487 2.61835,0.6887 2.90235,0.7807 L3.23535,0.8887 C3.42785,0.9512 3.63885,0.8992 3.78035,0.7547 L4.02485,0.5042 C4.23385,0.2907 4.57735,0.2907 4.78635,0.5042" id="Fill-13" fill="#FFFFFF"></path>
                        <path d="M4.78635,0.5042 L5.03135,0.7547 C5.17235,0.8992 5.38335,0.9512 5.57585,0.8887 L5.90935,0.7807 C6.19335,0.6887 6.49735,0.8487 6.58335,1.1347 L6.68385,1.4702 C6.74185,1.6637 6.90435,1.8077 7.10335,1.8417 L7.44885,1.9012 C7.74285,1.9517 7.93835,2.2347 7.88135,2.5277 L7.81435,2.8712 C7.77535,3.0697 7.85285,3.2727 8.01335,3.3957 L8.29135,3.6087 C8.52835,3.7902 8.56985,4.1312 8.38285,4.3642 L8.16385,4.6372 C8.03735,4.7952 8.01135,5.0107 8.09635,5.1942 L8.24385,5.5117 C8.36935,5.7827 8.24735,6.1042 7.97385,6.2237 L7.65285,6.3637 C7.46735,6.4447 7.34385,6.6232 7.33385,6.8252 L7.31685,7.1747 C7.30185,7.4732 7.04485,7.7012 6.74685,7.6797 L6.39785,7.6547 C6.19585,7.6402 6.00335,7.7412 5.90085,7.9152 L5.72285,8.2167 C5.57135,8.4742 5.23785,8.5562 4.98385,8.3992 L4.68635,8.2147 C4.51435,8.1082 4.29685,8.1082 4.12535,8.2147 L3.82735,8.3992 C3.57385,8.5562 3.23985,8.4742 3.08835,8.2167 L2.91035,7.9152 C2.80785,7.7412 2.61535,7.6402 2.41385,7.6547 L2.06435,7.6797 C1.76635,7.7012 1.50935,7.4732 1.49485,7.1747 L1.47735,6.8252 C1.46735,6.6232 1.34385,6.4447 1.15885,6.3637 L0.83785,6.2237 C0.56385,6.1042 0.44235,5.7827 0.56785,5.5117 L0.71535,5.1942 C0.80035,5.0107 0.77385,4.7952 0.64735,4.6372 L0.42835,4.3642 C0.24185,4.1312 0.28285,3.7902 0.52035,3.6087 L0.79835,3.3957 C0.95885,3.2727 1.03585,3.0697 0.99735,2.8712 L0.93035,2.5277 C0.87335,2.2347 1.06835,1.9517 1.36285,1.9012 L1.70785,1.8417 C1.90735,1.8077 2.06985,1.6637 2.12785,1.4702 L2.22835,1.1347 C2.31385,0.8487 2.61835,0.6887 2.90235,0.7807 L3.23535,0.8887 C3.42785,0.9512 3.63885,0.8992 3.78035,0.7547 L4.02485,0.5042 C4.23385,0.2907 4.57735,0.2907 4.78635,0.5042 L4.78635,0.5042 Z" id="Stroke-15" stroke="#4C4C4C" stroke-width="1.5"></path>
                        <path d="M4.4057,6.6736 C3.18794315,6.6736 2.20054831,5.68665685 2.20054831,4.4689 C2.20054831,3.25114315 3.18794315,2.2642 4.4057,2.2642 C5.62345685,2.2642 6.61085169,3.25114315 6.61085169,4.4689 C6.61085169,5.68665685 5.62345685,6.6736 4.4057,6.6736 Z" id="Stroke-21" stroke="#54A4DA"></path>
                    </g>
                </g>
            </g>
        </g>
    </g>
</svg>