<svg id="expanded" xmlns="http://www.w3.org/2000/svg" viewBox="0 0 16 16"><defs><style>.cls-1,.cls-2{fill:#4c4c4c;}.cls-1,.cls-4{fill-rule:evenodd;}.cls-3,.cls-4{fill:#54a4da;}</style></defs><title>certify16</title><path class="cls-1" d="M8.15,9.54l0-.19A1,1,0,0,0,8,8.69l-.06-.08H1.38V1.38H12.17v3.8a1,1,0,0,0,.18,0l.19,0a1,1,0,0,1,1,.67V0H0V10H8.22A1,1,0,0,1,8.15,9.54Z"/><path class="cls-2" d="M12.67,16l-1.46-4.53,2.47-1,2.07,4.29-2.19-1Zm-.53-4.1.6,1.88.41-1,1,.46-.86-1.78Z"/><path class="cls-2" d="M9.84,16.11,9,13.85l-2.21,1L9,10.56l2.44,1Zm-.41-3.26.39,1L10.47,12l-1.16-.5-.9,1.76Z"/><path class="cls-3" d="M7.84,4.11H3.11a.5.5,0,0,1,0-1H7.84a.5.5,0,0,1,0,1Z"/><path class="cls-3" d="M5.76,6.16H3.11a.5.5,0,1,1,0-1H5.76a.5.5,0,0,1,0,1Z"/><path class="cls-4" d="M12.61,8.17A1.45,1.45,0,1,1,11,6.85a1.45,1.45,0,0,1,1.56,1.32"/><path class="cls-2" d="M10.52,12.23a1.61,1.61,0,0,1-1.32-.69l-.11-.16a.36.36,0,0,0-.2-.14l-.19,0a1.61,1.61,0,0,1-1.18-1.7l0-.19a.36.36,0,0,0-.06-.24l-.11-.16a1.61,1.61,0,0,1,.19-2.06l.14-.14a.35.35,0,0,0,.1-.22l0-.2A1.61,1.61,0,0,1,9.29,4.82l.19,0a.36.36,0,0,0,.22-.1l.14-.14a1.61,1.61,0,0,1,2.06-.17l.16.11a.39.39,0,0,0,.24.07l.2,0a1.6,1.6,0,0,1,1.69,1.19l0,.19a.36.36,0,0,0,.14.2l.16.11a1.61,1.61,0,0,1,.53,2L15,8.43a.36.36,0,0,0,0,.24l0,.18a1.61,1.61,0,0,1-.88,1.87l-.17.08a.35.35,0,0,0-.18.17l-.08.18a1.6,1.6,0,0,1-1.88.87L11.62,12a.36.36,0,0,0-.25,0l-.18.08A1.61,1.61,0,0,1,10.52,12.23ZM11,5.35a.36.36,0,0,0-.25.1l-.14.14a1.61,1.61,0,0,1-1,.46l-.19,0a.36.36,0,0,0-.33.33l0,.2a1.59,1.59,0,0,1-.47,1l-.14.14a.36.36,0,0,0,0,.46l.11.16A1.6,1.6,0,0,1,8.79,9.4l0,.19A.36.36,0,0,0,9,10l.19,0a1.62,1.62,0,0,1,.9.64l.11.16a.36.36,0,0,0,.45.12l.18-.08a1.61,1.61,0,0,1,1.1-.09l.19.05a.36.36,0,0,0,.42-.19l.08-.18a1.6,1.6,0,0,1,.78-.77l.17-.08a.36.36,0,0,0,.2-.42l0-.19a1.62,1.62,0,0,1,.1-1.1l.08-.18a.36.36,0,0,0-.12-.45l-.16-.11a1.61,1.61,0,0,1-.63-.9l0-.19a.37.37,0,0,0-.38-.27l-.2,0a1.58,1.58,0,0,1-1.06-.29l-.16-.11A.36.36,0,0,0,11,5.35Z"/></svg>