<svg id="expanded" xmlns="http://www.w3.org/2000/svg" viewBox="0 0 16 16"><defs><style>.cls-1{fill:#4c4c4c;}.cls-2{fill:#54a4da;}</style></defs><title>check_circ16</title><path class="cls-1" d="M8,16a7.8,7.8,0,0,1-5.66-2.34A7.74,7.74,0,0,1,0,8,7.71,7.71,0,0,1,2.35,2.34,7.7,7.7,0,0,1,8,0a7.74,7.74,0,0,1,5.66,2.34A7.7,7.7,0,0,1,16,8a7.74,7.74,0,0,1-2.34,5.66A7.84,7.84,0,0,1,8,16ZM8,1.5A6.17,6.17,0,0,0,3.41,3.4,6.18,6.18,0,0,0,1.5,8a6.21,6.21,0,0,0,1.9,4.6A6.27,6.27,0,0,0,8,14.5a6.3,6.3,0,0,0,4.59-1.91A6.21,6.21,0,0,0,14.5,8a6.18,6.18,0,0,0-1.9-4.59A6.21,6.21,0,0,0,8,1.5Z"/><path class="cls-2" d="M7.41,11a.5.5,0,0,1-.33-.12L4.6,8.72A.5.5,0,1,1,5.25,8L7.36,9.79,11.5,5a.5.5,0,1,1,.75.66L7.78,10.82A.5.5,0,0,1,7.41,11Z"/></svg>