<svg id="expanded" xmlns="http://www.w3.org/2000/svg" viewBox="0 0 32 32"><defs><style>.cls-1{fill:#4d4c4c;}.cls-2{fill:#54a4da;}</style></defs><title>check</title><path class="cls-1" d="M16,31.69a15.3,15.3,0,0,1-11.1-4.6A15.18,15.18,0,0,1,.31,16,15.1,15.1,0,0,1,4.91,4.91,15.09,15.09,0,0,1,16,.31a15.18,15.18,0,0,1,11.09,4.6A15.09,15.09,0,0,1,31.69,16a15.18,15.18,0,0,1-4.6,11.09A15.38,15.38,0,0,1,16,31.69ZM16,1.81A13.48,13.48,0,0,0,6,6,13.48,13.48,0,0,0,1.81,16,13.55,13.55,0,0,0,6,26a13.67,13.67,0,0,0,10,4.16A13.74,13.74,0,0,0,26,26a13.55,13.55,0,0,0,4.16-10A13.48,13.48,0,0,0,26,6,13.55,13.55,0,0,0,16,1.81Z"/><path class="cls-2" d="M14.78,21.64a.5.5,0,0,1-.33-.12L9.34,17.09a.5.5,0,1,1,.65-.76l4.74,4.1,8.88-10.19a.5.5,0,0,1,.75.66L15.16,21.47A.5.5,0,0,1,14.78,21.64Z"/><path class="cls-1" d="M16,31.69a15.3,15.3,0,0,1-11.1-4.6A15.18,15.18,0,0,1,.31,16,15.1,15.1,0,0,1,4.91,4.91,15.09,15.09,0,0,1,16,.31a15.18,15.18,0,0,1,11.09,4.6A15.09,15.09,0,0,1,31.69,16a15.18,15.18,0,0,1-4.6,11.09A15.38,15.38,0,0,1,16,31.69ZM16,1.81A13.48,13.48,0,0,0,6,6,13.48,13.48,0,0,0,1.81,16,13.55,13.55,0,0,0,6,26a13.67,13.67,0,0,0,10,4.16A13.74,13.74,0,0,0,26,26a13.55,13.55,0,0,0,4.16-10A13.48,13.48,0,0,0,26,6,13.55,13.55,0,0,0,16,1.81Z"/><path class="cls-2" d="M14.78,21.64a.5.5,0,0,1-.33-.12L9.34,17.09a.5.5,0,1,1,.65-.76l4.74,4.1,8.88-10.19a.5.5,0,0,1,.75.66L15.16,21.47A.5.5,0,0,1,14.78,21.64Z"/></svg>