<svg id="expanded" xmlns="http://www.w3.org/2000/svg" viewBox="0 0 32 32"><defs><style>.cls-1{fill:#4d4c4c;}.cls-2{fill:#54a4da;}</style></defs><title>cloud</title><path class="cls-1" d="M24.89,20.3h-6a.75.75,0,0,1,0-1.5h6a5.81,5.81,0,0,0,.92-.06,5.06,5.06,0,0,0,2.93-1.55,5.13,5.13,0,0,0,1.63-3.87,5.45,5.45,0,0,0-5.54-5.46H24.3l-.81.07V6.89a5,5,0,0,0-1.55-3.7l-.33-.3a4.89,4.89,0,0,0-3.32-1.2,5,5,0,0,0-3.71,1.5,7.28,7.28,0,0,0-.7.85,4.94,4.94,0,0,0-.71,1.78L13,6.67,12.2,6.4A3.35,3.35,0,0,0,11,6.23,3.92,3.92,0,0,0,6.92,9.71l-.08.66h-1a4.07,4.07,0,0,0-2.07.52,4.22,4.22,0,0,0-.91.71,4.12,4.12,0,0,0-1.21,3,4,4,0,0,0,1.21,3,4,4,0,0,0,3,1.24H13a.75.75,0,0,1,0,1.5H5.82a5.53,5.53,0,0,1-4-1.68,5.49,5.49,0,0,1-1.65-4,5.63,5.63,0,0,1,1.64-4A5.75,5.75,0,0,1,3,9.59a5.53,5.53,0,0,1,2.54-.71A5.36,5.36,0,0,1,7,6.33a5.52,5.52,0,0,1,4-1.6,4.94,4.94,0,0,1,.92.05,6.49,6.49,0,0,1,.74-1.57,8.72,8.72,0,0,1,.88-1.07,6.57,6.57,0,0,1,4.78-2,6.33,6.33,0,0,1,4.28,1.54l.43.4a6.44,6.44,0,0,1,2,4.24,6.95,6.95,0,0,1,6.9,7,6.63,6.63,0,0,1-2.07,4.92,6.58,6.58,0,0,1-3.76,2A7.26,7.26,0,0,1,24.89,20.3Z"/><path class="cls-2" d="M16,31.56a.5.5,0,0,1-.5-.5V14.63a.5.5,0,1,1,1,0V31.06A.5.5,0,0,1,16,31.56Z"/><path class="cls-2" d="M16,31.56a.5.5,0,0,1-.35-.15l-4.31-4.31A.5.5,0,0,1,12,26.4l4,4,4-4a.5.5,0,0,1,.71.71l-4.31,4.31A.5.5,0,0,1,16,31.56Z"/><path class="cls-1" d="M24.89,20.3h-6a.75.75,0,0,1,0-1.5h6a5.81,5.81,0,0,0,.92-.06,5.06,5.06,0,0,0,2.93-1.55,5.13,5.13,0,0,0,1.63-3.87,5.45,5.45,0,0,0-5.54-5.46H24.3l-.81.07V6.89a5,5,0,0,0-1.55-3.7l-.33-.3a4.89,4.89,0,0,0-3.32-1.2,5,5,0,0,0-3.71,1.5,7.28,7.28,0,0,0-.7.85,4.94,4.94,0,0,0-.71,1.78L13,6.67,12.2,6.4A3.35,3.35,0,0,0,11,6.23,3.92,3.92,0,0,0,6.92,9.71l-.08.66h-1a4.07,4.07,0,0,0-2.07.52,4.22,4.22,0,0,0-.91.71,4.12,4.12,0,0,0-1.21,3,4,4,0,0,0,1.21,3,4,4,0,0,0,3,1.24H13a.75.75,0,0,1,0,1.5H5.82a5.53,5.53,0,0,1-4-1.68,5.49,5.49,0,0,1-1.65-4,5.63,5.63,0,0,1,1.64-4A5.75,5.75,0,0,1,3,9.59a5.53,5.53,0,0,1,2.54-.71A5.36,5.36,0,0,1,7,6.33a5.52,5.52,0,0,1,4-1.6,4.94,4.94,0,0,1,.92.05,6.49,6.49,0,0,1,.74-1.57,8.72,8.72,0,0,1,.88-1.07,6.57,6.57,0,0,1,4.78-2,6.33,6.33,0,0,1,4.28,1.54l.43.4a6.44,6.44,0,0,1,2,4.24,6.95,6.95,0,0,1,6.9,7,6.63,6.63,0,0,1-2.07,4.92,6.58,6.58,0,0,1-3.76,2A7.26,7.26,0,0,1,24.89,20.3Z"/><path class="cls-2" d="M16,31.56a.5.5,0,0,1-.5-.5V14.63a.5.5,0,1,1,1,0V31.06A.5.5,0,0,1,16,31.56Z"/><path class="cls-2" d="M16,31.56a.5.5,0,0,1-.35-.15l-4.31-4.31A.5.5,0,0,1,12,26.4l4,4,4-4a.5.5,0,0,1,.71.71l-4.31,4.31A.5.5,0,0,1,16,31.56Z"/></svg>