<svg id="expanded_thinner" data-name="expanded thinner" xmlns="http://www.w3.org/2000/svg" viewBox="0 0 32 32"><defs><style>.cls-1{fill:#4c4c4c;}.cls-2{fill:#54a4da;}</style></defs><title>cloud</title><path class="cls-1" d="M24.89,20h-6a.5.5,0,0,1,0-1h6a6.07,6.07,0,0,0,1-.06,5.3,5.3,0,0,0,3.07-1.62,5.36,5.36,0,0,0,1.7-4,5.7,5.7,0,0,0-5.77-5.71l-.57,0-.54,0V6.89A5.2,5.2,0,0,0,22.12,3l-.34-.31a5.14,5.14,0,0,0-3.49-1.26A5.28,5.28,0,0,0,14.41,3a7.46,7.46,0,0,0-.73.89,5.17,5.17,0,0,0-.75,1.87l-.1.57-.54-.18A3.59,3.59,0,0,0,11,6a4.17,4.17,0,0,0-4.3,3.7l-.05.44H5.82a4.31,4.31,0,0,0-2.19.55,4.5,4.5,0,0,0-1,.75,4.36,4.36,0,0,0-1.28,3.16,4.29,4.29,0,0,0,1.28,3.14A4.27,4.27,0,0,0,5.82,19H13a.5.5,0,0,1,0,1H5.82A5.29,5.29,0,0,1,2,18.42,5.26,5.26,0,0,1,.38,14.58a5.39,5.39,0,0,1,1.57-3.86,5.51,5.51,0,0,1,1.18-.91,5.34,5.34,0,0,1,2.62-.68,5.11,5.11,0,0,1,1.4-2.62A5.39,5.39,0,0,1,11,5a4.8,4.8,0,0,1,1.1.09,6.19,6.19,0,0,1,.78-1.72,8.54,8.54,0,0,1,.85-1A6.33,6.33,0,0,1,18.29.44,6.09,6.09,0,0,1,22.4,1.92l.42.38a6.21,6.21,0,0,1,1.91,4.31,6.71,6.71,0,0,1,4.9,1.93,6.54,6.54,0,0,1,2,4.78,6.39,6.39,0,0,1-2,4.74A6.34,6.34,0,0,1,26,20,7.13,7.13,0,0,1,24.89,20Z"/><path class="cls-2" d="M16,31.44a.38.38,0,0,1-.37-.37V14.63a.38.38,0,1,1,.75,0V31.06A.38.38,0,0,1,16,31.44Z"/><path class="cls-2" d="M16,31.44a.37.37,0,0,1-.27-.11L11.43,27a.38.38,0,1,1,.53-.53l4,4,4-4a.38.38,0,0,1,.53.53l-4.31,4.31A.37.37,0,0,1,16,31.44Z"/><path class="cls-1" d="M24.89,20h-6a.5.5,0,0,1,0-1h6a6.07,6.07,0,0,0,1-.06,5.3,5.3,0,0,0,3.07-1.62,5.36,5.36,0,0,0,1.7-4,5.7,5.7,0,0,0-5.77-5.71l-.57,0-.54,0V6.89A5.2,5.2,0,0,0,22.12,3l-.34-.31a5.14,5.14,0,0,0-3.49-1.26A5.28,5.28,0,0,0,14.41,3a7.46,7.46,0,0,0-.73.89,5.17,5.17,0,0,0-.75,1.87l-.1.57-.54-.18A3.59,3.59,0,0,0,11,6a4.17,4.17,0,0,0-4.3,3.7l-.05.44H5.82a4.31,4.31,0,0,0-2.19.55,4.5,4.5,0,0,0-1,.75,4.36,4.36,0,0,0-1.28,3.16,4.29,4.29,0,0,0,1.28,3.14A4.27,4.27,0,0,0,5.82,19H13a.5.5,0,0,1,0,1H5.82A5.29,5.29,0,0,1,2,18.42,5.26,5.26,0,0,1,.38,14.58a5.39,5.39,0,0,1,1.57-3.86,5.51,5.51,0,0,1,1.18-.91,5.34,5.34,0,0,1,2.62-.68,5.11,5.11,0,0,1,1.4-2.62A5.39,5.39,0,0,1,11,5a4.8,4.8,0,0,1,1.1.09,6.19,6.19,0,0,1,.78-1.72,8.54,8.54,0,0,1,.85-1A6.33,6.33,0,0,1,18.29.44,6.09,6.09,0,0,1,22.4,1.92l.42.38a6.21,6.21,0,0,1,1.91,4.31,6.71,6.71,0,0,1,4.9,1.93,6.54,6.54,0,0,1,2,4.78,6.39,6.39,0,0,1-2,4.74A6.34,6.34,0,0,1,26,20,7.13,7.13,0,0,1,24.89,20Z"/><path class="cls-2" d="M16,31.44a.38.38,0,0,1-.37-.37V14.63a.38.38,0,1,1,.75,0V31.06A.38.38,0,0,1,16,31.44Z"/><path class="cls-2" d="M16,31.44a.37.37,0,0,1-.27-.11L11.43,27a.38.38,0,1,1,.53-.53l4,4,4-4a.38.38,0,0,1,.53.53l-4.31,4.31A.37.37,0,0,1,16,31.44Z"/></svg>