<svg id="expanded" xmlns="http://www.w3.org/2000/svg" viewBox="0 0 32 32"><defs><style>.cls-1{fill:#4d4c4c;}.cls-2{fill:#54a4da;}</style></defs><title>computer</title><path class="cls-1" d="M26.45,30.84H5.55a.75.75,0,0,1,0-1.5H26.45a.75.75,0,0,1,0,1.5Z"/><path class="cls-2" d="M31,19.88H1a.5.5,0,0,1,0-1H31a.5.5,0,0,1,0,1Z"/><path class="cls-1" d="M29.16,25.57H2.85A2.62,2.62,0,0,1,.23,23V3.77A2.62,2.62,0,0,1,2.85,1.16H29.16a2.62,2.62,0,0,1,2.62,2.62V23A2.62,2.62,0,0,1,29.16,25.57ZM2.85,2.66A1.12,1.12,0,0,0,1.73,3.77V23a1.12,1.12,0,0,0,1.12,1.12H29.16A1.12,1.12,0,0,0,30.27,23V3.77a1.12,1.12,0,0,0-1.12-1.12Z"/><path class="cls-2" d="M16,22.61l-.21,0-.2-.07-.19-.09-.16-.13a1.05,1.05,0,0,1,0-1.49l.16-.13.19-.1.2-.06a1,1,0,0,1,.41,0l.2.06a1.1,1.1,0,0,1,.18.1,1.16,1.16,0,0,1,.17.13,1.05,1.05,0,0,1,0,1.49,1.19,1.19,0,0,1-.17.13l-.18.09-.2.07Z"/><path class="cls-1" d="M11,30.46l-.68-.73c1.7-1.6,1.88-4.9,1.88-4.93l0-.48h7.72l0,.48s.17,3.33,1.88,4.93l-.68.73c-1.59-1.5-2-4.07-2.15-5.14H13.13C13,26.39,12.58,29,11,30.46Z"/><path class="cls-1" d="M26.45,30.84H5.55a.75.75,0,0,1,0-1.5H26.45a.75.75,0,0,1,0,1.5Z"/><path class="cls-2" d="M31,19.88H1a.5.5,0,0,1,0-1H31a.5.5,0,0,1,0,1Z"/><path class="cls-1" d="M29.16,25.57H2.85A2.62,2.62,0,0,1,.23,23V3.77A2.62,2.62,0,0,1,2.85,1.16H29.16a2.62,2.62,0,0,1,2.62,2.62V23A2.62,2.62,0,0,1,29.16,25.57ZM2.85,2.66A1.12,1.12,0,0,0,1.73,3.77V23a1.12,1.12,0,0,0,1.12,1.12H29.16A1.12,1.12,0,0,0,30.27,23V3.77a1.12,1.12,0,0,0-1.12-1.12Z"/><path class="cls-2" d="M16,22.61l-.21,0-.2-.07-.19-.09-.16-.13a1.05,1.05,0,0,1,0-1.49l.16-.13.19-.1.2-.06a1,1,0,0,1,.41,0l.2.06a1.1,1.1,0,0,1,.18.1,1.16,1.16,0,0,1,.17.13,1.05,1.05,0,0,1,0,1.49,1.19,1.19,0,0,1-.17.13l-.18.09-.2.07Z"/><path class="cls-1" d="M11,30.46l-.68-.73c1.7-1.6,1.88-4.9,1.88-4.93l0-.48h7.72l0,.48s.17,3.33,1.88,4.93l-.68.73c-1.59-1.5-2-4.07-2.15-5.14H13.13C13,26.39,12.58,29,11,30.46Z"/></svg>