<svg id="expanded" xmlns="http://www.w3.org/2000/svg" viewBox="0 0 32 32"><defs><style>.cls-1{fill:#54a4da;}.cls-2{fill:#4d4c4c;}</style></defs><title>construction_worker</title><path class="cls-1" d="M16.39,1.67a.66.66,0,0,1,.63.67V7.11s.76-4.23,1.14-4.23h0a5.43,5.43,0,0,1,4,5.13c0,.6,1.44-.27,1.44,2.37H8.23C8.23,7.77,9.68,8.62,9.68,8a5.43,5.43,0,0,1,4-5.13h0c.38,0,1.14,4.23,1.14,4.23V2.34a.66.66,0,0,1,.63-.67h.94m0-1.5h-.94a2.13,2.13,0,0,0-1.92,1.23,1.6,1.6,0,0,0-.31.06,7,7,0,0,0-5,5.69c-1,.55-1.5,1.62-1.5,3.25a1.5,1.5,0,0,0,1.5,1.5H23.6a1.5,1.5,0,0,0,1.5-1.5c0-1.64-.49-2.71-1.5-3.26a7,7,0,0,0-5-5.68,1.6,1.6,0,0,0-.3-.06A2.13,2.13,0,0,0,16.39.17Z"/><path class="cls-2" d="M28.77,31.63H3a1.83,1.83,0,0,1-1.83-1.83V28.05A3.41,3.41,0,0,1,3.6,24.77l.05,0A31.27,31.27,0,0,0,12.26,20a.62.62,0,0,0,.24-.47.56.56,0,0,0-.18-.42L12,18.78l-.13-.12-.34-.34-.17-.18c-.14-.15-.27-.31-.39-.47l-.09-.12-.31-.45-.13-.2c-.11-.18-.22-.37-.32-.57L10,16.21c-.1-.21-.18-.38-.25-.55l-.09-.21c-.09-.21-.17-.44-.24-.66l0-.11c-.06-.21-.12-.41-.17-.63l0-.2c-.05-.24-.1-.49-.14-.74S9,12.57,9,12.32l0-.2c0-.27,0-.53,0-.8a.75.75,0,1,1,1.5,0c0,.24,0,.47,0,.7v.17c0,.22,0,.43.07.64s.08.48.13.69l0,.17c0,.19.09.37.15.54s.16.48.23.66l.06.15c.07.18.14.32.21.46l-.6.47.67-.34c.08.16.18.32.27.48l.11.17.23.33-.49.6.6-.46.32.38.14.15.25.24.14.13.32.26A2.11,2.11,0,0,1,14,19.48,2.06,2.06,0,0,1,13.31,21l-.08.08a31.93,31.93,0,0,1-8.88,5,.72.72,0,0,1-.23.1,1.94,1.94,0,0,0-1.47,1.86v1.74a.33.33,0,0,0,.33.33H28.77a.33.33,0,0,0,.33-.33V28.06a1.92,1.92,0,0,0-1.44-1.86.76.76,0,0,1-.29-.15,31.75,31.75,0,0,1-8.8-5L18.52,21a2.07,2.07,0,0,1,0-3.05l.38-.31.09-.09.29-.29.13-.14.32-.39.1-.14.23-.33.11-.17c.1-.16.19-.32.27-.48l.73.21-.67-.33c.07-.14.13-.28.2-.43l.07-.17c.08-.19.15-.38.21-.58s.13-.45.17-.63l0-.17c0-.21.09-.43.13-.65s.06-.47.08-.68V12c0-.23,0-.47,0-.7a.75.75,0,1,1,1.5,0c0,.27,0,.54,0,.81l0,.2c0,.25,0,.49-.08.73s-.1.56-.15.8l0,.2c-.05.21-.11.42-.17.62l0,.11c-.07.23-.16.45-.24.66l-.07.16c-.09.22-.17.39-.25.55l-.07.15c-.1.2-.21.39-.32.58l-.11.17c-.11.17-.2.3-.3.43l-.12.17c-.12.16-.25.32-.39.47l-.13.14-.35.35-.17.16-.41.33a.62.62,0,0,0-.12.37.57.57,0,0,0,.2.43l.06.06a31.89,31.89,0,0,0,8.58,4.78l.16.08a3.42,3.42,0,0,1,2.27,3.22V29.8A1.83,1.83,0,0,1,28.77,31.63Z"/><path class="cls-1" d="M16.39,1.67a.66.66,0,0,1,.63.67v.21a6.4,6.4,0,0,1,3.9,2.08,5,5,0,0,1,1.24,3.25h0s0,.09,0,.13c0,.6,1.44-.27,1.44,2.37H8.23C8.23,7.77,9.68,8.62,9.68,8a5.24,5.24,0,0,1,2.11-4.17,6.59,6.59,0,0,1,3-1.3V2.34a.66.66,0,0,1,.63-.67h.94m0-1.5h-.94a2.12,2.12,0,0,0-1.86,1.12,8,8,0,0,0-2.72,1.38A6.75,6.75,0,0,0,8.23,7.14c-1,.55-1.5,1.62-1.5,3.25a1.5,1.5,0,0,0,1.5,1.5H23.6a1.5,1.5,0,0,0,1.5-1.5c0-1.63-.49-2.7-1.49-3.25a6.48,6.48,0,0,0-1.56-3.48,7.73,7.73,0,0,0-3.81-2.38A2.12,2.12,0,0,0,16.39.17Z"/><path class="cls-1" d="M16.39,1.67a.66.66,0,0,1,.63.67V7.11s.76-4.23,1.14-4.23h0a5.43,5.43,0,0,1,4,5.13c0,.6,1.44-.27,1.44,2.37H8.23C8.23,7.77,9.68,8.62,9.68,8a5.43,5.43,0,0,1,4-5.13h0c.38,0,1.14,4.23,1.14,4.23V2.34a.66.66,0,0,1,.63-.67h.94m0-1.5h-.94a2.13,2.13,0,0,0-1.92,1.23,1.6,1.6,0,0,0-.31.06,7,7,0,0,0-5,5.69c-1,.55-1.5,1.62-1.5,3.25a1.5,1.5,0,0,0,1.5,1.5H23.6a1.5,1.5,0,0,0,1.5-1.5c0-1.64-.49-2.71-1.5-3.26a7,7,0,0,0-5-5.68,1.6,1.6,0,0,0-.3-.06A2.13,2.13,0,0,0,16.39.17Z"/><path class="cls-2" d="M28.77,31.63H3a1.83,1.83,0,0,1-1.83-1.83V28.05A3.41,3.41,0,0,1,3.6,24.77l.05,0A31.27,31.27,0,0,0,12.26,20a.62.62,0,0,0,.24-.47.56.56,0,0,0-.18-.42L12,18.78l-.13-.12-.34-.34-.17-.18c-.14-.15-.27-.31-.39-.47l-.09-.12-.31-.45-.13-.2c-.11-.18-.22-.37-.32-.57L10,16.21c-.1-.21-.18-.38-.25-.55l-.09-.21c-.09-.21-.17-.44-.24-.66l0-.11c-.06-.21-.12-.41-.17-.63l0-.2c-.05-.24-.1-.49-.14-.74S9,12.57,9,12.32l0-.2c0-.27,0-.53,0-.8a.75.75,0,1,1,1.5,0c0,.24,0,.47,0,.7v.17c0,.22,0,.43.07.64s.08.48.13.69l0,.17c0,.19.09.37.15.54s.16.48.23.66l.06.15c.07.18.14.32.21.46l-.6.47.67-.34c.08.16.18.32.27.48l.11.17.23.33-.49.6.6-.46.32.38.14.15.25.24.14.13.32.26A2.11,2.11,0,0,1,14,19.48,2.06,2.06,0,0,1,13.31,21l-.08.08a31.93,31.93,0,0,1-8.88,5,.72.72,0,0,1-.23.1,1.94,1.94,0,0,0-1.47,1.86v1.74a.33.33,0,0,0,.33.33H28.77a.33.33,0,0,0,.33-.33V28.06a1.92,1.92,0,0,0-1.44-1.86.76.76,0,0,1-.29-.15,31.75,31.75,0,0,1-8.8-5L18.52,21a2.07,2.07,0,0,1,0-3.05l.38-.31.09-.09.29-.29.13-.14.32-.39.1-.14.23-.33.11-.17c.1-.16.19-.32.27-.48l.73.21-.67-.33c.07-.14.13-.28.2-.43l.07-.17c.08-.19.15-.38.21-.58s.13-.45.17-.63l0-.17c0-.21.09-.43.13-.65s.06-.47.08-.68V12c0-.23,0-.47,0-.7a.75.75,0,1,1,1.5,0c0,.27,0,.54,0,.81l0,.2c0,.25,0,.49-.08.73s-.1.56-.15.8l0,.2c-.05.21-.11.42-.17.62l0,.11c-.07.23-.16.45-.24.66l-.07.16c-.09.22-.17.39-.25.55l-.07.15c-.1.2-.21.39-.32.58l-.11.17c-.11.17-.2.3-.3.43l-.12.17c-.12.16-.25.32-.39.47l-.13.14-.35.35-.17.16-.41.33a.62.62,0,0,0-.12.37.57.57,0,0,0,.2.43l.06.06a31.89,31.89,0,0,0,8.58,4.78l.16.08a3.42,3.42,0,0,1,2.27,3.22V29.8A1.83,1.83,0,0,1,28.77,31.63Z"/><path class="cls-1" d="M16.39,1.67a.66.66,0,0,1,.63.67v.21a6.4,6.4,0,0,1,3.9,2.08,5,5,0,0,1,1.24,3.25h0s0,.09,0,.13c0,.6,1.44-.27,1.44,2.37H8.23C8.23,7.77,9.68,8.62,9.68,8a5.24,5.24,0,0,1,2.11-4.17,6.59,6.59,0,0,1,3-1.3V2.34a.66.66,0,0,1,.63-.67h.94m0-1.5h-.94a2.12,2.12,0,0,0-1.86,1.12,8,8,0,0,0-2.72,1.38A6.75,6.75,0,0,0,8.23,7.14c-1,.55-1.5,1.62-1.5,3.25a1.5,1.5,0,0,0,1.5,1.5H23.6a1.5,1.5,0,0,0,1.5-1.5c0-1.63-.49-2.7-1.49-3.25a6.48,6.48,0,0,0-1.56-3.48,7.73,7.73,0,0,0-3.81-2.38A2.12,2.12,0,0,0,16.39.17Z"/></svg>