<svg id="expanded" xmlns="http://www.w3.org/2000/svg" viewBox="0 0 32 32"><defs><style>.cls-1{fill:#54a4da;}.cls-2{fill:#4d4c4c;}.cls-3{fill:#fff;}</style></defs><title>course_book</title><path class="cls-1" d="M7.78,23.85H4a.5.5,0,1,1,0-1H7.78a.5.5,0,1,1,0,1Z"/><path class="cls-1" d="M9.67,28.25H4a.5.5,0,1,1,0-1H9.67a.5.5,0,0,1,0,1Z"/><path class="cls-1" d="M25.76,26.05H4.14a.5.5,0,0,1,0-1H25.76a.5.5,0,0,1,0,1Z"/><path class="cls-2" d="M26.49,30.88H2.11a.75.75,0,0,1-.49-1.32,5.52,5.52,0,0,0,1.34-4,5.52,5.52,0,0,0-1.34-4,.75.75,0,0,1,.49-1.32H26.49a5.32,5.32,0,0,1,0,10.65ZM3.61,29.38H26.49a3.82,3.82,0,0,0,0-7.65H3.61a8.38,8.38,0,0,1,.85,3.82A8.38,8.38,0,0,1,3.61,29.38Z"/><path class="cls-2" d="M26.49,30.88H.93a.75.75,0,0,1,0-1.5H26.49a3.82,3.82,0,0,0,0-7.65H.93a.75.75,0,0,1,0-1.5H26.49a5.32,5.32,0,0,1,0,10.65Z"/><path class="cls-3" d="M15.53,8.21l.4.25c.15-.11-.35-.58-.2-.67a8.86,8.86,0,0,1,1.27-2A8.7,8.7,0,0,1,19,4"/><path class="cls-1" d="M15.94,9a.5.5,0,0,1-.28-.09l-.37-.22a.5.5,0,0,1-.07-.82.49.49,0,0,1,.12-.34,9.37,9.37,0,0,1,1.3-2,9.15,9.15,0,0,1,2.12-1.85.5.5,0,1,1,.53.85A8.16,8.16,0,0,0,17.4,6.12a8.35,8.35,0,0,0-1.13,1.74c.1.17.41.68,0,1A.5.5,0,0,1,15.94,9Z"/><path class="cls-2" d="M14.78,21.12a3.89,3.89,0,0,1-1.46-.3A7.82,7.82,0,0,1,9.4,16.51,9.94,9.94,0,0,1,9,15.44C7.66,12,8.7,8.31,11.43,7.14a5,5,0,0,1,4.49.42A5,5,0,0,1,20.65,7c2.28,1,3.44,3.8,2.83,6.85a9.41,9.41,0,0,1-.68,2.55,7.82,7.82,0,0,1-3.91,4.31,3.47,3.47,0,0,1-2.66.07l-.19.09A3.14,3.14,0,0,1,14.78,21.12ZM13.19,8.29A3,3,0,0,0,12,8.52c-1.94.83-2.65,3.72-1.57,6.43a9.63,9.63,0,0,0,.34,1,6.41,6.41,0,0,0,3.09,3.5,2,2,0,0,0,1.55.06,1.57,1.57,0,0,0,.31-.18.75.75,0,0,1,.83,0l.2.11a2,2,0,0,0,1.55-.06,6.41,6.41,0,0,0,3.09-3.5,8.13,8.13,0,0,0,.58-2.2c.48-2.42-.32-4.55-1.94-5.24h0a3.71,3.71,0,0,0-3.68.69.75.75,0,0,1-.87,0A4.18,4.18,0,0,0,13.19,8.29Z"/><path class="cls-3" d="M13.17,9.8c-1.51.65-2.06,2.75-1.27,4.75a6,6,0,0,0,.22.63"/><path class="cls-1" d="M12.12,15.69a.5.5,0,0,1-.46-.31,6.57,6.57,0,0,1-.24-.69c-.88-2.23-.21-4.6,1.55-5.35a.5.5,0,1,1,.39.92c-1.24.53-1.69,2.38-1,4.11a6.24,6.24,0,0,0,.22.63.5.5,0,0,1-.46.69Z"/><path class="cls-1" d="M15.86,6.35H15.8A3.55,3.55,0,0,1,13.07,4.9a4.14,4.14,0,0,1-.37-3.16.5.5,0,0,1,.54-.35,4.16,4.16,0,0,1,2.7,1.55,3.64,3.64,0,0,1,.41,3A.5.5,0,0,1,15.86,6.35ZM13.56,2.48a2.81,2.81,0,0,0,.34,1.87,2.36,2.36,0,0,0,1.56.94,2.45,2.45,0,0,0-.34-1.79A2.88,2.88,0,0,0,13.56,2.48Z"/><path class="cls-1" d="M7.78,23.85H4a.5.5,0,1,1,0-1H7.78a.5.5,0,1,1,0,1Z"/><path class="cls-1" d="M9.67,28.25H4a.5.5,0,1,1,0-1H9.67a.5.5,0,0,1,0,1Z"/><path class="cls-1" d="M25.76,26.05H4.14a.5.5,0,0,1,0-1H25.76a.5.5,0,0,1,0,1Z"/><path class="cls-2" d="M26.49,30.88H2.11a.75.75,0,0,1-.49-1.32,5.52,5.52,0,0,0,1.34-4,5.52,5.52,0,0,0-1.34-4,.75.75,0,0,1,.49-1.32H26.49a5.32,5.32,0,0,1,0,10.65ZM3.61,29.38H26.49a3.82,3.82,0,0,0,0-7.65H3.61a8.38,8.38,0,0,1,.85,3.82A8.38,8.38,0,0,1,3.61,29.38Z"/><path class="cls-2" d="M26.49,30.88H.93a.75.75,0,0,1,0-1.5H26.49a3.82,3.82,0,0,0,0-7.65H.93a.75.75,0,0,1,0-1.5H26.49a5.32,5.32,0,0,1,0,10.65Z"/><path class="cls-3" d="M15.53,8.21l.4.25c.15-.11-.35-.58-.2-.67a8.86,8.86,0,0,1,1.27-2A8.7,8.7,0,0,1,19,4"/><path class="cls-1" d="M15.94,9a.5.5,0,0,1-.28-.09l-.37-.22a.5.5,0,0,1-.07-.82.49.49,0,0,1,.12-.34,9.37,9.37,0,0,1,1.3-2,9.15,9.15,0,0,1,2.12-1.85.5.5,0,1,1,.53.85A8.16,8.16,0,0,0,17.4,6.12a8.35,8.35,0,0,0-1.13,1.74c.1.17.41.68,0,1A.5.5,0,0,1,15.94,9Z"/><path class="cls-2" d="M14.78,21.12a3.89,3.89,0,0,1-1.46-.3A7.82,7.82,0,0,1,9.4,16.51,9.94,9.94,0,0,1,9,15.44C7.66,12,8.7,8.31,11.43,7.14a5,5,0,0,1,4.49.42A5,5,0,0,1,20.65,7c2.28,1,3.44,3.8,2.83,6.85a9.41,9.41,0,0,1-.68,2.55,7.82,7.82,0,0,1-3.91,4.31,3.47,3.47,0,0,1-2.66.07l-.19.09A3.14,3.14,0,0,1,14.78,21.12ZM13.19,8.29A3,3,0,0,0,12,8.52c-1.94.83-2.65,3.72-1.57,6.43a9.63,9.63,0,0,0,.34,1,6.41,6.41,0,0,0,3.09,3.5,2,2,0,0,0,1.55.06,1.57,1.57,0,0,0,.31-.18.75.75,0,0,1,.83,0l.2.11a2,2,0,0,0,1.55-.06,6.41,6.41,0,0,0,3.09-3.5,8.13,8.13,0,0,0,.58-2.2c.48-2.42-.32-4.55-1.94-5.24h0a3.71,3.71,0,0,0-3.68.69.75.75,0,0,1-.87,0A4.18,4.18,0,0,0,13.19,8.29Z"/><path class="cls-3" d="M13.17,9.8c-1.51.65-2.06,2.75-1.27,4.75a6,6,0,0,0,.22.63"/><path class="cls-1" d="M12.12,15.69a.5.5,0,0,1-.46-.31,6.57,6.57,0,0,1-.24-.69c-.88-2.23-.21-4.6,1.55-5.35a.5.5,0,1,1,.39.92c-1.24.53-1.69,2.38-1,4.11a6.24,6.24,0,0,0,.22.63.5.5,0,0,1-.46.69Z"/><path class="cls-1" d="M15.86,6.35H15.8A3.55,3.55,0,0,1,13.07,4.9a4.14,4.14,0,0,1-.37-3.16.5.5,0,0,1,.54-.35,4.16,4.16,0,0,1,2.7,1.55,3.64,3.64,0,0,1,.41,3A.5.5,0,0,1,15.86,6.35ZM13.56,2.48a2.81,2.81,0,0,0,.34,1.87,2.36,2.36,0,0,0,1.56.94,2.45,2.45,0,0,0-.34-1.79A2.88,2.88,0,0,0,13.56,2.48Z"/></svg>