<svg id="expanded" xmlns="http://www.w3.org/2000/svg" viewBox="0 0 32 32"><defs><style>.cls-1{fill:#54a4da;}.cls-2{fill:#4d4c4c;}.cls-3{fill:#fff;}</style></defs><title>course_books</title><path class="cls-1" d="M26.33,21.4h-17a.5.5,0,0,1,0-1h17a.5.5,0,1,1,0,1Z"/><path class="cls-2" d="M27.52,25H8.78a4.15,4.15,0,0,1,0-8.29H27.52A.75.75,0,0,1,28,18.08a3.9,3.9,0,0,0-.93,2.83A3.9,3.9,0,0,0,28,23.73.75.75,0,0,1,27.52,25ZM8.78,18.26a2.65,2.65,0,0,0,0,5.29H26.1a7,7,0,0,1,0-5.29Z"/><path class="cls-2" d="M28.49,25H8.78a4.15,4.15,0,0,1,0-8.29H28.49a.75.75,0,0,1,0,1.5H8.78a2.65,2.65,0,0,0,0,5.29H28.49a.75.75,0,0,1,0,1.5Z"/><path class="cls-1" d="M7.13,26.56H5.2a.5.5,0,0,1,0-1H7.13a.5.5,0,1,1,0,1Z"/><path class="cls-1" d="M8.53,29.83H5.2a.5.5,0,1,1,0-1H8.53a.5.5,0,0,1,0,1Z"/><path class="cls-1" d="M26,28.2H5.32a.5.5,0,1,1,0-1H26a.5.5,0,0,1,0,1Z"/><path class="cls-2" d="M26.55,31.84H3.74a.75.75,0,0,1-.49-1.32,3.91,3.91,0,0,0,.93-2.83,3.9,3.9,0,0,0-.93-2.83.75.75,0,0,1,.49-1.32H26.55a4.15,4.15,0,1,1,0,8.29ZM5.16,30.34H26.55a2.65,2.65,0,1,0,0-5.29H5.16a6.62,6.62,0,0,1,.52,2.65A6.62,6.62,0,0,1,5.16,30.34Z"/><path class="cls-2" d="M26.55,31.84H2a.75.75,0,1,1,0-1.5h24.5a2.65,2.65,0,1,0,0-5.29H2a.75.75,0,1,1,0-1.5h24.5a4.15,4.15,0,1,1,0,8.29Z"/><path class="cls-3" d="M18.92,2a5.84,5.84,0,0,0-1.81,1.64,6.92,6.92,0,0,0-.84,2.4"/><path class="cls-1" d="M16.27,6.57H16.2A.5.5,0,0,1,15.77,6a7.39,7.39,0,0,1,.92-2.61,6.32,6.32,0,0,1,2-1.81.5.5,0,0,1,.49.87,5.37,5.37,0,0,0-1.64,1.48,6.45,6.45,0,0,0-.76,2.2A.5.5,0,0,1,16.27,6.57Z"/><path class="cls-2" d="M15.62,17.29a3.45,3.45,0,0,1-1.3-.27,6.84,6.84,0,0,1-3.43-3.77,8.69,8.69,0,0,1-.33-.93c-1.2-3-.27-6.24,2.12-7.27a4.37,4.37,0,0,1,3.9.33,4.41,4.41,0,0,1,4.12-.46h0c2,.86,3,3.34,2.49,6a8.17,8.17,0,0,1-.59,2.21,6.84,6.84,0,0,1-3.43,3.77,3.1,3.1,0,0,1-2.33.07l-.13.06A2.81,2.81,0,0,1,15.62,17.29Zm-1.37-11a2.43,2.43,0,0,0-1,.19c-1.62.69-2.2,3.12-1.3,5.4a8.42,8.42,0,0,0,.29.84,5.42,5.42,0,0,0,2.61,3,1.6,1.6,0,0,0,1.26.05,1.31,1.31,0,0,0,.25-.15.75.75,0,0,1,.83,0l.16.08a1.6,1.6,0,0,0,1.26-.05,5.42,5.42,0,0,0,2.61-3,6.87,6.87,0,0,0,.49-1.87c.41-2-.25-3.83-1.6-4.41h0a3.09,3.09,0,0,0-3.06.58.75.75,0,0,1-.87,0A3.49,3.49,0,0,0,14.25,6.24Z"/><path class="cls-3" d="M14.24,7.44c-1.3.56-1.77,2.37-1.09,4.09a5.16,5.16,0,0,0,.19.55"/><path class="cls-1" d="M13.33,12.58a.5.5,0,0,1-.46-.31,5.44,5.44,0,0,1-.21-.6c-.77-1.95-.18-4,1.38-4.69a.5.5,0,0,1,.39.92c-1,.44-1.4,2-.82,3.45a5.48,5.48,0,0,0,.19.54.5.5,0,0,1-.27.65A.49.49,0,0,1,13.33,12.58Z"/><path class="cls-3" d="M14.24.62S13.32,3.68,16.55,4A2.64,2.64,0,0,0,14.24.62Z"/><path class="cls-1" d="M16.55,4.54h-.06a3.12,3.12,0,0,1-2.41-1.28A3.64,3.64,0,0,1,13.76.47a.5.5,0,0,1,.54-.35,3.65,3.65,0,0,1,2.38,1.36A3.2,3.2,0,0,1,17,4.16.5.5,0,0,1,16.55,4.54ZM14.63,1.22a2.29,2.29,0,0,0,.29,1.48,1.92,1.92,0,0,0,1.22.76A2,2,0,0,0,15.85,2,2.36,2.36,0,0,0,14.63,1.22Z"/><path class="cls-1" d="M26.33,21.4h-17a.5.5,0,0,1,0-1h17a.5.5,0,1,1,0,1Z"/><path class="cls-2" d="M27.52,25H8.78a4.15,4.15,0,0,1,0-8.29H27.52A.75.75,0,0,1,28,18.08a3.9,3.9,0,0,0-.93,2.83A3.9,3.9,0,0,0,28,23.73.75.75,0,0,1,27.52,25ZM8.78,18.26a2.65,2.65,0,0,0,0,5.29H26.1a7,7,0,0,1,0-5.29Z"/><path class="cls-2" d="M28.49,25H8.78a4.15,4.15,0,0,1,0-8.29H28.49a.75.75,0,0,1,0,1.5H8.78a2.65,2.65,0,0,0,0,5.29H28.49a.75.75,0,0,1,0,1.5Z"/><path class="cls-1" d="M7.13,26.56H5.2a.5.5,0,0,1,0-1H7.13a.5.5,0,1,1,0,1Z"/><path class="cls-1" d="M8.53,29.83H5.2a.5.5,0,1,1,0-1H8.53a.5.5,0,0,1,0,1Z"/><path class="cls-1" d="M26,28.2H5.32a.5.5,0,1,1,0-1H26a.5.5,0,0,1,0,1Z"/><path class="cls-2" d="M26.55,31.84H3.74a.75.75,0,0,1-.49-1.32,3.91,3.91,0,0,0,.93-2.83,3.9,3.9,0,0,0-.93-2.83.75.75,0,0,1,.49-1.32H26.55a4.15,4.15,0,1,1,0,8.29ZM5.16,30.34H26.55a2.65,2.65,0,1,0,0-5.29H5.16a6.62,6.62,0,0,1,.52,2.65A6.62,6.62,0,0,1,5.16,30.34Z"/><path class="cls-2" d="M26.55,31.84H2a.75.75,0,1,1,0-1.5h24.5a2.65,2.65,0,1,0,0-5.29H2a.75.75,0,1,1,0-1.5h24.5a4.15,4.15,0,1,1,0,8.29Z"/><path class="cls-3" d="M18.92,2a5.84,5.84,0,0,0-1.81,1.64,6.92,6.92,0,0,0-.84,2.4"/><path class="cls-1" d="M16.27,6.57H16.2A.5.5,0,0,1,15.77,6a7.39,7.39,0,0,1,.92-2.61,6.32,6.32,0,0,1,2-1.81.5.5,0,0,1,.49.87,5.37,5.37,0,0,0-1.64,1.48,6.45,6.45,0,0,0-.76,2.2A.5.5,0,0,1,16.27,6.57Z"/><path class="cls-2" d="M15.62,17.29a3.45,3.45,0,0,1-1.3-.27,6.84,6.84,0,0,1-3.43-3.77,8.69,8.69,0,0,1-.33-.93c-1.2-3-.27-6.24,2.12-7.27a4.37,4.37,0,0,1,3.9.33,4.41,4.41,0,0,1,4.12-.46h0c2,.86,3,3.34,2.49,6a8.17,8.17,0,0,1-.59,2.21,6.84,6.84,0,0,1-3.43,3.77,3.1,3.1,0,0,1-2.33.07l-.13.06A2.81,2.81,0,0,1,15.62,17.29Zm-1.37-11a2.43,2.43,0,0,0-1,.19c-1.62.69-2.2,3.12-1.3,5.4a8.42,8.42,0,0,0,.29.84,5.42,5.42,0,0,0,2.61,3,1.6,1.6,0,0,0,1.26.05,1.31,1.31,0,0,0,.25-.15.75.75,0,0,1,.83,0l.16.08a1.6,1.6,0,0,0,1.26-.05,5.42,5.42,0,0,0,2.61-3,6.87,6.87,0,0,0,.49-1.87c.41-2-.25-3.83-1.6-4.41h0a3.09,3.09,0,0,0-3.06.58.75.75,0,0,1-.87,0A3.49,3.49,0,0,0,14.25,6.24Z"/><path class="cls-3" d="M14.24,7.44c-1.3.56-1.77,2.37-1.09,4.09a5.16,5.16,0,0,0,.19.55"/><path class="cls-1" d="M13.33,12.58a.5.5,0,0,1-.46-.31,5.44,5.44,0,0,1-.21-.6c-.77-1.95-.18-4,1.38-4.69a.5.5,0,0,1,.39.92c-1,.44-1.4,2-.82,3.45a5.48,5.48,0,0,0,.19.54.5.5,0,0,1-.27.65A.49.49,0,0,1,13.33,12.58Z"/><path class="cls-3" d="M14.24.62S13.32,3.68,16.55,4A2.64,2.64,0,0,0,14.24.62Z"/><path class="cls-1" d="M16.55,4.54h-.06a3.12,3.12,0,0,1-2.41-1.28A3.64,3.64,0,0,1,13.76.47a.5.5,0,0,1,.54-.35,3.65,3.65,0,0,1,2.38,1.36A3.2,3.2,0,0,1,17,4.16.5.5,0,0,1,16.55,4.54ZM14.63,1.22a2.29,2.29,0,0,0,.29,1.48,1.92,1.92,0,0,0,1.22.76A2,2,0,0,0,15.85,2,2.36,2.36,0,0,0,14.63,1.22Z"/></svg>