<svg id="expanded" xmlns="http://www.w3.org/2000/svg" viewBox="0 0 32 32"><defs><style>.cls-1{fill:#4d4c4c;}.cls-2{fill:#54a4da;}</style></defs><title>dollar</title><path class="cls-1" d="M16.26,31.92a.5.5,0,0,1-.5-.5V.58a.5.5,0,1,1,1,0V31.42A.5.5,0,0,1,16.26,31.92Z"/><path class="cls-2" d="M16.51,28.52h-.34c-7.21,0-8.11-6-8.12-6a.75.75,0,1,1,1.49-.21c0,.19.77,4.73,6.69,4.73A7.12,7.12,0,0,0,21,25.48a5.25,5.25,0,0,0,1.49-4c0-4.53-6.3-5.59-6.36-5.6-5-1-7.41-3.29-7.26-6.76V8.95c0-1.63,1.33-5.88,7.38-5.88,6.54,0,7.1,5.21,7.1,5.26a.75.75,0,0,1-1.49.14c0-.16-.47-3.91-5.61-3.91-5.81,0-5.88,4.33-5.88,4.38s0,.15,0,.24c0,1.08-.17,3.95,6,5.22C19,14.82,24,16.85,24,21.48a6.68,6.68,0,0,1-2,5.1A8.31,8.31,0,0,1,16.51,28.52Z"/></svg>