<svg xmlns="http://www.w3.org/2000/svg" viewBox="0 0 32 32"><style type="text/css">  
	.st0{fill:#92AEC9;}
	.st1{fill:#b3b4b4;}
</style><path class="st1" d="M25 20.4h-6.1c-0.4 0-0.7-0.3-0.7-0.7s0.3-0.7 0.7-0.7H25c0.4 0 0.7 0 0.9-0.1 1.2-0.2 2.1-0.7 3-1.6 1.1-1.1 1.7-2.4 1.7-3.9 0-1.6-0.5-2.9-1.7-4 -1.1-1.1-2.4-1.6-4-1.6 -0.2 0-0.4 0-0.5 0l-0.8 0.1v-1c0-1.5-0.5-2.7-1.6-3.8 -0.1-0.1-0.2-0.2-0.4-0.3 -0.9-0.8-2-1.2-3.4-1.2 -1.5 0-2.7 0.5-3.8 1.5C14.3 3.4 14 3.7 13.8 4c-0.4 0.5-0.6 1.2-0.7 1.8L13 6.6l-0.8-0.3c-0.4-0.1-0.8-0.2-1.2-0.2 -1.2 0-2.2 0.4-3 1.2C7.3 8 6.9 8.8 6.8 9.8l-0.1 0.6h-1c-0.8 0-1.5 0.2-2.1 0.5 -0.3 0.2-0.6 0.4-0.9 0.7 -0.8 0.9-1.2 1.9-1.2 3 0 1.2 0.4 2.2 1.2 3 0.9 0.9 1.8 1.3 3 1.3H13c0.4 0 0.7 0.3 0.7 0.7 0 0.4-0.3 0.7-0.7 0.7H5.7c-1.6 0-2.9-0.6-4.1-1.7 -1.1-1.1-1.7-2.5-1.7-4 0-1.6 0.6-2.9 1.6-4 0.4-0.4 0.8-0.7 1.2-1C3.7 9.2 4.5 9 5.5 9c0.2-1 0.7-1.8 1.4-2.6 1.1-1.1 2.5-1.6 4-1.6 0.3 0 0.6 0 1 0.1 0.2-0.6 0.4-1.1 0.8-1.6 0.2-0.4 0.5-0.7 0.9-1.1 1.3-1.3 2.9-2 4.8-2 1.7 0 3.1 0.5 4.3 1.5C22.8 1.9 22.9 2 23 2.1c1.2 1.2 1.9 2.6 2 4.3 1.9 0 3.6 0.7 4.9 2 1.4 1.4 2.1 3.1 2.1 5 0 1.9-0.7 3.6-2.1 4.9 -1 1.1-2.3 1.7-3.8 2C25.8 20.4 25.4 20.4 25 20.4z"/><path class="st0" d="M20.7 26.7c-0.2-0.2-0.5-0.2-0.7 0l-3.5 3.5V14.7c0-0.3-0.2-0.5-0.5-0.5s-0.5 0.2-0.5 0.5v15.5L12 26.7c-0.2-0.2-0.5-0.2-0.7 0 -0.2 0.2-0.2 0.5 0 0.7l4.4 4.4c0 0 0.1 0.1 0.2 0.1 0.1 0 0.1 0 0.2 0s0.1 0 0.2 0c0.1 0 0.1-0.1 0.2-0.1l4.4-4.4C20.9 27.1 20.9 26.8 20.7 26.7z"/></svg>