<svg id="expanded" xmlns="http://www.w3.org/2000/svg" viewBox="0 0 32 32"><defs><style>.cls-1{fill:#54a4da;}.cls-2{fill:#4d4c4c;}</style></defs><title>dv</title><path class="cls-1" d="M28.89,31.83H3.11a1,1,0,1,1,0-1.91H28.89a1,1,0,1,1,0,1.91Z"/><path class="cls-2" d="M9.52,26.68H4a.76.76,0,0,1-.76-.76V1.13A.76.76,0,0,1,4,.37H9.52a5.25,5.25,0,0,1,5.24,5.25V21.43A5.25,5.25,0,0,1,9.52,26.68ZM4.79,25.16H9.52a3.73,3.73,0,0,0,3.72-3.73V5.61A3.73,3.73,0,0,0,9.52,1.88H4.79Z"/><path class="cls-2" d="M23.23,26.67a.75.75,0,0,1-.73-.56L17.88,8.38A.75.75,0,1,1,19.34,8l3.89,14.92L27.1,8a.75.75,0,0,1,1.46.38L24,26.11A.75.75,0,0,1,23.23,26.67Z"/></svg>