<?xml version="1.0" encoding="utf-8"?>
<!-- Generator: Adobe Illustrator 20.1.0, SVG Export Plug-In . SVG Version: 6.00 Build 0)  -->
<svg version="1.1" id="Layer_1" xmlns="http://www.w3.org/2000/svg" xmlns:xlink="http://www.w3.org/1999/xlink" x="0px" y="0px"
	 viewBox="0 0 33 33" style="enable-background:new 0 0 33 33;" xml:space="preserve">
<style type="text/css">
	.st0{fill:#4C4C4C;}
	.st1{fill:none;stroke:#4C4C4C;stroke-width:1.5;stroke-linecap:round;stroke-linejoin:round;}
	.st2{fill:none;stroke:#4C4C4C;stroke-linecap:round;stroke-linejoin:round;}
	.st3{fill:none;stroke:#54A5DB;stroke-linecap:round;stroke-linejoin:round;}
	.st4{fill:none;stroke:#4C4C4C;stroke-linecap:round;stroke-miterlimit:10;}
</style>
<g id="icons_3">
	<polygon class="st0" points="7.8,24.9 10,24 8.7,22.8 	"/>
	<path class="st1" d="M29.7,13.2v14.3c0,2.8-2.2,5-5,5H5.5c-2.8,0-5-2.2-5-5V8.6c0-2.8,2.2-5,5-5h13.7"/>
	<path class="st2" d="M30.5,6.3l-3.9-3.9l1.6-1.6c0.5-0.5,1.4-0.5,1.9,0l2,2c0.5,0.5,0.5,1.4,0,1.9c0,0,0,0,0,0L30.5,6.3z"/>
	<path class="st3" d="M14.6,22.1c0.1-1-0.3-2.1-1.2-2.7c-0.7-0.8-1.7-1.2-2.8-1.1L25,4L29,7.9L14.6,22.1z"/>
	<path class="st4" d="M14.5,22c0,0,0,0.1,0,0.1l-3.3,1.4l-3.4,1.4l1.4-3.4l1.4-3.3c0,0,0.1-0.1,0.1,0s1.2-0.4,2.8,1.1
		S14.5,22,14.5,22z"/>
	<line class="st3" x1="27" y1="6" x2="20.9" y2="12"/>
</g>
</svg>
