<?xml version="1.0" encoding="utf-8"?>
<!-- Generator: Adobe Illustrator 20.1.0, SVG Export Plug-In . SVG Version: 6.00 Build 0)  -->
<svg version="1.1" id="Layer_1" xmlns="http://www.w3.org/2000/svg" xmlns:xlink="http://www.w3.org/1999/xlink" x="0px" y="0px"
	 viewBox="0 0 17 17" style="enable-background:new 0 0 17 17;" xml:space="preserve">
<style type="text/css">
	.st0{fill:#4C4C4C;}
	.st1{fill:none;stroke:#4C4C4C;stroke-width:1.5;stroke-linecap:round;stroke-linejoin:round;}
	.st2{fill:none;stroke:#4C4C4C;stroke-linecap:round;stroke-linejoin:round;}
	.st3{fill:none;stroke:#54A5DB;stroke-linecap:round;stroke-linejoin:round;}
	.st4{fill:none;stroke:#4C4C4C;stroke-linecap:round;}
</style>
<title>Group 11</title>
<desc>Created with Sketch.</desc>
<g id="Typography-_x26_-Styles">
	<g id="Typography-_x26_-Colors" transform="translate(-436.000000, -2509.000000)">
		<g id="Group-11" transform="translate(437.000000, 2510.000000)">
			<polygon id="Fill-1" class="st0" points="3.6,11.1 4.6,10.7 4,10.1 			"/>
			<path id="Stroke-2" class="st1" d="M13.4,5.9c0,0,0,2.2,0,5v1.4c0,1.2-1,2.2-2.2,2.2H2.6c-1.2,0-2.2-1-2.2-2.2V3.8
				c0-1.2,1-2.2,2.2-2.2h6.1"/>
			<path id="Stroke-4" class="st2" d="M13.7,2.8L12,1.1l0.7-0.7c0.2-0.2,0.6-0.2,0.9,0l0.9,0.9c0.2,0.2,0.2,0.6,0,0.8L13.7,2.8
				L13.7,2.8z"/>
			<path id="Stroke-6" class="st3" d="M6.1,8.6C5.5,8,4.9,8.1,4.9,8.1l5.9-5.9L12.6,4L6.6,9.8C6.6,9.8,6.7,9.3,6.1,8.6z"/>
			<path id="Stroke-8" class="st4" d="M6.6,9.9l-1.5,0.6l-1.5,0.6l0.6-1.5l0.6-1.5c0,0,0,0,0,0c0,0,0.6-0.2,1.2,0.5
				C6.8,9.3,6.6,9.8,6.6,9.9C6.6,9.8,6.6,9.9,6.6,9.9z"/>
		</g>
	</g>
</g>
</svg>
