<svg id="expanded" xmlns="http://www.w3.org/2000/svg" viewBox="0 0 32 32"><defs><style>.cls-1{fill:#4d4c4c;}.cls-2{fill:#54a4da;}</style></defs><title>edit</title><polygon class="cls-1" points="7.83 23.9 9.92 23.03 8.72 21.83 7.83 23.9"/><path class="cls-1" d="M23.77,31.88H5.88A5.76,5.76,0,0,1,.13,26.13V8.53A5.76,5.76,0,0,1,5.88,2.78H18.73a.75.75,0,0,1,0,1.5H5.88A4.26,4.26,0,0,0,1.63,8.53V26.13a4.26,4.26,0,0,0,4.25,4.25H23.77A4.26,4.26,0,0,0,28,26.13V12.7a.75.75,0,0,1,1.5,0V26.13A5.76,5.76,0,0,1,23.77,31.88Z"/><path class="cls-1" d="M29.54,6.64a.5.5,0,0,1-.35-.14L25.44,2.79a.5.5,0,0,1,0-.71L26.93.6a1.8,1.8,0,0,1,2.53,0l1.93,1.91a1.77,1.77,0,0,1,0,2.52L29.9,6.5A.5.5,0,0,1,29.54,6.64Zm-3-4.21,3,3,1.14-1.13a.77.77,0,0,0,0-1.09L28.76,1.31a.8.8,0,0,0-1.12,0Z"/><path class="cls-2" d="M14.32,21.69a.5.5,0,0,1-.49-.6,2.62,2.62,0,0,0-1-2.16,2.68,2.68,0,0,0-2.2-1,.51.51,0,0,1-.53-.26.5.5,0,0,1,.09-.58L23.92,3.58a.5.5,0,0,1,.7,0l3.75,3.71a.5.5,0,0,1,0,.71L14.67,21.55A.5.5,0,0,1,14.32,21.69Zm-2.64-4.61a4.31,4.31,0,0,1,1.88,1.14,4.25,4.25,0,0,1,1.16,1.87L27.31,7.64l-3-3Z"/><path class="cls-1" d="M6.89,24.84l3.29-7.71.58-.14,0,0a3.6,3.6,0,0,1,2.83,1.27,3.17,3.17,0,0,1,1.18,2.83l-.08.43-.29.15Zm4-6.84L8.78,23l5-2.11c0-.25,0-.93-.92-1.88A2.68,2.68,0,0,0,10.9,18Z"/><path class="cls-2" d="M20.38,12a.5.5,0,0,1-.35-.85l5.77-5.72a.5.5,0,1,1,.7.71l-5.77,5.72A.5.5,0,0,1,20.38,12Z"/><polygon class="cls-1" points="7.83 23.9 9.92 23.03 8.72 21.83 7.83 23.9"/><path class="cls-1" d="M23.77,31.88H5.88A5.76,5.76,0,0,1,.13,26.13V8.53A5.76,5.76,0,0,1,5.88,2.78H18.73a.75.75,0,0,1,0,1.5H5.88A4.26,4.26,0,0,0,1.63,8.53V26.13a4.26,4.26,0,0,0,4.25,4.25H23.77A4.26,4.26,0,0,0,28,26.13V12.7a.75.75,0,0,1,1.5,0V26.13A5.76,5.76,0,0,1,23.77,31.88Z"/><path class="cls-1" d="M29.54,6.64a.5.5,0,0,1-.35-.14L25.44,2.79a.5.5,0,0,1,0-.71L26.93.6a1.8,1.8,0,0,1,2.53,0l1.93,1.91a1.77,1.77,0,0,1,0,2.52L29.9,6.5A.5.5,0,0,1,29.54,6.64Zm-3-4.21,3,3,1.14-1.13a.77.77,0,0,0,0-1.09L28.76,1.31a.8.8,0,0,0-1.12,0Z"/><path class="cls-2" d="M14.32,21.69a.5.5,0,0,1-.49-.6,2.62,2.62,0,0,0-1-2.16,2.68,2.68,0,0,0-2.2-1,.51.51,0,0,1-.53-.26.5.5,0,0,1,.09-.58L23.92,3.58a.5.5,0,0,1,.7,0l3.75,3.71a.5.5,0,0,1,0,.71L14.67,21.55A.5.5,0,0,1,14.32,21.69Zm-2.64-4.61a4.31,4.31,0,0,1,1.88,1.14,4.25,4.25,0,0,1,1.16,1.87L27.31,7.64l-3-3Z"/><path class="cls-1" d="M6.89,24.84l3.29-7.71.58-.14,0,0a3.6,3.6,0,0,1,2.83,1.27,3.17,3.17,0,0,1,1.18,2.83l-.08.43-.29.15Zm4-6.84L8.78,23l5-2.11c0-.25,0-.93-.92-1.88A2.68,2.68,0,0,0,10.9,18Z"/><path class="cls-2" d="M20.38,12a.5.5,0,0,1-.35-.85l5.77-5.72a.5.5,0,1,1,.7.71l-5.77,5.72A.5.5,0,0,1,20.38,12Z"/></svg>