<svg id="expanded" xmlns="http://www.w3.org/2000/svg" viewBox="0 0 32 32"><defs><style>.cls-1{fill:#54a4da;}.cls-2{fill:#4d4c4c;}</style></defs><title>envelope</title><path class="cls-1" d="M31.14,25.57a.49.49,0,0,1-.29-.09L18.72,16.73a.5.5,0,1,1,.58-.81l12.13,8.75a.5.5,0,0,1-.29.91Z"/><path class="cls-1" d="M.86,25.57a.5.5,0,0,1-.29-.91l12.13-8.79a.5.5,0,0,1,.59.81L1.15,25.48A.5.5,0,0,1,.86,25.57Z"/><path class="cls-2" d="M16,19.09a3.1,3.1,0,0,1-2.21-.91L1,5.43A.75.75,0,1,1,2.05,4.37l12.8,12.75a1.66,1.66,0,0,0,2.29,0L29.92,4.34A.75.75,0,0,1,31,5.4L18.21,18.18A3.1,3.1,0,0,1,16,19.09Z"/><path class="cls-2" d="M28.82,28.55H3.18A3.08,3.08,0,0,1,.11,25.47V6.53A3.08,3.08,0,0,1,3.18,3.45H28.82a3.08,3.08,0,0,1,3.07,3.08V25.47A3.08,3.08,0,0,1,28.82,28.55ZM3.18,5A1.58,1.58,0,0,0,1.61,6.53V25.47A1.58,1.58,0,0,0,3.18,27H28.82a1.58,1.58,0,0,0,1.57-1.58V6.53A1.58,1.58,0,0,0,28.82,5Z"/><path class="cls-1" d="M31.14,25.57a.49.49,0,0,1-.29-.09L18.72,16.73a.5.5,0,1,1,.58-.81l12.13,8.75a.5.5,0,0,1-.29.91Z"/><path class="cls-1" d="M.86,25.57a.5.5,0,0,1-.29-.91l12.13-8.79a.5.5,0,0,1,.59.81L1.15,25.48A.5.5,0,0,1,.86,25.57Z"/><path class="cls-2" d="M16,19.09a3.1,3.1,0,0,1-2.21-.91L1,5.43A.75.75,0,1,1,2.05,4.37l12.8,12.75a1.66,1.66,0,0,0,2.29,0L29.92,4.34A.75.75,0,0,1,31,5.4L18.21,18.18A3.1,3.1,0,0,1,16,19.09Z"/><path class="cls-2" d="M28.82,28.55H3.18A3.08,3.08,0,0,1,.11,25.47V6.53A3.08,3.08,0,0,1,3.18,3.45H28.82a3.08,3.08,0,0,1,3.07,3.08V25.47A3.08,3.08,0,0,1,28.82,28.55ZM3.18,5A1.58,1.58,0,0,0,1.61,6.53V25.47A1.58,1.58,0,0,0,3.18,27H28.82a1.58,1.58,0,0,0,1.57-1.58V6.53A1.58,1.58,0,0,0,28.82,5Z"/></svg>