<svg id="expanded" xmlns="http://www.w3.org/2000/svg" viewBox="0 0 32 32"><defs><style>.cls-1{fill:#4d4c4c;}.cls-2{fill:#54a4da;}</style></defs><title>fax_print</title><path class="cls-1" d="M29.78,24.72H26a.75.75,0,0,1,0-1.5h3.82a.47.47,0,0,0,.46-.46V11.36a3,3,0,0,0-3-3H4.74a3,3,0,0,0-3,3V22.75a.47.47,0,0,0,.46.46H6a.75.75,0,1,1,0,1.5H2.22a2,2,0,0,1-2-2V11.36A4.48,4.48,0,0,1,4.74,6.88H27.26a4.48,4.48,0,0,1,4.48,4.48V22.75A2,2,0,0,1,29.78,24.72Z"/><path class="cls-1" d="M25.47,8.38a.75.75,0,0,1-.75-.75V2.19H7.28V7.63a.75.75,0,0,1-1.5,0V.69H26.22V7.63A.75.75,0,0,1,25.47,8.38Z"/><polygon class="cls-1" points="20.67 25.27 25.96 25.27 20.67 30.56 20.67 25.27"/><path class="cls-2" d="M22.5,21H9.42a.5.5,0,0,1,0-1H22.5a.5.5,0,0,1,0,1Z"/><path class="cls-2" d="M16,23.38H9.42a.5.5,0,1,1,0-1H16a.5.5,0,0,1,0,1Z"/><path class="cls-2" d="M12.18,25.77H9.42a.5.5,0,1,1,0-1h2.75a.5.5,0,0,1,0,1Z"/><path class="cls-1" d="M20.67,30.58H6V17.75a.5.5,0,0,1,1,0V29.58H20.25L25,24.84V17.75a.5.5,0,0,1,1,0v7.51Z"/><path class="cls-1" d="M26.24,18.32H5.76a.75.75,0,0,1,0-1.5H26.24a.75.75,0,0,1,0,1.5Z"/><path class="cls-2" d="M26.17,14.27A1.13,1.13,0,0,1,25,13.14a1.1,1.1,0,0,1,.33-.79,1.16,1.16,0,0,1,1.59,0,1.1,1.1,0,0,1,.33.79,1.11,1.11,0,0,1-.33.8,1.25,1.25,0,0,1-.36.24A1.06,1.06,0,0,1,26.17,14.27Z"/><path class="cls-1" d="M29.78,24.72H26a.75.75,0,0,1,0-1.5h3.82a.47.47,0,0,0,.46-.46V11.36a3,3,0,0,0-3-3H4.74a3,3,0,0,0-3,3V22.75a.47.47,0,0,0,.46.46H6a.75.75,0,1,1,0,1.5H2.22a2,2,0,0,1-2-2V11.36A4.48,4.48,0,0,1,4.74,6.88H27.26a4.48,4.48,0,0,1,4.48,4.48V22.75A2,2,0,0,1,29.78,24.72Z"/><path class="cls-1" d="M25.47,8.38a.75.75,0,0,1-.75-.75V2.19H7.28V7.63a.75.75,0,0,1-1.5,0V.69H26.22V7.63A.75.75,0,0,1,25.47,8.38Z"/><polygon class="cls-1" points="20.67 25.27 25.96 25.27 20.67 30.56 20.67 25.27"/><path class="cls-2" d="M22.5,21H9.42a.5.5,0,0,1,0-1H22.5a.5.5,0,0,1,0,1Z"/><path class="cls-2" d="M16,23.38H9.42a.5.5,0,1,1,0-1H16a.5.5,0,0,1,0,1Z"/><path class="cls-2" d="M12.18,25.77H9.42a.5.5,0,1,1,0-1h2.75a.5.5,0,0,1,0,1Z"/><path class="cls-1" d="M20.67,30.58H6V17.75a.5.5,0,0,1,1,0V29.58H20.25L25,24.84V17.75a.5.5,0,0,1,1,0v7.51Z"/><path class="cls-1" d="M26.24,18.32H5.76a.75.75,0,0,1,0-1.5H26.24a.75.75,0,0,1,0,1.5Z"/><path class="cls-2" d="M26.17,14.27A1.13,1.13,0,0,1,25,13.14a1.1,1.1,0,0,1,.33-.79,1.16,1.16,0,0,1,1.59,0,1.1,1.1,0,0,1,.33.79,1.11,1.11,0,0,1-.33.8,1.25,1.25,0,0,1-.36.24A1.06,1.06,0,0,1,26.17,14.27Z"/></svg>