<svg id="expanded_thinner" data-name="expanded thinner" xmlns="http://www.w3.org/2000/svg" viewBox="0 0 32 32"><defs><style>.cls-1{fill:#4c4c4c;}.cls-2{fill:#54a4da;}.cls-3{fill:none;stroke:#54a4da;stroke-linecap:round;stroke-miterlimit:10;stroke-width:2.25px;}</style></defs><title>fax_print</title><path class="cls-1" d="M29.78,24.47H26a.5.5,0,0,1,0-1h3.82a.71.71,0,0,0,.71-.71V11.36a3.23,3.23,0,0,0-3.23-3.23H4.74a3.23,3.23,0,0,0-3.23,3.23V22.75a.71.71,0,0,0,.71.71H6a.5.5,0,1,1,0,1H2.22A1.72,1.72,0,0,1,.51,22.75V11.36A4.23,4.23,0,0,1,4.74,7.13H27.26a4.23,4.23,0,0,1,4.23,4.23V22.75A1.72,1.72,0,0,1,29.78,24.47Z"/><path class="cls-1" d="M25.47,8.13a.5.5,0,0,1-.5-.5V1.94H7v5.7a.5.5,0,0,1-1,0V.94H26v6.7A.5.5,0,0,1,25.47,8.13Z"/><polygon class="cls-1" points="20.67 25.27 25.96 25.27 20.67 30.56 20.67 25.27"/><path class="cls-2" d="M22.5,20.88H9.42a.38.38,0,0,1,0-.75H22.5a.38.38,0,0,1,0,.75Z"/><path class="cls-2" d="M16,23.26H9.42a.38.38,0,1,1,0-.75H16a.38.38,0,0,1,0,.75Z"/><path class="cls-2" d="M12.18,25.64H9.42a.38.38,0,1,1,0-.75h2.75a.37.37,0,0,1,0,.75Z"/><path class="cls-1" d="M20.62,30.45H6.15V17.75a.37.37,0,0,1,.75,0v12H20.31l4.79-4.81V17.75a.38.38,0,0,1,.75,0V25.2Z"/><path class="cls-1" d="M26.24,18.07H5.76a.5.5,0,0,1,0-1H26.24a.5.5,0,0,1,0,1Z"/><line class="cls-3" x1="26.17" y1="13.14" x2="26.17" y2="13.14"/><path class="cls-1" d="M29.78,24.47H26a.5.5,0,0,1,0-1h3.82a.71.71,0,0,0,.71-.71V11.36a3.23,3.23,0,0,0-3.23-3.23H4.74a3.23,3.23,0,0,0-3.23,3.23V22.75a.71.71,0,0,0,.71.71H6a.5.5,0,1,1,0,1H2.22A1.72,1.72,0,0,1,.51,22.75V11.36A4.23,4.23,0,0,1,4.74,7.13H27.26a4.23,4.23,0,0,1,4.23,4.23V22.75A1.72,1.72,0,0,1,29.78,24.47Z"/><path class="cls-1" d="M25.47,8.13a.5.5,0,0,1-.5-.5V1.94H7v5.7a.5.5,0,0,1-1,0V.94H26v6.7A.5.5,0,0,1,25.47,8.13Z"/><polygon class="cls-1" points="20.67 25.27 25.96 25.27 20.67 30.56 20.67 25.27"/><path class="cls-2" d="M22.5,20.88H9.42a.38.38,0,0,1,0-.75H22.5a.38.38,0,0,1,0,.75Z"/><path class="cls-2" d="M16,23.26H9.42a.38.38,0,1,1,0-.75H16a.38.38,0,0,1,0,.75Z"/><path class="cls-2" d="M12.18,25.64H9.42a.38.38,0,1,1,0-.75h2.75a.37.37,0,0,1,0,.75Z"/><path class="cls-1" d="M20.62,30.45H6.15V17.75a.37.37,0,0,1,.75,0v12H20.31l4.79-4.81V17.75a.38.38,0,0,1,.75,0V25.2Z"/><path class="cls-1" d="M26.24,18.07H5.76a.5.5,0,0,1,0-1H26.24a.5.5,0,0,1,0,1Z"/><line class="cls-3" x1="26.17" y1="13.14" x2="26.17" y2="13.14"/></svg>