<svg id="expanded" xmlns="http://www.w3.org/2000/svg" viewBox="0 0 32 32"><defs><style>.cls-1{fill:#4d4c4c;}</style></defs><title>firstaid</title><path class="cls-1" d="M18.74,31.88H13.26a2.72,2.72,0,0,1-2.72-2.72V21.45H2.84A2.72,2.72,0,0,1,.13,18.74V13.26a2.72,2.72,0,0,1,2.71-2.72h7.71V2.84A2.72,2.72,0,0,1,13.26.13h5.47a2.72,2.72,0,0,1,2.72,2.72v7.71h7.71a2.72,2.72,0,0,1,2.71,2.72v5.47a2.72,2.72,0,0,1-2.71,2.72H21.45v7.71A2.72,2.72,0,0,1,18.74,31.88ZM2.84,12.06a1.2,1.2,0,0,0-1.2,1.2v5.47a1.2,1.2,0,0,0,1.2,1.2H11.3a.76.76,0,0,1,.76.76v8.46a1.21,1.21,0,0,0,1.2,1.2h5.47a1.21,1.21,0,0,0,1.2-1.2V20.7a.76.76,0,0,1,.76-.76h8.46a1.2,1.2,0,0,0,1.2-1.2V13.26a1.2,1.2,0,0,0-1.2-1.2H20.7a.76.76,0,0,1-.76-.76V2.84a1.21,1.21,0,0,0-1.2-1.2H13.26a1.21,1.21,0,0,0-1.2,1.2V11.3a.76.76,0,0,1-.76.76Z"/><path class="cls-1" d="M18.74,31.88H13.26a2.72,2.72,0,0,1-2.72-2.72V21.45H2.84A2.72,2.72,0,0,1,.13,18.74V13.26a2.72,2.72,0,0,1,2.71-2.72h7.71V2.84A2.72,2.72,0,0,1,13.26.13h5.47a2.72,2.72,0,0,1,2.72,2.72v7.71h7.71a2.72,2.72,0,0,1,2.71,2.72v5.47a2.72,2.72,0,0,1-2.71,2.72H21.45v7.71A2.72,2.72,0,0,1,18.74,31.88ZM2.84,12.06a1.2,1.2,0,0,0-1.2,1.2v5.47a1.2,1.2,0,0,0,1.2,1.2H11.3a.76.76,0,0,1,.76.76v8.46a1.21,1.21,0,0,0,1.2,1.2h5.47a1.21,1.21,0,0,0,1.2-1.2V20.7a.76.76,0,0,1,.76-.76h8.46a1.2,1.2,0,0,0,1.2-1.2V13.26a1.2,1.2,0,0,0-1.2-1.2H20.7a.76.76,0,0,1-.76-.76V2.84a1.21,1.21,0,0,0-1.2-1.2H13.26a1.21,1.21,0,0,0-1.2,1.2V11.3a.76.76,0,0,1-.76.76Z"/></svg>