<svg id="expanded" xmlns="http://www.w3.org/2000/svg" viewBox="0 0 32 32"><defs><style>.cls-1{fill:none;stroke:#4d4c4c;stroke-linecap:round;stroke-linejoin:round;stroke-width:1.5px;}</style></defs><title>gears</title><path class="cls-1" d="M13.58,1.23h4.84q1.49,0,1.49,1.4V6a10.86,10.86,0,0,1,3.32,1.82l3-1.61a1.34,1.34,0,0,1,2,.52l2.49,4a1.21,1.21,0,0,1-.53,1.92l-3,1.61c.06.44.08.88.11,1.33V16a10,10,0,0,1-.17,1.84l3,1.66a1.48,1.48,0,0,1,.77.75,1.25,1.25,0,0,1-.05.83,1.24,1.24,0,0,1-.17.34l-2.49,4a1.37,1.37,0,0,1-2,.49l-3.12-1.69-1,.7a13.31,13.31,0,0,1-2.15,1v3.43q0,1.4-1.49,1.4H13.58q-1.49,0-1.49-1.4V26a11.44,11.44,0,0,1-3.32-1.82l-3,1.58a1.36,1.36,0,0,1-2-.49l-2.49-4a.43.43,0,0,0-.08-.16c-.39-.75-.17-1.32.64-1.76l3-1.64a10.77,10.77,0,0,1-.14-1.32V16a10,10,0,0,1,.17-1.84l-3-1.64a1.44,1.44,0,0,1-.75-.78,1.29,1.29,0,0,1,.19-1.14L3.79,6.58a1.34,1.34,0,0,1,2-.52L8.93,7.75c.33-.23.66-.47,1-.68a11.56,11.56,0,0,1,2.16-1V2.63Q12.08,1.23,13.58,1.23Z"/><path class="cls-1" d="M15.81,11.22A4.84,4.84,0,0,0,11,16.08a4.63,4.63,0,0,0,1.42,3.42,4.8,4.8,0,0,0,6.86,0,4.65,4.65,0,0,0,1.44-3.42,4.71,4.71,0,0,0-1.44-3.45A4.66,4.66,0,0,0,15.81,11.22Z"/><path class="cls-1" d="M13.58,1.23h4.84q1.49,0,1.49,1.4V6a10.86,10.86,0,0,1,3.32,1.82l3-1.61a1.34,1.34,0,0,1,2,.52l2.49,4a1.21,1.21,0,0,1-.53,1.92l-3,1.61c.06.44.08.88.11,1.33V16a10,10,0,0,1-.17,1.84l3,1.66a1.48,1.48,0,0,1,.77.75,1.25,1.25,0,0,1-.05.83,1.24,1.24,0,0,1-.17.34l-2.49,4a1.37,1.37,0,0,1-2,.49l-3.12-1.69-1,.7a13.31,13.31,0,0,1-2.15,1v3.43q0,1.4-1.49,1.4H13.58q-1.49,0-1.49-1.4V26a11.44,11.44,0,0,1-3.32-1.82l-3,1.58a1.36,1.36,0,0,1-2-.49l-2.49-4a.43.43,0,0,0-.08-.16c-.39-.75-.17-1.32.64-1.76l3-1.64a10.77,10.77,0,0,1-.14-1.32V16a10,10,0,0,1,.17-1.84l-3-1.64a1.44,1.44,0,0,1-.75-.78,1.29,1.29,0,0,1,.19-1.14L3.79,6.58a1.34,1.34,0,0,1,2-.52L8.93,7.75c.33-.23.66-.47,1-.68a11.56,11.56,0,0,1,2.16-1V2.63Q12.08,1.23,13.58,1.23Z"/><path class="cls-1" d="M15.81,11.22A4.84,4.84,0,0,0,11,16.08a4.63,4.63,0,0,0,1.42,3.42,4.8,4.8,0,0,0,6.86,0,4.65,4.65,0,0,0,1.44-3.42,4.71,4.71,0,0,0-1.44-3.45A4.66,4.66,0,0,0,15.81,11.22Z"/></svg>