<?xml version="1.0" encoding="UTF-8"?>
<svg width="32px" height="32px" viewBox="0 0 32 32" version="1.1" xmlns="http://www.w3.org/2000/svg" xmlns:xlink="http://www.w3.org/1999/xlink">
    <!-- Generator: Sketch 40 (33762) - http://www.bohemiancoding.com/sketch -->
    <title>Google+</title>
    <desc>Created with Sketch.</desc>
    <defs>
        <linearGradient x1="27.8723188%" y1="16.6466408%" x2="82.0938391%" y2="75.9120692%" id="linearGradient-1">
            <stop stop-color="#000000" offset="0%"></stop>
            <stop stop-color="#DC4E41" offset="100%"></stop>
        </linearGradient>
    </defs>
    <g id="Navigation" stroke="none" stroke-width="1" fill="none" fill-rule="evenodd">
        <g id="Contact-Us-menu" transform="translate(-627.000000, -62.000000)">
            <g id="Google+" transform="translate(627.000000, 62.000000)">
                <g id="Group-2">
                    <polygon id="Fill-1" fill="#DC4E41" points="0 31.7394506 31.7393735 31.7394506 31.7393735 7.71084337e-05 0 7.71084337e-05"></polygon>
                    <polygon id="Fill-2" fill-opacity="0.08" fill="url(#linearGradient-1)" points="10.5099181 10.7990747 7.6037012 13.6482313 6.8630747 19.1757494 19.3106892 31.739412 31.739412 31.739412 31.739412 20.5783518 23.6160386 12.3948337 22.9320867 12.7368096 22.8750265 15.2439904 20.1403759 14.787894 16.493147 11.0269301 13.7010506 10.6853398"></polygon>
                    <path d="M23.6597205,14.5872193 L23.6597205,12.3765205 L22.0516241,12.3765205 L22.0516241,14.5872193 L19.8409253,14.5872193 L19.8409253,16.1953157 L22.0516241,16.1953157 L22.0516241,18.4060145 L23.6597205,18.4060145 L23.6597205,16.1953157 L25.8704193,16.1953157 L25.8704193,14.5872193 L23.6597205,14.5872193 Z M18.3939855,14.3863518 L15.6986602,14.3863518 L12.1231422,14.3863518 L12.1231422,17.0392675 L15.6986602,17.0392675 C15.1635277,18.4488096 13.8006361,19.4512193 12.2033349,19.4512193 C10.1387566,19.4512193 8.46511807,17.7775807 8.46511807,15.7126169 C8.46511807,13.6480386 10.1387566,11.9744 12.2033349,11.9744 C13.1232386,11.9744 13.9648771,12.3075084 14.6160578,12.8588337 L16.4878651,11.0259663 C15.358612,9.99271325 13.8549976,9.36158072 12.2033349,9.36158072 C8.69567229,9.36158072 5.85191325,12.2049542 5.85191325,15.7126169 C5.85191325,19.2202795 8.69567229,22.0640386 12.2033349,22.0640386 C15.7109976,22.0640386 18.5547566,19.2202795 18.5547566,15.7126169 C18.5547566,15.2576771 18.5061783,14.8143036 18.4155759,14.3863518 L18.3939855,14.3863518 Z" id="Fill-3" fill="#FEFEFE"></path>
                </g>
            </g>
        </g>
    </g>
</svg>