<svg id="expanded" xmlns="http://www.w3.org/2000/svg" viewBox="0 0 32 32"><defs><style>.cls-1{fill:#54a4da;}.cls-2{fill:#4d4c4c;}</style></defs><title>gradcap</title><path class="cls-1" d="M2.71,19.21a.5.5,0,0,1-.5-.5V12.64a.5.5,0,0,1,1,0v6.07A.5.5,0,0,1,2.71,19.21Z"/><path class="cls-1" d="M4.24,23.37H1.17a.5.5,0,0,1-.5-.5V20a.5.5,0,0,1,.17-.38l1.53-1.34a.5.5,0,0,1,.66,0l1.53,1.34a.5.5,0,0,1,.17.38v2.83A.5.5,0,0,1,4.24,23.37Zm-2.56-1H3.74v-2.1l-1-.9-1,.9Z"/><path class="cls-2" d="M16,26c-5.92,0-8.57-2.44-8.68-2.54a.75.75,0,0,1-.24-.54l-.06-8.14a.75.75,0,0,1,1-.71L16,17l7.88-2.86a.75.75,0,0,1,1,.7l.06,8.12a.75.75,0,0,1-.24.55C24.6,23.56,21.94,26,16,26ZM8.61,22.55c.71.52,3.08,1.95,7.42,1.95s6.7-1.42,7.41-1.94l0-6.69-7.13,2.59a.76.76,0,0,1-.51,0L8.56,15.85Z"/><path class="cls-2" d="M16,18.51a.76.76,0,0,1-.26,0L.61,13a.75.75,0,0,1,0-1.41L15.74,6a.76.76,0,0,1,.51,0l15.14,5.5a.75.75,0,0,1,0,1.41l-15.14,5.5A.76.76,0,0,1,16,18.51ZM3.06,12.25,16,17l12.94-4.71L16,7.55Z"/><path class="cls-1" d="M2.71,19.21a.5.5,0,0,1-.5-.5V12.64a.5.5,0,0,1,1,0v6.07A.5.5,0,0,1,2.71,19.21Z"/><path class="cls-1" d="M4.24,23.37H1.17a.5.5,0,0,1-.5-.5V20a.5.5,0,0,1,.17-.38l1.53-1.34a.5.5,0,0,1,.66,0l1.53,1.34a.5.5,0,0,1,.17.38v2.83A.5.5,0,0,1,4.24,23.37Zm-2.56-1H3.74v-2.1l-1-.9-1,.9Z"/><path class="cls-2" d="M16,26c-5.92,0-8.57-2.44-8.68-2.54a.75.75,0,0,1-.24-.54l-.06-8.14a.75.75,0,0,1,1-.71L16,17l7.88-2.86a.75.75,0,0,1,1,.7l.06,8.12a.75.75,0,0,1-.24.55C24.6,23.56,21.94,26,16,26ZM8.61,22.55c.71.52,3.08,1.95,7.42,1.95s6.7-1.42,7.41-1.94l0-6.69-7.13,2.59a.76.76,0,0,1-.51,0L8.56,15.85Z"/><path class="cls-2" d="M16,18.51a.76.76,0,0,1-.26,0L.61,13a.75.75,0,0,1,0-1.41L15.74,6a.76.76,0,0,1,.51,0l15.14,5.5a.75.75,0,0,1,0,1.41l-15.14,5.5A.76.76,0,0,1,16,18.51ZM3.06,12.25,16,17l12.94-4.71L16,7.55Z"/></svg>