<svg id="expanded" xmlns="http://www.w3.org/2000/svg" viewBox="0 0 32 32"><defs><style>.cls-1{fill:#4d4c4c;}</style></defs><title>magazine</title><path class="cls-1" d="M16,29.64a.75.75,0,0,1-.75-.75V7.18a.75.75,0,0,1,.32-.61A22.33,22.33,0,0,1,31.13,2.51a.75.75,0,0,1,.66.74V24.63a.75.75,0,0,1-.84.74A21,21,0,0,0,16.43,29.5.75.75,0,0,1,16,29.64Zm.75-22.06V27.48a22.43,22.43,0,0,1,13.54-3.68V3.93A20.87,20.87,0,0,0,16.75,7.57Z"/><path class="cls-1" d="M16,29.64a.75.75,0,0,1-.43-.14A21,21,0,0,0,1.05,25.38a.75.75,0,0,1-.84-.74V3.26a.75.75,0,0,1,.66-.74A22.33,22.33,0,0,1,16.43,6.57a.75.75,0,0,1,.32.61V28.89a.75.75,0,0,1-.75.75ZM3.11,23.76a22.83,22.83,0,0,1,12.14,3.73V7.57A20.85,20.85,0,0,0,1.71,3.93V23.81Q2.41,23.76,3.11,23.76Z"/><path class="cls-1" d="M16,29.64a.75.75,0,0,1-.75-.75V7.18a.75.75,0,0,1,.32-.61A22.33,22.33,0,0,1,31.13,2.51a.75.75,0,0,1,.66.74V24.63a.75.75,0,0,1-.84.74A21,21,0,0,0,16.43,29.5.75.75,0,0,1,16,29.64Zm.75-22.06V27.48a22.43,22.43,0,0,1,13.54-3.68V3.93A20.87,20.87,0,0,0,16.75,7.57Z"/><path class="cls-1" d="M16,29.64a.75.75,0,0,1-.43-.14A21,21,0,0,0,1.05,25.38a.75.75,0,0,1-.84-.74V3.26a.75.75,0,0,1,.66-.74A22.33,22.33,0,0,1,16.43,6.57a.75.75,0,0,1,.32.61V28.89a.75.75,0,0,1-.75.75ZM3.11,23.76a22.83,22.83,0,0,1,12.14,3.73V7.57A20.85,20.85,0,0,0,1.71,3.93V23.81Q2.41,23.76,3.11,23.76Z"/></svg>