<svg id="expanded" xmlns="http://www.w3.org/2000/svg" viewBox="0 0 32 32"><defs><style>.cls-1{fill:#4d4c4c;}</style></defs><title>magnify</title><path class="cls-1" d="M31,31.71a.75.75,0,0,1-.53-.22L22.2,23.26a.75.75,0,1,1,1.06-1.06l8.22,8.22A.75.75,0,0,1,31,31.71Z"/><path class="cls-1" d="M13.53,26.77A13.24,13.24,0,1,1,26.77,13.53,13.26,13.26,0,0,1,13.53,26.77Zm0-25A11.74,11.74,0,1,0,25.27,13.53,11.75,11.75,0,0,0,13.53,1.79Z"/><path class="cls-1" d="M31,31.71a.75.75,0,0,1-.53-.22L22.2,23.26a.75.75,0,1,1,1.06-1.06l8.22,8.22A.75.75,0,0,1,31,31.71Z"/><path class="cls-1" d="M13.53,26.77A13.24,13.24,0,1,1,26.77,13.53,13.26,13.26,0,0,1,13.53,26.77Zm0-25A11.74,11.74,0,1,0,25.27,13.53,11.75,11.75,0,0,0,13.53,1.79Z"/></svg>