<svg id="expanded" xmlns="http://www.w3.org/2000/svg" viewBox="0 0 32 32"><defs><style>.cls-1{fill:#4d4c4c;}.cls-2{fill:#54a4da;}</style></defs><title>magnify2</title><path class="cls-1" d="M13.53,26.77A13.24,13.24,0,1,1,26.77,13.53,13.26,13.26,0,0,1,13.53,26.77Zm0-25A11.74,11.74,0,1,0,25.27,13.53,11.75,11.75,0,0,0,13.53,1.79Z"/><path class="cls-2" d="M22.74,12.44a.5.5,0,0,1-.49-.42A8.85,8.85,0,0,0,15.76,5,.5.5,0,0,1,16,4a9.85,9.85,0,0,1,7.23,7.85.5.5,0,0,1-.41.58Z"/><path class="cls-1" d="M31,31.71a.75.75,0,0,1-.53-.22L22.2,23.26a.75.75,0,1,1,1.06-1.06l8.22,8.22A.75.75,0,0,1,31,31.71Z"/><path class="cls-1" d="M13.53,26.77A13.24,13.24,0,1,1,26.77,13.53,13.26,13.26,0,0,1,13.53,26.77Zm0-25A11.74,11.74,0,1,0,25.27,13.53,11.75,11.75,0,0,0,13.53,1.79Z"/><path class="cls-2" d="M22.74,12.44a.5.5,0,0,1-.49-.42A8.85,8.85,0,0,0,15.76,5,.5.5,0,0,1,16,4a9.85,9.85,0,0,1,7.23,7.85.5.5,0,0,1-.41.58Z"/><path class="cls-1" d="M31,31.71a.75.75,0,0,1-.53-.22L22.2,23.26a.75.75,0,1,1,1.06-1.06l8.22,8.22A.75.75,0,0,1,31,31.71Z"/></svg>