<svg id="expanded_thinner" data-name="expanded thinner" xmlns="http://www.w3.org/2000/svg" viewBox="0 0 32 32"><defs><style>.cls-1{fill:#54a4da;}.cls-2{fill:#4c4c4c;}</style></defs><title>map</title><path class="cls-1" d="M30.55,21.18h-.1l-9.59-2.78-9.59,2.78a.38.38,0,0,1-.21,0l-3.4-1a.38.38,0,0,1,.21-.72l3.29,1,9.59-2.78a.38.38,0,0,1,.21,0l9.69,2.81a.38.38,0,0,1-.1.74Z"/><path class="cls-2" d="M5.88,19.65h-.1L1.37,18.36a.38.38,0,0,1,.21-.72L6,18.92a.38.38,0,0,1-.1.74Z"/><path class="cls-2" d="M11.15,30.88a.38.38,0,0,1-.37-.37V11.12a.38.38,0,0,1,.75,0V30.5A.38.38,0,0,1,11.15,30.88Z"/><path class="cls-2" d="M20.85,28.06a.38.38,0,0,1-.37-.37v-3a.38.38,0,0,1,.75,0v3A.38.38,0,0,1,20.85,28.06Z"/><path class="cls-2" d="M20.85,22.43a.38.38,0,0,1-.37-.37V15.92a.38.38,0,0,1,.75,0v6.14A.38.38,0,0,1,20.85,22.43Z"/><path class="cls-2" d="M20.85,16.6l-.34-.31c-.23-.21-5.59-5.22-5.59-9.35a5.93,5.93,0,1,1,11.86,0c0,4.13-5.36,9.14-5.59,9.35Zm0-14.6a4.94,4.94,0,0,0-4.93,4.93c0,3.14,3.76,7.13,4.93,8.29,1.17-1.16,4.93-5.15,4.93-8.29A4.94,4.94,0,0,0,20.85,2Z"/><path class="cls-1" d="M20.85,10.18a3.25,3.25,0,1,1,3.25-3.25A3.25,3.25,0,0,1,20.85,10.18Zm0-5.75a2.5,2.5,0,1,0,2.5,2.5A2.5,2.5,0,0,0,20.85,4.43Z"/><path class="cls-2" d="M30.55,31l-.14,0-9.55-2.77L11.3,31A.52.52,0,0,1,11,31L1.33,28.17A.5.5,0,0,1,1,27.69V18.13A.46.46,0,0,1,1,18V8.31a.5.5,0,0,1,.2-.4.51.51,0,0,1,.44-.08l9.56,2.77L16,9.2a.5.5,0,0,1,.59.27,22.42,22.42,0,0,0,4.27,5.75,22.42,22.42,0,0,0,4.27-5.75.5.5,0,0,1,.59-.27l5,1.44a.5.5,0,0,1,.36.48V30.5a.5.5,0,0,1-.2.4A.49.49,0,0,1,30.55,31ZM2,27.31,11.16,30l9.55-2.77a.52.52,0,0,1,.28,0L30,29.83V11.49l-4.19-1.22a24.68,24.68,0,0,1-4.66,6,.5.5,0,0,1-.68,0,24.69,24.69,0,0,1-4.66-6L11.3,11.6a.59.59,0,0,1-.3,0L2,9v8.9A.46.46,0,0,1,2,18Z"/><path class="cls-1" d="M30.55,21.18h-.1l-9.59-2.78-9.59,2.78a.38.38,0,0,1-.21,0l-3.4-1a.38.38,0,0,1,.21-.72l3.29,1,9.59-2.78a.38.38,0,0,1,.21,0l9.69,2.81a.38.38,0,0,1-.1.74Z"/><path class="cls-2" d="M5.88,19.65h-.1L1.37,18.36a.38.38,0,0,1,.21-.72L6,18.92a.38.38,0,0,1-.1.74Z"/><path class="cls-2" d="M11.15,30.88a.38.38,0,0,1-.37-.37V11.12a.38.38,0,0,1,.75,0V30.5A.38.38,0,0,1,11.15,30.88Z"/><path class="cls-2" d="M20.85,28.06a.38.38,0,0,1-.37-.37v-3a.38.38,0,0,1,.75,0v3A.38.38,0,0,1,20.85,28.06Z"/><path class="cls-2" d="M20.85,22.43a.38.38,0,0,1-.37-.37V15.92a.38.38,0,0,1,.75,0v6.14A.38.38,0,0,1,20.85,22.43Z"/><path class="cls-2" d="M20.85,16.6l-.34-.31c-.23-.21-5.59-5.22-5.59-9.35a5.93,5.93,0,1,1,11.86,0c0,4.13-5.36,9.14-5.59,9.35Zm0-14.6a4.94,4.94,0,0,0-4.93,4.93c0,3.14,3.76,7.13,4.93,8.29,1.17-1.16,4.93-5.15,4.93-8.29A4.94,4.94,0,0,0,20.85,2Z"/><path class="cls-1" d="M20.85,10.18a3.25,3.25,0,1,1,3.25-3.25A3.25,3.25,0,0,1,20.85,10.18Zm0-5.75a2.5,2.5,0,1,0,2.5,2.5A2.5,2.5,0,0,0,20.85,4.43Z"/><path class="cls-2" d="M30.55,31l-.14,0-9.55-2.77L11.3,31A.52.52,0,0,1,11,31L1.33,28.17A.5.5,0,0,1,1,27.69V18.13A.46.46,0,0,1,1,18V8.31a.5.5,0,0,1,.2-.4.51.51,0,0,1,.44-.08l9.56,2.77L16,9.2a.5.5,0,0,1,.59.27,22.42,22.42,0,0,0,4.27,5.75,22.42,22.42,0,0,0,4.27-5.75.5.5,0,0,1,.59-.27l5,1.44a.5.5,0,0,1,.36.48V30.5a.5.5,0,0,1-.2.4A.49.49,0,0,1,30.55,31ZM2,27.31,11.16,30l9.55-2.77a.52.52,0,0,1,.28,0L30,29.83V11.49l-4.19-1.22a24.68,24.68,0,0,1-4.66,6,.5.5,0,0,1-.68,0,24.69,24.69,0,0,1-4.66-6L11.3,11.6a.59.59,0,0,1-.3,0L2,9v8.9A.46.46,0,0,1,2,18Z"/></svg>