<svg id="expanded" xmlns="http://www.w3.org/2000/svg" viewBox="0 0 32 32"><defs><style>.cls-1{fill:#54a4da;}.cls-2{fill:#4d4c4c;}</style></defs><title>map</title><path class="cls-1" d="M30.55,21.31l-.14,0-9.55-2.77L11.3,21.29a.52.52,0,0,1-.28,0l-3.4-1a.5.5,0,1,1,.28-1l3.26.95,9.55-2.77a.52.52,0,0,1,.28,0l9.69,2.81a.5.5,0,0,1-.14,1Z"/><path class="cls-2" d="M5.88,19.78l-.14,0L1.33,18.48A.5.5,0,0,1,1,17.86a.5.5,0,0,1,.62-.34L6,18.8a.5.5,0,0,1-.14,1Z"/><path class="cls-2" d="M11.15,31a.5.5,0,0,1-.5-.5V11.12a.5.5,0,0,1,1,0V30.5A.5.5,0,0,1,11.15,31Z"/><path class="cls-2" d="M20.85,28.19a.5.5,0,0,1-.5-.5v-3a.5.5,0,0,1,1,0v3A.5.5,0,0,1,20.85,28.19Z"/><path class="cls-2" d="M20.85,22.55a.5.5,0,0,1-.5-.5V15.92a.5.5,0,0,1,1,0v6.14A.5.5,0,0,1,20.85,22.55Z"/><path class="cls-2" d="M20.85,16.94l-.51-.47c-.23-.21-5.67-5.29-5.67-9.54A6.18,6.18,0,1,1,27,6.93c0,4.24-5.44,9.32-5.67,9.54Zm0-14.69a4.69,4.69,0,0,0-4.68,4.68c0,2.67,3,6.26,4.68,7.94,1.31-1.32,4.68-5,4.68-7.94A4.69,4.69,0,0,0,20.85,2.25Z"/><path class="cls-1" d="M20.85,10.31a3.38,3.38,0,1,1,3.38-3.37A3.38,3.38,0,0,1,20.85,10.31Zm0-5.75a2.38,2.38,0,1,0,2.38,2.38A2.38,2.38,0,0,0,20.85,4.56Z"/><path class="cls-2" d="M30.55,31.25l-.21,0-9.48-2.75-9.48,2.75a.76.76,0,0,1-.42,0L1.26,28.41a.75.75,0,0,1-.54-.72V18.16A.7.7,0,0,1,.7,18V8.31a.75.75,0,0,1,.3-.6.76.76,0,0,1,.66-.12l9.49,2.75L15.92,9a.75.75,0,0,1,.89.41,21.7,21.7,0,0,0,4,5.5,21.7,21.7,0,0,0,4-5.5A.75.75,0,0,1,25.79,9l5,1.44a.75.75,0,0,1,.54.72V30.5a.75.75,0,0,1-.75.75ZM2.22,27.13l8.94,2.59L20.65,27a.76.76,0,0,1,.42,0L29.8,29.5V11.68L26,10.57a25.28,25.28,0,0,1-4.62,5.89.75.75,0,0,1-1,0,25.29,25.29,0,0,1-4.62-5.89l-4.36,1.26a.83.83,0,0,1-.44,0L2.2,9.31v8.53a.7.7,0,0,1,0,.16Z"/><path class="cls-1" d="M30.55,21.31l-.14,0-9.55-2.77L11.3,21.29a.52.52,0,0,1-.28,0l-3.4-1a.5.5,0,1,1,.28-1l3.26.95,9.55-2.77a.52.52,0,0,1,.28,0l9.69,2.81a.5.5,0,0,1-.14,1Z"/><path class="cls-2" d="M5.88,19.78l-.14,0L1.33,18.48A.5.5,0,0,1,1,17.86a.5.5,0,0,1,.62-.34L6,18.8a.5.5,0,0,1-.14,1Z"/><path class="cls-2" d="M11.15,31a.5.5,0,0,1-.5-.5V11.12a.5.5,0,0,1,1,0V30.5A.5.5,0,0,1,11.15,31Z"/><path class="cls-2" d="M20.85,28.19a.5.5,0,0,1-.5-.5v-3a.5.5,0,0,1,1,0v3A.5.5,0,0,1,20.85,28.19Z"/><path class="cls-2" d="M20.85,22.55a.5.5,0,0,1-.5-.5V15.92a.5.5,0,0,1,1,0v6.14A.5.5,0,0,1,20.85,22.55Z"/><path class="cls-2" d="M20.85,16.94l-.51-.47c-.23-.21-5.67-5.29-5.67-9.54A6.18,6.18,0,1,1,27,6.93c0,4.24-5.44,9.32-5.67,9.54Zm0-14.69a4.69,4.69,0,0,0-4.68,4.68c0,2.67,3,6.26,4.68,7.94,1.31-1.32,4.68-5,4.68-7.94A4.69,4.69,0,0,0,20.85,2.25Z"/><path class="cls-1" d="M20.85,10.31a3.38,3.38,0,1,1,3.38-3.37A3.38,3.38,0,0,1,20.85,10.31Zm0-5.75a2.38,2.38,0,1,0,2.38,2.38A2.38,2.38,0,0,0,20.85,4.56Z"/><path class="cls-2" d="M30.55,31.25l-.21,0-9.48-2.75-9.48,2.75a.76.76,0,0,1-.42,0L1.26,28.41a.75.75,0,0,1-.54-.72V18.16A.7.7,0,0,1,.7,18V8.31a.75.75,0,0,1,.3-.6.76.76,0,0,1,.66-.12l9.49,2.75L15.92,9a.75.75,0,0,1,.89.41,21.7,21.7,0,0,0,4,5.5,21.7,21.7,0,0,0,4-5.5A.75.75,0,0,1,25.79,9l5,1.44a.75.75,0,0,1,.54.72V30.5a.75.75,0,0,1-.75.75ZM2.22,27.13l8.94,2.59L20.65,27a.76.76,0,0,1,.42,0L29.8,29.5V11.68L26,10.57a25.28,25.28,0,0,1-4.62,5.89.75.75,0,0,1-1,0,25.29,25.29,0,0,1-4.62-5.89l-4.36,1.26a.83.83,0,0,1-.44,0L2.2,9.31v8.53a.7.7,0,0,1,0,.16Z"/></svg>