<svg id="expanded_thinner" data-name="expanded thinner" xmlns="http://www.w3.org/2000/svg" viewBox="0 0 32 32"><defs><style>.cls-1{fill:#4c4c4c;}.cls-2{fill:#54a4da;}</style></defs><title>map_location</title><path class="cls-1" d="M16,31.43l-.34-.31C15.2,30.69,4.39,20.59,4.39,12.36a11.61,11.61,0,0,1,23.23,0c0,8.23-10.81,18.33-11.27,18.75ZM16,1.75A10.63,10.63,0,0,0,5.39,12.36c0,7,8.76,15.9,10.61,17.69,1.85-1.8,10.61-10.69,10.61-17.69A10.63,10.63,0,0,0,16,1.75Z"/><path class="cls-2" d="M16,18.62a6.26,6.26,0,1,1,6.26-6.26A6.27,6.27,0,0,1,16,18.62ZM16,6.86a5.51,5.51,0,1,0,5.51,5.51A5.52,5.52,0,0,0,16,6.86Z"/><path class="cls-1" d="M16,31.43l-.34-.31C15.2,30.69,4.39,20.59,4.39,12.36a11.61,11.61,0,0,1,23.23,0c0,8.23-10.81,18.33-11.27,18.75ZM16,1.75A10.63,10.63,0,0,0,5.39,12.36c0,7,8.76,15.9,10.61,17.69,1.85-1.8,10.61-10.69,10.61-17.69A10.63,10.63,0,0,0,16,1.75Z"/><path class="cls-2" d="M16,18.62a6.26,6.26,0,1,1,6.26-6.26A6.27,6.27,0,0,1,16,18.62ZM16,6.86a5.51,5.51,0,1,0,5.51,5.51A5.52,5.52,0,0,0,16,6.86Z"/></svg>