<svg id="expanded" xmlns="http://www.w3.org/2000/svg" viewBox="0 0 32 32"><defs><style>.cls-1{fill:#4d4c4c;}.cls-2{fill:#54a4da;}</style></defs><title>map_destination</title><path class="cls-1" d="M26.31,16.31l-.51-.47c-.21-.19-5.05-4.72-5.05-8.51a5.56,5.56,0,0,1,11.12,0c0,3.79-4.84,8.32-5.05,8.51Zm0-13a4.06,4.06,0,0,0-4.06,4.06c0,2.31,2.58,5.41,4.06,6.91,1.48-1.5,4.06-4.61,4.06-6.91A4.06,4.06,0,0,0,26.31,3.27Z"/><path class="cls-2" d="M26.31,10.38a3,3,0,1,1,3-3A3.05,3.05,0,0,1,26.31,10.38Zm0-5.09a2,2,0,1,0,2,2A2,2,0,0,0,26.31,5.29Z"/><path class="cls-1" d="M5.69,28.37l-.51-.47C5,27.7.13,23.18.13,19.39a5.56,5.56,0,0,1,11.12,0c0,3.79-4.84,8.32-5.05,8.51Zm0-13a4.06,4.06,0,0,0-4.06,4.06c0,2.31,2.58,5.41,4.06,6.91,1.48-1.5,4.06-4.6,4.06-6.91A4.06,4.06,0,0,0,5.69,15.33Z"/><path class="cls-2" d="M5.69,22.43a3,3,0,1,1,3-3A3.05,3.05,0,0,1,5.69,22.43Zm0-5.09a2,2,0,1,0,2,2A2,2,0,0,0,5.69,17.34Z"/><path class="cls-1" d="M5.91,30.23a.75.75,0,0,1-.24-1.46l13.07-4.48H10l9.73-3.83h-3.5l10.08-4.09a.75.75,0,0,1,.56,1.39l-3,1.2h3.72l-9.73,3.83h9.88L6.15,30.19A.76.76,0,0,1,5.91,30.23Z"/><path class="cls-1" d="M26.31,16.31l-.51-.47c-.21-.19-5.05-4.72-5.05-8.51a5.56,5.56,0,0,1,11.12,0c0,3.79-4.84,8.32-5.05,8.51Zm0-13a4.06,4.06,0,0,0-4.06,4.06c0,2.31,2.58,5.41,4.06,6.91,1.48-1.5,4.06-4.61,4.06-6.91A4.06,4.06,0,0,0,26.31,3.27Z"/><path class="cls-2" d="M26.31,10.38a3,3,0,1,1,3-3A3.05,3.05,0,0,1,26.31,10.38Zm0-5.09a2,2,0,1,0,2,2A2,2,0,0,0,26.31,5.29Z"/><path class="cls-1" d="M5.69,28.37l-.51-.47C5,27.7.13,23.18.13,19.39a5.56,5.56,0,0,1,11.12,0c0,3.79-4.84,8.32-5.05,8.51Zm0-13a4.06,4.06,0,0,0-4.06,4.06c0,2.31,2.58,5.41,4.06,6.91,1.48-1.5,4.06-4.6,4.06-6.91A4.06,4.06,0,0,0,5.69,15.33Z"/><path class="cls-2" d="M5.69,22.43a3,3,0,1,1,3-3A3.05,3.05,0,0,1,5.69,22.43Zm0-5.09a2,2,0,1,0,2,2A2,2,0,0,0,5.69,17.34Z"/><path class="cls-1" d="M5.91,30.23a.75.75,0,0,1-.24-1.46l13.07-4.48H10l9.73-3.83h-3.5l10.08-4.09a.75.75,0,0,1,.56,1.39l-3,1.2h3.72l-9.73,3.83h9.88L6.15,30.19A.76.76,0,0,1,5.91,30.23Z"/></svg>