<svg id="expanded" xmlns="http://www.w3.org/2000/svg" viewBox="0 0 32 32"><defs><style>.cls-1{fill:#4d4c4c;}.cls-2{fill:#54a4da;}</style></defs><title>map_location</title><path class="cls-1" d="M16,31.77l-.51-.47C15,30.87,4.14,20.7,4.14,12.36a11.86,11.86,0,0,1,23.73,0C27.86,20.7,17,30.87,16.51,31.3ZM16,2A10.38,10.38,0,0,0,5.64,12.36c0,6.72,8.21,15.23,10.36,17.34,2.15-2.11,10.36-10.63,10.36-17.34A10.38,10.38,0,0,0,16,2Z"/><path class="cls-2" d="M16,18.75a6.38,6.38,0,1,1,6.38-6.38A6.39,6.39,0,0,1,16,18.75ZM16,7a5.38,5.38,0,1,0,5.38,5.38A5.39,5.39,0,0,0,16,7Z"/><path class="cls-1" d="M16,31.77l-.51-.47C15,30.87,4.14,20.7,4.14,12.36a11.86,11.86,0,0,1,23.73,0C27.86,20.7,17,30.87,16.51,31.3ZM16,2A10.38,10.38,0,0,0,5.64,12.36c0,6.72,8.21,15.23,10.36,17.34,2.15-2.11,10.36-10.63,10.36-17.34A10.38,10.38,0,0,0,16,2Z"/><path class="cls-2" d="M16,18.75a6.38,6.38,0,1,1,6.38-6.38A6.39,6.39,0,0,1,16,18.75ZM16,7a5.38,5.38,0,1,0,5.38,5.38A5.39,5.39,0,0,0,16,7Z"/></svg>