<?xml version="1.0" encoding="UTF-8"?>
<svg width="102px" height="70px" viewBox="0 0 102 70" version="1.1" xmlns="http://www.w3.org/2000/svg" xmlns:xlink="http://www.w3.org/1999/xlink">
    <!-- Generator: Sketch 40.3 (33839) - http://www.bohemiancoding.com/sketch -->
    <title>Page 1</title>
    <desc>Created with Sketch.</desc>
    <defs></defs>
    <g id="Support" stroke="none" stroke-width="1" fill="none" fill-rule="evenodd">
        <g id="Support-Copy-2" transform="translate(-667.000000, -1576.000000)">
            <g id="Page-1" transform="translate(668.000000, 1577.000000)">
                <path d="M12,0 L12,64.274688" id="Stroke-1" stroke="#54A5DB" stroke-linecap="round"></path>
                <path d="M53.9285299,33.6557722 C50.2748467,30.002089 44.3609395,29.995177 40.7044915,33.651625" id="Stroke-3" stroke="#54A5DB" stroke-linecap="round"></path>
                <path d="M58.1726362,29.4127718 C52.1730202,23.4131558 42.4616602,23.4020966 36.4592794,29.4058598" id="Stroke-5" stroke="#54A5DB" stroke-linecap="round"></path>
                <path d="M6,34.7742848 L6,29" id="Stroke-7" stroke="#54A5DB" stroke-width="1.5" stroke-linecap="round"></path>
                <path d="M74.5546875,64.4658203 L4.46487552,64.3070362 C2.01664512,64.3070362 0.03151872,62.3219098 0.03151872,59.8736794 L0.03151872,4.46570496 C0.03151872,2.01609216 2.01664512,0.03234816 4.46487552,0.03234816 L86.5904947,0.03234816 C89.0387251,0.03234816 91.0238515,2.01609216 91.0238515,4.46570496 L91.0238515,21.1181641" id="Stroke-9" stroke="#4C4C4C" stroke-width="1.5"></path>
                <path d="M84.2058547,64 L89.9801395,64" id="Stroke-11" stroke="#54A5DB" stroke-width="1.5" stroke-linecap="round"></path>
                <path d="M74.6207078,60 L99.5661158,60" id="Stroke-13" stroke="#54A5DB" stroke-linecap="round"></path>
                <path d="M74.6207078,27 L99.5661158,27" id="Stroke-15" stroke="#54A5DB" stroke-linecap="round"></path>
                <g id="Group-19" transform="translate(74.502400, 21.067415)" stroke="#4C4C4C" stroke-width="1.5">
                    <path d="M22.1438106,0.50327808 C23.7570714,0.50327808 25.0634394,1.81102848 25.0634394,3.42290688 L25.0634394,43.7820749 C25.0634394,45.3953357 23.7570714,46.7030861 22.1438106,46.7030861 L3.03766016,46.7030861 C1.42578176,46.7030861 0.11803136,45.3953357 0.11803136,43.7820749 L0.11803136,3.42290688 C0.11803136,1.81102848 1.42578176,0.50327808 3.03766016,0.50327808 L22.1438106,0.50327808" id="Fill-17"></path>
                </g>
            </g>
        </g>
    </g>
</svg>