<svg id="expanded" xmlns="http://www.w3.org/2000/svg" viewBox="0 0 32 32"><defs><style>.cls-1{fill:#4d4c4c;}.cls-2{fill:#54a4da;}</style></defs><title>monitor</title><path class="cls-1" d="M25.76,26.32a5.49,5.49,0,0,1-5.48-5.48V12.76a5.48,5.48,0,0,1,11,0v8.08A5.49,5.49,0,0,1,25.76,26.32Zm0-17.56a4,4,0,0,0-4,4v8.08a4,4,0,1,0,8,0V12.76A4,4,0,0,0,25.76,8.76Z"/><path class="cls-1" d="M15.72,26.41a.75.75,0,0,1-.75-.75V6.4L9.46,25.7a.87.87,0,0,1-.84.64h0a.88.88,0,0,1-.85-.67L2.26,6.4V25.6a.75.75,0,0,1-1.5,0V1A.75.75,0,0,1,1.4.3a.76.76,0,0,1,.82.54L8.61,23.2,15,.83A.75.75,0,0,1,16.47,1V25.66A.75.75,0,0,1,15.72,26.41ZM8,25.27v0Zm1.18,0v0Z"/><path class="cls-2" d="M29.55,31.5h-28a1,1,0,0,1,0-2h28a1,1,0,0,1,0,2Z"/></svg>