<?xml version="1.0" encoding="UTF-8" standalone="no"?>
<svg width="34px" height="32px" viewBox="0 0 34 32" version="1.1" xmlns="http://www.w3.org/2000/svg" xmlns:xlink="http://www.w3.org/1999/xlink">
    <!-- Generator: Sketch 39.1 (31720) - http://www.bohemiancoding.com/sketch -->
    <title>Monitor</title>
    <desc>Created with Sketch.</desc>
    <defs>
        <polygon id="path-1" points="0.625 1 22.875 1 22.875 0.25 0.625 0.25"></polygon>
    </defs>
    <g id="Products" stroke="none" stroke-width="1" fill="none" fill-rule="evenodd">
        <g transform="translate(-553.000000, -3295.000000)" id="Monitor">
            <g transform="translate(553.000000, 3295.000000)">
                <g id="Page-1">
                    <path d="M20.9135,24.6466 L12.7045,24.6466 C12.5925,26.7016 12.1935,29.1336 10.3685,31.1886 L23.2495,31.1886 C21.4245,29.1336 21.0255,26.7016 20.9135,24.6466 M19.9865,25.6466 C20.1275,27.0576 20.4565,28.6516 21.3175,30.1886 L12.3005,30.1886 C13.1615,28.6526 13.4905,27.0576 13.6315,25.6466 L19.9865,25.6466" id="Fill-1" fill="#4C4C4C"></path>
                    <g id="Group-5" transform="translate(5.000000, 30.521500)">
                        <mask id="mask-2" fill="white">
                            <use xlink:href="#path-1"></use>
                        </mask>
                        <g id="Clip-4"></g>
                        <path d="M0.625,0.25 L22.875,0.25" id="Stroke-3" stroke="#4C4C4C" stroke-width="1.5" stroke-linecap="round" mask="url(#mask-2)"></path>
                    </g>
                    <path d="M32.75,19.3548 L0.749,19.3548" id="Stroke-6" stroke="#54A5DB" stroke-linecap="round"></path>
                    <path d="M30.7607,25.1557 L2.7397,25.1557 C1.6407,25.1557 0.7497,24.2647 0.7497,23.1667 L0.7497,2.7397 C0.7497,1.6407 1.6407,0.7497 2.7397,0.7497 L30.7607,0.7497 C31.8597,0.7497 32.7497,1.6407 32.7497,2.7397 L32.7497,23.1667 C32.7497,24.2647 31.8597,25.1557 30.7607,25.1557 L30.7607,25.1557 Z" id="Stroke-8" stroke="#4C4C4C" stroke-width="1.5" stroke-linejoin="round"></path>
                    <path d="" id="Stroke-10" stroke="#54A5DB" stroke-width="2.25" stroke-linecap="round"></path>
                </g>
            </g>
        </g>
    </g>
</svg>