<svg id="expanded" xmlns="http://www.w3.org/2000/svg" viewBox="0 0 32 32"><defs><style>.cls-1{fill:#4d4c4c;}</style></defs><title>moon</title><path class="cls-1" d="M17,31.82A16.31,16.31,0,0,1,5.15,26.91,16.13,16.13,0,0,1,.27,15.13,16.28,16.28,0,0,1,5.15,3.29a16.68,16.68,0,0,1,4.11-3,.75.75,0,0,1,1,1A14.8,14.8,0,0,0,8.45,8.61a14.76,14.76,0,0,0,4.42,10.73,14.64,14.64,0,0,0,10.78,4.44,14.79,14.79,0,0,0,7-1.63.75.75,0,0,1,1,1,18.23,18.23,0,0,1-2.87,3.72A16.18,16.18,0,0,1,17,31.82ZM7.9,2.89A15.55,15.55,0,0,0,6.22,4.35,14.63,14.63,0,0,0,1.77,15.13,14.68,14.68,0,0,0,6.22,25.85,14.66,14.66,0,0,0,17,30.32a14.73,14.73,0,0,0,10.72-4.47,16.8,16.8,0,0,0,1.23-1.37,16.92,16.92,0,0,1-5.27.8A16.29,16.29,0,0,1,11.81,20.4,16.21,16.21,0,0,1,7,8.61,17,17,0,0,1,7.9,2.89Z"/><path class="cls-1" d="M17,31.82A16.31,16.31,0,0,1,5.15,26.91,16.13,16.13,0,0,1,.27,15.13,16.28,16.28,0,0,1,5.15,3.29a16.68,16.68,0,0,1,4.11-3,.75.75,0,0,1,1,1A14.8,14.8,0,0,0,8.45,8.61a14.76,14.76,0,0,0,4.42,10.73,14.64,14.64,0,0,0,10.78,4.44,14.79,14.79,0,0,0,7-1.63.75.75,0,0,1,1,1,18.23,18.23,0,0,1-2.87,3.72A16.18,16.18,0,0,1,17,31.82ZM7.9,2.89A15.55,15.55,0,0,0,6.22,4.35,14.63,14.63,0,0,0,1.77,15.13,14.68,14.68,0,0,0,6.22,25.85,14.66,14.66,0,0,0,17,30.32a14.73,14.73,0,0,0,10.72-4.47,16.8,16.8,0,0,0,1.23-1.37,16.92,16.92,0,0,1-5.27.8A16.29,16.29,0,0,1,11.81,20.4,16.21,16.21,0,0,1,7,8.61,17,17,0,0,1,7.9,2.89Z"/></svg>