<svg id="expanded_thinner" data-name="expanded thinner" xmlns="http://www.w3.org/2000/svg" viewBox="0 0 32 32"><defs><style>.cls-1{fill:#4c4c4c;}.cls-2{fill:#54a4da;}</style></defs><title>news</title><path class="cls-1" d="M7.39,9.36H.92a.5.5,0,0,1,0-1H7.39a.5.5,0,0,1,0,1Z"/><path class="cls-1" d="M28.18,26.4h-24A3.74,3.74,0,0,1,.42,22.66V8.86a.5.5,0,0,1,1,0v13.8A2.74,2.74,0,0,0,4.3,25.4a2.87,2.87,0,0,0,2.59-2.92V6.1a.5.5,0,0,1,.5-.5H31.08a.5.5,0,0,1,.5.5V23A3.41,3.41,0,0,1,28.18,26.4Zm-21.55-1H28.18a2.41,2.41,0,0,0,2.4-2.4V6.6H7.89V22.48A4,4,0,0,1,6.63,25.4Z"/><path class="cls-1" d="M16.5,15.2H10.23V8.93H16.5Zm-5.27-1H15.5V9.93H11.23Z"/><path class="cls-2" d="M28.45,12.33H18.68a.38.38,0,0,1,0-.75h9.77a.38.38,0,0,1,0,.75Z"/><path class="cls-2" d="M28.45,15.08H18.68a.37.37,0,0,1,0-.75h9.77a.38.38,0,0,1,0,.75Z"/><path class="cls-2" d="M28.45,17.82H10.16a.38.38,0,1,1,0-.75H28.45a.38.38,0,1,1,0,.75Z"/><path class="cls-2" d="M22,20.57H10.16a.38.38,0,1,1,0-.75H22a.38.38,0,0,1,0,.75Z"/><path class="cls-1" d="M7.39,9.36H.92a.5.5,0,0,1,0-1H7.39a.5.5,0,0,1,0,1Z"/><path class="cls-1" d="M28.18,26.4h-24A3.74,3.74,0,0,1,.42,22.66V8.86a.5.5,0,0,1,1,0v13.8A2.74,2.74,0,0,0,4.3,25.4a2.87,2.87,0,0,0,2.59-2.92V6.1a.5.5,0,0,1,.5-.5H31.08a.5.5,0,0,1,.5.5V23A3.41,3.41,0,0,1,28.18,26.4Zm-21.55-1H28.18a2.41,2.41,0,0,0,2.4-2.4V6.6H7.89V22.48A4,4,0,0,1,6.63,25.4Z"/><path class="cls-1" d="M16.5,15.2H10.23V8.93H16.5Zm-5.27-1H15.5V9.93H11.23Z"/><path class="cls-2" d="M28.45,12.33H18.68a.38.38,0,0,1,0-.75h9.77a.38.38,0,0,1,0,.75Z"/><path class="cls-2" d="M28.45,15.08H18.68a.37.37,0,0,1,0-.75h9.77a.38.38,0,0,1,0,.75Z"/><path class="cls-2" d="M28.45,17.82H10.16a.38.38,0,1,1,0-.75H28.45a.38.38,0,1,1,0,.75Z"/><path class="cls-2" d="M22,20.57H10.16a.38.38,0,1,1,0-.75H22a.38.38,0,0,1,0,.75Z"/></svg>