<svg id="expanded" xmlns="http://www.w3.org/2000/svg" viewBox="0 0 32 32"><defs><style>.cls-1{fill:#4d4c4c;}.cls-2{fill:#54a4da;}</style></defs><title>news</title><path class="cls-1" d="M7.39,9.61H.92a.75.75,0,0,1,0-1.5H7.39a.75.75,0,0,1,0,1.5Z"/><path class="cls-1" d="M28.18,26.65h-24a4,4,0,0,1-2.72-1.09A4,4,0,0,1,.17,22.66V8.86a.75.75,0,0,1,1.5,0v13.8a2.49,2.49,0,0,0,2.62,2.48,2.62,2.62,0,0,0,2.35-2.67V6.1a.75.75,0,0,1,.75-.75H31.08a.75.75,0,0,1,.75.75V23A3.66,3.66,0,0,1,28.18,26.65Zm-21-1.5h21A2.15,2.15,0,0,0,30.33,23V6.85H8.14V22.48A4.28,4.28,0,0,1,7.22,25.15Z"/><path class="cls-1" d="M16.75,15.45H10V8.68h6.77Zm-5.27-1.5h3.77V10.18H11.48Z"/><path class="cls-2" d="M28.45,12.45H18.68a.5.5,0,0,1,0-1h9.77a.5.5,0,0,1,0,1Z"/><path class="cls-2" d="M28.45,15.2H18.68a.5.5,0,0,1,0-1h9.77a.5.5,0,0,1,0,1Z"/><path class="cls-2" d="M28.45,17.95H10.16a.5.5,0,1,1,0-1H28.45a.5.5,0,1,1,0,1Z"/><path class="cls-2" d="M22,20.7H10.16a.5.5,0,1,1,0-1H22a.5.5,0,0,1,0,1Z"/><path class="cls-1" d="M7.39,9.61H.92a.75.75,0,0,1,0-1.5H7.39a.75.75,0,0,1,0,1.5Z"/><path class="cls-1" d="M28.18,26.65h-24a4,4,0,0,1-2.72-1.09A4,4,0,0,1,.17,22.66V8.86a.75.75,0,0,1,1.5,0v13.8a2.49,2.49,0,0,0,2.62,2.48,2.62,2.62,0,0,0,2.35-2.67V6.1a.75.75,0,0,1,.75-.75H31.08a.75.75,0,0,1,.75.75V23A3.66,3.66,0,0,1,28.18,26.65Zm-21-1.5h21A2.15,2.15,0,0,0,30.33,23V6.85H8.14V22.48A4.28,4.28,0,0,1,7.22,25.15Z"/><path class="cls-1" d="M16.75,15.45H10V8.68h6.77Zm-5.27-1.5h3.77V10.18H11.48Z"/><path class="cls-2" d="M28.45,12.45H18.68a.5.5,0,0,1,0-1h9.77a.5.5,0,0,1,0,1Z"/><path class="cls-2" d="M28.45,15.2H18.68a.5.5,0,0,1,0-1h9.77a.5.5,0,0,1,0,1Z"/><path class="cls-2" d="M28.45,17.95H10.16a.5.5,0,1,1,0-1H28.45a.5.5,0,1,1,0,1Z"/><path class="cls-2" d="M22,20.7H10.16a.5.5,0,1,1,0-1H22a.5.5,0,0,1,0,1Z"/></svg>