<svg id="expanded" xmlns="http://www.w3.org/2000/svg" viewBox="0 0 32 32"><defs><style>.cls-1{fill:#4d4c4c;}</style></defs><title>person</title><path class="cls-1" d="M28,31.63H4A3.6,3.6,0,0,1,.38,28v-.16A3.59,3.59,0,0,1,3,24.41l.05,0a33.29,33.29,0,0,0,9.17-5.14.72.72,0,0,0,.27-.55.65.65,0,0,0-.21-.48A10.42,10.42,0,0,1,8.64,10C8.64,4.68,12,.38,16,.38s7.4,4.31,7.4,9.6a10.46,10.46,0,0,1-3.67,8.29.69.69,0,0,0-.15.43.66.66,0,0,0,.23.5l.07.07a34.06,34.06,0,0,0,9.15,5.11l.16.09a3.61,3.61,0,0,1,2.39,3.39V28A3.6,3.6,0,0,1,28,31.63ZM3.71,25.72a.75.75,0,0,1-.23.1,2.12,2.12,0,0,0-1.6,2V28A2.1,2.1,0,0,0,4,30.13H28A2.1,2.1,0,0,0,30.13,28v-.16a2.1,2.1,0,0,0-1.57-2,.75.75,0,0,1-.3-.16,33.73,33.73,0,0,1-9.36-5.31l-.06-.06a2.17,2.17,0,0,1,0-3.19A9,9,0,0,0,21.95,10c0-4.47-2.65-8.1-5.9-8.1s-5.9,3.63-5.9,8.1a8.94,8.94,0,0,0,3.07,7.1A2.2,2.2,0,0,1,14,18.71a2.16,2.16,0,0,1-.71,1.61l-.1.09A33.9,33.9,0,0,1,3.71,25.72Z"/><path class="cls-1" d="M16,19.58c-4.08,0-7.4-4.31-7.4-9.6S12,.38,16,.38s7.4,4.31,7.4,9.6S20.13,19.58,16,19.58ZM16,1.88c-3.25,0-5.9,3.63-5.9,8.1s2.65,8.1,5.9,8.1,5.9-3.63,5.9-8.1S19.3,1.88,16,1.88Z"/><path class="cls-1" d="M28,31.63H4A3.6,3.6,0,0,1,.38,28v-.16A3.59,3.59,0,0,1,3,24.41l.05,0a33.29,33.29,0,0,0,9.17-5.14.72.72,0,0,0,.27-.55.65.65,0,0,0-.21-.48A10.42,10.42,0,0,1,8.64,10C8.64,4.68,12,.38,16,.38s7.4,4.31,7.4,9.6a10.46,10.46,0,0,1-3.67,8.29.69.69,0,0,0-.15.43.66.66,0,0,0,.23.5l.07.07a34.06,34.06,0,0,0,9.15,5.11l.16.09a3.61,3.61,0,0,1,2.39,3.39V28A3.6,3.6,0,0,1,28,31.63ZM3.71,25.72a.75.75,0,0,1-.23.1,2.12,2.12,0,0,0-1.6,2V28A2.1,2.1,0,0,0,4,30.13H28A2.1,2.1,0,0,0,30.13,28v-.16a2.1,2.1,0,0,0-1.57-2,.75.75,0,0,1-.3-.16,33.73,33.73,0,0,1-9.36-5.31l-.06-.06a2.17,2.17,0,0,1,0-3.19A9,9,0,0,0,21.95,10c0-4.47-2.65-8.1-5.9-8.1s-5.9,3.63-5.9,8.1a8.94,8.94,0,0,0,3.07,7.1A2.2,2.2,0,0,1,14,18.71a2.16,2.16,0,0,1-.71,1.61l-.1.09A33.9,33.9,0,0,1,3.71,25.72Z"/><path class="cls-1" d="M16,19.58c-4.08,0-7.4-4.31-7.4-9.6S12,.38,16,.38s7.4,4.31,7.4,9.6S20.13,19.58,16,19.58ZM16,1.88c-3.25,0-5.9,3.63-5.9,8.1s2.65,8.1,5.9,8.1,5.9-3.63,5.9-8.1S19.3,1.88,16,1.88Z"/></svg>