<?xml version="1.0" encoding="utf-8"?>
<!-- Generator: Adobe Illustrator 19.2.1, SVG Export Plug-In . SVG Version: 6.00 Build 0)  -->
<svg version="1.1" id="Layer_1" xmlns="http://www.w3.org/2000/svg" xmlns:xlink="http://www.w3.org/1999/xlink" x="0px" y="0px"
	 viewBox="0 0 41 40.9" style="enable-background:new 0 0 41 40.9;" xml:space="preserve">
<style type="text/css">
	.st0{fill-rule:evenodd;clip-rule:evenodd;fill:none;stroke:#55A5DB;stroke-width:1.5;stroke-miterlimit:10;}
	.st1{fill:none;stroke:#FFFFFF;stroke-linecap:round;stroke-miterlimit:10;}
</style>
<g>
	<path class="st0" d="M11.3,3.9c0.6,0.2,1,0.6,1.3,1.1c1.3,2,2.6,3.9,3.8,5.9c0.5,0.7,0.4,1.4-0.2,2.1c-0.4,0.4-0.8,0.7-1.3,1
		c-0.3,0.3-0.7,0.5-1.1,0.8c-0.9,0.8-1.2,1.7-0.9,2.9c0.3,1.1,0.9,2,1.5,2.9c1.9,3.1,4.5,5.4,7.7,7c0.4,0.2,0.9,0.4,1.3,0.5
		c0.9,0.3,1.7,0,2.3-0.8c0.3-0.4,0.6-0.9,1-1.3c0.2-0.3,0.4-0.7,0.7-0.9c0.7-0.8,1.7-0.9,2.6-0.3c1.7,1.1,3.5,2.3,5.2,3.4
		c0.2,0.1,0.4,0.3,0.6,0.4c0.5,0.3,0.9,0.7,1,1.2c0,0.3,0,0.5,0,0.8c0,0,0,0.1,0,0.1c-0.3,1.5-1,2.8-1.9,4c-0.4,0.5-0.8,0.9-1.4,1
		c-1.1,0.2-2.2,0.4-3.3,0.4c-3.9,0.1-7.4-1-10.8-2.9c-4.5-2.5-8.1-5.9-10.9-10.2C7,20,5.7,17,5.2,13.7C5.1,13.1,5.1,12.6,5,12
		c0-0.7,0-1.4,0-2.1C5,9.8,5,9.7,5,9.7C5.1,9,5.2,8.4,5.3,7.7c0.1-0.6,0.3-1.2,0.8-1.6c0.5-0.4,1-0.8,1.5-1.1
		c0.9-0.6,1.9-0.9,2.9-1.1C10.8,3.9,11.1,3.9,11.3,3.9z"/>
	<path class="st1" d="M33.6,18c0-6-4.9-10.9-10.9-10.9"/>
	<path class="st1" d="M29,18c0-3.4-2.8-6.2-6.2-6.2"/>
</g>
</svg>
