<svg id="expanded" xmlns="http://www.w3.org/2000/svg" viewBox="0 0 32 32"><defs><style>.cls-1{fill:#4d4c4c;}.cls-2{fill:#54a4da;}</style></defs><title>phone</title><path class="cls-1" d="M24.45,31.79A20.57,20.57,0,0,1,14.34,29,29.09,29.09,0,0,1,3.87,19.09,22.48,22.48,0,0,1,.42,10.28C.36,9.89.31,9.49.26,9.1L.21,8.63v-2a.75.75,0,0,1,0-.13l0-.14L.51,4.42a2.89,2.89,0,0,1,1-2A14.73,14.73,0,0,1,3,1.39,9.77,9.77,0,0,1,6,.23l.16,0h.71l.18,0A2.78,2.78,0,0,1,8.72,1.55q1,1.58,2.05,3.15l1.54,2.36a2.17,2.17,0,0,1-.26,2.88,8.79,8.79,0,0,1-1,.82L10.8,11l-.48.35c-.17.12-.34.24-.51.37a1.62,1.62,0,0,0-.58,1.89,10.18,10.18,0,0,0,1.28,2.55,17.26,17.26,0,0,0,7,6.3,6.3,6.3,0,0,0,1.1.41A1.22,1.22,0,0,0,20,22.35c.2-.25.38-.51.56-.77l.32-.46L21,20.9a7.73,7.73,0,0,1,.56-.73A2.47,2.47,0,0,1,25,19.73l3.21,2.1,1.91,1.25.32.21a2.62,2.62,0,0,1,1.33,1.63.75.75,0,0,1,0,.19v.76a.75.75,0,0,1-.07.32h0a10.06,10.06,0,0,1-1.88,3.93A2.85,2.85,0,0,1,28,31.42l-.5.08a20.83,20.83,0,0,1-2.71.3ZM6.27,1.71a8.23,8.23,0,0,0-2.47,1,13.24,13.24,0,0,0-1.32,1,1.41,1.41,0,0,0-.49,1L1.75,6.45c0,.08,0,.14,0,.21V8.54l.05.38c0,.38.09.75.15,1.13a21,21,0,0,0,3.23,8.22,27.61,27.61,0,0,0,9.94,9.38,18.85,18.85,0,0,0,9.73,2.63A19.34,19.34,0,0,0,27.32,30l.51-.08c.28,0,.52-.29.82-.69a8.53,8.53,0,0,0,1.63-3.44l0-.08v-.5a1.18,1.18,0,0,0-.6-.63c-.16-.09-.3-.19-.44-.28l-1.87-1.23L24.18,21a1,1,0,0,0-1.47.18,6.13,6.13,0,0,0-.45.59l-.17.24-.3.43c-.2.3-.4.59-.63.87a2.72,2.72,0,0,1-3,1,7.72,7.72,0,0,1-1.37-.51,18.74,18.74,0,0,1-7.57-6.84A11.47,11.47,0,0,1,7.79,14a3.11,3.11,0,0,1,1.08-3.46c.19-.16.39-.3.59-.44l.42-.3.29-.22A7.58,7.58,0,0,0,11,8.88a.68.68,0,0,0,.07-1L9.52,5.52q-1-1.58-2.06-3.16a1.4,1.4,0,0,0-.68-.65Z"/><path class="cls-2" d="M27.86,14.66a.5.5,0,0,1-.5-.5,9.73,9.73,0,0,0-9.72-9.72.5.5,0,0,1,0-1A10.73,10.73,0,0,1,28.36,14.16.5.5,0,0,1,27.86,14.66Z"/><path class="cls-2" d="M23.49,14.66a.5.5,0,0,1-.5-.5,5.35,5.35,0,0,0-5.35-5.35.5.5,0,0,1,0-1A6.35,6.35,0,0,1,24,14.16.5.5,0,0,1,23.49,14.66Z"/><path class="cls-1" d="M24.45,31.79A20.57,20.57,0,0,1,14.34,29,29.09,29.09,0,0,1,3.87,19.09,22.48,22.48,0,0,1,.42,10.28C.36,9.89.31,9.49.26,9.1L.21,8.63v-2a.75.75,0,0,1,0-.13l0-.14L.51,4.42a2.89,2.89,0,0,1,1-2A14.73,14.73,0,0,1,3,1.39,9.77,9.77,0,0,1,6,.23l.16,0h.71l.18,0A2.78,2.78,0,0,1,8.72,1.55q1,1.58,2.05,3.15l1.54,2.36a2.17,2.17,0,0,1-.26,2.88,8.79,8.79,0,0,1-1,.82L10.8,11l-.48.35c-.17.12-.34.24-.51.37a1.62,1.62,0,0,0-.58,1.89,10.18,10.18,0,0,0,1.28,2.55,17.26,17.26,0,0,0,7,6.3,6.3,6.3,0,0,0,1.1.41A1.22,1.22,0,0,0,20,22.35c.2-.25.38-.51.56-.77l.32-.46L21,20.9a7.73,7.73,0,0,1,.56-.73A2.47,2.47,0,0,1,25,19.73l3.21,2.1,1.91,1.25.32.21a2.62,2.62,0,0,1,1.33,1.63.75.75,0,0,1,0,.19v.76a.75.75,0,0,1-.07.32h0a10.06,10.06,0,0,1-1.88,3.93A2.85,2.85,0,0,1,28,31.42l-.5.08a20.83,20.83,0,0,1-2.71.3ZM6.27,1.71a8.23,8.23,0,0,0-2.47,1,13.24,13.24,0,0,0-1.32,1,1.41,1.41,0,0,0-.49,1L1.75,6.45c0,.08,0,.14,0,.21V8.54l.05.38c0,.38.09.75.15,1.13a21,21,0,0,0,3.23,8.22,27.61,27.61,0,0,0,9.94,9.38,18.85,18.85,0,0,0,9.73,2.63A19.34,19.34,0,0,0,27.32,30l.51-.08c.28,0,.52-.29.82-.69a8.53,8.53,0,0,0,1.63-3.44l0-.08v-.5a1.18,1.18,0,0,0-.6-.63c-.16-.09-.3-.19-.44-.28l-1.87-1.23L24.18,21a1,1,0,0,0-1.47.18,6.13,6.13,0,0,0-.45.59l-.17.24-.3.43c-.2.3-.4.59-.63.87a2.72,2.72,0,0,1-3,1,7.72,7.72,0,0,1-1.37-.51,18.74,18.74,0,0,1-7.57-6.84A11.47,11.47,0,0,1,7.79,14a3.11,3.11,0,0,1,1.08-3.46c.19-.16.39-.3.59-.44l.42-.3.29-.22A7.58,7.58,0,0,0,11,8.88a.68.68,0,0,0,.07-1L9.52,5.52q-1-1.58-2.06-3.16a1.4,1.4,0,0,0-.68-.65Z"/><path class="cls-2" d="M27.86,14.66a.5.5,0,0,1-.5-.5,9.73,9.73,0,0,0-9.72-9.72.5.5,0,0,1,0-1A10.73,10.73,0,0,1,28.36,14.16.5.5,0,0,1,27.86,14.66Z"/><path class="cls-2" d="M23.49,14.66a.5.5,0,0,1-.5-.5,5.35,5.35,0,0,0-5.35-5.35.5.5,0,0,1,0-1A6.35,6.35,0,0,1,24,14.16.5.5,0,0,1,23.49,14.66Z"/></svg>