<svg id="expanded" xmlns="http://www.w3.org/2000/svg" viewBox="0 0 32 32"><defs><style>.cls-1{fill:#54a4da;}</style></defs><title>Plus</title><path class="cls-1" d="M31.17,15H17V.83c0-.41-.59-.75-1-.75s-1,.34-1,.75V15H.83c-.41,0-.75.59-.75,1s.34,1,.75,1H15V31.17c0,.41.59.75,1,.75s1-.34,1-.75V17H31.17c.41,0,.75-.59.75-1S31.58,15,31.17,15Z"/><path class="cls-1" d="M31.17,15H17V.83c0-.41-.59-.75-1-.75s-1,.34-1,.75V15H.83c-.41,0-.75.59-.75,1s.34,1,.75,1H15V31.17c0,.41.59.75,1,.75s1-.34,1-.75V17H31.17c.41,0,.75-.59.75-1S31.58,15,31.17,15Z"/></svg>