<svg id="expanded" xmlns="http://www.w3.org/2000/svg" viewBox="0 0 32 32"><defs><style>.cls-1{fill:#4d4c4c;}</style></defs><title>question</title><path class="cls-1" d="M15.59,31.75a2.63,2.63,0,1,1,2.63-2.62A2.63,2.63,0,0,1,15.59,31.75Zm0-3.75a1.13,1.13,0,1,0,1.13,1.13A1.13,1.13,0,0,0,15.59,28Z"/><path class="cls-1" d="M15.64,24.47a.75.75,0,0,1-.73-.57c-.05-.21-1.2-5.22,4.74-9.05l.1-.06a7,7,0,0,0,3.47-6,7.13,7.13,0,0,0-7.22-7,7.13,7.13,0,0,0-7.22,7,.75.75,0,1,1-1.5,0A8.64,8.64,0,0,1,16,.25a8.64,8.64,0,0,1,8.72,8.53,8.44,8.44,0,0,1-4.21,7.3c-5.1,3.29-4.15,7.42-4.14,7.46a.75.75,0,0,1-.55.91Z"/></svg>