<?xml version="1.0" encoding="utf-8"?>
<!-- Generator: Adobe Illustrator 19.2.1, SVG Export Plug-In . SVG Version: 6.00 Build 0)  -->
<svg version="1.1" id="Layer_1" xmlns="http://www.w3.org/2000/svg" xmlns:xlink="http://www.w3.org/1999/xlink" x="0px" y="0px"
	 viewBox="0 0 48 48" style="enable-background:new 0 0 48 48;" xml:space="preserve">
<style type="text/css">
	.st0{fill:#54A5DB;}
	.st1{fill:#4C4C4C;}
	.st2{display:none;}
</style>
<g id="Layer_1_1_">
	<g>
		<g>
			<g>
				<g>
					<path class="st0" d="M24.2,44.7c-0.4,0-0.7-0.3-0.7-0.7V33.8c0-0.4,0.3-0.7,0.7-0.7s0.7,0.3,0.7,0.7V44
						C24.9,44.4,24.6,44.7,24.2,44.7z"/>
				</g>
				<g>
					<path class="st0" d="M24.2,28.1c-0.4,0-0.7-0.3-0.7-0.7v-6.2c0-0.4,0.3-0.7,0.7-0.7s0.7,0.3,0.7,0.7v6.2
						C24.9,27.8,24.6,28.1,24.2,28.1z"/>
				</g>
				<g>
					<path class="st0" d="M24.2,16.9c-0.4,0-0.7-0.3-0.7-0.7V12c0-0.4,0.3-0.7,0.7-0.7s0.7,0.3,0.7,0.7v4.2
						C24.9,16.6,24.6,16.9,24.2,16.9z"/>
				</g>
				<g>
					<path class="st0" d="M24.2,7.7c-0.4,0-0.7-0.3-0.7-0.7V5.6c0-0.4,0.3-0.7,0.7-0.7s0.7,0.3,0.7,0.7V7
						C24.9,7.4,24.6,7.7,24.2,7.7z"/>
				</g>
			</g>
			<g>
				<path class="st1" d="M47.1,47.9c-0.5,0-0.9-0.3-1-0.8L34.1,1.4c-0.1-0.6,0.2-1.2,0.8-1.3c0.6-0.1,1.2,0.2,1.3,0.8l11.9,45.7
					c0.1,0.6-0.2,1.2-0.8,1.3C47.3,47.9,47.2,47.9,47.1,47.9z"/>
			</g>
			<g>
				<path class="st1" d="M1.3,47.9c-0.1,0-0.2,0-0.3,0c-0.6-0.1-0.9-0.7-0.8-1.3L12.1,0.9c0.1-0.6,0.7-0.9,1.3-0.8
					c0.6,0.1,0.9,0.7,0.8,1.3L2.3,47.1C2.2,47.6,1.7,47.9,1.3,47.9z"/>
			</g>
		</g>
	</g>
</g>
<g id="Building" class="st2">
</g>
</svg>
