<svg id="expanded" xmlns="http://www.w3.org/2000/svg" viewBox="0 0 32 32"><defs><style>.cls-1{fill:#fff;}.cls-2{fill:#54a4da;}.cls-3{fill:#4d4c4c;}</style></defs><title>road</title><line class="cls-1" x1="16" y1="29.1" x2="16" y2="22.43"/><path class="cls-2" d="M16,29.6a.5.5,0,0,1-.5-.5V22.43a.5.5,0,0,1,1,0V29.1A.5.5,0,0,1,16,29.6Z"/><line class="cls-1" x1="16" y1="18.2" x2="16" y2="14.17"/><path class="cls-2" d="M16,18.7a.5.5,0,0,1-.5-.5v-4a.5.5,0,0,1,1,0v4A.5.5,0,0,1,16,18.7Z"/><line class="cls-1" x1="16" y1="10.87" x2="16" y2="8.17"/><path class="cls-2" d="M16,11.37a.5.5,0,0,1-.5-.5V8.17a.5.5,0,0,1,1,0v2.69A.5.5,0,0,1,16,11.37Z"/><line class="cls-1" x1="16" y1="4.94" x2="16" y2="4.01"/><path class="cls-2" d="M16,5.44a.5.5,0,0,1-.5-.5V4a.5.5,0,0,1,1,0v.94A.5.5,0,0,1,16,5.44Z"/><path class="cls-3" d="M31,31.73a.75.75,0,0,1-.73-.56l-7.72-30A.75.75,0,1,1,24,.84l7.72,30a.75.75,0,0,1-.54.91Z"/><path class="cls-3" d="M1,31.73l-.19,0a.75.75,0,0,1-.54-.91L8,.84a.75.75,0,1,1,1.45.38l-7.72,30A.75.75,0,0,1,1,31.73Z"/><line class="cls-1" x1="16" y1="29.1" x2="16" y2="22.43"/><path class="cls-2" d="M16,29.6a.5.5,0,0,1-.5-.5V22.43a.5.5,0,0,1,1,0V29.1A.5.5,0,0,1,16,29.6Z"/><line class="cls-1" x1="16" y1="18.2" x2="16" y2="14.17"/><path class="cls-2" d="M16,18.7a.5.5,0,0,1-.5-.5v-4a.5.5,0,0,1,1,0v4A.5.5,0,0,1,16,18.7Z"/><line class="cls-1" x1="16" y1="10.87" x2="16" y2="8.17"/><path class="cls-2" d="M16,11.37a.5.5,0,0,1-.5-.5V8.17a.5.5,0,0,1,1,0v2.69A.5.5,0,0,1,16,11.37Z"/><line class="cls-1" x1="16" y1="4.94" x2="16" y2="4.01"/><path class="cls-2" d="M16,5.44a.5.5,0,0,1-.5-.5V4a.5.5,0,0,1,1,0v.94A.5.5,0,0,1,16,5.44Z"/><path class="cls-3" d="M31,31.73a.75.75,0,0,1-.73-.56l-7.72-30A.75.75,0,1,1,24,.84l7.72,30a.75.75,0,0,1-.54.91Z"/><path class="cls-3" d="M1,31.73l-.19,0a.75.75,0,0,1-.54-.91L8,.84a.75.75,0,1,1,1.45.38l-7.72,30A.75.75,0,0,1,1,31.73Z"/></svg>