<svg id="Layer_1" data-name="Layer 1" xmlns="http://www.w3.org/2000/svg" viewBox="0 0 14 180"><defs><style>.cls-1{fill:#ffffff;}.cls-2,.cls-3{fill:none;stroke:#ffffff;}.cls-2{stroke-miterlimit:10;}</style></defs><title>Scroll_vertical</title><path class="cls-1" d="M7,44a2,2,0,1,0-2-2,2,2,0,0,0,2,2"/><path class="cls-1" d="M7,70a2,2,0,1,0-2-2,2,2,0,0,0,2,2"/><path class="cls-2" d="M7,99.5A5.5,5.5,0,1,0,1.5,94,5.5,5.5,0,0,0,7,99.5"/><path class="cls-1" d="M7,123a3,3,0,1,0-3-3,3,3,0,0,0,3,3"/><path class="cls-1" d="M7,148a2,2,0,1,0-2-2,2,2,0,0,0,2,2"/><path class="cls-1" d="M7,174a2,2,0,1,0-2-2,2,2,0,0,0,2,2"/><path class="cls-1" d="M7,71a3,3,0,1,0-3-3,3,3,0,0,0,3,3"/><line class="cls-3" x1="7" y1="99.5" x2="7" y2="172"/><line class="cls-3" x1="7" y1="2" x2="7" y2="88.5"/></svg>