<svg id="expanded" xmlns="http://www.w3.org/2000/svg" viewBox="0 0 16 16"><defs><style>.cls-1{fill:#4c4c4c;}.cls-2{fill:#54a4da;}</style></defs><title>speech_convo16</title><path class="cls-1" d="M3.09,16a.75.75,0,0,1-.75-.75V12.53H2.07A1.7,1.7,0,0,1,.26,10.67V5A1.7,1.7,0,0,1,2.07,3.15H4.55a.75.75,0,0,1,0,1.5H2.07c-.25,0-.31,0-.31.37v5.66c0,.35.05.35.31.35h1a.75.75,0,0,1,.75.75v1.44L5.5,11.29A.75.75,0,0,1,6.07,11H9.7a.32.32,0,0,0,.12,0,.5.5,0,0,0,.06-.26V9.18a.75.75,0,0,1,1.5,0v1.59a1.66,1.66,0,0,1-1.47,1.74l-.32,0H6.41L3.66,15.74A.75.75,0,0,1,3.09,16Z"/><path class="cls-2" d="M13.35,12.86a.75.75,0,0,1-.57-.26l-1.89-2.21h0l-.86-1H6.43a1.84,1.84,0,0,1-.34,0A1.65,1.65,0,0,1,4.63,7.51V1.85A1.83,1.83,0,0,1,5.11.49,1.77,1.77,0,0,1,6.43,0h7.52a1.69,1.69,0,0,1,1.79,1.85V7.52A1.68,1.68,0,0,1,14.1,9.37v2.74a.75.75,0,0,1-.49.7A.73.73,0,0,1,13.35,12.86ZM12,9.41h0l.57.66V8.63a.75.75,0,0,1,.75-.75h.6c.24,0,.29,0,.29-.35V1.85c0-.35-.05-.35-.29-.35H6.43a.46.46,0,0,0-.25,0,.55.55,0,0,0,0,.3V7.52c0,.33,0,.33.18.35h4.06a.75.75,0,0,1,.57.26Z"/></svg>