<svg id="expanded" xmlns="http://www.w3.org/2000/svg" viewBox="0 0 32 32"><defs><style>.cls-1{fill:#4d4c4c;}.cls-2{fill:#54a4da;}</style></defs><title>speech_convo</title><path class="cls-1" d="M4.79,31.44a.76.76,0,0,1-.27,0,.75.75,0,0,1-.48-.7V24H3.43A2.86,2.86,0,0,1,.27,20.82V8.63A2.87,2.87,0,0,1,3.43,5.47H9.09a.75.75,0,0,1,0,1.5H3.43c-1.19,0-1.66.46-1.66,1.66v12.2c0,1.17.46,1.63,1.66,1.63H4.79a.75.75,0,0,1,.75.75v5.54l5.47-6a.75.75,0,0,1,.56-.25h9a2.79,2.79,0,0,0,.4,0c.7-.09,1.17-.36,1.23-1.44a.74.74,0,0,1,.79-.71.75.75,0,0,1,.71.79,2.74,2.74,0,0,1-2.53,2.84,4.32,4.32,0,0,1-.6,0H11.9L5.34,31.19A.75.75,0,0,1,4.79,31.44Z"/><path class="cls-2" d="M27.24,26.55a.75.75,0,0,1-.56-.25l-4.3-4.76a.75.75,0,1,1,1.11-1l3,3.32V18.3a.75.75,0,0,1,.75-.75H28.6c1.16,0,1.63-.47,1.63-1.63V3.69c0-1.16-.47-1.63-1.63-1.63H11.47a1.75,1.75,0,0,0-1.28.38,1.68,1.68,0,0,0-.36,1.24V6.22a.75.75,0,0,1-1.5,0V3.69a3.08,3.08,0,0,1,.79-2.3A3.16,3.16,0,0,1,11.47.56H28.6a2.85,2.85,0,0,1,3.13,3.13V15.92A2.85,2.85,0,0,1,28.6,19H28V25.8a.75.75,0,0,1-.48.7A.76.76,0,0,1,27.24,26.55Z"/><path class="cls-2" d="M22.94,21.79a.74.74,0,0,1-.56-.25L20.13,19H11.47a3.58,3.58,0,0,1-.58,0A2.74,2.74,0,0,1,8.34,15.9V6.22a.75.75,0,0,1,1.5,0v9.69c0,1.29.59,1.54,1.25,1.61a2.13,2.13,0,0,0,.38,0h9a.75.75,0,0,1,.56.25l2.48,2.75a.75.75,0,0,1-.56,1.25Z"/><path class="cls-1" d="M4.79,31.44a.76.76,0,0,1-.27,0,.75.75,0,0,1-.48-.7V24H3.43A2.86,2.86,0,0,1,.27,20.82V8.63A2.87,2.87,0,0,1,3.43,5.47H9.09a.75.75,0,0,1,0,1.5H3.43c-1.19,0-1.66.46-1.66,1.66v12.2c0,1.17.46,1.63,1.66,1.63H4.79a.75.75,0,0,1,.75.75v5.54l5.47-6a.75.75,0,0,1,.56-.25h9a2.79,2.79,0,0,0,.4,0c.7-.09,1.17-.36,1.23-1.44a.74.74,0,0,1,.79-.71.75.75,0,0,1,.71.79,2.74,2.74,0,0,1-2.53,2.84,4.32,4.32,0,0,1-.6,0H11.9L5.34,31.19A.75.75,0,0,1,4.79,31.44Z"/><path class="cls-2" d="M27.24,26.55a.75.75,0,0,1-.56-.25l-4.3-4.76a.75.75,0,1,1,1.11-1l3,3.32V18.3a.75.75,0,0,1,.75-.75H28.6c1.16,0,1.63-.47,1.63-1.63V3.69c0-1.16-.47-1.63-1.63-1.63H11.47a1.75,1.75,0,0,0-1.28.38,1.68,1.68,0,0,0-.36,1.24V6.22a.75.75,0,0,1-1.5,0V3.69a3.08,3.08,0,0,1,.79-2.3A3.16,3.16,0,0,1,11.47.56H28.6a2.85,2.85,0,0,1,3.13,3.13V15.92A2.85,2.85,0,0,1,28.6,19H28V25.8a.75.75,0,0,1-.48.7A.76.76,0,0,1,27.24,26.55Z"/><path class="cls-2" d="M22.94,21.79a.74.74,0,0,1-.56-.25L20.13,19H11.47a3.58,3.58,0,0,1-.58,0A2.74,2.74,0,0,1,8.34,15.9V6.22a.75.75,0,0,1,1.5,0v9.69c0,1.29.59,1.54,1.25,1.61a2.13,2.13,0,0,0,.38,0h9a.75.75,0,0,1,.56.25l2.48,2.75a.75.75,0,0,1-.56,1.25Z"/></svg>