<?xml version="1.0" encoding="utf-8"?>
<!-- Generator: Adobe Illustrator 19.2.1, SVG Export Plug-In . SVG Version: 6.00 Build 0)  -->
<svg version="1.1" id="Layer_1" xmlns="http://www.w3.org/2000/svg" xmlns:xlink="http://www.w3.org/1999/xlink" x="0px" y="0px"
	 viewBox="0 0 18 18" style="enable-background:new 0 0 18 18;" xml:space="preserve">
<style type="text/css">
	.st0{fill:#4C4C4C;}
	.st1{fill:#54A4DA;}
</style>
<title>Tools</title>
<desc>Created with Sketch.</desc>
<g id="SmartSensor-HD">
	<g id="SmartSensor-HD-_x28_phone_x29_" transform="translate(-261.000000, -7260.000000)">
		<g id="Group-20" transform="translate(82.000000, 7261.000000)">
			<g id="Group-18" transform="translate(165.000000, 0.000000)">
				<g id="Tools" transform="translate(15.000000, 0.000000)">
					<g id="wtx_Full_Color_icons_32px-07">
						<g id="Layer_1_1_">
							<g id="Group">
								<g id="Shape">
									<g>
										<path class="st0" d="M10.9,6.7L9.3,5.1l2.4-2.4l1.2-2.3L15.5-1L17,0.5l-1.3,2.6l-2.3,1.2L10.9,6.7z M10.3,5.1l0.6,0.6l2-2
											l2.2-1.1l1-2l-0.8-0.8l-2,1l-1.2,2.3L10.3,5.1z"/>
									</g>
									<g>
										<path class="st1" d="M13.4,16.8c-1.9,0-3.4-1.5-3.5-3.3l0-0.2c0-0.4,0.1-0.7,0.2-1L3.7,6c-0.3,0.1-0.7,0.2-1,0.2H2.5
											C0.6,6-0.8,4.5-0.8,2.6c0-0.4,0.1-0.9,0.3-1.5l0.2-0.5l2.5,2.5c0.1,0.1,0.1,0.1,0.2,0.1c0.1,0,0.2,0,0.3,0
											c0.2,0,0.4-0.1,0.5-0.2c0.2-0.2,0.2-0.5,0.1-0.7l0-0.1c0,0,0-0.1-0.1-0.1L0.7-0.3l0.4-0.2c0.5-0.2,1-0.4,1.5-0.4
											c1.9,0,3.4,1.5,3.5,3.3l0,0.2c0,0.4-0.1,0.7-0.2,1l6.2,6.2c0.3-0.1,0.7-0.2,1-0.2l0.2,0c1.9,0.1,3.3,1.7,3.3,3.5
											c0,0.6-0.1,1-0.4,1.5l-0.2,0.4l-2.5-2.5c-0.1-0.1-0.1-0.1-0.2-0.1c-0.1,0-0.2,0-0.3,0c-0.2,0-0.4,0.1-0.5,0.2
											c-0.2,0.2-0.3,0.5-0.2,0.7c0,0.1,0.1,0.2,0.2,0.3l2.5,2.5l-0.4,0.2C14.4,16.7,13.9,16.8,13.4,16.8z M3.9,5.2l0.1,0.1
											l6.7,6.7l-0.1,0.2c-0.1,0.3-0.2,0.6-0.2,1v0.2c0.1,1.5,1.3,2.6,2.8,2.6c0.3,0,0.5,0,0.7-0.1l-1.7-1.7
											c-0.1-0.1-0.3-0.3-0.3-0.5c-0.2-0.5-0.1-1.1,0.3-1.5c0.3-0.3,0.6-0.4,1-0.4c0.1,0,0.4,0,0.5,0.1c0.1,0,0.3,0.1,0.5,0.3
											l1.7,1.7c0.1-0.2,0.1-0.5,0.1-0.8c0-1.4-1.2-2.7-2.6-2.8h-0.2c-0.4,0-0.7,0.1-1,0.2l-0.2,0.1L5.3,3.8l0.1-0.3
											C5.5,3.2,5.6,3,5.6,2.6V2.4C5.5,1,4.2-0.2,2.7-0.2c-0.3,0-0.5,0-0.7,0.1l1.7,1.7C3.8,1.7,4,1.9,4,2.2
											c0.2,0.5,0.1,1-0.3,1.4C3.4,3.9,3.1,4,2.7,4C2.6,4,2.4,4,2.2,4c-0.1,0-0.3-0.1-0.5-0.3L0,1.9c-0.1,0.2-0.1,0.5-0.1,0.7
											c0,1.5,1.1,2.7,2.7,2.8l0.2,0c0.3,0,0.7-0.1,1-0.2L3.9,5.2z"/>
									</g>
								</g>
								<g id="Shape_1_">
									<path class="st0" d="M1.1,17c-0.6,0-1.1-0.2-1.5-0.6C-0.8,16-1,15.5-1,14.9c0-0.6,0.2-1.1,0.6-1.6l5.1-5.1l3,3l-5.1,5.1
										C2.2,16.8,1.7,17,1.1,17z M0.4,14.1c-0.2,0.2-0.3,0.5-0.3,0.8c0,0.3,0.1,0.5,0.3,0.7c0.5,0.5,1.1,0.5,1.5,0l4.4-4.4
										L4.7,9.8L0.4,14.1z"/>
								</g>
							</g>
						</g>
					</g>
				</g>
			</g>
		</g>
	</g>
</g>
</svg>
