<svg id="expanded" xmlns="http://www.w3.org/2000/svg" viewBox="0 0 32 32"><defs><style>.cls-1{fill:#54a4da;}.cls-2{fill:#4d4c4c;}</style></defs><title>tablet_mobile</title><path class="cls-1" d="M4.67,25.08a.5.5,0,0,1-.5-.5V5.9a.5.5,0,0,1,1,0V24.58A.5.5,0,0,1,4.67,25.08Z"/><path class="cls-1" d="M16.92,16.17a.5.5,0,0,1-.35-.15A2.2,2.2,0,0,0,15,15.37h0a2.2,2.2,0,0,0-1.57.65.5.5,0,1,1-.71-.71A3.2,3.2,0,0,1,15,14.37h0a3.2,3.2,0,0,1,2.27.94.5.5,0,0,1-.35.85Z"/><path class="cls-1" d="M18.15,14.94a.5.5,0,0,1-.35-.15A3.94,3.94,0,0,0,15,13.63h0a3.93,3.93,0,0,0-2.8,1.16.5.5,0,0,1-.71-.71A4.93,4.93,0,0,1,15,12.63h0a4.93,4.93,0,0,1,3.51,1.46.5.5,0,0,1-.35.85Z"/><path class="cls-1" d="M2.89,16.58a.5.5,0,0,1-.5-.5V14.4a.5.5,0,0,1,1,0v1.68A.5.5,0,0,1,2.89,16.58Z"/><path class="cls-2" d="M22.16,25.08H2.54A1.79,1.79,0,0,1,.75,23.29V7.18A1.79,1.79,0,0,1,2.54,5.4H26.41A1.79,1.79,0,0,1,28.2,7.18v4.68h-1V7.18a.79.79,0,0,0-.79-.79H2.54a.79.79,0,0,0-.79.79v16.1a.79.79,0,0,0,.79.79H22.16Z"/><path class="cls-1" d="M27.4,25.06H25.72a.5.5,0,0,1,0-1H27.4a.5.5,0,0,1,0,1Z"/><path class="cls-1" d="M30.18,23.71H22.93a.5.5,0,0,1,0-1h7.25a.5.5,0,0,1,0,1Z"/><path class="cls-1" d="M30.18,14.27H22.93a.5.5,0,0,1,0-1h7.25a.5.5,0,0,1,0,1Z"/><path class="cls-2" d="M29.34,12.16a.85.85,0,0,1,.85.85V24.73a.85.85,0,0,1-.85.85H23.78a.85.85,0,0,1-.85-.85V13a.85.85,0,0,1,.85-.85h5.55m0-1H23.78A1.85,1.85,0,0,0,21.93,13V24.73a1.85,1.85,0,0,0,1.85,1.85h5.55a1.85,1.85,0,0,0,1.85-1.85V13a1.85,1.85,0,0,0-1.85-1.85Z"/><path class="cls-1" d="M4.67,25.08a.5.5,0,0,1-.5-.5V5.9a.5.5,0,0,1,1,0V24.58A.5.5,0,0,1,4.67,25.08Z"/><path class="cls-1" d="M16.92,16.17a.5.5,0,0,1-.35-.15A2.2,2.2,0,0,0,15,15.37h0a2.2,2.2,0,0,0-1.57.65.5.5,0,1,1-.71-.71A3.2,3.2,0,0,1,15,14.37h0a3.2,3.2,0,0,1,2.27.94.5.5,0,0,1-.35.85Z"/><path class="cls-1" d="M18.15,14.94a.5.5,0,0,1-.35-.15A3.94,3.94,0,0,0,15,13.63h0a3.93,3.93,0,0,0-2.8,1.16.5.5,0,0,1-.71-.71A4.93,4.93,0,0,1,15,12.63h0a4.93,4.93,0,0,1,3.51,1.46.5.5,0,0,1-.35.85Z"/><path class="cls-1" d="M2.89,16.58a.5.5,0,0,1-.5-.5V14.4a.5.5,0,0,1,1,0v1.68A.5.5,0,0,1,2.89,16.58Z"/><path class="cls-2" d="M22.16,25.08H2.54A1.79,1.79,0,0,1,.75,23.29V7.18A1.79,1.79,0,0,1,2.54,5.4H26.41A1.79,1.79,0,0,1,28.2,7.18v4.68h-1V7.18a.79.79,0,0,0-.79-.79H2.54a.79.79,0,0,0-.79.79v16.1a.79.79,0,0,0,.79.79H22.16Z"/><path class="cls-1" d="M27.4,25.06H25.72a.5.5,0,0,1,0-1H27.4a.5.5,0,0,1,0,1Z"/><path class="cls-1" d="M30.18,23.71H22.93a.5.5,0,0,1,0-1h7.25a.5.5,0,0,1,0,1Z"/><path class="cls-1" d="M30.18,14.27H22.93a.5.5,0,0,1,0-1h7.25a.5.5,0,0,1,0,1Z"/><path class="cls-2" d="M29.34,12.16a.85.85,0,0,1,.85.85V24.73a.85.85,0,0,1-.85.85H23.78a.85.85,0,0,1-.85-.85V13a.85.85,0,0,1,.85-.85h5.55m0-1H23.78A1.85,1.85,0,0,0,21.93,13V24.73a1.85,1.85,0,0,0,1.85,1.85h5.55a1.85,1.85,0,0,0,1.85-1.85V13a1.85,1.85,0,0,0-1.85-1.85Z"/></svg>