<svg id="expanded" xmlns="http://www.w3.org/2000/svg" viewBox="0 0 32 32"><defs><style>.cls-1{fill:#54a4da;}.cls-2{fill:#4d4c4c;}</style></defs><title>tack</title><path class="cls-1" d="M5.62,31.7a.5.5,0,0,1-.48-.63L7.95,20.58a.5.5,0,0,1,.78-.27c.76.56,4,2.45,4.75,2.79a.5.5,0,0,1,.14.81L6,31.55A.5.5,0,0,1,5.62,31.7ZM8.73,21.51l-2.15,8,5.85-5.84C11.43,23.14,9.72,22.14,8.73,21.51Z"/><path class="cls-2" d="M18.94,17.26a.75.75,0,0,1-.67-1.08L22,8.34a.76.76,0,0,1,.79-.42c1.22.19,2.16,0,2.46-.54.53-.92-.77-3.06-3.32-4.53s-5-1.53-5.58-.61c-.3.52,0,1.44.76,2.4a.75.75,0,0,1,0,.89l-4.9,7.2a.75.75,0,1,1-1.24-.84l4.6-6.76c-.92-1.34-1.13-2.65-.55-3.64,1.07-1.86,4.35-1.83,7.63.06S27.65,6.3,26.6,8.13c-.57,1-1.81,1.47-3.43,1.34l-3.55,7.36A.75.75,0,0,1,18.94,17.26Z"/><path class="cls-2" d="M19,22.86a15.12,15.12,0,0,1-7.27-2.22c-4.94-2.85-7.58-7.2-6-9.9C6.81,8.8,9.77,8.26,13.42,9.34A.75.75,0,0,1,13,10.78c-2.86-.85-5.27-.56-6,.72-1,1.7,1,5.26,5.47,7.85S21,21.86,22,20.16c.74-1.28-.22-3.51-2.38-5.57a.75.75,0,1,1,1-1.09c2.76,2.62,3.77,5.46,2.65,7.4C22.54,22.22,21,22.86,19,22.86Z"/><path class="cls-1" d="M5.62,31.7a.5.5,0,0,1-.48-.63L7.95,20.58a.5.5,0,0,1,.78-.27c.76.56,4,2.45,4.75,2.79a.5.5,0,0,1,.14.81L6,31.55A.5.5,0,0,1,5.62,31.7ZM8.73,21.51l-2.15,8,5.85-5.84C11.43,23.14,9.72,22.14,8.73,21.51Z"/><path class="cls-2" d="M18.94,17.26a.75.75,0,0,1-.67-1.08L22,8.34a.76.76,0,0,1,.79-.42c1.22.19,2.16,0,2.46-.54.53-.92-.77-3.06-3.32-4.53s-5-1.53-5.58-.61c-.3.52,0,1.44.76,2.4a.75.75,0,0,1,0,.89l-4.9,7.2a.75.75,0,1,1-1.24-.84l4.6-6.76c-.92-1.34-1.13-2.65-.55-3.64,1.07-1.86,4.35-1.83,7.63.06S27.65,6.3,26.6,8.13c-.57,1-1.81,1.47-3.43,1.34l-3.55,7.36A.75.75,0,0,1,18.94,17.26Z"/><path class="cls-2" d="M19,22.86a15.12,15.12,0,0,1-7.27-2.22c-4.94-2.85-7.58-7.2-6-9.9C6.81,8.8,9.77,8.26,13.42,9.34A.75.75,0,0,1,13,10.78c-2.86-.85-5.27-.56-6,.72-1,1.7,1,5.26,5.47,7.85S21,21.86,22,20.16c.74-1.28-.22-3.51-2.38-5.57a.75.75,0,1,1,1-1.09c2.76,2.62,3.77,5.46,2.65,7.4C22.54,22.22,21,22.86,19,22.86Z"/></svg>