<svg id="expanded" xmlns="http://www.w3.org/2000/svg" viewBox="0 0 32 32"><defs><style>.cls-1{fill:#4d4c4c;}.cls-2{fill:#54a4da;}</style></defs><title>tr</title><path class="cls-1" d="M16.35,26.53a.75.75,0,0,1-.75-.75V10.13a.75.75,0,1,1,1.5,0V25.78A.75.75,0,0,1,16.35,26.53Z"/><path class="cls-1" d="M23.11,17.79H16.35A.75.75,0,0,1,15.6,17V8.3a.75.75,0,0,1,.75-.75h6.76a3.52,3.52,0,0,1,3.51,3.51v3.21A3.52,3.52,0,0,1,23.11,17.79Zm-6-1.5h6a2,2,0,0,0,2-2V11.06a2,2,0,0,0-2-2h-6Z"/><path class="cls-1" d="M25.48,26.53a.75.75,0,0,1-.75-.75V20.25a2.46,2.46,0,0,0-2.46-2.46H16.35a.75.75,0,0,1,0-1.5h5.92a4,4,0,0,1,4,4v5.53A.75.75,0,0,1,25.48,26.53Z"/><path class="cls-1" d="M14.55,2.09H3.8A.75.75,0,1,1,3.8.58H14.55a.75.75,0,1,1,0,1.51Z"/><path class="cls-1" d="M9.17,26.53a.75.75,0,0,1-.75-.75V1.33a.75.75,0,0,1,1.51,0V25.78A.75.75,0,0,1,9.17,26.53Z"/><path class="cls-2" d="M29.92,31.67H2.08a1,1,0,0,1,0-2H29.92a1,1,0,0,1,0,2Z"/></svg>