<svg id="expanded" xmlns="http://www.w3.org/2000/svg" viewBox="0 0 32 32"><defs><style>.cls-1{fill:#4d4c4c;}.cls-2{fill:#54a4da;}</style></defs><title>trafficlight2</title><path class="cls-1" d="M10.63,10.12a.75.75,0,0,1-.46-.16L4.86,5.83a.91.91,0,0,1-.35-.72V3.81a.9.9,0,0,1,.89-.9h5.22a.75.75,0,0,1,.75.75V9.37a.75.75,0,0,1-.75.75ZM6,4.83l3.87,3V4.41H6Z"/><path class="cls-1" d="M10.63,18.93a.75.75,0,0,1-.46-.16L4.86,14.65h0a.9.9,0,0,1-.34-.71V12.63a.9.9,0,0,1,.89-.9h5.22a.75.75,0,0,1,.75.75v5.71a.75.75,0,0,1-.75.75ZM6,13.64l3.87,3V13.22H6Z"/><path class="cls-1" d="M10.63,27.75a.75.75,0,0,1-.46-.16L4.86,23.46a.91.91,0,0,1-.35-.72V21.44a.9.9,0,0,1,.89-.9h5.22a.75.75,0,0,1,.75.75V27a.75.75,0,0,1-.75.75ZM6,22.46l3.87,3V22H6Z"/><path class="cls-1" d="M21.37,31.69H10.82a.75.75,0,0,1-.75-.75V1.06a.75.75,0,0,1,.75-.75H21.37a.75.75,0,0,1,.75.75V2.91h4.46a.91.91,0,0,1,.91.9V5.12a.9.9,0,0,1-.39.74l-5,3.47v2.39h4.46a.91.91,0,0,1,.91.9v1.31a.91.91,0,0,1-.38.73l-5,3.48v2.39h4.46a.91.91,0,0,1,.91.9v1.31a.9.9,0,0,1-.39.74l-5,3.47v4A.75.75,0,0,1,21.37,31.69Zm-9.8-1.5h9V26.57a.75.75,0,0,1,.32-.62l5-3.52V22H21.37a.75.75,0,0,1-.75-.75V17.75a.75.75,0,0,1,.32-.62l5-3.52v-.4H21.37a.75.75,0,0,1-.75-.75V8.94a.75.75,0,0,1,.32-.62L26,4.8V4.41H21.37a.75.75,0,0,1-.75-.75V1.81h-9Zm14.67-7.93h0Zm.33-9h0Zm-.33-8.6h0Z"/><path class="cls-2" d="M16.09,11.13a3.77,3.77,0,1,1,3.77-3.72A3.75,3.75,0,0,1,16.09,11.13Zm0-6.54a2.77,2.77,0,1,0,2.77,2.81A2.76,2.76,0,0,0,16.09,4.6Z"/><path class="cls-2" d="M16.09,19.77A3.77,3.77,0,1,1,19.86,16,3.75,3.75,0,0,1,16.09,19.77Zm0-6.54A2.77,2.77,0,1,0,18.86,16,2.76,2.76,0,0,0,16.09,13.23Z"/><path class="cls-2" d="M16.09,28.4a3.77,3.77,0,1,1,3.77-3.72A3.75,3.75,0,0,1,16.09,28.4Zm0-6.54a2.77,2.77,0,1,0,2.77,2.81A2.76,2.76,0,0,0,16.09,21.87Z"/><path class="cls-1" d="M10.63,10.12a.75.75,0,0,1-.46-.16L4.86,5.83a.91.91,0,0,1-.35-.72V3.81a.9.9,0,0,1,.89-.9h5.22a.75.75,0,0,1,.75.75V9.37a.75.75,0,0,1-.75.75ZM6,4.83l3.87,3V4.41H6Z"/><path class="cls-1" d="M10.63,18.93a.75.75,0,0,1-.46-.16L4.86,14.65h0a.9.9,0,0,1-.34-.71V12.63a.9.9,0,0,1,.89-.9h5.22a.75.75,0,0,1,.75.75v5.71a.75.75,0,0,1-.75.75ZM6,13.64l3.87,3V13.22H6Z"/><path class="cls-1" d="M10.63,27.75a.75.75,0,0,1-.46-.16L4.86,23.46a.91.91,0,0,1-.35-.72V21.44a.9.9,0,0,1,.89-.9h5.22a.75.75,0,0,1,.75.75V27a.75.75,0,0,1-.75.75ZM6,22.46l3.87,3V22H6Z"/><path class="cls-1" d="M21.37,31.69H10.82a.75.75,0,0,1-.75-.75V1.06a.75.75,0,0,1,.75-.75H21.37a.75.75,0,0,1,.75.75V2.91h4.46a.91.91,0,0,1,.91.9V5.12a.9.9,0,0,1-.39.74l-5,3.47v2.39h4.46a.91.91,0,0,1,.91.9v1.31a.91.91,0,0,1-.38.73l-5,3.48v2.39h4.46a.91.91,0,0,1,.91.9v1.31a.9.9,0,0,1-.39.74l-5,3.47v4A.75.75,0,0,1,21.37,31.69Zm-9.8-1.5h9V26.57a.75.75,0,0,1,.32-.62l5-3.52V22H21.37a.75.75,0,0,1-.75-.75V17.75a.75.75,0,0,1,.32-.62l5-3.52v-.4H21.37a.75.75,0,0,1-.75-.75V8.94a.75.75,0,0,1,.32-.62L26,4.8V4.41H21.37a.75.75,0,0,1-.75-.75V1.81h-9Zm14.67-7.93h0Zm.33-9h0Zm-.33-8.6h0Z"/><path class="cls-2" d="M16.09,11.13a3.77,3.77,0,1,1,3.77-3.72A3.75,3.75,0,0,1,16.09,11.13Zm0-6.54a2.77,2.77,0,1,0,2.77,2.81A2.76,2.76,0,0,0,16.09,4.6Z"/><path class="cls-2" d="M16.09,19.77A3.77,3.77,0,1,1,19.86,16,3.75,3.75,0,0,1,16.09,19.77Zm0-6.54A2.77,2.77,0,1,0,18.86,16,2.76,2.76,0,0,0,16.09,13.23Z"/><path class="cls-2" d="M16.09,28.4a3.77,3.77,0,1,1,3.77-3.72A3.75,3.75,0,0,1,16.09,28.4Zm0-6.54a2.77,2.77,0,1,0,2.77,2.81A2.76,2.76,0,0,0,16.09,21.87Z"/></svg>