<?xml version="1.0" encoding="utf-8"?>
<!-- Generator: Adobe Illustrator 20.1.0, SVG Export Plug-In . SVG Version: 6.00 Build 0)  -->
<svg version="1.1" id="Layer_1" xmlns="http://www.w3.org/2000/svg" xmlns:xlink="http://www.w3.org/1999/xlink" x="0px" y="0px"
	 viewBox="0 0 15 18" style="enable-background:new 0 0 15 18;" xml:space="preserve">
<style type="text/css">
	.st0{fill:none;stroke:#4C4C4C;stroke-width:1.5;stroke-linecap:round;stroke-linejoin:round;}
	.st1{fill:none;stroke:#54A5DB;stroke-linecap:round;stroke-linejoin:round;}
</style>
<title>Group 4</title>
<desc>Created with Sketch.</desc>
<g id="Typography-_x26_-Styles">
	<g id="Typography-_x26_-Colors" transform="translate(-437.000000, -2551.000000)">
		<g id="Group-4" transform="translate(437.000000, 2551.000000)">
			<path id="Stroke-1" class="st0" d="M12.7,2.9h0.7"/>
			<path id="Stroke-3" class="st0" d="M0.8,2.9h0.6"/>
			<path id="Stroke-5" class="st0" d="M1.4,2.9L2.2,16c0,0.5,0.3,0.8,0.8,0.8h8c0.5,0,0.8-0.2,0.8-0.8l0.8-13.1"/>
			<path id="Stroke-7" class="st0" d="M1.4,2.9h11.3"/>
			<path id="Stroke-9" class="st1" d="M9.4,14.4l0.4-9"/>
			<path id="Stroke-11" class="st1" d="M7,14.4v-9"/>
			<path id="Stroke-13" class="st1" d="M4.5,14.4l-0.4-9"/>
			<path id="Stroke-15" class="st0" d="M3.9,2.7V2.1c0-0.9,0.4-1.3,1.3-1.3h3.6c0.4,0,0.7,0.1,0.9,0.2c0.3,0.2,0.5,0.6,0.5,1.1v0.6"
				/>
		</g>
	</g>
</g>
</svg>
