<svg id="expanded" xmlns="http://www.w3.org/2000/svg" viewBox="0 0 32 32"><defs><style>.cls-1{fill:#54a4da;}.cls-2{fill:#4d4c4c;}</style></defs><title>utility</title><path class="cls-1" d="M25.15,31.1a6,6,0,0,1-5.95-5.58l0-.36a5.84,5.84,0,0,1,.28-1.8L8.64,12.55a5.8,5.8,0,0,1-1.76.28l-.42,0A6,6,0,0,1,.9,6.85a5.83,5.83,0,0,1,.6-2.56l.31-.63L5.95,7.79a1.24,1.24,0,0,0,.48.3,1.27,1.27,0,0,0,1.39-.3,1.32,1.32,0,0,0,.29-1.4,1.18,1.18,0,0,0-.29-.47L3.68,1.77l.64-.3a5.94,5.94,0,0,1,8.51,5l0,.35a5.88,5.88,0,0,1-.28,1.81l10.8,10.8a5.85,5.85,0,0,1,1.77-.28l.41,0a5.94,5.94,0,0,1,5,8.51l-.3.64-4.15-4.14a1.26,1.26,0,0,0-.48-.3,1.27,1.27,0,0,0-1.39.3,1.34,1.34,0,0,0-.3,1.41,1.38,1.38,0,0,0,.29.46l4.14,4.14-.63.31A5.81,5.81,0,0,1,25.15,31.1ZM8.91,11.4,20.6,23.1l-.11.3a5,5,0,0,0-.33,1.72l0,.33a5,5,0,0,0,5,4.66,4.71,4.71,0,0,0,1.46-.23l-3.1-3.11A2.4,2.4,0,0,1,23,26a2.34,2.34,0,0,1,.53-2.48A2.29,2.29,0,0,1,26,23a2.21,2.21,0,0,1,.83.53l3.1,3.09a4.84,4.84,0,0,0,.23-1.47,5,5,0,0,0-4.64-4.94l-.38,0a4.92,4.92,0,0,0-1.67.33l-.3.11L11.42,8.88l.11-.3a4.9,4.9,0,0,0,.32-1.72l0-.32A5,5,0,0,0,6.89,1.88a4.82,4.82,0,0,0-1.46.23l3.1,3.11a2.16,2.16,0,0,1,.53.84,2.31,2.31,0,0,1-3,3,2.19,2.19,0,0,1-.83-.53l-3.1-3.1A4.72,4.72,0,0,0,1.9,6.85a5,5,0,0,0,4.64,5l.39,0a5,5,0,0,0,1.67-.33Z"/><path class="cls-2" d="M4.11,31.38a3.49,3.49,0,0,1-2.46-6l8.64-8.64,4.93,4.93L6.59,30.35A3.48,3.48,0,0,1,4.11,31.38ZM10.29,18.9,2.71,26.49a2,2,0,0,0,0,2.81,2.06,2.06,0,0,0,2.82,0l7.57-7.58Z"/><path class="cls-2" d="M20.94,13.88l-2.82-2.82L22.21,7l2.07-4L28.84.61l2.55,2.55L29,7.72,25,9.79Zm-1-2.82,1,1.05,3.43-3.39,3.74-1.93L29.86,3.4,28.6,2.14,25.21,3.89l-2,3.89Z"/><path class="cls-1" d="M25.15,31.1a6,6,0,0,1-5.95-5.58l0-.36a5.84,5.84,0,0,1,.28-1.8L8.64,12.55a5.8,5.8,0,0,1-1.76.28l-.42,0A6,6,0,0,1,.9,6.85a5.83,5.83,0,0,1,.6-2.56l.31-.63L5.95,7.79a1.24,1.24,0,0,0,.48.3,1.27,1.27,0,0,0,1.39-.3,1.32,1.32,0,0,0,.29-1.4,1.18,1.18,0,0,0-.29-.47L3.68,1.77l.64-.3a5.94,5.94,0,0,1,8.51,5l0,.35a5.88,5.88,0,0,1-.28,1.81l10.8,10.8a5.85,5.85,0,0,1,1.77-.28l.41,0a5.94,5.94,0,0,1,5,8.51l-.3.64-4.15-4.14a1.26,1.26,0,0,0-.48-.3,1.27,1.27,0,0,0-1.39.3,1.34,1.34,0,0,0-.3,1.41,1.38,1.38,0,0,0,.29.46l4.14,4.14-.63.31A5.81,5.81,0,0,1,25.15,31.1ZM8.91,11.4,20.6,23.1l-.11.3a5,5,0,0,0-.33,1.72l0,.33a5,5,0,0,0,5,4.66,4.71,4.71,0,0,0,1.46-.23l-3.1-3.11A2.4,2.4,0,0,1,23,26a2.34,2.34,0,0,1,.53-2.48A2.29,2.29,0,0,1,26,23a2.21,2.21,0,0,1,.83.53l3.1,3.09a4.84,4.84,0,0,0,.23-1.47,5,5,0,0,0-4.64-4.94l-.38,0a4.92,4.92,0,0,0-1.67.33l-.3.11L11.42,8.88l.11-.3a4.9,4.9,0,0,0,.32-1.72l0-.32A5,5,0,0,0,6.89,1.88a4.82,4.82,0,0,0-1.46.23l3.1,3.11a2.16,2.16,0,0,1,.53.84,2.31,2.31,0,0,1-3,3,2.19,2.19,0,0,1-.83-.53l-3.1-3.1A4.72,4.72,0,0,0,1.9,6.85a5,5,0,0,0,4.64,5l.39,0a5,5,0,0,0,1.67-.33Z"/><path class="cls-2" d="M4.11,31.38a3.49,3.49,0,0,1-2.46-6l8.64-8.64,4.93,4.93L6.59,30.35A3.48,3.48,0,0,1,4.11,31.38ZM10.29,18.9,2.71,26.49a2,2,0,0,0,0,2.81,2.06,2.06,0,0,0,2.82,0l7.57-7.58Z"/><path class="cls-2" d="M20.94,13.88l-2.82-2.82L22.21,7l2.07-4L28.84.61l2.55,2.55L29,7.72,25,9.79Zm-1-2.82,1,1.05,3.43-3.39,3.74-1.93L29.86,3.4,28.6,2.14,25.21,3.89l-2,3.89Z"/></svg>