<svg id="expanded" xmlns="http://www.w3.org/2000/svg" viewBox="0 0 16 16"><defs><style>.cls-1{fill:#4c4c4c;}.cls-2{fill:#54a4da;}</style></defs><title>utility16</title><path class="cls-1" d="M10.41,7.24,8.76,5.59l2.11-2.11,1-2L14.29.26l1.44,1.45L14.5,4.11l-2,1Zm-.23-1.65.24.24L12,4.28l1.77-.91.76-1.47-.41-.41-1.47.76-1,1.89Z"/><path class="cls-2" d="M12.46,15.61a3.18,3.18,0,0,1-3.15-3l0-.17a3.12,3.12,0,0,1,.1-.83l-5.05-5a3,3,0,0,1-.78.11l-.23,0A3.17,3.17,0,0,1,.39,3.54,3.1,3.1,0,0,1,.71,2.18L1,1.55,3.28,3.82a.39.39,0,0,0,.15.09.35.35,0,0,0,.4-.09.38.38,0,0,0,.08-.41.32.32,0,0,0-.08-.13L1.56,1,2.2.69A3.15,3.15,0,0,1,6.71,3.33l0,.16a3.15,3.15,0,0,1-.1.83l5,5a3,3,0,0,1,.79-.11l.22,0a3.15,3.15,0,0,1,2.64,4.51l-.3.64-2.28-2.27a.38.38,0,0,0-.15-.09.33.33,0,0,0-.4.09.39.39,0,0,0-.09.42.41.41,0,0,0,.08.13L14.45,15l-.63.31A3.08,3.08,0,0,1,12.46,15.61ZM4.61,5.46l5.93,5.93-.11.3a2.17,2.17,0,0,0-.14.75v.14a2.18,2.18,0,0,0,2.35,2l-1.18-1.18a1.39,1.39,0,0,1,0-2,1.38,1.38,0,0,1,1.47-.31,1.33,1.33,0,0,1,.5.32l1.17,1.17c0-.07,0-.13,0-.2a2.17,2.17,0,0,0-2-2.15l-.2,0a2.17,2.17,0,0,0-.7.15l-.3.11L5.47,4.59l.11-.3a2.09,2.09,0,0,0,.14-.75V3.41a2.17,2.17,0,0,0-2.35-2L4.54,2.56a1.29,1.29,0,0,1,.32.51A1.38,1.38,0,0,1,3.06,4.84a1.32,1.32,0,0,1-.49-.32L1.4,3.35c0,.06,0,.13,0,.19a2.17,2.17,0,0,0,2,2.16l.2,0a2.21,2.21,0,0,0,.7-.15Z"/><path class="cls-1" d="M2.21,15.88A2.08,2.08,0,0,1,.74,12.32L5.22,7.84l2.95,2.95L3.69,15.26A2.08,2.08,0,0,1,2.21,15.88Zm3-5.92L1.8,13.38a.58.58,0,0,0,0,.82.6.6,0,0,0,.83,0L6,10.78Z"/></svg>