<svg id="expanded" xmlns="http://www.w3.org/2000/svg" viewBox="0 0 32 32"><defs><style>.cls-1{fill:#4d4c4c;}.cls-2{fill:#54a4da;}</style></defs><title>waveform</title><path class="cls-1" d="M25.89,28.13a.75.75,0,0,1-.49-1.32,14.15,14.15,0,0,0,0-21.61.75.75,0,0,1,1-1.14,15.65,15.65,0,0,1,0,23.89A.75.75,0,0,1,25.89,28.13Z"/><path class="cls-1" d="M6.11,28.13a.75.75,0,0,1-.49-.18,15.65,15.65,0,0,1,0-23.89.75.75,0,0,1,1,1.14,14.15,14.15,0,0,0,0,21.61.75.75,0,0,1-.49,1.32Z"/><path class="cls-1" d="M9.4,24.33a.75.75,0,0,1-.49-.18,10.69,10.69,0,0,1,0-16.31A.75.75,0,1,1,9.89,9a9.19,9.19,0,0,0,0,14,.75.75,0,0,1-.49,1.32Z"/><path class="cls-1" d="M22.6,24.33A.75.75,0,0,1,22.11,23a9.19,9.19,0,0,0,0-14,.75.75,0,1,1,1-1.14,10.69,10.69,0,0,1,0,16.31A.75.75,0,0,1,22.6,24.33Z"/><path class="cls-1" d="M12.7,20.54a.75.75,0,0,1-.49-.18,5.72,5.72,0,0,1,0-8.72.75.75,0,0,1,1,1.14,4.22,4.22,0,0,0,0,6.44.75.75,0,0,1-.49,1.32Z"/><path class="cls-1" d="M19.3,20.54a.75.75,0,0,1-.49-1.32,4.22,4.22,0,0,0,0-6.44.75.75,0,0,1,1-1.14,5.72,5.72,0,0,1,0,8.72A.75.75,0,0,1,19.3,20.54Z"/><circle class="cls-2" cx="16" cy="16" r="1.43"/><path class="cls-1" d="M25.89,28.13a.75.75,0,0,1-.49-1.32,14.15,14.15,0,0,0,0-21.61.75.75,0,0,1,1-1.14,15.65,15.65,0,0,1,0,23.89A.75.75,0,0,1,25.89,28.13Z"/><path class="cls-1" d="M6.11,28.13a.75.75,0,0,1-.49-.18,15.65,15.65,0,0,1,0-23.89.75.75,0,0,1,1,1.14,14.15,14.15,0,0,0,0,21.61.75.75,0,0,1-.49,1.32Z"/><path class="cls-1" d="M9.4,24.33a.75.75,0,0,1-.49-.18,10.69,10.69,0,0,1,0-16.31A.75.75,0,1,1,9.89,9a9.19,9.19,0,0,0,0,14,.75.75,0,0,1-.49,1.32Z"/><path class="cls-1" d="M22.6,24.33A.75.75,0,0,1,22.11,23a9.19,9.19,0,0,0,0-14,.75.75,0,1,1,1-1.14,10.69,10.69,0,0,1,0,16.31A.75.75,0,0,1,22.6,24.33Z"/><path class="cls-1" d="M12.7,20.54a.75.75,0,0,1-.49-.18,5.72,5.72,0,0,1,0-8.72.75.75,0,0,1,1,1.14,4.22,4.22,0,0,0,0,6.44.75.75,0,0,1-.49,1.32Z"/><path class="cls-1" d="M19.3,20.54a.75.75,0,0,1-.49-1.32,4.22,4.22,0,0,0,0-6.44.75.75,0,0,1,1-1.14,5.72,5.72,0,0,1,0,8.72A.75.75,0,0,1,19.3,20.54Z"/><circle class="cls-2" cx="16" cy="16" r="1.43"/></svg>