<svg id="expanded" xmlns="http://www.w3.org/2000/svg" viewBox="0 0 32 32"><defs><style>.cls-1{fill:#4d4c4c;}.cls-2{fill:#54a4da;}</style></defs><title>wave_angle</title><path class="cls-1" d="M26.2,27.13a.75.75,0,0,1-.22-.59A19,19,0,0,0,5.46,6a.75.75,0,1,1-.12-1.5A20.51,20.51,0,0,1,27.48,26.66a.75.75,0,0,1-1.28.47Z"/><path class="cls-1" d="M19.55,26.67a.75.75,0,0,1-.22-.59A12.43,12.43,0,0,0,5.92,12.67a.75.75,0,1,1-.12-1.5,13.93,13.93,0,0,1,15,15,.75.75,0,0,1-1.28.47Z"/><path class="cls-1" d="M12.9,26.21a.75.75,0,0,1-.22-.59,5.84,5.84,0,0,0-6.3-6.3.75.75,0,1,1-.12-1.5,7.34,7.34,0,0,1,7.92,7.92.75.75,0,0,1-1.28.47Z"/><circle class="cls-2" cx="6.34" cy="25.66" r="1.89" transform="translate(-16.28 12) rotate(-45)"/></svg>