<svg id="expanded" xmlns="http://www.w3.org/2000/svg" viewBox="0 0 32 32"><defs><style>.cls-1{fill:#4d4c4c;}.cls-2{fill:#54a4da;}</style></defs><title>wave_up</title><path class="cls-1" d="M31.08,12.43a.75.75,0,0,1-.57-.26,19,19,0,0,0-29,0,.75.75,0,1,1-1.14-1,20.51,20.51,0,0,1,31.31,0,.75.75,0,0,1-.57,1.24Z"/><path class="cls-1" d="M26.06,16.8a.75.75,0,0,1-.57-.26,12.43,12.43,0,0,0-19,0,.75.75,0,1,1-1.14-1,13.93,13.93,0,0,1,21.25,0,.75.75,0,0,1-.57,1.24Z"/><path class="cls-1" d="M21,21.18a.75.75,0,0,1-.57-.26,5.84,5.84,0,0,0-8.91,0,.75.75,0,1,1-1.14-1,7.34,7.34,0,0,1,11.2,0A.75.75,0,0,1,21,21.18Z"/><circle class="cls-2" cx="16" cy="25.43" r="1.89"/></svg>