<svg xmlns="http://www.w3.org/2000/svg" viewBox="0 0 32 32"><style type="text/css">  
	.st0{fill:#FFFFFF;}
</style><path class="st0" d="M16.3 32c-0.3 0-0.5-0.2-0.5-0.5v-31c0-0.3 0.2-0.5 0.5-0.5s0.5 0.2 0.5 0.5v31C16.7 31.8 16.5 32 16.3 32z"/><path class="st0" d="M16.5 28.6c-0.2 0-0.3 0-0.3 0 0 0 0 0 0 0 -7.2 0-8.1-6-8.1-6 -0.1-0.4 0.2-0.8 0.6-0.8C9 21.7 9.4 22 9.5 22.4c0 0.2 0.8 4.8 6.8 4.8 0.1 0 3 0.2 4.8-1.5 1-0.9 1.5-2.3 1.5-4 0-4.6-6.4-5.6-6.4-5.7 -5-1-7.4-3.3-7.3-6.8l0-0.2c0-1.6 1.3-5.9 7.4-5.9 6.5 0 7.1 5.2 7.1 5.3 0 0.4-0.3 0.8-0.7 0.8 -0.4 0-0.8-0.3-0.8-0.7 0-0.2-0.5-3.9-5.7-3.9 -5.9 0-5.9 4.4-5.9 4.4 0 0.1 0 0.1 0 0.2 0 1.1-0.2 4 6.1 5.3 2.6 0.4 7.6 2.4 7.6 7.1 0 2.2-0.7 3.9-2 5.1C20.1 28.4 17.4 28.6 16.5 28.6z"/></svg>