<svg id="expanded_thinner" data-name="expanded thinner" xmlns="http://www.w3.org/2000/svg" viewBox="0 0 32 32"><defs><style>.cls-1{fill:#54a4da;}.cls-2{fill:#4c4c4c;}</style></defs><title>world</title><path class="cls-1" d="M12.14,30.78H12a.38.38,0,0,1-.27-.46L19.5,1.49a.37.37,0,1,1,.72.19L12.5,30.51A.37.37,0,0,1,12.14,30.78Z"/><path class="cls-1" d="M30.41,20.24h-.1L1.49,12.5a.38.38,0,0,1,.19-.72L30.51,19.5a.38.38,0,0,1-.1.74Z"/><path class="cls-1" d="M25.73,27.53a.38.38,0,0,1-.15,0A85.11,85.11,0,0,0,2,21.16.37.37,0,1,1,2,20.42a85.83,85.83,0,0,1,23.84,6.39.37.37,0,0,1-.15.72Z"/><path class="cls-1" d="M30,11.58h0A85.83,85.83,0,0,1,6.12,5.19a.38.38,0,1,1,.3-.69A85.11,85.11,0,0,0,30,10.84a.37.37,0,0,1,0,.75Z"/><path class="cls-1" d="M13.27,30.93A4.7,4.7,0,0,1,12,30.77C7.64,29.59,5.83,22,8,13.86a23.4,23.4,0,0,1,5.05-9.75C15.33,1.67,17.78.64,20,1.23c4.41,1.18,6.21,8.77,4,16.91a23.4,23.4,0,0,1-5.05,9.75C17.09,29.88,15.11,30.93,13.27,30.93ZM18.73,1.82c-1.64,0-3.42,1-5.12,2.8a22.65,22.65,0,0,0-4.88,9.43C6.66,21.8,8.23,29,12.24,30c1.89.51,4.08-.44,6.15-2.67a22.65,22.65,0,0,0,4.88-9.43c2.08-7.75.5-14.92-3.5-16A4,4,0,0,0,18.73,1.82Z"/><path class="cls-2" d="M16,31.42A15.42,15.42,0,1,1,30.89,20h0A15.45,15.45,0,0,1,16,31.42ZM16,1.58a14.42,14.42,0,1,0,3.73.49A14.44,14.44,0,0,0,16,1.58Zm14.4,18.28h0Z"/></svg>