<svg id="expanded" xmlns="http://www.w3.org/2000/svg" viewBox="0 0 32 32"><defs><style>.cls-1{fill:#54a4da;}.cls-2{fill:#4d4c4c;}</style></defs><title>world</title><path class="cls-1" d="M12.14,30.91l-.13,0a.5.5,0,0,1-.35-.61L19.38,1.46A.51.51,0,0,1,20,1.11a.5.5,0,0,1,.35.61L12.62,30.54A.5.5,0,0,1,12.14,30.91Z"/><path class="cls-1" d="M30.41,20.36l-.13,0L1.46,12.62A.5.5,0,0,1,1.11,12a.51.51,0,0,1,.61-.35l28.82,7.72a.5.5,0,0,1-.13,1Z"/><path class="cls-1" d="M25.73,27.65a.49.49,0,0,1-.2,0,85,85,0,0,0-23.6-6.32.5.5,0,0,1-.44-.55.49.49,0,0,1,.56-.44,85.94,85.94,0,0,1,23.88,6.4.5.5,0,0,1-.2,1Z"/><path class="cls-1" d="M30,11.71h-.06A85.94,85.94,0,0,1,6.07,5.31a.5.5,0,1,1,.39-.92,85,85,0,0,0,23.6,6.32.5.5,0,0,1-.06,1Z"/><path class="cls-1" d="M13.27,31.06A4.87,4.87,0,0,1,12,30.89c-4.55-1.22-6.36-8.71-4.12-17.07A23.52,23.52,0,0,1,13,4c2.3-2.48,4.79-3.51,7-2.92,4.55,1.22,6.36,8.71,4.12,17.07A23.52,23.52,0,0,1,19,28C17.15,30,15.15,31.06,13.27,31.06ZM18.73,1.94c-1.6,0-3.35,1-5,2.76a22.53,22.53,0,0,0-4.85,9.38c-2.06,7.68-.53,14.78,3.41,15.84,1.85.5,4-.44,6-2.63a22.53,22.53,0,0,0,4.85-9.38c2.06-7.68.53-14.78-3.41-15.84A3.83,3.83,0,0,0,18.73,1.94Z"/><path class="cls-2" d="M16,31.67A15.67,15.67,0,1,1,31.13,20.06h0A15.7,15.7,0,0,1,16,31.67ZM16,1.83a14.17,14.17,0,1,0,3.66.48A14.19,14.19,0,0,0,16,1.83Zm14.4,18h0Z"/><path class="cls-1" d="M12.14,30.91l-.13,0a.5.5,0,0,1-.35-.61L19.38,1.46A.51.51,0,0,1,20,1.11a.5.5,0,0,1,.35.61L12.62,30.54A.5.5,0,0,1,12.14,30.91Z"/><path class="cls-1" d="M30.41,20.36l-.13,0L1.46,12.62A.5.5,0,0,1,1.11,12a.51.51,0,0,1,.61-.35l28.82,7.72a.5.5,0,0,1-.13,1Z"/><path class="cls-1" d="M25.73,27.65a.49.49,0,0,1-.2,0,85,85,0,0,0-23.6-6.32.5.5,0,0,1-.44-.55.49.49,0,0,1,.56-.44,85.94,85.94,0,0,1,23.88,6.4.5.5,0,0,1-.2,1Z"/><path class="cls-1" d="M30,11.71h-.06A85.94,85.94,0,0,1,6.07,5.31a.5.5,0,1,1,.39-.92,85,85,0,0,0,23.6,6.32.5.5,0,0,1-.06,1Z"/><path class="cls-1" d="M13.27,31.06A4.87,4.87,0,0,1,12,30.89c-4.55-1.22-6.36-8.71-4.12-17.07A23.52,23.52,0,0,1,13,4c2.3-2.48,4.79-3.51,7-2.92,4.55,1.22,6.36,8.71,4.12,17.07A23.52,23.52,0,0,1,19,28C17.15,30,15.15,31.06,13.27,31.06ZM18.73,1.94c-1.6,0-3.35,1-5,2.76a22.53,22.53,0,0,0-4.85,9.38c-2.06,7.68-.53,14.78,3.41,15.84,1.85.5,4-.44,6-2.63a22.53,22.53,0,0,0,4.85-9.38c2.06-7.68.53-14.78-3.41-15.84A3.83,3.83,0,0,0,18.73,1.94Z"/><path class="cls-2" d="M16,31.67A15.67,15.67,0,1,1,31.13,20.06h0A15.7,15.7,0,0,1,16,31.67ZM16,1.83a14.17,14.17,0,1,0,3.66.48A14.19,14.19,0,0,0,16,1.83Zm14.4,18h0Z"/></svg>